<?xml version="1.0" standalone="yes"?><!DOCTYPE svg PUBLIC "-//W3C//DTD SVG 1.1//EN" "http://www.w3.org/Graphics/SVG/1.1/DTD/svg11.dtd"[
<!ENTITY E4 'matrix(1.00 0.00 0.00 1.00 84.00 4.00 ) '><!ENTITY E3 'stroke:rgb(169,169,169);fill:none;stroke-linecap:butt;stroke-miterlimit:9;opacity:1;stroke-width:2;stroke-linejoin:miter;'><!ENTITY E7 'stroke:rgb(255,255,255);fill:none;stroke-linecap:butt;stroke-miterlimit:9;opacity:1;stroke-width:2;stroke-linejoin:miter;'><!ENTITY E12 'matrix(1.00 0.00 0.00 1.00 4.00 4.00 ) '><!ENTITY E10 'matrix(1.00 0.00 0.00 1.00 0.00 0.00 ) '>
]><svg width="138.446" height="52.82519" id="SvgGdi_output" xmlns="http://www.w3.org/2000/svg" xmlns:xlink="http://www.w3.org/1999/xlink"><rect id="background" height="100.00%" style="fill:rgb(255,255,255);" width="100.00%" y="0.00" x="0.00" /><g style="shape-rendering:auto;" id="root_group"><line y1="19.00" id="2" x2="80.00" y2="19.00" x1="38.00" style="stroke:rgb(169,169,169);fill:none;stroke-linecap:butt;stroke-miterlimit:9;opacity:1;stroke-width:1;stroke-linejoin:miter;" /><path style="&E3;" transform="&E4;" id="36" d="M 10.158 33.2 C 3.4054 31.7591 -1.861 26.4692 -3.271 19.71 " /><ellipse id="37" cy="15.00" cx="15.00" transform="&E4;" rx="15.00" ry="15.00" style="stroke:none;opacity:1;fill:rgb(155,91,179);" /><path style="&E7;" transform="&E4;" id="43" d="M 7.3965 19.566 7.3965 10.8433 " /><path style="&E7;" transform="&E4;" id="44" d="M 11.085 22.137 14.2178 8.273999 " /><ellipse id="45" cy="15.15" cx="20.49" transform="&E4;" rx="4.18" ry="4.18" style="&E7;" /><text id="46" transform="&E10;" x="84.00px" y="39.00px" style="stroke:none;clip-path:url(#48_text_clipper);font-family:Microsoft Sans Serif;fill:rgb(0,0,0);font-size:8.25pt;opacity:1;"><tspan dy="8.25pt" id="50">CsvWriter</tspan></text><path style="&E3;" transform="&E12;" id="55" d="M 31.179 5.2 C 34.9985 11.0918 34.9814 18.682 31.13552 24.557 " /><ellipse id="56" cy="15.00" cx="15.00" transform="&E12;" rx="15.00" ry="15.00" style="stroke:none;opacity:1;fill:rgb(91,178,126);" /><path transform="&E12;" id="59" style="stroke:none;fill-rule:evenodd;opacity:1;fill:rgb(255,255,255);" d="M 11.529 25.444 20.7834 12.908 16.3203 12.908 18.355 4.7687 9.100601 17.3047 13.5637 17.3047 z " /><text id="60" transform="&E10;" x="4.00px" y="39.00px" style="stroke:none;clip-path:url(#62_text_clipper);font-family:Microsoft Sans Serif;fill:rgb(0,0,0);font-size:8.25pt;opacity:1;"><tspan dy="8.25pt" id="64">AnalogInput</tspan></text></g><defs id="clips_hatches_and_gradients"><clipPath id="48_text_clipper"><rect x="84.00" y="39.00" width="53.45" height="13.83" id="49" /></clipPath><clipPath id="62_text_clipper"><rect x="4.00" y="39.00" width="64.20" height="13.83" id="63" /></clipPath></defs></svg>