<?xml version="1.0" standalone="yes"?><!DOCTYPE svg PUBLIC "-//W3C//DTD SVG 1.1//EN" "http://www.w3.org/Graphics/SVG/1.1/DTD/svg11.dtd"[
<!ENTITY E12 'stroke:none;opacity:1;fill:rgb(68,154,223);'><!ENTITY E3 'stroke:rgb(169,169,169);fill:none;stroke-linecap:butt;stroke-miterlimit:9;opacity:1;stroke-width:2;stroke-linejoin:miter;'><!ENTITY E10 'matrix(1.00 0.00 0.00 1.00 0.00 0.00 ) '><!ENTITY E11 'matrix(1.00 0.00 0.00 1.00 484.00 4.00 ) '><!ENTITY E4 'matrix(1.00 0.00 0.00 1.00 564.00 4.00 ) '><!ENTITY E7 'stroke:rgb(255,255,255);fill:none;stroke-linecap:butt;stroke-miterlimit:9;opacity:1;stroke-width:2;stroke-linejoin:miter;'><!ENTITY E1 'stroke:rgb(169,169,169);fill:none;stroke-linecap:butt;stroke-miterlimit:9;opacity:1;stroke-width:1;stroke-linejoin:miter;'><!ENTITY E30 'matrix(1.00 0.00 0.00 1.00 4.00 4.00 ) '><!ENTITY E15 'stroke:none;opacity:1;fill:rgb(255,255,255);'><!ENTITY E25 'matrix(1.00 0.00 0.00 1.00 164.00 4.00 ) '><!ENTITY E27 'matrix(1.00 0.00 0.00 1.00 84.00 4.00 ) '><!ENTITY E20 'matrix(1.00 0.00 0.00 1.00 324.00 4.00 ) '><!ENTITY E23 'matrix(1.00 0.00 0.00 1.00 244.00 4.00 ) '><!ENTITY E13 'M 18.422 13 13.4357 18.5006 10.8556 15.9868 6.500101 20.5001 23.9571 20.48582 z '><!ENTITY E17 'matrix(1.00 0.00 0.00 1.00 404.00 4.00 ) '><!ENTITY E14 'stroke:none;fill-rule:evenodd;opacity:1;fill:rgb(255,255,255);'>
]><svg width="618.4459" height="66.65038" id="SvgGdi_output" xmlns="http://www.w3.org/2000/svg" xmlns:xlink="http://www.w3.org/1999/xlink"><rect id="background" height="100.00%" style="fill:rgb(255,255,255);" width="100.00%" y="0.00" x="0.00" /><g style="shape-rendering:auto;" id="root_group"><line y1="19.00" style="&E1;" id="2" x2="560.00" y2="19.00" x1="518.00" /><line y1="19.00" style="&E1;" id="3" x2="480.00" y2="19.00" x1="438.00" /><line y1="19.00" style="&E1;" id="4" x2="400.00" y2="19.00" x1="358.00" /><line y1="19.00" style="&E1;" id="5" x2="320.00" y2="19.00" x1="278.00" /><line y1="19.00" style="&E1;" id="6" x2="240.00" y2="19.00" x1="198.00" /><line y1="19.00" style="&E1;" id="7" x2="160.00" y2="19.00" x1="118.00" /><line y1="19.00" style="&E1;" id="8" x2="80.00" y2="19.00" x1="38.00" /><path style="&E3;" transform="&E4;" id="42" d="M 10.158 33.2 C 3.4054 31.7591 -1.861 26.4692 -3.271 19.71 " /><ellipse id="43" cy="15.00" cx="15.00" transform="&E4;" rx="15.00" ry="15.00" style="stroke:none;opacity:1;fill:rgb(155,91,179);" /><path style="&E7;" transform="&E4;" id="49" d="M 7.3965 19.566 7.3965 10.8433 " /><path style="&E7;" transform="&E4;" id="50" d="M 11.085 22.137 14.2178 8.273999 " /><ellipse id="51" cy="15.15" cx="20.49" transform="&E4;" rx="4.18" ry="4.18" style="&E7;" /><text id="52" transform="&E10;" x="564.00px" y="39.00px" style="stroke:none;clip-path:url(#54_text_clipper);font-family:Microsoft Sans Serif;fill:rgb(0,0,0);font-size:8.25pt;opacity:1;"><tspan dy="8.25pt" id="56">CsvWriter</tspan></text><ellipse id="60" cy="15.00" cx="15.00" transform="&E11;" rx="15.00" ry="15.00" style="&E12;" /><path d="&E13;" style="&E14;" transform="&E11;" id="64" /><ellipse id="65" cy="10.96" cx="10.92" transform="&E11;" rx="2.75" ry="2.75" style="&E15;" /><text id="66" transform="&E10;" x="484.00px" y="39.00px" style="stroke:none;clip-path:url(#68_text_clipper);font-family:Microsoft Sans Serif;fill:rgb(0,0,0);font-size:8.25pt;opacity:1;"><tspan dy="8.25pt" id="70">Centroid</tspan></text><ellipse id="72" cy="15.00" cx="15.00" transform="&E17;" rx="15.00" ry="15.00" style="&E12;" /><path d="&E13;" style="&E14;" transform="&E17;" id="73" /><ellipse id="74" cy="10.96" cx="10.92" transform="&E17;" rx="2.75" ry="2.75" style="&E15;" /><text id="75" transform="&E10;" x="404.00px" y="39.00px" style="stroke:none;clip-path:url(#77_text_clipper);font-family:Microsoft Sans Serif;fill:rgb(0,0,0);font-size:8.25pt;opacity:1;"><tspan dy="8.25pt" id="79">LargestBinary</tspan></text><text id="81" transform="&E10;" x="404.00px" y="51.45px" style="stroke:none;clip-path:url(#83_text_clipper);font-family:Microsoft Sans Serif;fill:rgb(0,0,0);font-size:8.25pt;opacity:1;"><tspan dy="8.25pt" id="85">Region</tspan></text><ellipse id="87" cy="15.00" cx="15.00" transform="&E20;" rx="15.00" ry="15.00" style="&E12;" /><path d="&E13;" style="&E14;" transform="&E20;" id="88" /><ellipse id="89" cy="10.96" cx="10.92" transform="&E20;" rx="2.75" ry="2.75" style="&E15;" /><text id="90" transform="&E10;" x="324.00px" y="39.00px" style="stroke:none;clip-path:url(#92_text_clipper);font-family:Microsoft Sans Serif;fill:rgb(0,0,0);font-size:8.25pt;opacity:1;"><tspan dy="8.25pt" id="94">BinaryRegion</tspan></text><text id="96" transform="&E10;" x="324.00px" y="51.45px" style="stroke:none;clip-path:url(#98_text_clipper);font-family:Microsoft Sans Serif;fill:rgb(0,0,0);font-size:8.25pt;opacity:1;"><tspan dy="8.25pt" id="100">Analysis</tspan></text><ellipse id="102" cy="15.00" cx="15.00" transform="&E23;" rx="15.00" ry="15.00" style="&E12;" /><path d="&E13;" style="&E14;" transform="&E23;" id="103" /><ellipse id="104" cy="10.96" cx="10.92" transform="&E23;" rx="2.75" ry="2.75" style="&E15;" /><text id="105" transform="&E10;" x="244.00px" y="39.00px" style="stroke:none;clip-path:url(#107_text_clipper);font-family:Microsoft Sans Serif;fill:rgb(0,0,0);font-size:8.25pt;opacity:1;"><tspan dy="8.25pt" id="109">FindContours</tspan></text><ellipse id="111" cy="15.00" cx="15.00" transform="&E25;" rx="15.00" ry="15.00" style="&E12;" /><path d="&E13;" style="&E14;" transform="&E25;" id="112" /><ellipse id="113" cy="10.96" cx="10.92" transform="&E25;" rx="2.75" ry="2.75" style="&E15;" /><text id="114" transform="&E10;" x="164.00px" y="39.00px" style="stroke:none;clip-path:url(#116_text_clipper);font-family:Microsoft Sans Serif;fill:rgb(0,0,0);font-size:8.25pt;opacity:1;"><tspan dy="8.25pt" id="118">HsvThreshold</tspan></text><ellipse id="120" cy="15.00" cx="15.00" transform="&E27;" rx="15.00" ry="15.00" style="&E12;" /><path d="&E13;" style="&E14;" transform="&E27;" id="121" /><ellipse id="122" cy="10.96" cx="10.92" transform="&E27;" rx="2.75" ry="2.75" style="&E15;" /><text id="123" transform="&E10;" x="84.00px" y="39.00px" style="stroke:none;clip-path:url(#125_text_clipper);font-family:Microsoft Sans Serif;fill:rgb(0,0,0);font-size:8.25pt;opacity:1;"><tspan dy="8.25pt" id="127">ConvertColor</tspan></text><path style="&E3;" transform="&E30;" id="132" d="M 31.179 5.2 C 34.9985 11.0918 34.9814 18.682 31.13552 24.557 " /><ellipse id="133" cy="15.00" cx="15.00" transform="&E30;" rx="15.00" ry="15.00" style="stroke:none;opacity:1;fill:rgb(91,178,126);" /><path style="&E14;" transform="&E30;" id="137" d="M 23.75 9.1 19.5587 11.5211 19.5587 18.3937 23.75 20.8147 z " /><path style="&E14;" transform="&E30;" id="138" d="M 8.6927 9.2 15.7194 9.2 C 17.19 9.2 18.3739 10.4337 18.3739 11.9661 L 18.3739 17.8234 C 18.3739 19.3558 17.19 20.5893 15.7194 20.5893 L 8.692701 20.5893 C 7.222101 20.5893 6.038201 19.3558 6.038201 17.8234 L 6.038201 11.9661 C 6.038201 10.4337 7.222101 9.199999 8.692701 9.199999 z " /><text id="139" transform="&E10;" x="4.00px" y="39.00px" style="stroke:none;clip-path:url(#141_text_clipper);font-family:Microsoft Sans Serif;fill:rgb(0,0,0);font-size:8.25pt;opacity:1;"><tspan dy="8.25pt" id="143">Camera</tspan></text><text id="145" transform="&E10;" x="4.00px" y="51.45px" style="stroke:none;clip-path:url(#147_text_clipper);font-family:Microsoft Sans Serif;fill:rgb(0,0,0);font-size:8.25pt;opacity:1;"><tspan dy="8.25pt" id="149">Capture</tspan></text></g><defs id="clips_hatches_and_gradients"><clipPath id="54_text_clipper"><rect x="564.00" y="39.00" width="53.45" height="13.83" id="55" /></clipPath><clipPath id="68_text_clipper"><rect x="484.00" y="39.00" width="46.55" height="13.83" id="69" /></clipPath><clipPath id="77_text_clipper"><rect x="404.00" y="39.00" width="73.63" height="27.65" id="78" /></clipPath><clipPath id="83_text_clipper"><rect x="404.00" y="51.45" width="73.63" height="27.65" id="84" /></clipPath><clipPath id="92_text_clipper"><rect x="324.00" y="39.00" width="71.81" height="27.65" id="93" /></clipPath><clipPath id="98_text_clipper"><rect x="324.00" y="51.45" width="71.81" height="27.65" id="99" /></clipPath><clipPath id="107_text_clipper"><rect x="244.00" y="39.00" width="71.74" height="13.83" id="108" /></clipPath><clipPath id="116_text_clipper"><rect x="164.00" y="39.00" width="73.63" height="13.83" id="117" /></clipPath><clipPath id="125_text_clipper"><rect x="84.00" y="39.00" width="70.47" height="13.83" id="126" /></clipPath><clipPath id="141_text_clipper"><rect x="4.00" y="39.00" width="43.97" height="27.65" id="142" /></clipPath><clipPath id="147_text_clipper"><rect x="4.00" y="51.45" width="43.97" height="27.65" id="148" /></clipPath></defs></svg>