<?xml version="1.0" standalone="yes"?><!DOCTYPE svg PUBLIC "-//W3C//DTD SVG 1.1//EN" "http://www.w3.org/Graphics/SVG/1.1/DTD/svg11.dtd"[
<!ENTITY E12 'stroke:none;opacity:1;fill:rgb(68,154,223);'><!ENTITY E23 'stroke:none;opacity:1;fill:rgb(255,255,255);'><!ENTITY E10 'matrix(1.00 0.00 0.00 1.00 0.00 0.00 ) '><!ENTITY E14 'stroke:none;fill-rule:evenodd;opacity:1;fill:rgb(255,255,255);'><!ENTITY E3 'stroke:rgb(169,169,169);fill:none;stroke-linecap:butt;stroke-miterlimit:9;opacity:1;stroke-width:2;stroke-linejoin:miter;'><!ENTITY E7 'stroke:rgb(255,255,255);fill:none;stroke-linecap:butt;stroke-miterlimit:9;opacity:1;stroke-width:2;stroke-linejoin:miter;'><!ENTITY E26 'matrix(1.00 0.00 0.00 1.00 84.00 4.00 ) '><!ENTITY E29 'matrix(1.00 0.00 0.00 1.00 4.00 4.00 ) '><!ENTITY E21 'matrix(1.00 0.00 0.00 1.00 164.00 4.00 ) '><!ENTITY E11 'matrix(1.00 0.00 0.00 1.00 324.00 4.00 ) '><!ENTITY E18 'matrix(1.00 0.00 0.00 1.00 244.00 4.00 ) '><!ENTITY E22 'M 18.422 13 13.4357 18.5006 10.8556 15.9868 6.500101 20.5001 23.9571 20.48582 z '><!ENTITY E4 'matrix(1.00 0.00 0.00 1.00 404.00 4.00 ) '><!ENTITY E1 'stroke:rgb(169,169,169);fill:none;stroke-linecap:butt;stroke-miterlimit:9;opacity:1;stroke-width:1;stroke-linejoin:miter;'>
]><svg width="458.446" height="66.65038" id="SvgGdi_output" xmlns="http://www.w3.org/2000/svg" xmlns:xlink="http://www.w3.org/1999/xlink"><rect id="background" height="100.00%" style="fill:rgb(255,255,255);" width="100.00%" y="0.00" x="0.00" /><g style="shape-rendering:auto;" id="root_group"><line y1="19.00" style="&E1;" id="2" x2="400.00" y2="19.00" x1="358.00" /><line y1="19.00" style="&E1;" id="3" x2="320.00" y2="19.00" x1="278.00" /><line y1="19.00" style="&E1;" id="4" x2="240.00" y2="19.00" x1="198.00" /><line y1="19.00" style="&E1;" id="5" x2="160.00" y2="19.00" x1="118.00" /><line y1="19.00" style="&E1;" id="6" x2="80.00" y2="19.00" x1="38.00" /><path style="&E3;" transform="&E4;" id="40" d="M 10.158 33.2 C 3.4054 31.7591 -1.861 26.4692 -3.271 19.71 " /><ellipse id="41" cy="15.00" cx="15.00" transform="&E4;" rx="15.00" ry="15.00" style="stroke:none;opacity:1;fill:rgb(155,91,179);" /><path style="&E7;" transform="&E4;" id="47" d="M 7.3965 19.566 7.3965 10.8433 " /><path style="&E7;" transform="&E4;" id="48" d="M 11.085 22.137 14.2178 8.273999 " /><ellipse id="49" cy="15.15" cx="20.49" transform="&E4;" rx="4.18" ry="4.18" style="&E7;" /><text id="50" transform="&E10;" x="404.00px" y="39.00px" style="stroke:none;clip-path:url(#52_text_clipper);font-family:Microsoft Sans Serif;fill:rgb(0,0,0);font-size:8.25pt;opacity:1;"><tspan dy="8.25pt" id="54">CsvWriter</tspan></text><ellipse id="58" cy="15.00" cx="15.00" transform="&E11;" rx="15.00" ry="15.00" style="&E12;" /><path style="&E14;" transform="&E11;" id="63" d="M 19.156 13.888 19.156 10.3647 19.156 6.841399 25.2585 10.3647 22.2072 12.1264 z " /><path style="&E14;" transform="&E11;" id="64" d="M 19.156 22.97 19.156 19.4467 19.156 15.9234 25.2585 19.4467 22.2072 21.2084 z " /><path style="&E7;" transform="&E11;" id="65" d="M 5.5001 19.484 10.6493 19.484 16.2743 10.2485 19.3728 10.2485 M 14.6769 17.1481 16.3089 19.4828 19.2202 19.4828 M 5.500199 10.2437 10.7586 10.2437 12.1652 12.8707 " /><text id="66" transform="&E10;" x="324.00px" y="39.00px" style="stroke:none;clip-path:url(#68_text_clipper);font-family:Microsoft Sans Serif;fill:rgb(0,0,0);font-size:8.25pt;opacity:1;"><tspan dy="8.25pt" id="70">Val0</tspan></text><ellipse id="72" cy="15.00" cx="15.00" transform="&E18;" rx="15.00" ry="15.00" style="&E12;" /><path style="&E7;" transform="&E18;" id="75" d="M 20.824 23.115 20.824 7.098999 M 17.3572 17.48 17.3572 12.7339 M 13.8904 21.2046 13.8904 9.009602 M 10.4236 18.6248 10.4236 11.5896 M 6.9568 16.3923 6.9568 13.822 " /><text id="76" transform="&E10;" x="244.00px" y="39.00px" style="stroke:none;clip-path:url(#78_text_clipper);font-family:Microsoft Sans Serif;fill:rgb(0,0,0);font-size:8.25pt;opacity:1;"><tspan dy="8.25pt" id="80">Sum</tspan></text><ellipse id="82" cy="15.00" cx="15.00" transform="&E21;" rx="15.00" ry="15.00" style="&E12;" /><path d="&E22;" style="&E14;" transform="&E21;" id="86" /><ellipse id="87" cy="10.96" cx="10.92" transform="&E21;" rx="2.75" ry="2.75" style="&E23;" /><text id="88" transform="&E10;" x="164.00px" y="39.00px" style="stroke:none;clip-path:url(#90_text_clipper);font-family:Microsoft Sans Serif;fill:rgb(0,0,0);font-size:8.25pt;opacity:1;"><tspan dy="8.25pt" id="92">Background</tspan></text><text id="94" transform="&E10;" x="164.00px" y="51.45px" style="stroke:none;clip-path:url(#96_text_clipper);font-family:Microsoft Sans Serif;fill:rgb(0,0,0);font-size:8.25pt;opacity:1;"><tspan dy="8.25pt" id="98">Subtraction</tspan></text><ellipse id="100" cy="15.00" cx="15.00" transform="&E26;" rx="15.00" ry="15.00" style="&E12;" /><path d="&E22;" style="&E14;" transform="&E26;" id="101" /><ellipse id="102" cy="10.96" cx="10.92" transform="&E26;" rx="2.75" ry="2.75" style="&E23;" /><text id="103" transform="&E10;" x="84.00px" y="39.00px" style="stroke:none;clip-path:url(#105_text_clipper);font-family:Microsoft Sans Serif;fill:rgb(0,0,0);font-size:8.25pt;opacity:1;"><tspan dy="8.25pt" id="107">Grayscale</tspan></text><path style="&E3;" transform="&E29;" id="112" d="M 31.179 5.2 C 34.9985 11.0918 34.9814 18.682 31.13552 24.557 " /><ellipse id="113" cy="15.00" cx="15.00" transform="&E29;" rx="15.00" ry="15.00" style="stroke:none;opacity:1;fill:rgb(91,178,126);" /><path style="&E14;" transform="&E29;" id="117" d="M 23.75 9.1 19.5587 11.5211 19.5587 18.3937 23.75 20.8147 z " /><path style="&E14;" transform="&E29;" id="118" d="M 8.6927 9.2 15.7194 9.2 C 17.19 9.2 18.3739 10.4337 18.3739 11.9661 L 18.3739 17.8234 C 18.3739 19.3558 17.19 20.5893 15.7194 20.5893 L 8.692701 20.5893 C 7.222101 20.5893 6.038201 19.3558 6.038201 17.8234 L 6.038201 11.9661 C 6.038201 10.4337 7.222101 9.199999 8.692701 9.199999 z " /><text id="119" transform="&E10;" x="4.00px" y="39.00px" style="stroke:none;clip-path:url(#121_text_clipper);font-family:Microsoft Sans Serif;fill:rgb(0,0,0);font-size:8.25pt;opacity:1;"><tspan dy="8.25pt" id="123">Camera</tspan></text><text id="125" transform="&E10;" x="4.00px" y="51.45px" style="stroke:none;clip-path:url(#127_text_clipper);font-family:Microsoft Sans Serif;fill:rgb(0,0,0);font-size:8.25pt;opacity:1;"><tspan dy="8.25pt" id="129">Capture</tspan></text></g><defs id="clips_hatches_and_gradients"><clipPath id="52_text_clipper"><rect x="404.00" y="39.00" width="53.45" height="13.83" id="53" /></clipPath><clipPath id="68_text_clipper"><rect x="324.00" y="39.00" width="26.41" height="13.83" id="69" /></clipPath><clipPath id="78_text_clipper"><rect x="244.00" y="39.00" width="26.96" height="13.83" id="79" /></clipPath><clipPath id="90_text_clipper"><rect x="164.00" y="39.00" width="64.13" height="27.65" id="91" /></clipPath><clipPath id="96_text_clipper"><rect x="164.00" y="51.45" width="64.13" height="27.65" id="97" /></clipPath><clipPath id="105_text_clipper"><rect x="84.00" y="39.00" width="54.74" height="13.83" id="106" /></clipPath><clipPath id="121_text_clipper"><rect x="4.00" y="39.00" width="43.97" height="27.65" id="122" /></clipPath><clipPath id="127_text_clipper"><rect x="4.00" y="51.45" width="43.97" height="27.65" id="128" /></clipPath></defs></svg>