<?xml version="1.0" standalone="yes"?><!DOCTYPE svg PUBLIC "-//W3C//DTD SVG 1.1//EN" "http://www.w3.org/Graphics/SVG/1.1/DTD/svg11.dtd"[
<!ENTITY E19 'stroke:none;opacity:1;fill:rgb(255,255,255);'><!ENTITY E4 'matrix(1.00 0.00 0.00 1.00 84.00 4.00 ) '><!ENTITY E3 'stroke:rgb(169,169,169);fill:none;stroke-linecap:butt;stroke-miterlimit:9;opacity:1;stroke-width:2;stroke-linejoin:miter;'><!ENTITY E11 'matrix(1.00 0.00 0.00 1.00 84.00 84.00 ) '><!ENTITY E6 'M 11.529 25.444 20.7834 12.908 16.3203 12.908 18.355 4.7687 9.100601 17.3047 13.5637 17.3047 z '><!ENTITY E14 'matrix(1.00 0.00 0.00 1.00 84.00 164.00 ) '><!ENTITY E2 'M 31.179 5.2 C 34.9985 11.0918 34.9814 18.682 31.13552 24.557 '><!ENTITY E16 'matrix(1.00 0.00 0.00 1.00 4.00 84.00 ) '><!ENTITY E7 'stroke:none;fill-rule:evenodd;opacity:1;fill:rgb(255,255,255);'><!ENTITY E5 'stroke:none;opacity:1;fill:rgb(91,178,126);'><!ENTITY E9 'matrix(1.00 0.00 0.00 1.00 0.00 0.00 ) '>
]><svg width="158.0182" height="212.8252" id="SvgGdi_output" xmlns="http://www.w3.org/2000/svg"><rect id="background" height="100.00%" style="fill:rgb(255,255,255);" width="100.00%" y="0.00" x="0.00" /><g style="shape-rendering:auto;" id="root_group"><line y1="99.00" id="56" x2="80.00" y2="99.00" x1="38.00" style="stroke:rgb(169,169,169);fill:none;stroke-linecap:butt;stroke-miterlimit:9;opacity:1;stroke-width:1;stroke-linejoin:miter;" /><path d="&E2;" style="&E3;" transform="&E4;" id="57" /><ellipse id="58" cy="15.00" cx="15.00" transform="&E4;" rx="15.00" ry="15.00" style="&E5;" /><path d="&E6;" style="&E7;" transform="&E4;" id="59" /><text id="60" transform="&E9;" x="84.00" y="39.00" style="stroke:none;clip-path:url(#62_text_clipper);font-family:Microsoft Sans Serif;fill:rgb(0,0,0);font-size:8.25pt;opacity:1;"><tspan dy="8.25pt" id="64">MyArduino</tspan></text><path style="&E3;" transform="&E11;" id="66" d="M 10.158 33.2 C 3.4054 31.7591 -1.861 26.4692 -3.271 19.71 " /><ellipse id="67" cy="15.00" cx="15.00" transform="&E11;" rx="15.00" ry="15.00" style="stroke:none;opacity:1;fill:rgb(155,91,179);" /><path d="&E6;" style="&E7;" transform="&E11;" id="68" /><text id="69" transform="&E9;" x="84.00" y="119.00" style="stroke:none;clip-path:url(#71_text_clipper);font-family:Microsoft Sans Serif;fill:rgb(0,0,0);font-size:8.25pt;opacity:1;"><tspan dy="8.25pt" id="73">AnalogOutput</tspan></text><path d="&E2;" style="&E3;" transform="&E14;" id="75" /><ellipse id="76" cy="15.00" cx="15.00" transform="&E14;" rx="15.00" ry="15.00" style="&E5;" /><path d="&E6;" style="&E7;" transform="&E14;" id="77" /><text id="78" transform="&E9;" x="84.00" y="199.00" style="stroke:none;clip-path:url(#80_text_clipper);font-family:Microsoft Sans Serif;fill:rgb(0,0,0);font-size:8.25pt;opacity:1;"><tspan dy="8.25pt" id="82">AnalogInput</tspan></text><path d="&E2;" style="&E3;" transform="&E16;" id="84" /><ellipse id="85" cy="15.00" cx="15.00" transform="&E16;" rx="15.00" ry="15.00" style="&E5;" /><path transform="&E16;" id="86" d="M 16.849 10.062 23.4027 10.062 M 16.6038 19.6084 23.3505 19.6084 M 12.3075 17.1615 7.5719 21.8971 M 7.577335 17.152 12.31704 21.8917 M 6.564136 10.0047 13.30904 10.0047 M 9.936636 6.6288 9.936636 13.3806 " style="stroke:rgb(255,255,255);fill:none;stroke-linecap:butt;stroke-miterlimit:9;opacity:1;stroke-width:2;stroke-linejoin:miter;" /><ellipse id="87" cy="16.33" cx="19.93" transform="&E16;" rx="1.30" ry="1.30" style="&E19;" /><ellipse id="88" cy="22.83" cx="19.93" transform="&E16;" rx="1.30" ry="1.30" style="&E19;" /><ellipse id="89" cy="99.00" cx="4.00" rx="3.00" ry="3.00" style="&E3;" /><ellipse id="90" cy="99.00" cx="4.00" rx="3.00" ry="3.00" style="&E19;" /><text id="91" transform="&E9;" x="4.00" y="119.00" style="stroke:none;clip-path:url(#93_text_clipper);font-family:Microsoft Sans Serif;fill:rgb(0,0,0);font-size:8.25pt;opacity:1;"><tspan dy="8.25pt" id="95">Int</tspan></text></g><defs id="clips_hatches_and_gradients"><clipPath id="62_text_clipper"><rect x="84.00" y="39.00" width="57.88" height="13.83" id="63" /></clipPath><clipPath id="71_text_clipper"><rect x="84.00" y="119.00" width="73.02" height="13.83" id="72" /></clipPath><clipPath id="80_text_clipper"><rect x="84.00" y="199.00" width="64.20" height="13.83" id="81" /></clipPath><clipPath id="93_text_clipper"><rect x="4.00" y="119.00" width="16.26" height="13.83" id="94" /></clipPath></defs></svg>