<?xml version="1.0" standalone="yes"?>
<!DOCTYPE svg PUBLIC "-//W3C//DTD SVG 1.1//EN" "http://www.w3.org/Graphics/SVG/1.1/DTD/svg11.dtd"[
<!ENTITY E12 'stroke:none;opacity:1;fill:rgb(255,255,255);'><!ENTITY E18 'matrix(1.00 0.00 0.00 1.00 84.00 4.00 ) '><!ENTITY E9 'stroke:rgb(169,169,169);fill:none;stroke-linecap:butt;stroke-miterlimit:9;opacity:1;stroke-width:2;stroke-linejoin:miter;'><!ENTITY E1 'stroke:rgb(169,169,169);fill:none;stroke-linecap:butt;stroke-miterlimit:9;opacity:1;stroke-width:1;stroke-linejoin:miter;'><!ENTITY E14 'matrix(1.00 0.00 0.00 1.00 244.00 4.00 ) '><!ENTITY E16 'matrix(1.00 0.00 0.00 1.00 164.00 4.00 ) '><!ENTITY E11 'stroke:rgb(255,255,255);fill:none;stroke-linecap:butt;stroke-miterlimit:9;opacity:1;stroke-width:2;stroke-linejoin:miter;'><!ENTITY E2 'matrix(1.00 0.00 0.00 1.00 404.00 4.00 ) '><!ENTITY E22 'matrix(1.00 0.00 0.00 1.00 4.00 4.00 ) '><!ENTITY E3 'stroke:none;opacity:1;fill:rgb(238,192,75);'><!ENTITY E10 'M 14.876 5.6408 14.876 24.0228 '><!ENTITY E8 'matrix(1.00 0.00 0.00 1.00 324.00 4.00 ) '><!ENTITY E7 'matrix(1.00 0.00 0.00 1.00 0.00 0.00 ) '>
]>
<svg width="445.1955" height="66.65038" id="SvgGdi_output" xmlns="http://www.w3.org/2000/svg" xmlns:xlink="http://www.w3.org/1999/xlink">
  <style>text { fill: #000; } @media (prefers-color-scheme: dark) { text { fill: #eee; } }</style>
  <rect id="background" height="100.00%" style="fill:none;" width="100.00%" y="0.00" x="0.00" />
  <g style="shape-rendering:auto;" id="root_group">
    <line y1="19.00" style="stroke:rgb(169,169,169);fill:none;stroke-linecap:butt;stroke-miterlimit:9;opacity:1;stroke-width:1;stroke-linejoin:miter;" id="2" x2="400.00" y2="19.00" x1="358.00" />
    <line y1="19.00" style="stroke:rgb(169,169,169);fill:none;stroke-linecap:butt;stroke-miterlimit:9;opacity:1;stroke-width:1;stroke-linejoin:miter;" id="3" x2="320.00" y2="19.00" x1="278.00" />
    <line y1="19.00" style="stroke:rgb(169,169,169);fill:none;stroke-linecap:butt;stroke-miterlimit:9;opacity:1;stroke-width:1;stroke-linejoin:miter;" id="4" x2="240.00" y2="19.00" x1="198.00" />
    <line y1="19.00" style="stroke:rgb(169,169,169);fill:none;stroke-linecap:butt;stroke-miterlimit:9;opacity:1;stroke-width:1;stroke-linejoin:miter;" id="5" x2="160.00" y2="19.00" x1="118.00" />
    <line y1="19.00" style="stroke:rgb(169,169,169);fill:none;stroke-linecap:butt;stroke-miterlimit:9;opacity:1;stroke-width:1;stroke-linejoin:miter;" id="6" x2="80.00" y2="19.00" x1="38.00" />
    <ellipse id="39" cy="15.00" cx="15.00" transform="matrix(1.00 0.00 0.00 1.00 404.00 4.00 ) " rx="15.00" ry="15.00" style="stroke:none;opacity:1;fill:rgb(238,192,75);" />
    <path transform="matrix(1.00 0.00 0.00 1.00 404.00 4.00 ) " id="42" d="M 12.246 6.0137 12.246 6.019559 C 12.05806 6.020259 11.89471 6.040434 11.76748 6.066434 10.86869 6.352735 10.89631 6.934374 9.87688 7.685534 8.863379 8.264335 8.35338 7.819914 7.61518 8.419914 6.87845 9.015514 7.39292 10.38251 7.08393 10.64841 6.77722 11.18001 5.82553 11.65471 5.65233 12.32611 5.50916 13.18481 6.04191 13.79701 6.02147 14.53311 6.08287 15.14641 5.41127 15.49489 5.5078 15.99211 5.79702 16.80421 6.35438 17.29221 6.6172 17.51751 6.663351 17.54951 6.700028 17.5985 6.714856 17.6015 6.790713 17.792 6.858586 17.98645 6.955086 18.16595 6.949606 18.13995 6.948576 18.11382 6.943367 18.08782 6.998228 18.30542 7.055077 18.52401 7.132816 18.73821 8.683116 22.09901 12.81412 24.68611 17.34182 24.11711 19.54102 23.84771 22.82442 22.33171 24.16602 18.73821 23.22044 19.58671 21.53152 20.32421 20.77732 20.38081 23.33002 19.10511 24.70712 16.93741 24.32031 13.97461 23.79154 15.23341 23.09341 16.20131 22.22071 16.86521 24.07451 13.97551 23.75691 12.48131 22.38478 10.83981 23.36615 13.53881 22.09719 16.53431 19.33208 18.66401 20.45238 18.78541 21.51657 18.51614 22.50198 17.71284 21.01318 19.37354 19.14968 20.20834 17.01368 20.43554 18.03358 21.30254 19.01818 21.69454 19.95898 21.52734 17.34458 22.24884 15.15478 21.45428 12.49018 18.80074 12.3507 19.51504 13.10514 20.62754 13.88278 21.33784 9.373278 19.38284 8.976177 13.29584 14.46872 11.79294 14.47202 11.79294 14.47518 11.79384 14.47848 11.79294 17.74978 13.70674 21.86528 13.58084 22.05078 12.34372 22.50885 10.86082 19.96508 7.805223 16.16208 7.007823 15.4618 6.871123 14.79228 6.817344 14.15428 6.835943 14.16706 6.835943 14.17858 6.836182 14.19139 6.826178 13.58399 6.177278 12.80989 6.011678 12.24609 6.013678 z M 17.17769 9.046878 C 17.72373 9.046878 18.22259 9.543848 18.22259 10.08988 18.22259 10.63598 17.72371 11.13288 17.17769 11.13288 16.63165 11.13288 16.13469 10.63601 16.13469 10.08988 16.13474 9.543879 16.63162 9.046778 17.17769 9.046878 z " style="stroke:none;fill-rule:evenodd;opacity:1;fill:rgb(255,255,255);" />
    <text id="43" transform="matrix(1.00 0.00 0.00 1.00 0.00 0.00 ) " x="404.00px" y="39.00px" style="stroke:none;clip-path:url(#45_text_clipper);font-family:Microsoft Sans Serif;font-size:8.25pt;opacity:1;">
      <tspan dy="8.25pt" id="47">Repeat</tspan>
    </text>
    <ellipse id="49" cy="15.00" cx="15.00" transform="matrix(1.00 0.00 0.00 1.00 324.00 4.00 ) " rx="15.00" ry="15.00" style="stroke:none;opacity:1;fill:rgb(238,192,75);" />
    <ellipse id="52" cy="15.00" cx="15.00" transform="matrix(1.00 0.00 0.00 1.00 324.00 4.00 ) " rx="15.00" ry="15.00" style="stroke:rgb(169,169,169);fill:none;stroke-linecap:butt;stroke-miterlimit:9;opacity:1;stroke-width:2;stroke-linejoin:miter;" />
    <path d="M 14.876 5.6408 14.876 24.0228 " style="stroke:rgb(255,255,255);fill:none;stroke-linecap:butt;stroke-miterlimit:9;opacity:1;stroke-width:2;stroke-linejoin:miter;" transform="matrix(1.00 0.00 0.00 1.00 324.00 4.00 ) " id="59" />
    <ellipse id="60" cy="10.20" cx="8.47" transform="matrix(1.00 0.00 0.00 1.00 324.00 4.00 ) " rx="3.40" ry="3.40" style="stroke:none;opacity:1;fill:rgb(255,255,255);" />
    <ellipse id="61" cy="10.20" cx="21.33" transform="matrix(1.00 0.00 0.00 1.00 324.00 4.00 ) " rx="3.40" ry="3.40" style="stroke:none;opacity:1;fill:rgb(255,255,255);" />
    <ellipse id="62" cy="19.20" cx="21.33" transform="matrix(1.00 0.00 0.00 1.00 324.00 4.00 ) " rx="3.40" ry="3.40" style="stroke:none;opacity:1;fill:rgb(255,255,255);" />
    <text id="63" transform="matrix(1.00 0.00 0.00 1.00 0.00 0.00 ) " x="324.00px" y="39.00px" style="stroke:none;clip-path:url(#65_text_clipper);font-family:Microsoft Sans Serif;font-size:8.25pt;opacity:1;">
      <tspan dy="8.25pt" id="67">Response</tspan>
    </text>
    <ellipse id="69" cy="15.00" cx="15.00" transform="matrix(1.00 0.00 0.00 1.00 244.00 4.00 ) " rx="15.00" ry="15.00" style="stroke:none;opacity:1;fill:rgb(238,192,75);" />
    <ellipse id="70" cy="15.00" cx="15.00" transform="matrix(1.00 0.00 0.00 1.00 244.00 4.00 ) " rx="15.00" ry="15.00" style="stroke:rgb(169,169,169);fill:none;stroke-linecap:butt;stroke-miterlimit:9;opacity:1;stroke-width:2;stroke-linejoin:miter;" />
    <path d="M 14.876 5.6408 14.876 24.0228 " style="stroke:rgb(255,255,255);fill:none;stroke-linecap:butt;stroke-miterlimit:9;opacity:1;stroke-width:2;stroke-linejoin:miter;" transform="matrix(1.00 0.00 0.00 1.00 244.00 4.00 ) " id="71" />
    <ellipse id="72" cy="10.20" cx="8.47" transform="matrix(1.00 0.00 0.00 1.00 244.00 4.00 ) " rx="3.40" ry="3.40" style="stroke:none;opacity:1;fill:rgb(255,255,255);" />
    <ellipse id="73" cy="10.20" cx="21.33" transform="matrix(1.00 0.00 0.00 1.00 244.00 4.00 ) " rx="3.40" ry="3.40" style="stroke:none;opacity:1;fill:rgb(255,255,255);" />
    <ellipse id="74" cy="19.20" cx="21.33" transform="matrix(1.00 0.00 0.00 1.00 244.00 4.00 ) " rx="3.40" ry="3.40" style="stroke:none;opacity:1;fill:rgb(255,255,255);" />
    <text id="75" transform="matrix(1.00 0.00 0.00 1.00 0.00 0.00 ) " x="244.00px" y="39.00px" style="stroke:none;clip-path:url(#77_text_clipper);font-family:Microsoft Sans Serif;font-size:8.25pt;opacity:1;">
      <tspan dy="8.25pt" id="79">TestGrating</tspan>
    </text>
    <ellipse id="81" cy="15.00" cx="15.00" transform="matrix(1.00 0.00 0.00 1.00 164.00 4.00 ) " rx="15.00" ry="15.00" style="stroke:none;opacity:1;fill:rgb(238,192,75);" />
    <ellipse id="82" cy="15.00" cx="15.00" transform="matrix(1.00 0.00 0.00 1.00 164.00 4.00 ) " rx="15.00" ry="15.00" style="stroke:rgb(169,169,169);fill:none;stroke-linecap:butt;stroke-miterlimit:9;opacity:1;stroke-width:2;stroke-linejoin:miter;" />
    <path d="M 14.876 5.6408 14.876 24.0228 " style="stroke:rgb(255,255,255);fill:none;stroke-linecap:butt;stroke-miterlimit:9;opacity:1;stroke-width:2;stroke-linejoin:miter;" transform="matrix(1.00 0.00 0.00 1.00 164.00 4.00 ) " id="83" />
    <ellipse id="84" cy="10.20" cx="8.47" transform="matrix(1.00 0.00 0.00 1.00 164.00 4.00 ) " rx="3.40" ry="3.40" style="stroke:none;opacity:1;fill:rgb(255,255,255);" />
    <ellipse id="85" cy="10.20" cx="21.33" transform="matrix(1.00 0.00 0.00 1.00 164.00 4.00 ) " rx="3.40" ry="3.40" style="stroke:none;opacity:1;fill:rgb(255,255,255);" />
    <ellipse id="86" cy="19.20" cx="21.33" transform="matrix(1.00 0.00 0.00 1.00 164.00 4.00 ) " rx="3.40" ry="3.40" style="stroke:none;opacity:1;fill:rgb(255,255,255);" />
    <text id="87" transform="matrix(1.00 0.00 0.00 1.00 0.00 0.00 ) " x="164.00px" y="39.00px" style="stroke:none;clip-path:url(#89_text_clipper);font-family:Microsoft Sans Serif;font-size:8.25pt;opacity:1;">
      <tspan dy="8.25pt" id="91">Blank</tspan>
    </text>
    <ellipse id="93" cy="15.00" cx="15.00" transform="matrix(1.00 0.00 0.00 1.00 84.00 4.00 ) " rx="15.00" ry="15.00" style="stroke:none;opacity:1;fill:rgb(238,192,75);" />
    <ellipse id="94" cy="15.00" cx="15.00" transform="matrix(1.00 0.00 0.00 1.00 84.00 4.00 ) " rx="15.00" ry="15.00" style="stroke:rgb(169,169,169);fill:none;stroke-linecap:butt;stroke-miterlimit:9;opacity:1;stroke-width:2;stroke-linejoin:miter;" />
    <path d="M 14.876 5.6408 14.876 24.0228 " style="stroke:rgb(255,255,255);fill:none;stroke-linecap:butt;stroke-miterlimit:9;opacity:1;stroke-width:2;stroke-linejoin:miter;" transform="matrix(1.00 0.00 0.00 1.00 84.00 4.00 ) " id="95" />
    <ellipse id="96" cy="10.20" cx="8.47" transform="matrix(1.00 0.00 0.00 1.00 84.00 4.00 ) " rx="3.40" ry="3.40" style="stroke:none;opacity:1;fill:rgb(255,255,255);" />
    <ellipse id="97" cy="10.20" cx="21.33" transform="matrix(1.00 0.00 0.00 1.00 84.00 4.00 ) " rx="3.40" ry="3.40" style="stroke:none;opacity:1;fill:rgb(255,255,255);" />
    <ellipse id="98" cy="19.20" cx="21.33" transform="matrix(1.00 0.00 0.00 1.00 84.00 4.00 ) " rx="3.40" ry="3.40" style="stroke:none;opacity:1;fill:rgb(255,255,255);" />
    <text id="99" transform="matrix(1.00 0.00 0.00 1.00 0.00 0.00 ) " x="84.00px" y="39.00px" style="stroke:none;clip-path:url(#101_text_clipper);font-family:Microsoft Sans Serif;font-size:8.25pt;opacity:1;">
      <tspan dy="8.25pt" id="103">Reference</tspan>
    </text>
    <text id="105" transform="matrix(1.00 0.00 0.00 1.00 0.00 0.00 ) " x="84.00px" y="51.45px" style="stroke:none;clip-path:url(#107_text_clipper);font-family:Microsoft Sans Serif;font-size:8.25pt;opacity:1;">
      <tspan dy="8.25pt" id="109">Grating</tspan>
    </text>
    <path style="stroke:rgb(169,169,169);fill:none;stroke-linecap:butt;stroke-miterlimit:9;opacity:1;stroke-width:2;stroke-linejoin:miter;" transform="matrix(1.00 0.00 0.00 1.00 4.00 4.00 ) " id="114" d="M 31.179 5.2 C 34.9985 11.0918 34.9814 18.682 31.13552 24.557 " />
    <ellipse id="115" cy="15.00" cx="15.00" transform="matrix(1.00 0.00 0.00 1.00 4.00 4.00 ) " rx="15.00" ry="15.00" style="stroke:none;opacity:1;fill:rgb(91,178,126);" />
    <path style="stroke:rgb(255,255,255);fill:none;stroke-linecap:butt;stroke-miterlimit:9;opacity:1;stroke-width:2;stroke-linejoin:miter;" transform="matrix(1.00 0.00 0.00 1.00 4.00 4.00 ) " id="118" d="M 15.011 14.916 15.15146 23.9388 M 23.14376 10.5618 15.01096 14.9158 6.97086 10.5618 M 6.924747 10.5618 15.15145 5.893101 23.14375 10.5618 23.14375 19.2433 15.15145 23.9386 6.924747 19.2433 z " />
    <ellipse id="119" cy="19.00" cx="4.00" rx="3.00" ry="3.00" style="stroke:rgb(169,169,169);fill:none;stroke-linecap:butt;stroke-miterlimit:9;opacity:1;stroke-width:2;stroke-linejoin:miter;" />
    <ellipse id="120" cy="19.00" cx="4.00" rx="3.00" ry="3.00" style="stroke:none;opacity:1;fill:rgb(255,255,255);" />
    <text id="121" transform="matrix(1.00 0.00 0.00 1.00 0.00 0.00 ) " x="4.00px" y="39.00px" style="stroke:none;clip-path:url(#123_text_clipper);font-family:Microsoft Sans Serif;font-size:8.25pt;opacity:1;">
      <tspan dy="8.25pt" id="125">Timer</tspan>
    </text>
  </g>
  <defs id="clips_hatches_and_gradients">
    <clipPath id="45_text_clipper">
      <rect x="404.00" y="39.00" width="40.20" height="13.83" id="46" />
    </clipPath>
    <clipPath id="65_text_clipper">
      <rect x="324.00" y="39.00" width="54.68" height="13.83" id="66" />
    </clipPath>
    <clipPath id="77_text_clipper">
      <rect x="244.00" y="39.00" width="62.92" height="13.83" id="78" />
    </clipPath>
    <clipPath id="89_text_clipper">
      <rect x="164.00" y="39.00" width="32.07" height="13.83" id="90" />
    </clipPath>
    <clipPath id="101_text_clipper">
      <rect x="84.00" y="39.00" width="55.93" height="27.65" id="102" />
    </clipPath>
    <clipPath id="107_text_clipper">
      <rect x="84.00" y="51.45" width="55.93" height="27.65" id="108" />
    </clipPath>
    <clipPath id="123_text_clipper">
      <rect x="4.00" y="39.00" width="32.68" height="13.83" id="124" />
    </clipPath>
  </defs>
</svg>