<?xml version="1.0" standalone="yes"?>
<!DOCTYPE svg PUBLIC "-//W3C//DTD SVG 1.1//EN" "http://www.w3.org/Graphics/SVG/1.1/DTD/svg11.dtd"[
<!ENTITY E32 'matrix(1.00 0.00 0.00 1.00 84.00 4.00 ) '><!ENTITY E28 'M 16.975 3.0248 C 16.73886 3.06546 16.51242 3.21251 16.34286 3.49717 15.6852 4.60047 14.77066 5.80307 14.35576 7.13567 13.92228 6.64929 13.54155 6.15081 13.6769 5.99947 14.54394 5.03396 13.22386 3.50617 12.3577 4.47067 11.36065 5.58137 11.58498 7.02467 12.50337 8.11237 13.35954 9.126869 14.12797 9.595369 14.22117 11.09017 13.71315 10.73458 13.23687 10.31038 12.67657 10.05927 12.01987 9.76308 10.16017 9.93013 9.818172 9.16561 9.266643 7.92891 7.657972 9.020451 8.210373 10.25711 8.769353 11.51011 9.959173 11.68241 11.05227 11.84021 12.21977 12.00775 13.06457 12.86311 14.09207 13.40411 14.02969 13.91396 13.95819 14.42471 13.91067 14.91691 13.77569 16.29881 15.64077 16.28731 15.77407 14.91691 15.90887 13.52981 16.18661 11.99041 16.06815 10.55711 18.20435 10.63938 21.03795 9.132412 21.83435 6.778212 22.27408 5.481912 20.47085 4.919911 20.03685 6.203712 19.77931 6.961502 18.99005 7.335611 18.40705 7.665512 17.62234 8.110412 16.88755 8.419831 16.02415 8.390021 16.08245 7.746341 16.39576 7.206521 16.71401 6.663321 17.12145 5.968041 17.53757 5.280221 17.95081 4.588721 18.46445 3.727551 17.68355 2.902821 16.97512 3.024821 z '><!ENTITY E27 'M 19.269 20.099 C 19.269 22.4871 17.3331 24.4238 14.9451 24.4238 12.5561 24.4238 10.6203 22.487 10.6203 20.099 10.6203 17.7109 12.5562 15.7751 14.9451 15.7751 17.3332 15.7751 19.269 17.711 19.269 20.099 z '><!ENTITY E10 'matrix(1.00 0.00 0.00 1.00 244.00 84.00 ) '><!ENTITY E8 'matrix(1.00 0.00 0.00 1.00 0.00 0.00 ) '><!ENTITY E5 'stroke:none;opacity:1;fill:rgb(155,91,179);'><!ENTITY E38 'M 15.011 14.916 15.15146 23.9388 M 23.14376 10.5618 15.01096 14.9158 6.97086 10.5618 M 6.924747 10.5618 15.15145 5.893101 23.14375 10.5618 23.14375 19.2433 15.15145 23.9386 6.924747 19.2433 z '><!ENTITY E14 'stroke:rgb(255,255,255);fill:none;stroke-linecap:butt;stroke-miterlimit:9;opacity:1;stroke-width:1.2496;stroke-linejoin:miter;'><!ENTITY E12 'stroke:none;fill-rule:evenodd;opacity:1;fill:rgb(255,255,255);'><!ENTITY E3 'stroke:rgb(169,169,169);fill:none;stroke-linecap:butt;stroke-miterlimit:9;opacity:1;stroke-width:2;stroke-linejoin:miter;'><!ENTITY E37 'stroke:none;opacity:1;fill:rgb(91,178,126);'><!ENTITY E26 'M 1.5363 7.8 C 1.99103 6.9385 2.52798 6.1205 3.1403 5.3587 3.7527 4.5967 4.4403 3.8909 5.1968 3.254 5.95315 2.617 6.7782 2.049 7.665299 1.5627 M 0.4537992 19.4997 C 0.1435492 18.4956 -0.05714077 17.4835 -0.1564507 16.4769 -0.2551987 15.4701 -0.2516447 14.4684 -0.1525816 13.4844 -0.05334165 12.5007 0.1414284 11.5347 0.4251484 10.5993 M 7.892348 28.3993 C 7.030958 27.9447 6.212848 27.4077 5.450948 26.7954 4.689008 26.1831 3.983248 25.4954 3.346348 24.739 2.709558 23.9826 2.141548 23.1575 1.655148 22.2704 M 19.49415 29.4993 C 18.48995 29.8096 17.47785 30.0103 16.47125 30.1096 15.46445 30.2084 14.46285 30.2049 13.47895 30.1018 12.49507 30.0028 11.52915 29.8079 10.59365 29.5242 M 28.46365 22.0993 C 28.00892 22.9606 27.472 23.7788 26.85965 24.5407 26.24738 25.3026 25.55945 26.0084 24.80315 26.6453 24.0468 27.2822 23.22175 27.8502 22.33465 28.3365 M 29.54565 10.4995 C 29.85594 11.5037 30.05659 12.5157 30.15594 13.5224 30.25481 14.5292 30.25114 15.531 30.15199 16.5147 30.05279 17.4986 29.85802 18.4646 29.5743 19.4 M 22.10769 1.499998 C 22.96908 1.954698 23.7872 2.491698 24.5491 3.103898 25.31104 3.716298 26.0168 4.404098 26.65369 5.160398 27.29052 5.916898 27.85859 6.741898 28.34499 7.629098 M 10.50499 0.3999977 C 11.50919 0.08969772 12.52109 -0.1109023 13.52779 -0.2103023 14.53469 -0.3090023 15.53619 -0.3055023 16.52009 -0.2103023 17.50401 -0.1111023 18.46999 0.08369771 19.40549 0.3673977 '><!ENTITY E29 'stroke:rgb(255,255,255);fill:none;stroke-linecap:butt;stroke-miterlimit:9;opacity:1;stroke-width:1.8061;stroke-linejoin:miter;'><!ENTITY E21 'stroke:rgb(255,255,255);fill:none;stroke-linecap:butt;stroke-miterlimit:9;opacity:1;stroke-width:2;stroke-linejoin:miter;'><!ENTITY E1 'stroke:rgb(169,169,169);fill:none;stroke-linecap:butt;stroke-miterlimit:9;opacity:1;stroke-width:1;stroke-linejoin:miter;'><!ENTITY E40 'matrix(1.00 0.00 0.00 1.00 4.00 4.00 ) '><!ENTITY E6 'stroke:none;opacity:1;fill:rgb(255,255,255);'><!ENTITY E18 'matrix(1.00 0.00 0.00 1.00 164.00 4.00 ) '><!ENTITY E36 'matrix(1.00 0.00 0.00 1.00 84.00 84.00 ) '><!ENTITY E4 'matrix(1.00 0.00 0.00 1.00 244.00 4.00 ) '><!ENTITY E25 'matrix(1.00 0.00 0.00 1.00 164.00 84.00 ) '><!ENTITY E2 'M 10.158 33.2 C 3.4054 31.7591 -1.861 26.4692 -3.271 19.71 '><!ENTITY E19 'stroke:none;opacity:1;fill:rgb(238,192,75);'><!ENTITY E35 'M 31.179 5.2 C 34.9985 11.0918 34.9814 18.682 31.13552 24.557 '>
]>
<svg width="295.3092" height="146.6504" id="SvgGdi_output" xmlns="http://www.w3.org/2000/svg" xmlns:xlink="http://www.w3.org/1999/xlink">
  <style>text { fill: #000; } @media (prefers-color-scheme: dark) { text { fill: #eee; } }</style>
  <rect id="background" height="100.00%" style="fill:none;" width="100.00%" y="0.00" x="0.00" />
  <g style="shape-rendering:auto;" id="root_group">
    <line y1="19.00" style="stroke:rgb(169,169,169);fill:none;stroke-linecap:butt;stroke-miterlimit:9;opacity:1;stroke-width:1;stroke-linejoin:miter;" id="2" x2="240.00" y2="19.00" x1="198.00" />
    <line y1="99.00" style="stroke:rgb(169,169,169);fill:none;stroke-linecap:butt;stroke-miterlimit:9;opacity:1;stroke-width:1;stroke-linejoin:miter;" id="3" x2="240.00" y2="99.00" x1="198.00" />
    <line y1="19.00" style="stroke:rgb(169,169,169);fill:none;stroke-linecap:butt;stroke-miterlimit:9;opacity:1;stroke-width:1;stroke-linejoin:miter;" id="4" x2="160.00" y2="19.00" x1="118.00" />
    <line y1="99.00" style="stroke:rgb(169,169,169);fill:none;stroke-linecap:butt;stroke-miterlimit:9;opacity:1;stroke-width:1;stroke-linejoin:miter;" id="5" x2="160.00" y2="99.00" x1="118.00" />
    <line y1="19.00" style="stroke:rgb(169,169,169);fill:none;stroke-linecap:butt;stroke-miterlimit:9;opacity:1;stroke-width:1;stroke-linejoin:miter;" id="6" x2="80.00" y2="19.00" x1="38.00" />
    <path d="M 10.158 33.2 C 3.4054 31.7591 -1.861 26.4692 -3.271 19.71 " style="stroke:rgb(169,169,169);fill:none;stroke-linecap:butt;stroke-miterlimit:9;opacity:1;stroke-width:2;stroke-linejoin:miter;" transform="matrix(1.00 0.00 0.00 1.00 244.00 4.00 ) " id="40" />
    <ellipse id="41" cy="15.00" cx="15.00" transform="matrix(1.00 0.00 0.00 1.00 244.00 4.00 ) " rx="15.00" ry="15.00" style="stroke:none;opacity:1;fill:rgb(155,91,179);" />
    <ellipse id="47" cy="9.06" cx="15.01" transform="matrix(1.00 0.00 0.00 1.00 244.00 4.00 ) " rx="3.50" ry="3.50" style="stroke:none;opacity:1;fill:rgb(255,255,255);" />
    <ellipse id="48" cy="18.49" cx="9.12" transform="matrix(1.00 0.00 0.00 1.00 244.00 4.00 ) " rx="3.50" ry="3.50" style="stroke:none;opacity:1;fill:rgb(255,255,255);" />
    <ellipse id="49" cy="18.46" cx="20.88" transform="matrix(1.00 0.00 0.00 1.00 244.00 4.00 ) " rx="3.50" ry="3.50" style="stroke:none;opacity:1;fill:rgb(255,255,255);" />
    <text id="50" transform="matrix(1.00 0.00 0.00 1.00 0.00 0.00 ) " x="244.00px" y="39.00px" style="stroke:none;clip-path:url(#52_text_clipper);font-family:Microsoft Sans Serif;font-size:8.25pt;opacity:1;">
      <tspan dy="8.25pt" id="54">Workflow</tspan>
    </text>
    <text id="56" transform="matrix(1.00 0.00 0.00 1.00 0.00 0.00 ) " x="244.00px" y="51.45px" style="stroke:none;clip-path:url(#58_text_clipper);font-family:Microsoft Sans Serif;font-size:8.25pt;opacity:1;">
      <tspan dy="8.25pt" id="60">Output</tspan>
    </text>
    <path d="M 10.158 33.2 C 3.4054 31.7591 -1.861 26.4692 -3.271 19.71 " style="stroke:rgb(169,169,169);fill:none;stroke-linecap:butt;stroke-miterlimit:9;opacity:1;stroke-width:2;stroke-linejoin:miter;" transform="matrix(1.00 0.00 0.00 1.00 244.00 84.00 ) " id="62" />
    <ellipse id="63" cy="15.00" cx="15.00" transform="matrix(1.00 0.00 0.00 1.00 244.00 84.00 ) " rx="15.00" ry="15.00" style="stroke:none;opacity:1;fill:rgb(155,91,179);" />
    <path style="stroke:none;fill-rule:evenodd;opacity:1;fill:rgb(255,255,255);" transform="matrix(1.00 0.00 0.00 1.00 244.00 84.00 ) " id="69" d="M 11.656 8.2 11.99975 8.7 16.31225 14.7937 11.65605 21.4187 11.28105 21.9187 14.74985 21.9187 14.8436 21.7624 17.9998 17.0124 18.46855 17.7 21.15605 21.7624 21.2498 21.9187 24.7498 21.9187 24.40605 21.4187 19.65605 14.6687 24.06225 8.699997 24.406 8.199997 20.9998 8.199997 20.90605 8.324997 18.68725 11.4187 C 18.46251 11.7285 18.22333 12.1062 17.9685 12.4812 17.77046 12.1547 17.58677 11.8424 17.31225 11.4187 L 15.28105 8.356197 15.1873 8.199997 11.6561 8.199997 z " />
    <path style="stroke:rgb(255,255,255);fill:none;stroke-linecap:butt;stroke-miterlimit:9;opacity:1;stroke-width:1.2496;stroke-linejoin:miter;" transform="matrix(1.00 0.00 0.00 1.00 244.00 84.00 ) " id="70" d="M 7.8593 10.494 8.8954 9.65137 13.0189 14.72177 11.9886 15.5597 " />
    <path style="stroke:rgb(255,255,255);fill:none;stroke-linecap:butt;stroke-miterlimit:9;opacity:1;stroke-width:1.2496;stroke-linejoin:miter;" transform="matrix(1.00 0.00 0.00 1.00 244.00 84.00 ) " id="71" d="M 5.1002 16.975 7.6877 14.8707 " />
    <path style="stroke:none;fill-rule:evenodd;opacity:1;fill:rgb(255,255,255);" transform="matrix(1.00 0.00 0.00 1.00 244.00 84.00 ) " id="72" d="M 8.8501 16.342 6.484699 13.4335 10.1863 12.8393 9.518199 14.5907 z " />
    <text id="73" transform="matrix(1.00 0.00 0.00 1.00 0.00 0.00 ) " x="244.00px" y="119.00px" style="stroke:none;clip-path:url(#75_text_clipper);font-family:Microsoft Sans Serif;font-size:8.25pt;opacity:1;">
      <tspan dy="8.25pt" id="77">Draw</tspan>
    </text>
    <ellipse id="81" cy="15.00" cx="15.00" transform="matrix(1.00 0.00 0.00 1.00 164.00 4.00 ) " rx="15.00" ry="15.00" style="stroke:none;opacity:1;fill:rgb(238,192,75);" />
    <path style="stroke:rgb(255,255,255);fill:none;stroke-linecap:butt;stroke-miterlimit:9;opacity:1;stroke-width:2;stroke-linejoin:miter;" transform="matrix(1.00 0.00 0.00 1.00 164.00 4.00 ) " id="87" d="M 7.3965 19.566 7.3965 10.8433 " />
    <path style="stroke:rgb(255,255,255);fill:none;stroke-linecap:butt;stroke-miterlimit:9;opacity:1;stroke-width:2;stroke-linejoin:miter;" transform="matrix(1.00 0.00 0.00 1.00 164.00 4.00 ) " id="88" d="M 11.085 22.137 14.2178 8.273999 " />
    <ellipse id="89" cy="15.15" cx="20.49" transform="matrix(1.00 0.00 0.00 1.00 164.00 4.00 ) " rx="4.18" ry="4.18" style="stroke:rgb(255,255,255);fill:none;stroke-linecap:butt;stroke-miterlimit:9;opacity:1;stroke-width:2;stroke-linejoin:miter;" />
    <text id="90" transform="matrix(1.00 0.00 0.00 1.00 0.00 0.00 ) " x="164.00px" y="39.00px" style="stroke:none;clip-path:url(#92_text_clipper);font-family:Microsoft Sans Serif;font-size:8.25pt;opacity:1;">
      <tspan dy="8.25pt" id="94">Load</tspan>
    </text>
    <text id="96" transform="matrix(1.00 0.00 0.00 1.00 0.00 0.00 ) " x="164.00px" y="51.45px" style="stroke:none;clip-path:url(#98_text_clipper);font-family:Microsoft Sans Serif;font-size:8.25pt;opacity:1;">
      <tspan dy="8.25pt" id="100">Resources</tspan>
    </text>
    <ellipse id="102" cy="15.00" cx="15.00" transform="matrix(1.00 0.00 0.00 1.00 164.00 84.00 ) " rx="15.00" ry="15.00" style="stroke:none;opacity:1;fill:rgb(238,192,75);" />
    <path d="M 1.5363 7.8 C 1.99103 6.9385 2.52798 6.1205 3.1403 5.3587 3.7527 4.5967 4.4403 3.8909 5.1968 3.254 5.95315 2.617 6.7782 2.049 7.665299 1.5627 M 0.4537992 19.4997 C 0.1435492 18.4956 -0.05714077 17.4835 -0.1564507 16.4769 -0.2551987 15.4701 -0.2516447 14.4684 -0.1525816 13.4844 -0.05334165 12.5007 0.1414284 11.5347 0.4251484 10.5993 M 7.892348 28.3993 C 7.030958 27.9447 6.212848 27.4077 5.450948 26.7954 4.689008 26.1831 3.983248 25.4954 3.346348 24.739 2.709558 23.9826 2.141548 23.1575 1.655148 22.2704 M 19.49415 29.4993 C 18.48995 29.8096 17.47785 30.0103 16.47125 30.1096 15.46445 30.2084 14.46285 30.2049 13.47895 30.1018 12.49507 30.0028 11.52915 29.8079 10.59365 29.5242 M 28.46365 22.0993 C 28.00892 22.9606 27.472 23.7788 26.85965 24.5407 26.24738 25.3026 25.55945 26.0084 24.80315 26.6453 24.0468 27.2822 23.22175 27.8502 22.33465 28.3365 M 29.54565 10.4995 C 29.85594 11.5037 30.05659 12.5157 30.15594 13.5224 30.25481 14.5292 30.25114 15.531 30.15199 16.5147 30.05279 17.4986 29.85802 18.4646 29.5743 19.4 M 22.10769 1.499998 C 22.96908 1.954698 23.7872 2.491698 24.5491 3.103898 25.31104 3.716298 26.0168 4.404098 26.65369 5.160398 27.29052 5.916898 27.85859 6.741898 28.34499 7.629098 M 10.50499 0.3999977 C 11.50919 0.08969772 12.52109 -0.1109023 13.52779 -0.2103023 14.53469 -0.3090023 15.53619 -0.3055023 16.52009 -0.2103023 17.50401 -0.1111023 18.46999 0.08369771 19.40549 0.3673977 " style="stroke:rgb(169,169,169);fill:none;stroke-linecap:butt;stroke-miterlimit:9;opacity:1;stroke-width:2;stroke-linejoin:miter;" transform="matrix(1.00 0.00 0.00 1.00 164.00 84.00 ) " id="105" />
    <path d="M 19.269 20.099 C 19.269 22.4871 17.3331 24.4238 14.9451 24.4238 12.5561 24.4238 10.6203 22.487 10.6203 20.099 10.6203 17.7109 12.5562 15.7751 14.9451 15.7751 17.3332 15.7751 19.269 17.711 19.269 20.099 z " style="stroke:rgb(255,255,255);fill:none;stroke-linecap:butt;stroke-miterlimit:9;opacity:1;stroke-width:2;stroke-linejoin:miter;" transform="matrix(1.00 0.00 0.00 1.00 164.00 84.00 ) " id="110" />
    <path d="M 16.975 3.0248 C 16.73886 3.06546 16.51242 3.21251 16.34286 3.49717 15.6852 4.60047 14.77066 5.80307 14.35576 7.13567 13.92228 6.64929 13.54155 6.15081 13.6769 5.99947 14.54394 5.03396 13.22386 3.50617 12.3577 4.47067 11.36065 5.58137 11.58498 7.02467 12.50337 8.11237 13.35954 9.126869 14.12797 9.595369 14.22117 11.09017 13.71315 10.73458 13.23687 10.31038 12.67657 10.05927 12.01987 9.76308 10.16017 9.93013 9.818172 9.16561 9.266643 7.92891 7.657972 9.020451 8.210373 10.25711 8.769353 11.51011 9.959173 11.68241 11.05227 11.84021 12.21977 12.00775 13.06457 12.86311 14.09207 13.40411 14.02969 13.91396 13.95819 14.42471 13.91067 14.91691 13.77569 16.29881 15.64077 16.28731 15.77407 14.91691 15.90887 13.52981 16.18661 11.99041 16.06815 10.55711 18.20435 10.63938 21.03795 9.132412 21.83435 6.778212 22.27408 5.481912 20.47085 4.919911 20.03685 6.203712 19.77931 6.961502 18.99005 7.335611 18.40705 7.665512 17.62234 8.110412 16.88755 8.419831 16.02415 8.390021 16.08245 7.746341 16.39576 7.206521 16.71401 6.663321 17.12145 5.968041 17.53757 5.280221 17.95081 4.588721 18.46445 3.727551 17.68355 2.902821 16.97512 3.024821 z " style="stroke:none;fill-rule:evenodd;opacity:1;fill:rgb(255,255,255);" transform="matrix(1.00 0.00 0.00 1.00 164.00 84.00 ) " id="111" />
    <ellipse id="112" cy="19.52" cx="16.06" transform="matrix(1.00 0.00 0.00 1.00 164.00 84.00 ) " rx="0.60" ry="0.60" style="stroke:none;opacity:1;fill:rgb(255,255,255);" />
    <ellipse id="113" cy="19.52" cx="16.06" transform="matrix(1.00 0.00 0.00 1.00 164.00 84.00 ) " rx="0.60" ry="0.60" style="stroke:rgb(255,255,255);fill:none;stroke-linecap:butt;stroke-miterlimit:9;opacity:1;stroke-width:1.8061;stroke-linejoin:miter;" />
    <text id="114" transform="matrix(1.00 0.00 0.00 1.00 0.00 0.00 ) " x="164.00px" y="119.00px" style="stroke:none;clip-path:url(#116_text_clipper);font-family:Microsoft Sans Serif;font-size:8.25pt;opacity:1;">
      <tspan dy="8.25pt" id="118">Normalized</tspan>
    </text>
    <text id="120" transform="matrix(1.00 0.00 0.00 1.00 0.00 0.00 ) " x="164.00px" y="131.45px" style="stroke:none;clip-path:url(#122_text_clipper);font-family:Microsoft Sans Serif;font-size:8.25pt;opacity:1;">
      <tspan dy="8.25pt" id="124">View</tspan>
    </text>
    <ellipse id="126" cy="15.00" cx="15.00" transform="matrix(1.00 0.00 0.00 1.00 84.00 4.00 ) " rx="15.00" ry="15.00" style="stroke:none;opacity:1;fill:rgb(238,192,75);" />
    <path d="M 1.5363 7.8 C 1.99103 6.9385 2.52798 6.1205 3.1403 5.3587 3.7527 4.5967 4.4403 3.8909 5.1968 3.254 5.95315 2.617 6.7782 2.049 7.665299 1.5627 M 0.4537992 19.4997 C 0.1435492 18.4956 -0.05714077 17.4835 -0.1564507 16.4769 -0.2551987 15.4701 -0.2516447 14.4684 -0.1525816 13.4844 -0.05334165 12.5007 0.1414284 11.5347 0.4251484 10.5993 M 7.892348 28.3993 C 7.030958 27.9447 6.212848 27.4077 5.450948 26.7954 4.689008 26.1831 3.983248 25.4954 3.346348 24.739 2.709558 23.9826 2.141548 23.1575 1.655148 22.2704 M 19.49415 29.4993 C 18.48995 29.8096 17.47785 30.0103 16.47125 30.1096 15.46445 30.2084 14.46285 30.2049 13.47895 30.1018 12.49507 30.0028 11.52915 29.8079 10.59365 29.5242 M 28.46365 22.0993 C 28.00892 22.9606 27.472 23.7788 26.85965 24.5407 26.24738 25.3026 25.55945 26.0084 24.80315 26.6453 24.0468 27.2822 23.22175 27.8502 22.33465 28.3365 M 29.54565 10.4995 C 29.85594 11.5037 30.05659 12.5157 30.15594 13.5224 30.25481 14.5292 30.25114 15.531 30.15199 16.5147 30.05279 17.4986 29.85802 18.4646 29.5743 19.4 M 22.10769 1.499998 C 22.96908 1.954698 23.7872 2.491698 24.5491 3.103898 25.31104 3.716298 26.0168 4.404098 26.65369 5.160398 27.29052 5.916898 27.85859 6.741898 28.34499 7.629098 M 10.50499 0.3999977 C 11.50919 0.08969772 12.52109 -0.1109023 13.52779 -0.2103023 14.53469 -0.3090023 15.53619 -0.3055023 16.52009 -0.2103023 17.50401 -0.1111023 18.46999 0.08369771 19.40549 0.3673977 " style="stroke:rgb(169,169,169);fill:none;stroke-linecap:butt;stroke-miterlimit:9;opacity:1;stroke-width:2;stroke-linejoin:miter;" transform="matrix(1.00 0.00 0.00 1.00 84.00 4.00 ) " id="127" />
    <path d="M 19.269 20.099 C 19.269 22.4871 17.3331 24.4238 14.9451 24.4238 12.5561 24.4238 10.6203 22.487 10.6203 20.099 10.6203 17.7109 12.5562 15.7751 14.9451 15.7751 17.3332 15.7751 19.269 17.711 19.269 20.099 z " style="stroke:rgb(255,255,255);fill:none;stroke-linecap:butt;stroke-miterlimit:9;opacity:1;stroke-width:2;stroke-linejoin:miter;" transform="matrix(1.00 0.00 0.00 1.00 84.00 4.00 ) " id="128" />
    <path d="M 16.975 3.0248 C 16.73886 3.06546 16.51242 3.21251 16.34286 3.49717 15.6852 4.60047 14.77066 5.80307 14.35576 7.13567 13.92228 6.64929 13.54155 6.15081 13.6769 5.99947 14.54394 5.03396 13.22386 3.50617 12.3577 4.47067 11.36065 5.58137 11.58498 7.02467 12.50337 8.11237 13.35954 9.126869 14.12797 9.595369 14.22117 11.09017 13.71315 10.73458 13.23687 10.31038 12.67657 10.05927 12.01987 9.76308 10.16017 9.93013 9.818172 9.16561 9.266643 7.92891 7.657972 9.020451 8.210373 10.25711 8.769353 11.51011 9.959173 11.68241 11.05227 11.84021 12.21977 12.00775 13.06457 12.86311 14.09207 13.40411 14.02969 13.91396 13.95819 14.42471 13.91067 14.91691 13.77569 16.29881 15.64077 16.28731 15.77407 14.91691 15.90887 13.52981 16.18661 11.99041 16.06815 10.55711 18.20435 10.63938 21.03795 9.132412 21.83435 6.778212 22.27408 5.481912 20.47085 4.919911 20.03685 6.203712 19.77931 6.961502 18.99005 7.335611 18.40705 7.665512 17.62234 8.110412 16.88755 8.419831 16.02415 8.390021 16.08245 7.746341 16.39576 7.206521 16.71401 6.663321 17.12145 5.968041 17.53757 5.280221 17.95081 4.588721 18.46445 3.727551 17.68355 2.902821 16.97512 3.024821 z " style="stroke:none;fill-rule:evenodd;opacity:1;fill:rgb(255,255,255);" transform="matrix(1.00 0.00 0.00 1.00 84.00 4.00 ) " id="129" />
    <ellipse id="130" cy="19.52" cx="16.06" transform="matrix(1.00 0.00 0.00 1.00 84.00 4.00 ) " rx="0.60" ry="0.60" style="stroke:none;opacity:1;fill:rgb(255,255,255);" />
    <ellipse id="131" cy="19.52" cx="16.06" transform="matrix(1.00 0.00 0.00 1.00 84.00 4.00 ) " rx="0.60" ry="0.60" style="stroke:rgb(255,255,255);fill:none;stroke-linecap:butt;stroke-miterlimit:9;opacity:1;stroke-width:1.8061;stroke-linejoin:miter;" />
    <text id="132" transform="matrix(1.00 0.00 0.00 1.00 0.00 0.00 ) " x="84.00px" y="39.00px" style="stroke:none;clip-path:url(#134_text_clipper);font-family:Microsoft Sans Serif;font-size:8.25pt;opacity:1;">
      <tspan dy="8.25pt" id="136">BonVision</tspan>
    </text>
    <text id="138" transform="matrix(1.00 0.00 0.00 1.00 0.00 0.00 ) " x="84.00px" y="51.45px" style="stroke:none;clip-path:url(#140_text_clipper);font-family:Microsoft Sans Serif;font-size:8.25pt;opacity:1;">
      <tspan dy="8.25pt" id="142">Resources</tspan>
    </text>
    <path d="M 31.179 5.2 C 34.9985 11.0918 34.9814 18.682 31.13552 24.557 " style="stroke:rgb(169,169,169);fill:none;stroke-linecap:butt;stroke-miterlimit:9;opacity:1;stroke-width:2;stroke-linejoin:miter;" transform="matrix(1.00 0.00 0.00 1.00 84.00 84.00 ) " id="147" />
    <ellipse id="148" cy="15.00" cx="15.00" transform="matrix(1.00 0.00 0.00 1.00 84.00 84.00 ) " rx="15.00" ry="15.00" style="stroke:none;opacity:1;fill:rgb(91,178,126);" />
    <path d="M 15.011 14.916 15.15146 23.9388 M 23.14376 10.5618 15.01096 14.9158 6.97086 10.5618 M 6.924747 10.5618 15.15145 5.893101 23.14375 10.5618 23.14375 19.2433 15.15145 23.9386 6.924747 19.2433 z " style="stroke:rgb(255,255,255);fill:none;stroke-linecap:butt;stroke-miterlimit:9;opacity:1;stroke-width:2;stroke-linejoin:miter;" transform="matrix(1.00 0.00 0.00 1.00 84.00 84.00 ) " id="151" />
    <text id="152" transform="matrix(1.00 0.00 0.00 1.00 0.00 0.00 ) " x="84.00px" y="119.00px" style="stroke:none;clip-path:url(#154_text_clipper);font-family:Microsoft Sans Serif;font-size:8.25pt;opacity:1;">
      <tspan dy="8.25pt" id="156">RenderFrame</tspan>
    </text>
    <path d="M 31.179 5.2 C 34.9985 11.0918 34.9814 18.682 31.13552 24.557 " style="stroke:rgb(169,169,169);fill:none;stroke-linecap:butt;stroke-miterlimit:9;opacity:1;stroke-width:2;stroke-linejoin:miter;" transform="matrix(1.00 0.00 0.00 1.00 4.00 4.00 ) " id="158" />
    <ellipse id="159" cy="15.00" cx="15.00" transform="matrix(1.00 0.00 0.00 1.00 4.00 4.00 ) " rx="15.00" ry="15.00" style="stroke:none;opacity:1;fill:rgb(91,178,126);" />
    <path d="M 15.011 14.916 15.15146 23.9388 M 23.14376 10.5618 15.01096 14.9158 6.97086 10.5618 M 6.924747 10.5618 15.15145 5.893101 23.14375 10.5618 23.14375 19.2433 15.15145 23.9386 6.924747 19.2433 z " style="stroke:rgb(255,255,255);fill:none;stroke-linecap:butt;stroke-miterlimit:9;opacity:1;stroke-width:2;stroke-linejoin:miter;" transform="matrix(1.00 0.00 0.00 1.00 4.00 4.00 ) " id="160" />
    <text id="161" transform="matrix(1.00 0.00 0.00 1.00 0.00 0.00 ) " x="4.00px" y="39.00px" style="stroke:none;clip-path:url(#163_text_clipper);font-family:Microsoft Sans Serif;font-size:8.25pt;opacity:1;">
      <tspan dy="8.25pt" id="165">Create</tspan>
    </text>
    <text id="167" transform="matrix(1.00 0.00 0.00 1.00 0.00 0.00 ) " x="4.00px" y="51.45px" style="stroke:none;clip-path:url(#169_text_clipper);font-family:Microsoft Sans Serif;font-size:8.25pt;opacity:1;">
      <tspan dy="8.25pt" id="171">Window</tspan>
    </text>
  </g>
  <defs id="clips_hatches_and_gradients">
    <clipPath id="52_text_clipper">
      <rect x="244.00" y="39.00" width="50.31" height="27.65" id="53" />
    </clipPath>
    <clipPath id="58_text_clipper">
      <rect x="244.00" y="51.45" width="50.31" height="27.65" id="59" />
    </clipPath>
    <clipPath id="75_text_clipper">
      <rect x="244.00" y="119.00" width="30.10" height="13.83" id="76" />
    </clipPath>
    <clipPath id="92_text_clipper">
      <rect x="164.00" y="39.00" width="57.82" height="27.65" id="93" />
    </clipPath>
    <clipPath id="98_text_clipper">
      <rect x="164.00" y="51.45" width="57.82" height="27.65" id="99" />
    </clipPath>
    <clipPath id="116_text_clipper">
      <rect x="164.00" y="119.00" width="61.09" height="27.65" id="117" />
    </clipPath>
    <clipPath id="122_text_clipper">
      <rect x="164.00" y="131.45" width="61.09" height="27.65" id="123" />
    </clipPath>
    <clipPath id="134_text_clipper">
      <rect x="84.00" y="39.00" width="57.82" height="27.65" id="135" />
    </clipPath>
    <clipPath id="140_text_clipper">
      <rect x="84.00" y="51.45" width="57.82" height="27.65" id="141" />
    </clipPath>
    <clipPath id="154_text_clipper">
      <rect x="84.00" y="119.00" width="73.55" height="13.83" id="155" />
    </clipPath>
    <clipPath id="163_text_clipper">
      <rect x="4.00" y="39.00" width="44.03" height="27.65" id="164" />
    </clipPath>
    <clipPath id="169_text_clipper">
      <rect x="4.00" y="51.45" width="44.03" height="27.65" id="170" />
    </clipPath>
  </defs>
</svg>