<?xml version="1.0" standalone="yes"?><!DOCTYPE svg PUBLIC "-//W3C//DTD SVG 1.1//EN" "http://www.w3.org/Graphics/SVG/1.1/DTD/svg11.dtd"[
<!ENTITY E10 'M 31.179 5.2 C 34.9985 11.0918 34.9814 18.682 31.13552 24.557 '><!ENTITY E12 'matrix(1.00 0.00 0.00 1.00 84.00 4.00 ) '><!ENTITY E7 'stroke:none;opacity:1;fill:rgb(255,255,255);'><!ENTITY E11 'stroke:rgb(169,169,169);fill:none;stroke-linecap:butt;stroke-miterlimit:9;opacity:1;stroke-width:2;stroke-linejoin:miter;'><!ENTITY E1 'stroke:rgb(169,169,169);fill:none;stroke-linecap:butt;stroke-miterlimit:9;opacity:1;stroke-width:1;stroke-linejoin:miter;'><!ENTITY E9 'matrix(1.00 0.00 0.00 1.00 0.00 0.00 ) '><!ENTITY E3 'matrix(1.00 0.00 0.00 1.00 164.00 4.00 ) '><!ENTITY E24 'matrix(1.00 0.00 0.00 1.00 4.00 84.00 ) '><!ENTITY E6 'stroke:none;fill-rule:evenodd;opacity:1;fill:rgb(255,255,255);'><!ENTITY E13 'stroke:none;opacity:1;fill:rgb(91,178,126);'><!ENTITY E5 'M 18.422 13 13.4357 18.5006 10.8556 15.9868 6.500101 20.5001 23.9571 20.48582 z '><!ENTITY E20 'matrix(1.00 0.00 0.00 1.00 84.00 84.00 ) '>
]><svg width="224.7677" height="146.6504" id="SvgGdi_output" xmlns="http://www.w3.org/2000/svg" xmlns:xlink="http://www.w3.org/1999/xlink"><rect id="background" height="100.00%" style="fill:rgb(255,255,255);" width="100.00%" y="0.00" x="0.00" /><g style="shape-rendering:auto;" id="root_group"><line y1="19.00" style="&E1;" id="2" x2="160.00" y2="19.00" x1="118.00" /><line y1="99.00" id="3" x2="160.00" y2="19.00" x1="118.00" style="stroke-dasharray:4.00 2.00 ;stroke:rgb(169,169,169);fill:none;stroke-linecap:butt;stroke-miterlimit:9;opacity:1;stroke-width:1;stroke-linejoin:miter;" /><line y1="99.00" style="&E1;" id="4" x2="80.00" y2="99.00" x1="38.00" /><ellipse id="37" cy="15.00" cx="15.00" transform="&E3;" rx="15.00" ry="15.00" style="stroke:none;opacity:1;fill:rgb(68,154,223);" /><path d="&E5;" style="&E6;" transform="&E3;" id="41" /><ellipse id="42" cy="10.96" cx="10.92" transform="&E3;" rx="2.75" ry="2.75" style="&E7;" /><text id="43" transform="&E9;" x="164.00px" y="39.00px" style="stroke:none;clip-path:url(#45_text_clipper);font-family:Microsoft Sans Serif;fill:rgb(0,0,0);font-size:8.25pt;opacity:1;"><tspan dy="8.25pt" id="47">WarpAffine</tspan></text><path d="&E10;" style="&E11;" transform="&E12;" id="52" /><ellipse id="53" cy="15.00" cx="15.00" transform="&E12;" rx="15.00" ry="15.00" style="&E13;" /><path style="&E6;" transform="&E12;" id="57" d="M 23.75 9.1 19.5587 11.5211 19.5587 18.3937 23.75 20.8147 z " /><path style="&E6;" transform="&E12;" id="58" d="M 8.6927 9.2 15.7194 9.2 C 17.19 9.2 18.3739 10.4337 18.3739 11.9661 L 18.3739 17.8234 C 18.3739 19.3558 17.19 20.5893 15.7194 20.5893 L 8.692701 20.5893 C 7.222101 20.5893 6.038201 19.3558 6.038201 17.8234 L 6.038201 11.9661 C 6.038201 10.4337 7.222101 9.199999 8.692701 9.199999 z " /><text id="59" transform="&E9;" x="84.00px" y="39.00px" style="stroke:none;clip-path:url(#61_text_clipper);font-family:Microsoft Sans Serif;fill:rgb(0,0,0);font-size:8.25pt;opacity:1;"><tspan dy="8.25pt" id="63">Camera</tspan></text><text id="65" transform="&E9;" x="84.00px" y="51.45px" style="stroke:none;clip-path:url(#67_text_clipper);font-family:Microsoft Sans Serif;fill:rgb(0,0,0);font-size:8.25pt;opacity:1;"><tspan dy="8.25pt" id="69">Capture</tspan></text><path transform="&E20;" id="73" d="M 15 0 C 15.40124 0 15.79355 0 16.1868 0.032679 L 17.4764 1.671279 C 18.19501 1.803959 18.878 1.976879 19.5521 2.217729 L 21.4286 1.483419 C 22.13968 1.823279 22.8289 2.226899 23.4726 2.670219 L 23.8493 4.621219 C 24.39461 5.086599 24.9133 5.605469 25.3788 6.150719 L 27.3298 6.494379 C 27.77262 7.137679 28.17707 7.860779 28.5166 8.57128 L 27.74584 10.44788 C 27.98674 11.12204 28.19601 11.80508 28.32852 12.52348 L 29.96712 13.81308 C 29.99807 14.2062 30.00009 14.59888 30.00009 14.99988 30.00009 15.39224 29.99671 15.76908 29.96712 16.15388 L 28.32852 17.43998 C 28.19832 18.14633 28.01721 18.85248 27.78226 19.51558 L 28.51657 21.42868 C 28.17593 22.14291 27.77461 22.82648 27.32977 23.47268 L 25.37877 23.81302 C 24.91321 24.35829 24.39455 24.87682 23.84927 25.34242 L 23.47257 27.32992 C 22.82847 27.77371 22.14007 28.17669 21.42857 28.51662 L 19.51567 27.74597 C 18.85121 27.98162 18.18377 28.19809 17.47627 28.32876 L 16.18677 29.93436 C 15.79348 29.965 15.40117 29.99982 14.99997 29.99982 14.59873 29.99982 14.17345 29.96607 13.78017 29.93436 L 12.55997 28.32876 C 11.86172 28.19999 11.14067 27.977 10.48427 27.74597 L 8.571372 28.51662 C 7.856242 28.17558 7.174472 27.7755 6.527372 27.32992 L 6.150662 25.30622 C 5.617232 24.84794 5.114162 24.34789 4.657562 23.81302 L 2.670162 23.47268 C 2.225282 22.82649 1.823962 22.14288 1.483362 21.42868 L 2.254122 19.51558 C 2.022912 18.85918 1.800192 18.13838 1.671442 17.43998 L 0.06584227 16.18678 C 0.03489427 15.79366 -9.272993E-05 15.4013 -9.272993E-05 14.99998 -9.272993E-05 14.59894 0.03489527 14.20625 0.06584227 13.81318 L 1.671442 12.52358 C 1.801892 11.81616 2.018542 11.14888 2.254122 10.48438 L 1.483362 8.571277 C 1.822922 7.860797 2.227392 7.137677 2.670162 6.494377 L 4.657562 6.150717 C 5.114192 5.615747 5.617242 5.115817 6.150662 4.657517 L 6.527372 2.670117 C 7.174102 2.224717 7.856672 1.824207 8.571372 1.483317 L 10.48427 2.217627 C 11.14757 1.982687 11.85387 1.801607 12.55997 1.671177 L 13.84607 0.0325768 C 14.23082 0.003004799 14.60761 -0.0001021996 14.99987 -0.0001021996 z " style="stroke:none;fill-rule:evenodd;opacity:1;fill:rgb(128,128,128);" /><path transform="&E20;" id="78" style="stroke:rgb(255,255,255);fill:none;stroke-linecap:butt;stroke-miterlimit:9;opacity:1;stroke-width:2;stroke-linejoin:miter;" d="M 16.849 10.062 23.4027 10.062 M 16.6038 19.6084 23.3505 19.6084 M 12.3075 17.1615 7.5719 21.8971 M 7.577335 17.152 12.31704 21.8917 M 6.564136 10.0047 13.30904 10.0047 M 9.936636 6.6288 9.936636 13.3806 " /><ellipse id="79" cy="16.33" cx="19.93" transform="&E20;" rx="1.30" ry="1.30" style="&E7;" /><ellipse id="80" cy="22.83" cx="19.93" transform="&E20;" rx="1.30" ry="1.30" style="&E7;" /><text id="81" transform="&E9;" x="84.00px" y="119.00px" style="stroke:none;clip-path:url(#83_text_clipper);font-family:Microsoft Sans Serif;fill:rgb(0,0,0);font-size:8.25pt;opacity:1;"><tspan dy="8.25pt" id="85">Transform</tspan></text><path d="&E10;" style="&E11;" transform="&E24;" id="87" /><ellipse id="88" cy="15.00" cx="15.00" transform="&E24;" rx="15.00" ry="15.00" style="&E13;" /><path d="&E5;" style="&E6;" transform="&E24;" id="89" /><ellipse id="90" cy="10.96" cx="10.92" transform="&E24;" rx="2.75" ry="2.75" style="&E7;" /><ellipse id="91" cy="99.00" cx="4.00" rx="3.00" ry="3.00" style="&E11;" /><ellipse id="92" cy="99.00" cx="4.00" rx="3.00" ry="3.00" style="&E7;" /><text id="93" transform="&E9;" x="4.00px" y="119.00px" style="stroke:none;clip-path:url(#95_text_clipper);font-family:Microsoft Sans Serif;fill:rgb(0,0,0);font-size:8.25pt;opacity:1;"><tspan dy="8.25pt" id="97">Affine</tspan></text><text id="99" transform="&E9;" x="4.00px" y="131.45px" style="stroke:none;clip-path:url(#101_text_clipper);font-family:Microsoft Sans Serif;fill:rgb(0,0,0);font-size:8.25pt;opacity:1;"><tspan dy="8.25pt" id="103">Transform</tspan></text></g><defs id="clips_hatches_and_gradients"><clipPath id="45_text_clipper"><rect x="164.00" y="39.00" width="59.77" height="13.83" id="46" /></clipPath><clipPath id="61_text_clipper"><rect x="84.00" y="39.00" width="43.97" height="27.65" id="62" /></clipPath><clipPath id="67_text_clipper"><rect x="84.00" y="51.45" width="43.97" height="27.65" id="68" /></clipPath><clipPath id="83_text_clipper"><rect x="84.00" y="119.00" width="55.28" height="13.83" id="84" /></clipPath><clipPath id="95_text_clipper"><rect x="4.00" y="119.00" width="55.28" height="27.65" id="96" /></clipPath><clipPath id="101_text_clipper"><rect x="4.00" y="131.45" width="55.28" height="27.65" id="102" /></clipPath></defs></svg>