<?xml version="1.0" standalone="yes"?><!DOCTYPE svg PUBLIC "-//W3C//DTD SVG 1.1//EN" "http://www.w3.org/Graphics/SVG/1.1/DTD/svg11.dtd"[
<!ENTITY E11 'stroke:none;opacity:1;fill:rgb(68,154,223);'><!ENTITY E10 'matrix(1.00 0.00 0.00 1.00 564.00 4.00 ) '><!ENTITY E3 'stroke:rgb(169,169,169);fill:none;stroke-linecap:butt;stroke-miterlimit:9;opacity:1;stroke-width:2;stroke-linejoin:miter;'><!ENTITY E9 'matrix(1.00 0.00 0.00 1.00 0.00 0.00 ) '><!ENTITY E7 'stroke:none;fill-rule:evenodd;opacity:1;fill:rgb(255,255,255);'><!ENTITY E16 'matrix(1.00 0.00 0.00 1.00 484.00 4.00 ) '><!ENTITY E23 'M 18.422 13 13.4357 18.5006 10.8556 15.9868 6.500101 20.5001 23.9571 20.48582 z '><!ENTITY E31 'matrix(1.00 0.00 0.00 1.00 164.00 4.00 ) '><!ENTITY E1 'stroke:rgb(169,169,169);fill:none;stroke-linecap:butt;stroke-miterlimit:9;opacity:1;stroke-width:1;stroke-linejoin:miter;'><!ENTITY E14 'stroke:none;opacity:1;fill:rgb(255,255,255);'><!ENTITY E36 'matrix(1.00 0.00 0.00 1.00 4.00 4.00 ) '><!ENTITY E33 'matrix(1.00 0.00 0.00 1.00 84.00 4.00 ) '><!ENTITY E26 'matrix(1.00 0.00 0.00 1.00 324.00 4.00 ) '><!ENTITY E29 'matrix(1.00 0.00 0.00 1.00 244.00 4.00 ) '><!ENTITY E22 'matrix(1.00 0.00 0.00 1.00 404.00 4.00 ) '><!ENTITY E4 'matrix(1.00 0.00 0.00 1.00 644.00 4.00 ) '>
]><svg width="714.3551" height="66.65038" id="SvgGdi_output" xmlns="http://www.w3.org/2000/svg" xmlns:xlink="http://www.w3.org/1999/xlink"><rect id="background" height="100.00%" style="fill:rgb(255,255,255);" width="100.00%" y="0.00" x="0.00" /><g style="shape-rendering:auto;" id="root_group"><line y1="19.00" style="&E1;" id="2" x2="640.00" y2="19.00" x1="598.00" /><line y1="19.00" style="&E1;" id="3" x2="560.00" y2="19.00" x1="518.00" /><line y1="19.00" style="&E1;" id="4" x2="480.00" y2="19.00" x1="438.00" /><line y1="19.00" style="&E1;" id="5" x2="400.00" y2="19.00" x1="358.00" /><line y1="19.00" style="&E1;" id="6" x2="320.00" y2="19.00" x1="278.00" /><line y1="19.00" style="&E1;" id="7" x2="240.00" y2="19.00" x1="198.00" /><line y1="19.00" style="&E1;" id="8" x2="160.00" y2="19.00" x1="118.00" /><line y1="19.00" style="&E1;" id="9" x2="80.00" y2="19.00" x1="38.00" /><path style="&E3;" transform="&E4;" id="43" d="M 10.158 33.2 C 3.4054 31.7591 -1.861 26.4692 -3.271 19.71 " /><ellipse id="44" cy="15.00" cx="15.00" transform="&E4;" rx="15.00" ry="15.00" style="stroke:none;opacity:1;fill:rgb(155,91,179);" /><path style="&E7;" transform="&E4;" id="47" d="M 11.529 25.444 20.7834 12.908 16.3203 12.908 18.355 4.7687 9.100601 17.3047 13.5637 17.3047 z " /><text id="48" transform="&E9;" x="644.00px" y="39.00px" style="stroke:none;clip-path:url(#50_text_clipper);font-family:Microsoft Sans Serif;fill:rgb(0,0,0);font-size:8.25pt;opacity:1;"><tspan dy="8.25pt" id="52">DigitalOutput</tspan></text><ellipse id="56" cy="15.00" cx="15.00" transform="&E10;" rx="15.00" ry="15.00" style="&E11;" /><path transform="&E10;" id="61" style="stroke:rgb(255,255,255);fill:none;stroke-linecap:butt;stroke-miterlimit:9;opacity:1;stroke-width:2;stroke-linejoin:miter;" d="M 16.849 10.062 23.4027 10.062 M 16.6038 19.6084 23.3505 19.6084 M 12.3075 17.1615 7.5719 21.8971 M 7.577335 17.152 12.31704 21.8917 M 6.564136 10.0047 13.30904 10.0047 M 9.936636 6.6288 9.936636 13.3806 " /><ellipse id="62" cy="16.33" cx="19.93" transform="&E10;" rx="1.30" ry="1.30" style="&E14;" /><ellipse id="63" cy="22.83" cx="19.93" transform="&E10;" rx="1.30" ry="1.30" style="&E14;" /><text id="64" transform="&E9;" x="564.00px" y="39.00px" style="stroke:none;clip-path:url(#66_text_clipper);font-family:Microsoft Sans Serif;fill:rgb(0,0,0);font-size:8.25pt;opacity:1;"><tspan dy="8.25pt" id="68">LessThan</tspan></text><ellipse id="70" cy="15.00" cx="15.00" transform="&E16;" rx="15.00" ry="15.00" style="&E11;" /><path style="&E7;" transform="&E16;" id="76" d="M 10.824 9.4752 3.5613 15.0588 10.824 20.6107 10.81521 18.3247 6.519011 15.0267 10.82391 11.7422 z " /><path style="&E7;" transform="&E16;" id="77" d="M 15.365 7.2336 C 15.34647 7.33547 15.32125 7.4371 15.31422 7.5375 14.41077 12.6441 13.49692 17.7495 12.59942 22.8575 12.59508 22.88635 12.6018 22.91223 12.59942 22.94062 L 14.62872 22.94062 C 14.70348 22.53324 14.73679 22.1026 14.8377 21.71462 15.68204 16.94102 16.5365 12.17012 17.3748 7.394619 17.38163 7.340435 17.37866 7.287239 17.3787 7.233579 z " /><path style="&E7;" transform="&E16;" id="78" d="M 19.044 9.4746 26.3067 15.0582 19.044 20.6101 19.05279 18.3241 23.34899 15.0261 19.04409 11.7416 z " /><text id="79" transform="&E9;" x="484.00px" y="39.00px" style="stroke:none;clip-path:url(#81_text_clipper);font-family:Microsoft Sans Serif;fill:rgb(0,0,0);font-size:8.25pt;opacity:1;"><tspan dy="8.25pt" id="83">Python</tspan></text><text id="85" transform="&E9;" x="484.00px" y="51.45px" style="stroke:none;clip-path:url(#87_text_clipper);font-family:Microsoft Sans Serif;fill:rgb(0,0,0);font-size:8.25pt;opacity:1;"><tspan dy="8.25pt" id="89">Transform</tspan></text><ellipse id="91" cy="15.00" cx="15.00" transform="&E22;" rx="15.00" ry="15.00" style="&E11;" /><path d="&E23;" style="&E7;" transform="&E22;" id="95" /><ellipse id="96" cy="10.96" cx="10.92" transform="&E22;" rx="2.75" ry="2.75" style="&E14;" /><text id="97" transform="&E9;" x="404.00px" y="39.00px" style="stroke:none;clip-path:url(#99_text_clipper);font-family:Microsoft Sans Serif;fill:rgb(0,0,0);font-size:8.25pt;opacity:1;"><tspan dy="8.25pt" id="101">SortBinary</tspan></text><text id="103" transform="&E9;" x="404.00px" y="51.45px" style="stroke:none;clip-path:url(#105_text_clipper);font-family:Microsoft Sans Serif;fill:rgb(0,0,0);font-size:8.25pt;opacity:1;"><tspan dy="8.25pt" id="107">Regions</tspan></text><ellipse id="109" cy="15.00" cx="15.00" transform="&E26;" rx="15.00" ry="15.00" style="&E11;" /><path d="&E23;" style="&E7;" transform="&E26;" id="110" /><ellipse id="111" cy="10.96" cx="10.92" transform="&E26;" rx="2.75" ry="2.75" style="&E14;" /><text id="112" transform="&E9;" x="324.00px" y="39.00px" style="stroke:none;clip-path:url(#114_text_clipper);font-family:Microsoft Sans Serif;fill:rgb(0,0,0);font-size:8.25pt;opacity:1;"><tspan dy="8.25pt" id="116">BinaryRegion</tspan></text><text id="118" transform="&E9;" x="324.00px" y="51.45px" style="stroke:none;clip-path:url(#120_text_clipper);font-family:Microsoft Sans Serif;fill:rgb(0,0,0);font-size:8.25pt;opacity:1;"><tspan dy="8.25pt" id="122">Analysis</tspan></text><ellipse id="124" cy="15.00" cx="15.00" transform="&E29;" rx="15.00" ry="15.00" style="&E11;" /><path d="&E23;" style="&E7;" transform="&E29;" id="125" /><ellipse id="126" cy="10.96" cx="10.92" transform="&E29;" rx="2.75" ry="2.75" style="&E14;" /><text id="127" transform="&E9;" x="244.00px" y="39.00px" style="stroke:none;clip-path:url(#129_text_clipper);font-family:Microsoft Sans Serif;fill:rgb(0,0,0);font-size:8.25pt;opacity:1;"><tspan dy="8.25pt" id="131">FindContours</tspan></text><ellipse id="133" cy="15.00" cx="15.00" transform="&E31;" rx="15.00" ry="15.00" style="&E11;" /><path d="&E23;" style="&E7;" transform="&E31;" id="134" /><ellipse id="135" cy="10.96" cx="10.92" transform="&E31;" rx="2.75" ry="2.75" style="&E14;" /><text id="136" transform="&E9;" x="164.00px" y="39.00px" style="stroke:none;clip-path:url(#138_text_clipper);font-family:Microsoft Sans Serif;fill:rgb(0,0,0);font-size:8.25pt;opacity:1;"><tspan dy="8.25pt" id="140">HsvThreshold</tspan></text><ellipse id="142" cy="15.00" cx="15.00" transform="&E33;" rx="15.00" ry="15.00" style="&E11;" /><path d="&E23;" style="&E7;" transform="&E33;" id="143" /><ellipse id="144" cy="10.96" cx="10.92" transform="&E33;" rx="2.75" ry="2.75" style="&E14;" /><text id="145" transform="&E9;" x="84.00px" y="39.00px" style="stroke:none;clip-path:url(#147_text_clipper);font-family:Microsoft Sans Serif;fill:rgb(0,0,0);font-size:8.25pt;opacity:1;"><tspan dy="8.25pt" id="149">ConvertColor</tspan></text><path style="&E3;" transform="&E36;" id="154" d="M 31.179 5.2 C 34.9985 11.0918 34.9814 18.682 31.13552 24.557 " /><ellipse id="155" cy="15.00" cx="15.00" transform="&E36;" rx="15.00" ry="15.00" style="stroke:none;opacity:1;fill:rgb(91,178,126);" /><path style="&E7;" transform="&E36;" id="159" d="M 23.75 9.1 19.5587 11.5211 19.5587 18.3937 23.75 20.8147 z " /><path style="&E7;" transform="&E36;" id="160" d="M 8.6927 9.2 15.7194 9.2 C 17.19 9.2 18.3739 10.4337 18.3739 11.9661 L 18.3739 17.8234 C 18.3739 19.3558 17.19 20.5893 15.7194 20.5893 L 8.692701 20.5893 C 7.222101 20.5893 6.038201 19.3558 6.038201 17.8234 L 6.038201 11.9661 C 6.038201 10.4337 7.222101 9.199999 8.692701 9.199999 z " /><text id="161" transform="&E9;" x="4.00px" y="39.00px" style="stroke:none;clip-path:url(#163_text_clipper);font-family:Microsoft Sans Serif;fill:rgb(0,0,0);font-size:8.25pt;opacity:1;"><tspan dy="8.25pt" id="165">Camera</tspan></text><text id="167" transform="&E9;" x="4.00px" y="51.45px" style="stroke:none;clip-path:url(#169_text_clipper);font-family:Microsoft Sans Serif;fill:rgb(0,0,0);font-size:8.25pt;opacity:1;"><tspan dy="8.25pt" id="171">Capture</tspan></text></g><defs id="clips_hatches_and_gradients"><clipPath id="50_text_clipper"><rect x="644.00" y="39.00" width="69.36" height="13.83" id="51" /></clipPath><clipPath id="66_text_clipper"><rect x="564.00" y="39.00" width="53.42" height="13.83" id="67" /></clipPath><clipPath id="81_text_clipper"><rect x="484.00" y="39.00" width="55.28" height="27.65" id="82" /></clipPath><clipPath id="87_text_clipper"><rect x="484.00" y="51.45" width="55.28" height="27.65" id="88" /></clipPath><clipPath id="99_text_clipper"><rect x="404.00" y="39.00" width="56.62" height="27.65" id="100" /></clipPath><clipPath id="105_text_clipper"><rect x="404.00" y="51.45" width="56.62" height="27.65" id="106" /></clipPath><clipPath id="114_text_clipper"><rect x="324.00" y="39.00" width="71.81" height="27.65" id="115" /></clipPath><clipPath id="120_text_clipper"><rect x="324.00" y="51.45" width="71.81" height="27.65" id="121" /></clipPath><clipPath id="129_text_clipper"><rect x="244.00" y="39.00" width="71.74" height="13.83" id="130" /></clipPath><clipPath id="138_text_clipper"><rect x="164.00" y="39.00" width="73.63" height="13.83" id="139" /></clipPath><clipPath id="147_text_clipper"><rect x="84.00" y="39.00" width="70.47" height="13.83" id="148" /></clipPath><clipPath id="163_text_clipper"><rect x="4.00" y="39.00" width="43.97" height="27.65" id="164" /></clipPath><clipPath id="169_text_clipper"><rect x="4.00" y="51.45" width="43.97" height="27.65" id="170" /></clipPath></defs></svg>