<?xml version="1.0" standalone="yes"?><!DOCTYPE svg PUBLIC "-//W3C//DTD SVG 1.1//EN" "http://www.w3.org/Graphics/SVG/1.1/DTD/svg11.dtd"[
<!ENTITY E11 'stroke:none;opacity:1;fill:rgb(68,154,223);'><!ENTITY E4 'matrix(1.00 0.00 0.00 1.00 564.00 4.00 ) '><!ENTITY E3 'stroke:rgb(169,169,169);fill:none;stroke-linecap:butt;stroke-miterlimit:9;opacity:1;stroke-width:2;stroke-linejoin:miter;'><!ENTITY E9 'matrix(1.00 0.00 0.00 1.00 0.00 0.00 ) '><!ENTITY E7 'stroke:none;fill-rule:evenodd;opacity:1;fill:rgb(255,255,255);'><!ENTITY E10 'matrix(1.00 0.00 0.00 1.00 484.00 4.00 ) '><!ENTITY E27 'matrix(1.00 0.00 0.00 1.00 164.00 4.00 ) '><!ENTITY E13 'stroke:rgb(255,255,255);fill:none;stroke-linecap:butt;stroke-miterlimit:9;opacity:1;stroke-width:2;stroke-linejoin:miter;'><!ENTITY E14 'stroke:none;opacity:1;fill:rgb(255,255,255);'><!ENTITY E32 'matrix(1.00 0.00 0.00 1.00 4.00 4.00 ) '><!ENTITY E29 'matrix(1.00 0.00 0.00 1.00 84.00 4.00 ) '><!ENTITY E21 'matrix(1.00 0.00 0.00 1.00 324.00 4.00 ) '><!ENTITY E24 'matrix(1.00 0.00 0.00 1.00 244.00 4.00 ) '><!ENTITY E25 'M 18.422 13 13.4357 18.5006 10.8556 15.9868 6.500101 20.5001 23.9571 20.48582 z '><!ENTITY E16 'matrix(1.00 0.00 0.00 1.00 404.00 4.00 ) '><!ENTITY E1 'stroke:rgb(169,169,169);fill:none;stroke-linecap:butt;stroke-miterlimit:9;opacity:1;stroke-width:1;stroke-linejoin:miter;'>
]><svg width="634.3551" height="66.65038" id="SvgGdi_output" xmlns="http://www.w3.org/2000/svg" xmlns:xlink="http://www.w3.org/1999/xlink"><rect id="background" height="100.00%" style="fill:rgb(255,255,255);" width="100.00%" y="0.00" x="0.00" /><g style="shape-rendering:auto;" id="root_group"><line y1="19.00" style="&E1;" id="2" x2="560.00" y2="19.00" x1="518.00" /><line y1="19.00" style="&E1;" id="3" x2="480.00" y2="19.00" x1="438.00" /><line y1="19.00" style="&E1;" id="4" x2="400.00" y2="19.00" x1="358.00" /><line y1="19.00" style="&E1;" id="5" x2="320.00" y2="19.00" x1="278.00" /><line y1="19.00" style="&E1;" id="6" x2="240.00" y2="19.00" x1="198.00" /><line y1="19.00" style="&E1;" id="7" x2="160.00" y2="19.00" x1="118.00" /><line y1="19.00" style="&E1;" id="8" x2="80.00" y2="19.00" x1="38.00" /><path style="&E3;" transform="&E4;" id="42" d="M 10.158 33.2 C 3.4054 31.7591 -1.861 26.4692 -3.271 19.71 " /><ellipse id="43" cy="15.00" cx="15.00" transform="&E4;" rx="15.00" ry="15.00" style="stroke:none;opacity:1;fill:rgb(155,91,179);" /><path style="&E7;" transform="&E4;" id="46" d="M 11.529 25.444 20.7834 12.908 16.3203 12.908 18.355 4.7687 9.100601 17.3047 13.5637 17.3047 z " /><text id="47" transform="&E9;" x="564.00px" y="39.00px" style="stroke:none;clip-path:url(#49_text_clipper);font-family:Microsoft Sans Serif;fill:rgb(0,0,0);font-size:8.25pt;opacity:1;"><tspan dy="8.25pt" id="51">DigitalOutput</tspan></text><ellipse id="55" cy="15.00" cx="15.00" transform="&E10;" rx="15.00" ry="15.00" style="&E11;" /><path style="&E13;" transform="&E10;" id="60" d="M 16.849 10.062 23.4027 10.062 M 16.6038 19.6084 23.3505 19.6084 M 12.3075 17.1615 7.5719 21.8971 M 7.577335 17.152 12.31704 21.8917 M 6.564136 10.0047 13.30904 10.0047 M 9.936636 6.6288 9.936636 13.3806 " /><ellipse id="61" cy="16.33" cx="19.93" transform="&E10;" rx="1.30" ry="1.30" style="&E14;" /><ellipse id="62" cy="22.83" cx="19.93" transform="&E10;" rx="1.30" ry="1.30" style="&E14;" /><text id="63" transform="&E9;" x="484.00px" y="39.00px" style="stroke:none;clip-path:url(#65_text_clipper);font-family:Microsoft Sans Serif;fill:rgb(0,0,0);font-size:8.25pt;opacity:1;"><tspan dy="8.25pt" id="67">GreaterThan</tspan></text><ellipse id="69" cy="15.00" cx="15.00" transform="&E16;" rx="15.00" ry="15.00" style="&E11;" /><path style="&E7;" transform="&E16;" id="74" d="M 19.156 13.888 19.156 10.3647 19.156 6.841399 25.2585 10.3647 22.2072 12.1264 z " /><path style="&E7;" transform="&E16;" id="75" d="M 19.156 22.97 19.156 19.4467 19.156 15.9234 25.2585 19.4467 22.2072 21.2084 z " /><path style="&E13;" transform="&E16;" id="76" d="M 5.5001 19.484 10.6493 19.484 16.2743 10.2485 19.3728 10.2485 M 14.6769 17.1481 16.3089 19.4828 19.2202 19.4828 M 5.500199 10.2437 10.7586 10.2437 12.1652 12.8707 " /><text id="77" transform="&E9;" x="404.00px" y="39.00px" style="stroke:none;clip-path:url(#79_text_clipper);font-family:Microsoft Sans Serif;fill:rgb(0,0,0);font-size:8.25pt;opacity:1;"><tspan dy="8.25pt" id="81">Val0</tspan></text><ellipse id="83" cy="15.00" cx="15.00" transform="&E21;" rx="15.00" ry="15.00" style="&E11;" /><path style="&E13;" transform="&E21;" id="86" d="M 20.824 23.115 20.824 7.098999 M 17.3572 17.48 17.3572 12.7339 M 13.8904 21.2046 13.8904 9.009602 M 10.4236 18.6248 10.4236 11.5896 M 6.9568 16.3923 6.9568 13.822 " /><text id="87" transform="&E9;" x="324.00px" y="39.00px" style="stroke:none;clip-path:url(#89_text_clipper);font-family:Microsoft Sans Serif;fill:rgb(0,0,0);font-size:8.25pt;opacity:1;"><tspan dy="8.25pt" id="91">Sum</tspan></text><ellipse id="93" cy="15.00" cx="15.00" transform="&E24;" rx="15.00" ry="15.00" style="&E11;" /><path d="&E25;" style="&E7;" transform="&E24;" id="97" /><ellipse id="98" cy="10.96" cx="10.92" transform="&E24;" rx="2.75" ry="2.75" style="&E14;" /><text id="99" transform="&E9;" x="244.00px" y="39.00px" style="stroke:none;clip-path:url(#101_text_clipper);font-family:Microsoft Sans Serif;fill:rgb(0,0,0);font-size:8.25pt;opacity:1;"><tspan dy="8.25pt" id="103">Threshold</tspan></text><ellipse id="105" cy="15.00" cx="15.00" transform="&E27;" rx="15.00" ry="15.00" style="&E11;" /><path d="&E25;" style="&E7;" transform="&E27;" id="106" /><ellipse id="107" cy="10.96" cx="10.92" transform="&E27;" rx="2.75" ry="2.75" style="&E14;" /><text id="108" transform="&E9;" x="164.00px" y="39.00px" style="stroke:none;clip-path:url(#110_text_clipper);font-family:Microsoft Sans Serif;fill:rgb(0,0,0);font-size:8.25pt;opacity:1;"><tspan dy="8.25pt" id="112">Grayscale</tspan></text><ellipse id="114" cy="15.00" cx="15.00" transform="&E29;" rx="15.00" ry="15.00" style="&E11;" /><path d="&E25;" style="&E7;" transform="&E29;" id="115" /><ellipse id="116" cy="10.96" cx="10.92" transform="&E29;" rx="2.75" ry="2.75" style="&E14;" /><text id="117" transform="&E9;" x="84.00px" y="39.00px" style="stroke:none;clip-path:url(#119_text_clipper);font-family:Microsoft Sans Serif;fill:rgb(0,0,0);font-size:8.25pt;opacity:1;"><tspan dy="8.25pt" id="121">Crop</tspan></text><path style="&E3;" transform="&E32;" id="126" d="M 31.179 5.2 C 34.9985 11.0918 34.9814 18.682 31.13552 24.557 " /><ellipse id="127" cy="15.00" cx="15.00" transform="&E32;" rx="15.00" ry="15.00" style="stroke:none;opacity:1;fill:rgb(91,178,126);" /><path style="&E7;" transform="&E32;" id="131" d="M 23.75 9.1 19.5587 11.5211 19.5587 18.3937 23.75 20.8147 z " /><path style="&E7;" transform="&E32;" id="132" d="M 8.6927 9.2 15.7194 9.2 C 17.19 9.2 18.3739 10.4337 18.3739 11.9661 L 18.3739 17.8234 C 18.3739 19.3558 17.19 20.5893 15.7194 20.5893 L 8.692701 20.5893 C 7.222101 20.5893 6.038201 19.3558 6.038201 17.8234 L 6.038201 11.9661 C 6.038201 10.4337 7.222101 9.199999 8.692701 9.199999 z " /><text id="133" transform="&E9;" x="4.00px" y="39.00px" style="stroke:none;clip-path:url(#135_text_clipper);font-family:Microsoft Sans Serif;fill:rgb(0,0,0);font-size:8.25pt;opacity:1;"><tspan dy="8.25pt" id="137">Camera</tspan></text><text id="139" transform="&E9;" x="4.00px" y="51.45px" style="stroke:none;clip-path:url(#141_text_clipper);font-family:Microsoft Sans Serif;fill:rgb(0,0,0);font-size:8.25pt;opacity:1;"><tspan dy="8.25pt" id="143">Capture</tspan></text></g><defs id="clips_hatches_and_gradients"><clipPath id="49_text_clipper"><rect x="564.00" y="39.00" width="69.36" height="13.83" id="50" /></clipPath><clipPath id="65_text_clipper"><rect x="484.00" y="39.00" width="67.89" height="13.83" id="66" /></clipPath><clipPath id="79_text_clipper"><rect x="404.00" y="39.00" width="26.41" height="13.83" id="80" /></clipPath><clipPath id="89_text_clipper"><rect x="324.00" y="39.00" width="26.96" height="13.83" id="90" /></clipPath><clipPath id="101_text_clipper"><rect x="244.00" y="39.00" width="54.11" height="13.83" id="102" /></clipPath><clipPath id="110_text_clipper"><rect x="164.00" y="39.00" width="54.74" height="13.83" id="111" /></clipPath><clipPath id="119_text_clipper"><rect x="84.00" y="39.00" width="28.22" height="13.83" id="120" /></clipPath><clipPath id="135_text_clipper"><rect x="4.00" y="39.00" width="43.97" height="27.65" id="136" /></clipPath><clipPath id="141_text_clipper"><rect x="4.00" y="51.45" width="43.97" height="27.65" id="142" /></clipPath></defs></svg>