<?xml version="1.0" standalone="yes"?><!DOCTYPE svg PUBLIC "-//W3C//DTD SVG 1.1//EN" "http://www.w3.org/Graphics/SVG/1.1/DTD/svg11.dtd"[
<!ENTITY E4 'stroke:none;opacity:1;fill:rgb(68,154,223);'><!ENTITY E10 'M 15 0 C 15.40124 0 15.79355 0 16.1868 0.032679 L 17.4764 1.671279 C 18.19501 1.803959 18.878 1.976879 19.5521 2.217729 L 21.4286 1.483419 C 22.13968 1.823279 22.8289 2.226899 23.4726 2.670219 L 23.8493 4.621219 C 24.39461 5.086599 24.9133 5.605469 25.3788 6.150719 L 27.3298 6.494379 C 27.77262 7.137679 28.17707 7.860779 28.5166 8.57128 L 27.74584 10.44788 C 27.98674 11.12204 28.19601 11.80508 28.32852 12.52348 L 29.96712 13.81308 C 29.99807 14.2062 30.00009 14.59888 30.00009 14.99988 30.00009 15.39224 29.99671 15.76908 29.96712 16.15388 L 28.32852 17.43998 C 28.19832 18.14633 28.01721 18.85248 27.78226 19.51558 L 28.51657 21.42868 C 28.17593 22.14291 27.77461 22.82648 27.32977 23.47268 L 25.37877 23.81302 C 24.91321 24.35829 24.39455 24.87682 23.84927 25.34242 L 23.47257 27.32992 C 22.82847 27.77371 22.14007 28.17669 21.42857 28.51662 L 19.51567 27.74597 C 18.85121 27.98162 18.18377 28.19809 17.47627 28.32876 L 16.18677 29.93436 C 15.79348 29.965 15.40117 29.99982 14.99997 29.99982 14.59873 29.99982 14.17345 29.96607 13.78017 29.93436 L 12.55997 28.32876 C 11.86172 28.19999 11.14067 27.977 10.48427 27.74597 L 8.571372 28.51662 C 7.856242 28.17558 7.174472 27.7755 6.527372 27.32992 L 6.150662 25.30622 C 5.617232 24.84794 5.114162 24.34789 4.657562 23.81302 L 2.670162 23.47268 C 2.225282 22.82649 1.823962 22.14288 1.483362 21.42868 L 2.254122 19.51558 C 2.022912 18.85918 1.800192 18.13838 1.671442 17.43998 L 0.06584227 16.18678 C 0.03489427 15.79366 -9.272993E-05 15.4013 -9.272993E-05 14.99998 -9.272993E-05 14.59894 0.03489527 14.20625 0.06584227 13.81318 L 1.671442 12.52358 C 1.801892 11.81616 2.018542 11.14888 2.254122 10.48438 L 1.483362 8.571277 C 1.822922 7.860797 2.227392 7.137677 2.670162 6.494377 L 4.657562 6.150717 C 5.114192 5.615747 5.617242 5.115817 6.150662 4.657517 L 6.527372 2.670117 C 7.174102 2.224717 7.856672 1.824207 8.571372 1.483317 L 10.48427 2.217627 C 11.14757 1.982687 11.85387 1.801607 12.55997 1.671177 L 13.84607 0.0325768 C 14.23082 0.003004799 14.60761 -0.0001021996 14.99987 -0.0001021996 z '><!ENTITY E31 'matrix(1.00 0.00 0.00 1.00 244.00 84.00 ) '><!ENTITY E3 'matrix(1.00 0.00 0.00 1.00 724.00 4.00 ) '><!ENTITY E22 'matrix(1.00 0.00 0.00 1.00 484.00 84.00 ) '><!ENTITY E6 'stroke:none;fill-rule:evenodd;opacity:1;fill:rgb(255,255,255);'><!ENTITY E17 'stroke:rgb(169,169,169);fill:none;stroke-linecap:butt;stroke-miterlimit:9;opacity:1;stroke-width:2;stroke-linejoin:miter;'><!ENTITY E27 'matrix(1.00 0.00 0.00 1.00 404.00 84.00 ) '><!ENTITY E19 'stroke:none;opacity:1;fill:rgb(91,178,126);'><!ENTITY E12 'matrix(1.00 0.00 0.00 1.00 644.00 84.00 ) '><!ENTITY E14 'stroke:rgb(255,255,255);fill:none;stroke-linecap:butt;stroke-miterlimit:9;opacity:1;stroke-width:2;stroke-linejoin:miter;'><!ENTITY E1 'stroke:rgb(169,169,169);fill:none;stroke-linecap:butt;stroke-miterlimit:9;opacity:1;stroke-width:1;stroke-linejoin:miter;'><!ENTITY E13 'M 16.849 10.062 23.4027 10.062 M 16.6038 19.6084 23.3505 19.6084 M 12.3075 17.1615 7.5719 21.8971 M 7.577335 17.152 12.31704 21.8917 M 6.564136 10.0047 13.30904 10.0047 M 9.936636 6.6288 9.936636 13.3806 '><!ENTITY E37 'matrix(1.00 0.00 0.00 1.00 4.00 4.00 ) '><!ENTITY E7 'stroke:none;opacity:1;fill:rgb(255,255,255);'><!ENTITY E35 'matrix(1.00 0.00 0.00 1.00 84.00 84.00 ) '><!ENTITY E9 'matrix(1.00 0.00 0.00 1.00 0.00 0.00 ) '><!ENTITY E11 'stroke:none;fill-rule:evenodd;opacity:1;fill:rgb(128,128,128);'><!ENTITY E33 'matrix(1.00 0.00 0.00 1.00 164.00 84.00 ) '><!ENTITY E5 'M 18.422 13 13.4357 18.5006 10.8556 15.9868 6.500101 20.5001 23.9571 20.48582 z '><!ENTITY E29 'matrix(1.00 0.00 0.00 1.00 324.00 84.00 ) '><!ENTITY E18 'matrix(1.00 0.00 0.00 1.00 564.00 84.00 ) '><!ENTITY E16 'M 31.179 5.2 C 34.9985 11.0918 34.9814 18.682 31.13552 24.557 '>
]><svg width="784.7677" height="146.6504" id="SvgGdi_output" xmlns="http://www.w3.org/2000/svg" xmlns:xlink="http://www.w3.org/1999/xlink"><rect id="background" height="100.00%" style="fill:rgb(255,255,255);" width="100.00%" y="0.00" x="0.00" /><g style="shape-rendering:auto;" id="root_group"><line y1="19.00" style="&E1;" id="2" x2="720.00" y2="19.00" x1="678.00" /><line y1="99.00" id="3" x2="720.00" y2="19.00" x1="678.00" style="stroke-dasharray:4.00 2.00 ;stroke:rgb(169,169,169);fill:none;stroke-linecap:butt;stroke-miterlimit:9;opacity:1;stroke-width:1;stroke-linejoin:miter;" /><line y1="19.00" style="&E1;" id="4" x2="640.00" y2="19.00" x1="598.00" /><line y1="99.00" style="&E1;" id="5" x2="640.00" y2="99.00" x1="598.00" /><line y1="19.00" style="&E1;" id="6" x2="560.00" y2="19.00" x1="518.00" /><line y1="99.00" style="&E1;" id="7" x2="560.00" y2="99.00" x1="518.00" /><line y1="19.00" style="&E1;" id="8" x2="480.00" y2="19.00" x1="438.00" /><line y1="99.00" style="&E1;" id="9" x2="480.00" y2="99.00" x1="438.00" /><line y1="19.00" style="&E1;" id="10" x2="400.00" y2="19.00" x1="358.00" /><line y1="99.00" style="&E1;" id="11" x2="400.00" y2="99.00" x1="358.00" /><line y1="19.00" style="&E1;" id="12" x2="320.00" y2="19.00" x1="278.00" /><line y1="99.00" style="&E1;" id="13" x2="320.00" y2="99.00" x1="278.00" /><line y1="19.00" style="&E1;" id="14" x2="240.00" y2="19.00" x1="198.00" /><line y1="99.00" style="&E1;" id="15" x2="240.00" y2="99.00" x1="198.00" /><line y1="19.00" style="&E1;" id="16" x2="160.00" y2="19.00" x1="118.00" /><line y1="99.00" style="&E1;" id="17" x2="160.00" y2="99.00" x1="118.00" /><line y1="19.00" style="&E1;" id="18" x2="80.00" y2="19.00" x1="38.00" /><line y1="19.00" style="&E1;" id="19" x2="80.00" y2="99.00" x1="38.00" /><ellipse id="52" cy="15.00" cx="15.00" transform="&E3;" rx="15.00" ry="15.00" style="&E4;" /><path d="&E5;" style="&E6;" transform="&E3;" id="56" /><ellipse id="57" cy="10.96" cx="10.92" transform="&E3;" rx="2.75" ry="2.75" style="&E7;" /><text id="58" transform="&E9;" x="724.00px" y="39.00px" style="stroke:none;clip-path:url(#60_text_clipper);font-family:Microsoft Sans Serif;fill:rgb(0,0,0);font-size:8.25pt;opacity:1;"><tspan dy="8.25pt" id="62">WarpAffine</tspan></text><line y1="19.00" style="&E1;" id="64" x2="678.00" y2="19.00" x1="640.00" /><path d="&E10;" style="&E11;" transform="&E12;" id="67" /><path d="&E13;" style="&E14;" transform="&E12;" id="72" /><ellipse id="73" cy="16.33" cx="19.93" transform="&E12;" rx="1.30" ry="1.30" style="&E7;" /><ellipse id="74" cy="22.83" cx="19.93" transform="&E12;" rx="1.30" ry="1.30" style="&E7;" /><text id="75" transform="&E9;" x="644.00px" y="119.00px" style="stroke:none;clip-path:url(#77_text_clipper);font-family:Microsoft Sans Serif;fill:rgb(0,0,0);font-size:8.25pt;opacity:1;"><tspan dy="8.25pt" id="79">Transform</tspan></text><line y1="19.00" style="&E1;" id="81" x2="598.00" y2="19.00" x1="560.00" /><path d="&E16;" style="&E17;" transform="&E18;" id="85" /><ellipse id="86" cy="15.00" cx="15.00" transform="&E18;" rx="15.00" ry="15.00" style="&E19;" /><path d="&E5;" style="&E6;" transform="&E18;" id="87" /><ellipse id="88" cy="10.96" cx="10.92" transform="&E18;" rx="2.75" ry="2.75" style="&E7;" /><text id="89" transform="&E9;" x="564.00px" y="119.00px" style="stroke:none;clip-path:url(#91_text_clipper);font-family:Microsoft Sans Serif;fill:rgb(0,0,0);font-size:8.25pt;opacity:1;"><tspan dy="8.25pt" id="93">Affine</tspan></text><text id="95" transform="&E9;" x="564.00px" y="131.45px" style="stroke:none;clip-path:url(#97_text_clipper);font-family:Microsoft Sans Serif;fill:rgb(0,0,0);font-size:8.25pt;opacity:1;"><tspan dy="8.25pt" id="99">Transform</tspan></text><line y1="19.00" style="&E1;" id="101" x2="518.00" y2="19.00" x1="480.00" /><path d="&E10;" style="&E11;" transform="&E22;" id="102" /><path style="&E6;" transform="&E22;" id="107" d="M 19.156 13.888 19.156 10.3647 19.156 6.841399 25.2585 10.3647 22.2072 12.1264 z " /><path style="&E6;" transform="&E22;" id="108" d="M 19.156 22.97 19.156 19.4467 19.156 15.9234 25.2585 19.4467 22.2072 21.2084 z " /><path style="&E14;" transform="&E22;" id="109" d="M 5.5001 19.484 10.6493 19.484 16.2743 10.2485 19.3728 10.2485 M 14.6769 17.1481 16.3089 19.4828 19.2202 19.4828 M 5.500199 10.2437 10.7586 10.2437 12.1652 12.8707 " /><text id="110" transform="&E9;" x="484.00px" y="119.00px" style="stroke:none;clip-path:url(#112_text_clipper);font-family:Microsoft Sans Serif;fill:rgb(0,0,0);font-size:8.25pt;opacity:1;"><tspan dy="8.25pt" id="114">Translation</tspan></text><line y1="19.00" style="&E1;" id="116" x2="438.00" y2="19.00" x1="400.00" /><ellipse id="117" cy="15.00" cx="15.00" transform="&E27;" rx="15.00" ry="15.00" style="&E4;" /><path d="&E13;" style="&E14;" transform="&E27;" id="118" /><ellipse id="119" cy="16.33" cx="19.93" transform="&E27;" rx="1.30" ry="1.30" style="&E7;" /><ellipse id="120" cy="22.83" cx="19.93" transform="&E27;" rx="1.30" ry="1.30" style="&E7;" /><text id="121" transform="&E9;" x="404.00px" y="119.00px" style="stroke:none;clip-path:url(#123_text_clipper);font-family:Microsoft Sans Serif;fill:rgb(0,0,0);font-size:8.25pt;opacity:1;"><tspan dy="8.25pt" id="125">Add</tspan></text><line y1="19.00" style="&E1;" id="127" x2="358.00" y2="19.00" x1="320.00" /><ellipse id="128" cy="15.00" cx="15.00" transform="&E29;" rx="15.00" ry="15.00" style="&E4;" /><path d="&E13;" style="&E14;" transform="&E29;" id="129" /><ellipse id="130" cy="16.33" cx="19.93" transform="&E29;" rx="1.30" ry="1.30" style="&E7;" /><ellipse id="131" cy="22.83" cx="19.93" transform="&E29;" rx="1.30" ry="1.30" style="&E7;" /><text id="132" transform="&E9;" x="324.00px" y="119.00px" style="stroke:none;clip-path:url(#134_text_clipper);font-family:Microsoft Sans Serif;fill:rgb(0,0,0);font-size:8.25pt;opacity:1;"><tspan dy="8.25pt" id="136">Negate</tspan></text><line y1="19.00" style="&E1;" id="138" x2="278.00" y2="19.00" x1="240.00" /><ellipse id="139" cy="15.00" cx="15.00" transform="&E31;" rx="15.00" ry="15.00" style="&E4;" /><path d="&E5;" style="&E6;" transform="&E31;" id="140" /><ellipse id="141" cy="10.96" cx="10.92" transform="&E31;" rx="2.75" ry="2.75" style="&E7;" /><text id="142" transform="&E9;" x="244.00px" y="119.00px" style="stroke:none;clip-path:url(#144_text_clipper);font-family:Microsoft Sans Serif;fill:rgb(0,0,0);font-size:8.25pt;opacity:1;"><tspan dy="8.25pt" id="146">Centroid</tspan></text><line y1="19.00" style="&E1;" id="148" x2="198.00" y2="19.00" x1="160.00" /><ellipse id="149" cy="15.00" cx="15.00" transform="&E33;" rx="15.00" ry="15.00" style="&E4;" /><path d="&E5;" style="&E6;" transform="&E33;" id="150" /><ellipse id="151" cy="10.96" cx="10.92" transform="&E33;" rx="2.75" ry="2.75" style="&E7;" /><text id="152" transform="&E9;" x="164.00px" y="119.00px" style="stroke:none;clip-path:url(#154_text_clipper);font-family:Microsoft Sans Serif;fill:rgb(0,0,0);font-size:8.25pt;opacity:1;"><tspan dy="8.25pt" id="156">HsvThreshold</tspan></text><line y1="19.00" style="&E1;" id="158" x2="118.00" y2="19.00" x1="80.00" /><ellipse id="159" cy="15.00" cx="15.00" transform="&E35;" rx="15.00" ry="15.00" style="&E4;" /><path d="&E5;" style="&E6;" transform="&E35;" id="160" /><ellipse id="161" cy="10.96" cx="10.92" transform="&E35;" rx="2.75" ry="2.75" style="&E7;" /><text id="162" transform="&E9;" x="84.00px" y="119.00px" style="stroke:none;clip-path:url(#164_text_clipper);font-family:Microsoft Sans Serif;fill:rgb(0,0,0);font-size:8.25pt;opacity:1;"><tspan dy="8.25pt" id="166">ConvertColor</tspan></text><path d="&E16;" style="&E17;" transform="&E37;" id="168" /><ellipse id="169" cy="15.00" cx="15.00" transform="&E37;" rx="15.00" ry="15.00" style="&E19;" /><path style="&E6;" transform="&E37;" id="173" d="M 23.75 9.1 19.5587 11.5211 19.5587 18.3937 23.75 20.8147 z " /><path style="&E6;" transform="&E37;" id="174" d="M 8.6927 9.2 15.7194 9.2 C 17.19 9.2 18.3739 10.4337 18.3739 11.9661 L 18.3739 17.8234 C 18.3739 19.3558 17.19 20.5893 15.7194 20.5893 L 8.692701 20.5893 C 7.222101 20.5893 6.038201 19.3558 6.038201 17.8234 L 6.038201 11.9661 C 6.038201 10.4337 7.222101 9.199999 8.692701 9.199999 z " /><text id="175" transform="&E9;" x="4.00px" y="39.00px" style="stroke:none;clip-path:url(#177_text_clipper);font-family:Microsoft Sans Serif;fill:rgb(0,0,0);font-size:8.25pt;opacity:1;"><tspan dy="8.25pt" id="179">Camera</tspan></text><text id="181" transform="&E9;" x="4.00px" y="51.45px" style="stroke:none;clip-path:url(#183_text_clipper);font-family:Microsoft Sans Serif;fill:rgb(0,0,0);font-size:8.25pt;opacity:1;"><tspan dy="8.25pt" id="185">Capture</tspan></text></g><defs id="clips_hatches_and_gradients"><clipPath id="60_text_clipper"><rect x="724.00" y="39.00" width="59.77" height="13.83" id="61" /></clipPath><clipPath id="77_text_clipper"><rect x="644.00" y="119.00" width="55.28" height="13.83" id="78" /></clipPath><clipPath id="91_text_clipper"><rect x="564.00" y="119.00" width="55.28" height="27.65" id="92" /></clipPath><clipPath id="97_text_clipper"><rect x="564.00" y="131.45" width="55.28" height="27.65" id="98" /></clipPath><clipPath id="112_text_clipper"><rect x="484.00" y="119.00" width="59.84" height="13.83" id="113" /></clipPath><clipPath id="123_text_clipper"><rect x="404.00" y="119.00" width="23.82" height="13.83" id="124" /></clipPath><clipPath id="134_text_clipper"><rect x="324.00" y="119.00" width="40.20" height="13.83" id="135" /></clipPath><clipPath id="144_text_clipper"><rect x="244.00" y="119.00" width="46.55" height="13.83" id="145" /></clipPath><clipPath id="154_text_clipper"><rect x="164.00" y="119.00" width="73.63" height="13.83" id="155" /></clipPath><clipPath id="164_text_clipper"><rect x="84.00" y="119.00" width="70.47" height="13.83" id="165" /></clipPath><clipPath id="177_text_clipper"><rect x="4.00" y="39.00" width="43.97" height="27.65" id="178" /></clipPath><clipPath id="183_text_clipper"><rect x="4.00" y="51.45" width="43.97" height="27.65" id="184" /></clipPath></defs></svg>