<?xml version="1.0" standalone="yes"?><!DOCTYPE svg PUBLIC "-//W3C//DTD SVG 1.1//EN" "http://www.w3.org/Graphics/SVG/1.1/DTD/svg11.dtd"[
<!ENTITY E13 'stroke:none;opacity:1;fill:rgb(68,154,223);'><!ENTITY E26 'matrix(1.00 0.00 0.00 1.00 404.00 84.00 ) '><!ENTITY E4 'matrix(1.00 0.00 0.00 1.00 564.00 4.00 ) '><!ENTITY E3 'stroke:rgb(169,169,169);fill:none;stroke-linecap:butt;stroke-miterlimit:9;opacity:1;stroke-width:2;stroke-linejoin:miter;'><!ENTITY E22 'matrix(1.00 0.00 0.00 1.00 404.00 4.00 ) '><!ENTITY E37 'stroke:none;opacity:1;fill:rgb(255,255,255);'><!ENTITY E9 'matrix(1.00 0.00 0.00 1.00 0.00 0.00 ) '><!ENTITY E5 'stroke:none;opacity:1;fill:rgb(155,91,179);'><!ENTITY E19 'matrix(1.00 0.00 0.00 1.00 484.00 84.00 ) '><!ENTITY E14 'M 10.824 9.4752 3.5613 15.0588 10.824 20.6107 10.81521 18.3247 6.519011 15.0267 10.82391 11.7422 z '><!ENTITY E7 'stroke:none;fill-rule:evenodd;opacity:1;fill:rgb(255,255,255);'><!ENTITY E6 'M 11.529 25.444 20.7834 12.908 16.3203 12.908 18.355 4.7687 9.100601 17.3047 13.5637 17.3047 z '><!ENTITY E12 'matrix(1.00 0.00 0.00 1.00 484.00 4.00 ) '><!ENTITY E31 'M 5.5001 19.484 10.6493 19.484 16.2743 10.2485 19.3728 10.2485 M 14.6769 17.1481 16.3089 19.4828 19.2202 19.4828 M 5.500199 10.2437 10.7586 10.2437 12.1652 12.8707 '><!ENTITY E29 'M 19.156 13.888 19.156 10.3647 19.156 6.841399 25.2585 10.3647 22.2072 12.1264 z '><!ENTITY E39 'matrix(1.00 0.00 0.00 1.00 164.00 4.00 ) '><!ENTITY E30 'M 19.156 22.97 19.156 19.4467 19.156 15.9234 25.2585 19.4467 22.2072 21.2084 z '><!ENTITY E24 'stroke:rgb(255,255,255);fill:none;stroke-linecap:butt;stroke-miterlimit:9;opacity:1;stroke-width:2;stroke-linejoin:miter;'><!ENTITY E1 'stroke:rgb(169,169,169);fill:none;stroke-linecap:butt;stroke-miterlimit:9;opacity:1;stroke-width:1;stroke-linejoin:miter;'><!ENTITY E28 'matrix(1.00 0.00 0.00 1.00 324.00 4.00 ) '><!ENTITY E44 'matrix(1.00 0.00 0.00 1.00 4.00 4.00 ) '><!ENTITY E15 'M 15.365 7.2336 C 15.34647 7.33547 15.32125 7.4371 15.31422 7.5375 14.41077 12.6441 13.49692 17.7495 12.59942 22.8575 12.59508 22.88635 12.6018 22.91223 12.59942 22.94062 L 14.62872 22.94062 C 14.70348 22.53324 14.73679 22.1026 14.8377 21.71462 15.68204 16.94102 16.5365 12.17012 17.3748 7.394619 17.38163 7.340435 17.37866 7.287239 17.3787 7.233579 z '><!ENTITY E41 'matrix(1.00 0.00 0.00 1.00 84.00 4.00 ) '><!ENTITY E35 'matrix(1.00 0.00 0.00 1.00 244.00 4.00 ) '><!ENTITY E33 'matrix(1.00 0.00 0.00 1.00 324.00 84.00 ) '><!ENTITY E36 'M 18.422 13 13.4357 18.5006 10.8556 15.9868 6.500101 20.5001 23.9571 20.48582 z '><!ENTITY E2 'M 10.158 33.2 C 3.4054 31.7591 -1.861 26.4692 -3.271 19.71 '><!ENTITY E10 'matrix(1.00 0.00 0.00 1.00 564.00 84.00 ) '><!ENTITY E16 'M 19.044 9.4746 26.3067 15.0582 19.044 20.6101 19.05279 18.3241 23.34899 15.0261 19.04409 11.7416 z '><!ENTITY E23 'M 20.824 23.115 20.824 7.098999 M 17.3572 17.48 17.3572 12.7339 M 13.8904 21.2046 13.8904 9.009602 M 10.4236 18.6248 10.4236 11.5896 M 6.9568 16.3923 6.9568 13.822 '>
]><svg width="632.2711" height="146.6504" id="SvgGdi_output" xmlns="http://www.w3.org/2000/svg" xmlns:xlink="http://www.w3.org/1999/xlink"><rect id="background" height="100.00%" style="fill:rgb(255,255,255);" width="100.00%" y="0.00" x="0.00" /><g style="shape-rendering:auto;" id="root_group"><line y1="19.00" style="&E1;" id="2" x2="560.00" y2="19.00" x1="518.00" /><line y1="99.00" style="&E1;" id="3" x2="560.00" y2="99.00" x1="518.00" /><line y1="19.00" style="&E1;" id="4" x2="480.00" y2="19.00" x1="438.00" /><line y1="99.00" style="&E1;" id="5" x2="480.00" y2="99.00" x1="438.00" /><line y1="19.00" style="&E1;" id="6" x2="400.00" y2="19.00" x1="358.00" /><line y1="99.00" style="&E1;" id="7" x2="400.00" y2="99.00" x1="358.00" /><line y1="19.00" style="&E1;" id="8" x2="320.00" y2="19.00" x1="278.00" /><line y1="19.00" style="&E1;" id="9" x2="320.00" y2="99.00" x1="278.00" /><line y1="19.00" style="&E1;" id="10" x2="240.00" y2="19.00" x1="198.00" /><line y1="19.00" style="&E1;" id="11" x2="160.00" y2="19.00" x1="118.00" /><line y1="19.00" style="&E1;" id="12" x2="80.00" y2="19.00" x1="38.00" /><path d="&E2;" style="&E3;" transform="&E4;" id="46" /><ellipse id="47" cy="15.00" cx="15.00" transform="&E4;" rx="15.00" ry="15.00" style="&E5;" /><path d="&E6;" style="&E7;" transform="&E4;" id="50" /><text id="51" transform="&E9;" x="564.00px" y="39.00px" style="stroke:none;clip-path:url(#53_text_clipper);font-family:Microsoft Sans Serif;fill:rgb(0,0,0);font-size:8.25pt;opacity:1;"><tspan dy="8.25pt" id="55">ServoOutput</tspan></text><path d="&E2;" style="&E3;" transform="&E10;" id="57" /><ellipse id="58" cy="15.00" cx="15.00" transform="&E10;" rx="15.00" ry="15.00" style="&E5;" /><path d="&E6;" style="&E7;" transform="&E10;" id="59" /><text id="60" transform="&E9;" x="564.00px" y="119.00px" style="stroke:none;clip-path:url(#62_text_clipper);font-family:Microsoft Sans Serif;fill:rgb(0,0,0);font-size:8.25pt;opacity:1;"><tspan dy="8.25pt" id="64">ServoOutput</tspan></text><ellipse id="68" cy="15.00" cx="15.00" transform="&E12;" rx="15.00" ry="15.00" style="&E13;" /><path d="&E14;" style="&E7;" transform="&E12;" id="74" /><path d="&E15;" style="&E7;" transform="&E12;" id="75" /><path d="&E16;" style="&E7;" transform="&E12;" id="76" /><text id="77" transform="&E9;" x="484.00px" y="39.00px" style="stroke:none;clip-path:url(#79_text_clipper);font-family:Microsoft Sans Serif;fill:rgb(0,0,0);font-size:8.25pt;opacity:1;"><tspan dy="8.25pt" id="81">Python</tspan></text><text id="83" transform="&E9;" x="484.00px" y="51.45px" style="stroke:none;clip-path:url(#85_text_clipper);font-family:Microsoft Sans Serif;fill:rgb(0,0,0);font-size:8.25pt;opacity:1;"><tspan dy="8.25pt" id="87">Transform</tspan></text><ellipse id="89" cy="15.00" cx="15.00" transform="&E19;" rx="15.00" ry="15.00" style="&E13;" /><path d="&E14;" style="&E7;" transform="&E19;" id="90" /><path d="&E15;" style="&E7;" transform="&E19;" id="91" /><path d="&E16;" style="&E7;" transform="&E19;" id="92" /><text id="93" transform="&E9;" x="484.00px" y="119.00px" style="stroke:none;clip-path:url(#95_text_clipper);font-family:Microsoft Sans Serif;fill:rgb(0,0,0);font-size:8.25pt;opacity:1;"><tspan dy="8.25pt" id="97">Python</tspan></text><text id="99" transform="&E9;" x="484.00px" y="131.45px" style="stroke:none;clip-path:url(#101_text_clipper);font-family:Microsoft Sans Serif;fill:rgb(0,0,0);font-size:8.25pt;opacity:1;"><tspan dy="8.25pt" id="103">Transform</tspan></text><ellipse id="105" cy="15.00" cx="15.00" transform="&E22;" rx="15.00" ry="15.00" style="&E13;" /><path d="&E23;" style="&E24;" transform="&E22;" id="108" /><text id="109" transform="&E9;" x="404.00px" y="39.00px" style="stroke:none;clip-path:url(#111_text_clipper);font-family:Microsoft Sans Serif;fill:rgb(0,0,0);font-size:8.25pt;opacity:1;"><tspan dy="8.25pt" id="113">Rescale</tspan></text><ellipse id="115" cy="15.00" cx="15.00" transform="&E26;" rx="15.00" ry="15.00" style="&E13;" /><path d="&E23;" style="&E24;" transform="&E26;" id="116" /><text id="117" transform="&E9;" x="404.00px" y="119.00px" style="stroke:none;clip-path:url(#119_text_clipper);font-family:Microsoft Sans Serif;fill:rgb(0,0,0);font-size:8.25pt;opacity:1;"><tspan dy="8.25pt" id="121">Rescale</tspan></text><ellipse id="123" cy="15.00" cx="15.00" transform="&E28;" rx="15.00" ry="15.00" style="&E13;" /><path d="&E29;" style="&E7;" transform="&E28;" id="128" /><path d="&E30;" style="&E7;" transform="&E28;" id="129" /><path d="&E31;" style="&E24;" transform="&E28;" id="130" /><text id="131" transform="&E9;" x="324.00px" y="39.00px" style="stroke:none;clip-path:url(#133_text_clipper);font-family:Microsoft Sans Serif;fill:rgb(0,0,0);font-size:8.25pt;opacity:1;"><tspan dy="8.25pt" id="135">X</tspan></text><ellipse id="137" cy="15.00" cx="15.00" transform="&E33;" rx="15.00" ry="15.00" style="&E13;" /><path d="&E29;" style="&E7;" transform="&E33;" id="138" /><path d="&E30;" style="&E7;" transform="&E33;" id="139" /><path d="&E31;" style="&E24;" transform="&E33;" id="140" /><text id="141" transform="&E9;" x="324.00px" y="119.00px" style="stroke:none;clip-path:url(#143_text_clipper);font-family:Microsoft Sans Serif;fill:rgb(0,0,0);font-size:8.25pt;opacity:1;"><tspan dy="8.25pt" id="145">Y</tspan></text><ellipse id="147" cy="15.00" cx="15.00" transform="&E35;" rx="15.00" ry="15.00" style="&E13;" /><path d="&E36;" style="&E7;" transform="&E35;" id="151" /><ellipse id="152" cy="10.96" cx="10.92" transform="&E35;" rx="2.75" ry="2.75" style="&E37;" /><text id="153" transform="&E9;" x="244.00px" y="39.00px" style="stroke:none;clip-path:url(#155_text_clipper);font-family:Microsoft Sans Serif;fill:rgb(0,0,0);font-size:8.25pt;opacity:1;"><tspan dy="8.25pt" id="157">Centroid</tspan></text><ellipse id="159" cy="15.00" cx="15.00" transform="&E39;" rx="15.00" ry="15.00" style="&E13;" /><path d="&E36;" style="&E7;" transform="&E39;" id="160" /><ellipse id="161" cy="10.96" cx="10.92" transform="&E39;" rx="2.75" ry="2.75" style="&E37;" /><text id="162" transform="&E9;" x="164.00px" y="39.00px" style="stroke:none;clip-path:url(#164_text_clipper);font-family:Microsoft Sans Serif;fill:rgb(0,0,0);font-size:8.25pt;opacity:1;"><tspan dy="8.25pt" id="166">HsvThreshold</tspan></text><ellipse id="168" cy="15.00" cx="15.00" transform="&E41;" rx="15.00" ry="15.00" style="&E13;" /><path d="&E36;" style="&E7;" transform="&E41;" id="169" /><ellipse id="170" cy="10.96" cx="10.92" transform="&E41;" rx="2.75" ry="2.75" style="&E37;" /><text id="171" transform="&E9;" x="84.00px" y="39.00px" style="stroke:none;clip-path:url(#173_text_clipper);font-family:Microsoft Sans Serif;fill:rgb(0,0,0);font-size:8.25pt;opacity:1;"><tspan dy="8.25pt" id="175">ConvertColor</tspan></text><path style="&E3;" transform="&E44;" id="180" d="M 31.179 5.2 C 34.9985 11.0918 34.9814 18.682 31.13552 24.557 " /><ellipse id="181" cy="15.00" cx="15.00" transform="&E44;" rx="15.00" ry="15.00" style="stroke:none;opacity:1;fill:rgb(91,178,126);" /><path style="&E7;" transform="&E44;" id="185" d="M 23.75 9.1 19.5587 11.5211 19.5587 18.3937 23.75 20.8147 z " /><path style="&E7;" transform="&E44;" id="186" d="M 8.6927 9.2 15.7194 9.2 C 17.19 9.2 18.3739 10.4337 18.3739 11.9661 L 18.3739 17.8234 C 18.3739 19.3558 17.19 20.5893 15.7194 20.5893 L 8.692701 20.5893 C 7.222101 20.5893 6.038201 19.3558 6.038201 17.8234 L 6.038201 11.9661 C 6.038201 10.4337 7.222101 9.199999 8.692701 9.199999 z " /><text id="187" transform="&E9;" x="4.00px" y="39.00px" style="stroke:none;clip-path:url(#189_text_clipper);font-family:Microsoft Sans Serif;fill:rgb(0,0,0);font-size:8.25pt;opacity:1;"><tspan dy="8.25pt" id="191">Camera</tspan></text><text id="193" transform="&E9;" x="4.00px" y="51.45px" style="stroke:none;clip-path:url(#195_text_clipper);font-family:Microsoft Sans Serif;fill:rgb(0,0,0);font-size:8.25pt;opacity:1;"><tspan dy="8.25pt" id="197">Capture</tspan></text></g><defs id="clips_hatches_and_gradients"><clipPath id="53_text_clipper"><rect x="564.00" y="39.00" width="67.27" height="13.83" id="54" /></clipPath><clipPath id="62_text_clipper"><rect x="564.00" y="119.00" width="67.27" height="13.83" id="63" /></clipPath><clipPath id="79_text_clipper"><rect x="484.00" y="39.00" width="55.28" height="27.65" id="80" /></clipPath><clipPath id="85_text_clipper"><rect x="484.00" y="51.45" width="55.28" height="27.65" id="86" /></clipPath><clipPath id="95_text_clipper"><rect x="484.00" y="119.00" width="55.28" height="27.65" id="96" /></clipPath><clipPath id="101_text_clipper"><rect x="484.00" y="131.45" width="55.28" height="27.65" id="102" /></clipPath><clipPath id="111_text_clipper"><rect x="404.00" y="39.00" width="44.66" height="13.83" id="112" /></clipPath><clipPath id="119_text_clipper"><rect x="404.00" y="119.00" width="44.66" height="13.83" id="120" /></clipPath><clipPath id="133_text_clipper"><rect x="324.00" y="39.00" width="11.22" height="13.83" id="134" /></clipPath><clipPath id="143_text_clipper"><rect x="324.00" y="119.00" width="11.22" height="13.83" id="144" /></clipPath><clipPath id="155_text_clipper"><rect x="244.00" y="39.00" width="46.55" height="13.83" id="156" /></clipPath><clipPath id="164_text_clipper"><rect x="164.00" y="39.00" width="73.63" height="13.83" id="165" /></clipPath><clipPath id="173_text_clipper"><rect x="84.00" y="39.00" width="70.47" height="13.83" id="174" /></clipPath><clipPath id="189_text_clipper"><rect x="4.00" y="39.00" width="43.97" height="27.65" id="190" /></clipPath><clipPath id="195_text_clipper"><rect x="4.00" y="51.45" width="43.97" height="27.65" id="196" /></clipPath></defs></svg>