<?xml version="1.0" standalone="yes"?><!DOCTYPE svg PUBLIC "-//W3C//DTD SVG 1.1//EN" "http://www.w3.org/Graphics/SVG/1.1/DTD/svg11.dtd"[
<!ENTITY E28 'stroke:none;opacity:1;fill:rgb(68,154,223);'><!ENTITY E16 'matrix(1.00 0.00 0.00 1.00 564.00 4.00 ) '><!ENTITY E4 'stroke:rgb(169,169,169);fill:none;stroke-linecap:butt;stroke-miterlimit:9;opacity:1;stroke-width:2;stroke-linejoin:miter;'><!ENTITY E13 'matrix(1.00 0.00 0.00 1.00 0.00 0.00 ) '><!ENTITY E8 'stroke:none;fill-rule:evenodd;opacity:1;fill:rgb(255,255,255);'><!ENTITY E24 'matrix(1.00 0.00 0.00 1.00 484.00 4.00 ) '><!ENTITY E17 'stroke:none;opacity:1;fill:rgb(91,178,126);'><!ENTITY E39 'matrix(1.00 0.00 0.00 1.00 164.00 4.00 ) '><!ENTITY E19 'stroke:rgb(255,255,255);fill:none;stroke-linecap:butt;stroke-miterlimit:9;opacity:1;stroke-width:2;stroke-linejoin:miter;'><!ENTITY E1 'stroke:rgb(169,169,169);fill:none;stroke-linecap:butt;stroke-miterlimit:9;opacity:1;stroke-width:1;stroke-linejoin:miter;'><!ENTITY E25 'M 16.849 10.062 23.4027 10.062 M 16.6038 19.6084 23.3505 19.6084 M 12.3075 17.1615 7.5719 21.8971 M 7.577335 17.152 12.31704 21.8917 M 6.564136 10.0047 13.30904 10.0047 M 9.936636 6.6288 9.936636 13.3806 '><!ENTITY E11 'stroke:none;opacity:1;fill:rgb(255,255,255);'><!ENTITY E43 'matrix(1.00 0.00 0.00 1.00 4.00 4.00 ) '><!ENTITY E41 'matrix(1.00 0.00 0.00 1.00 84.00 4.00 ) '><!ENTITY E34 'matrix(1.00 0.00 0.00 1.00 324.00 4.00 ) '><!ENTITY E36 'matrix(1.00 0.00 0.00 1.00 244.00 4.00 ) '><!ENTITY E37 'M 18.422 13 13.4357 18.5006 10.8556 15.9868 6.500101 20.5001 23.9571 20.48582 z '><!ENTITY E27 'matrix(1.00 0.00 0.00 1.00 404.00 4.00 ) '><!ENTITY E5 'matrix(1.00 0.00 0.00 1.00 644.00 4.00 ) '><!ENTITY E15 'M 31.179 5.2 C 34.9985 11.0918 34.9814 18.682 31.13552 24.557 '>
]><svg width="694.7076" height="66.65038" id="SvgGdi_output" xmlns="http://www.w3.org/2000/svg" xmlns:xlink="http://www.w3.org/1999/xlink"><rect id="background" height="100.00%" style="fill:rgb(255,255,255);" width="100.00%" y="0.00" x="0.00" /><g style="shape-rendering:auto;" id="root_group"><line y1="19.00" style="&E1;" id="2" x2="640.00" y2="19.00" x1="598.00" /><line y1="19.00" id="3" x2="560.00" y2="19.00" x1="518.00" style="stroke-dasharray:4.00 2.00 ;stroke:rgb(169,169,169);fill:none;stroke-linecap:butt;stroke-miterlimit:9;opacity:1;stroke-width:1;stroke-linejoin:miter;" /><line y1="19.00" style="&E1;" id="4" x2="480.00" y2="19.00" x1="438.00" /><line y1="19.00" style="&E1;" id="5" x2="400.00" y2="19.00" x1="358.00" /><line y1="19.00" style="&E1;" id="6" x2="320.00" y2="19.00" x1="278.00" /><line y1="19.00" style="&E1;" id="7" x2="240.00" y2="19.00" x1="198.00" /><line y1="19.00" style="&E1;" id="8" x2="160.00" y2="19.00" x1="118.00" /><line y1="19.00" style="&E1;" id="9" x2="80.00" y2="19.00" x1="38.00" /><path style="&E4;" transform="&E5;" id="43" d="M 10.158 33.2 C 3.4054 31.7591 -1.861 26.4692 -3.271 19.71 " /><ellipse id="44" cy="15.00" cx="15.00" transform="&E5;" rx="15.00" ry="15.00" style="stroke:none;opacity:1;fill:rgb(155,91,179);" /><path style="&E8;" transform="&E5;" id="49" d="M 15.262 7.0869 C 15.0337 7.0969 14.80894 7.1829 14.63699 7.3336 L 10.40169 10.9932 6.50359 10.9932 C 5.98053 10.9932 5.50289 11.4652 5.50029 11.9883 L 5.50029 17.0131 C 5.4986 17.5389 5.97781 18.0181 6.50359 18.0164 L 10.34409 18.0164 14.63699 21.7336 C 15.21304 22.23 16.28929 21.7336 16.28999 20.977 L 16.28999 8.089999 C 16.29189 7.555899 15.79594 7.071799 15.26199 7.086699 z " /><path style="&E8;" transform="&E5;" id="50" d="M 19.242 11.136 C 19.85996 12.1101 20.22442 13.2733 20.22442 14.515 20.22442 15.7378 19.86821 16.8827 19.26739 17.847 18.57312 19.02 16.82469 17.93 17.57209 16.7903 17.98656 16.1252 18.22639 15.3523 18.22639 14.515 18.22639 13.663 17.98027 12.8775 17.55451 12.2064 17.11611 11.5347 17.60803 10.6463 18.40998 10.6614 18.75002 10.6714 19.06352 10.8465 19.24201 11.136 z " /><path style="&E8;" transform="&E5;" id="51" d="M 21.92 7.5284 C 23.4568 9.4572 24.379 11.9073 24.379 14.5636 24.379 17.2016 23.46877 19.6367 21.9493 21.5597 21.12371 22.6053 19.5553 21.367 20.3809 20.3214 21.6336 18.736 22.3809 16.743 22.3809 14.5636 22.3809 12.3686 21.62445 10.3628 20.3575 8.7726 19.81921 8.1166 20.29216 7.1306 21.1407 7.1398 21.44622 7.1398 21.73332 7.2865 21.92 7.5284 z " /><ellipse id="52" cy="19.00" cx="644.00" rx="3.00" ry="3.00" style="&E4;" /><ellipse id="53" cy="19.00" cx="644.00" rx="3.00" ry="3.00" style="&E11;" /><text id="54" transform="&E13;" x="644.00px" y="39.00px" style="stroke:none;clip-path:url(#56_text_clipper);font-family:Microsoft Sans Serif;fill:rgb(0,0,0);font-size:8.25pt;opacity:1;"><tspan dy="8.25pt" id="58">Audio</tspan></text><text id="60" transform="&E13;" x="644.00px" y="51.45px" style="stroke:none;clip-path:url(#62_text_clipper);font-family:Microsoft Sans Serif;fill:rgb(0,0,0);font-size:8.25pt;opacity:1;"><tspan dy="8.25pt" id="64">Playback</tspan></text><path d="&E15;" style="&E4;" transform="&E16;" id="69" /><ellipse id="70" cy="15.00" cx="15.00" transform="&E16;" rx="15.00" ry="15.00" style="&E17;" /><path style="&E19;" transform="&E16;" id="73" d="M 20.824 23.115 20.824 7.098999 M 17.3572 17.48 17.3572 12.7339 M 13.8904 21.2046 13.8904 9.009602 M 10.4236 18.6248 10.4236 11.5896 M 6.9568 16.3923 6.9568 13.822 " /><text id="74" transform="&E13;" x="564.00px" y="39.00px" style="stroke:none;clip-path:url(#76_text_clipper);font-family:Microsoft Sans Serif;fill:rgb(0,0,0);font-size:8.25pt;opacity:1;"><tspan dy="8.25pt" id="78">Function</tspan></text><text id="80" transform="&E13;" x="564.00px" y="51.45px" style="stroke:none;clip-path:url(#82_text_clipper);font-family:Microsoft Sans Serif;fill:rgb(0,0,0);font-size:8.25pt;opacity:1;"><tspan dy="8.25pt" id="84">Generator</tspan></text><path transform="&E24;" id="88" d="M 15 0 C 15.40124 0 15.79355 0 16.1868 0.032679 L 17.4764 1.671279 C 18.19501 1.803959 18.878 1.976879 19.5521 2.217729 L 21.4286 1.483419 C 22.13968 1.823279 22.8289 2.226899 23.4726 2.670219 L 23.8493 4.621219 C 24.39461 5.086599 24.9133 5.605469 25.3788 6.150719 L 27.3298 6.494379 C 27.77262 7.137679 28.17707 7.860779 28.5166 8.57128 L 27.74584 10.44788 C 27.98674 11.12204 28.19601 11.80508 28.32852 12.52348 L 29.96712 13.81308 C 29.99807 14.2062 30.00009 14.59888 30.00009 14.99988 30.00009 15.39224 29.99671 15.76908 29.96712 16.15388 L 28.32852 17.43998 C 28.19832 18.14633 28.01721 18.85248 27.78226 19.51558 L 28.51657 21.42868 C 28.17593 22.14291 27.77461 22.82648 27.32977 23.47268 L 25.37877 23.81302 C 24.91321 24.35829 24.39455 24.87682 23.84927 25.34242 L 23.47257 27.32992 C 22.82847 27.77371 22.14007 28.17669 21.42857 28.51662 L 19.51567 27.74597 C 18.85121 27.98162 18.18377 28.19809 17.47627 28.32876 L 16.18677 29.93436 C 15.79348 29.965 15.40117 29.99982 14.99997 29.99982 14.59873 29.99982 14.17345 29.96607 13.78017 29.93436 L 12.55997 28.32876 C 11.86172 28.19999 11.14067 27.977 10.48427 27.74597 L 8.571372 28.51662 C 7.856242 28.17558 7.174472 27.7755 6.527372 27.32992 L 6.150662 25.30622 C 5.617232 24.84794 5.114162 24.34789 4.657562 23.81302 L 2.670162 23.47268 C 2.225282 22.82649 1.823962 22.14288 1.483362 21.42868 L 2.254122 19.51558 C 2.022912 18.85918 1.800192 18.13838 1.671442 17.43998 L 0.06584227 16.18678 C 0.03489427 15.79366 -9.272993E-05 15.4013 -9.272993E-05 14.99998 -9.272993E-05 14.59894 0.03489527 14.20625 0.06584227 13.81318 L 1.671442 12.52358 C 1.801892 11.81616 2.018542 11.14888 2.254122 10.48438 L 1.483362 8.571277 C 1.822922 7.860797 2.227392 7.137677 2.670162 6.494377 L 4.657562 6.150717 C 5.114192 5.615747 5.617242 5.115817 6.150662 4.657517 L 6.527372 2.670117 C 7.174102 2.224717 7.856672 1.824207 8.571372 1.483317 L 10.48427 2.217627 C 11.14757 1.982687 11.85387 1.801607 12.55997 1.671177 L 13.84607 0.0325768 C 14.23082 0.003004799 14.60761 -0.0001021996 14.99987 -0.0001021996 z " style="stroke:none;fill-rule:evenodd;opacity:1;fill:rgb(128,128,128);" /><path d="&E25;" style="&E19;" transform="&E24;" id="93" /><ellipse id="94" cy="16.33" cx="19.93" transform="&E24;" rx="1.30" ry="1.30" style="&E11;" /><ellipse id="95" cy="22.83" cx="19.93" transform="&E24;" rx="1.30" ry="1.30" style="&E11;" /><text id="96" transform="&E13;" x="484.00px" y="39.00px" style="stroke:none;clip-path:url(#98_text_clipper);font-family:Microsoft Sans Serif;fill:rgb(0,0,0);font-size:8.25pt;opacity:1;"><tspan dy="8.25pt" id="100">Amplitude</tspan></text><ellipse id="104" cy="15.00" cx="15.00" transform="&E27;" rx="15.00" ry="15.00" style="&E28;" /><path style="&E8;" transform="&E27;" id="110" d="M 10.824 9.4752 3.5613 15.0588 10.824 20.6107 10.81521 18.3247 6.519011 15.0267 10.82391 11.7422 z " /><path style="&E8;" transform="&E27;" id="111" d="M 15.365 7.2336 C 15.34647 7.33547 15.32125 7.4371 15.31422 7.5375 14.41077 12.6441 13.49692 17.7495 12.59942 22.8575 12.59508 22.88635 12.6018 22.91223 12.59942 22.94062 L 14.62872 22.94062 C 14.70348 22.53324 14.73679 22.1026 14.8377 21.71462 15.68204 16.94102 16.5365 12.17012 17.3748 7.394619 17.38163 7.340435 17.37866 7.287239 17.3787 7.233579 z " /><path style="&E8;" transform="&E27;" id="112" d="M 19.044 9.4746 26.3067 15.0582 19.044 20.6101 19.05279 18.3241 23.34899 15.0261 19.04409 11.7416 z " /><text id="113" transform="&E13;" x="404.00px" y="39.00px" style="stroke:none;clip-path:url(#115_text_clipper);font-family:Microsoft Sans Serif;fill:rgb(0,0,0);font-size:8.25pt;opacity:1;"><tspan dy="8.25pt" id="117">Expression</tspan></text><text id="119" transform="&E13;" x="404.00px" y="51.45px" style="stroke:none;clip-path:url(#121_text_clipper);font-family:Microsoft Sans Serif;fill:rgb(0,0,0);font-size:8.25pt;opacity:1;"><tspan dy="8.25pt" id="123">Transform</tspan></text><ellipse id="125" cy="15.00" cx="15.00" transform="&E34;" rx="15.00" ry="15.00" style="&E28;" /><path d="&E25;" style="&E19;" transform="&E34;" id="126" /><ellipse id="127" cy="16.33" cx="19.93" transform="&E34;" rx="1.30" ry="1.30" style="&E11;" /><ellipse id="128" cy="22.83" cx="19.93" transform="&E34;" rx="1.30" ry="1.30" style="&E11;" /><text id="129" transform="&E13;" x="324.00px" y="39.00px" style="stroke:none;clip-path:url(#131_text_clipper);font-family:Microsoft Sans Serif;fill:rgb(0,0,0);font-size:8.25pt;opacity:1;"><tspan dy="8.25pt" id="133">Subtract</tspan></text><ellipse id="135" cy="15.00" cx="15.00" transform="&E36;" rx="15.00" ry="15.00" style="&E28;" /><path d="&E37;" style="&E8;" transform="&E36;" id="139" /><ellipse id="140" cy="10.96" cx="10.92" transform="&E36;" rx="2.75" ry="2.75" style="&E11;" /><text id="141" transform="&E13;" x="244.00px" y="39.00px" style="stroke:none;clip-path:url(#143_text_clipper);font-family:Microsoft Sans Serif;fill:rgb(0,0,0);font-size:8.25pt;opacity:1;"><tspan dy="8.25pt" id="145">Centroid</tspan></text><ellipse id="147" cy="15.00" cx="15.00" transform="&E39;" rx="15.00" ry="15.00" style="&E28;" /><path d="&E37;" style="&E8;" transform="&E39;" id="148" /><ellipse id="149" cy="10.96" cx="10.92" transform="&E39;" rx="2.75" ry="2.75" style="&E11;" /><text id="150" transform="&E13;" x="164.00px" y="39.00px" style="stroke:none;clip-path:url(#152_text_clipper);font-family:Microsoft Sans Serif;fill:rgb(0,0,0);font-size:8.25pt;opacity:1;"><tspan dy="8.25pt" id="154">HsvThreshold</tspan></text><ellipse id="156" cy="15.00" cx="15.00" transform="&E41;" rx="15.00" ry="15.00" style="&E28;" /><path d="&E37;" style="&E8;" transform="&E41;" id="157" /><ellipse id="158" cy="10.96" cx="10.92" transform="&E41;" rx="2.75" ry="2.75" style="&E11;" /><text id="159" transform="&E13;" x="84.00px" y="39.00px" style="stroke:none;clip-path:url(#161_text_clipper);font-family:Microsoft Sans Serif;fill:rgb(0,0,0);font-size:8.25pt;opacity:1;"><tspan dy="8.25pt" id="163">ConvertColor</tspan></text><path d="&E15;" style="&E4;" transform="&E43;" id="165" /><ellipse id="166" cy="15.00" cx="15.00" transform="&E43;" rx="15.00" ry="15.00" style="&E17;" /><path style="&E8;" transform="&E43;" id="170" d="M 23.75 9.1 19.5587 11.5211 19.5587 18.3937 23.75 20.8147 z " /><path style="&E8;" transform="&E43;" id="171" d="M 8.6927 9.2 15.7194 9.2 C 17.19 9.2 18.3739 10.4337 18.3739 11.9661 L 18.3739 17.8234 C 18.3739 19.3558 17.19 20.5893 15.7194 20.5893 L 8.692701 20.5893 C 7.222101 20.5893 6.038201 19.3558 6.038201 17.8234 L 6.038201 11.9661 C 6.038201 10.4337 7.222101 9.199999 8.692701 9.199999 z " /><text id="172" transform="&E13;" x="4.00px" y="39.00px" style="stroke:none;clip-path:url(#174_text_clipper);font-family:Microsoft Sans Serif;fill:rgb(0,0,0);font-size:8.25pt;opacity:1;"><tspan dy="8.25pt" id="176">Camera</tspan></text><text id="178" transform="&E13;" x="4.00px" y="51.45px" style="stroke:none;clip-path:url(#180_text_clipper);font-family:Microsoft Sans Serif;fill:rgb(0,0,0);font-size:8.25pt;opacity:1;"><tspan dy="8.25pt" id="182">Capture</tspan></text></g><defs id="clips_hatches_and_gradients"><clipPath id="56_text_clipper"><rect x="644.00" y="39.00" width="49.71" height="27.65" id="57" /></clipPath><clipPath id="62_text_clipper"><rect x="644.00" y="51.45" width="49.71" height="27.65" id="63" /></clipPath><clipPath id="76_text_clipper"><rect x="564.00" y="39.00" width="54.67" height="27.65" id="77" /></clipPath><clipPath id="82_text_clipper"><rect x="564.00" y="51.45" width="54.67" height="27.65" id="83" /></clipPath><clipPath id="98_text_clipper"><rect x="484.00" y="39.00" width="54.18" height="13.83" id="99" /></clipPath><clipPath id="115_text_clipper"><rect x="404.00" y="39.00" width="59.78" height="27.65" id="116" /></clipPath><clipPath id="121_text_clipper"><rect x="404.00" y="51.45" width="59.78" height="27.65" id="122" /></clipPath><clipPath id="131_text_clipper"><rect x="324.00" y="39.00" width="45.86" height="13.83" id="132" /></clipPath><clipPath id="143_text_clipper"><rect x="244.00" y="39.00" width="46.55" height="13.83" id="144" /></clipPath><clipPath id="152_text_clipper"><rect x="164.00" y="39.00" width="73.63" height="13.83" id="153" /></clipPath><clipPath id="161_text_clipper"><rect x="84.00" y="39.00" width="70.47" height="13.83" id="162" /></clipPath><clipPath id="174_text_clipper"><rect x="4.00" y="39.00" width="43.97" height="27.65" id="175" /></clipPath><clipPath id="180_text_clipper"><rect x="4.00" y="51.45" width="43.97" height="27.65" id="181" /></clipPath></defs></svg>