<?xml version="1.0" standalone="yes"?>
<!DOCTYPE svg PUBLIC "-//W3C//DTD SVG 1.1//EN" "http://www.w3.org/Graphics/SVG/1.1/DTD/svg11.dtd"[
<!ENTITY E8 'stroke:none;opacity:1;fill:rgb(0,0,0);'><!ENTITY E2 'stroke:rgb(169,169,169);fill:none;stroke-linecap:butt;stroke-miterlimit:9;opacity:1;stroke-width:2;stroke-linejoin:miter;'><!ENTITY E22 'matrix(1.00 0.00 0.00 1.00 244.00 4.00 ) '><!ENTITY E10 'matrix(1.00 0.00 0.00 1.00 0.00 0.00 ) '><!ENTITY E4 'stroke:none;opacity:1;fill:rgb(155,91,179);'><!ENTITY E30 'stroke:rgb(255,255,255);fill:none;stroke-linecap:butt;stroke-miterlimit:9;opacity:1;stroke-width:1.2496;stroke-linejoin:miter;'><!ENTITY E6 'stroke:none;fill-rule:evenodd;opacity:1;fill:rgb(255,255,255);'><!ENTITY E3 'matrix(1.00 0.00 0.00 1.00 484.00 4.00 ) '><!ENTITY E5 'M 4.4028 13 4.93347 11.3266 C 6.15637 11.7667 7.04467 12.1477 7.598371 12.4698 7.45224 11.0476 7.37533 10.0696 7.36764 9.5352 L 9.040441 9.5352 C 9.017365 10.3131 8.92891 11.2873 8.775101 12.4581 9.567261 12.0495 10.4748 11.6723 11.4977 11.3266 L 12.02837 13 C 11.05162 13.3302 10.09407 13.5502 9.155771 13.6601 9.624911 14.0766 10.28637 14.819 11.14007 15.8877 L 9.755671 16.8894 C 9.30959 16.2687 8.782761 15.4241 8.175171 14.3554 7.606041 15.4633 7.106171 16.308 6.675471 16.8894 L 5.314171 15.8877 C 6.206311 14.7642 6.844671 14.0216 7.229171 13.6601 6.237041 13.4637 5.294871 13.2437 4.402771 13 z '><!ENTITY E35 'matrix(1.00 0.00 0.00 1.00 84.00 4.00 ) '><!ENTITY E36 'stroke:none;opacity:1;fill:rgb(255,255,255);'><!ENTITY E28 'matrix(1.00 0.00 0.00 1.00 164.00 4.00 ) '><!ENTITY E17 'matrix(1.00 0.00 0.00 1.00 324.00 4.00 ) '><!ENTITY E7 'M 11.656 8.2 11.99975 8.7 16.31225 14.7937 11.65605 21.4187 11.28105 21.9187 14.74985 21.9187 14.8436 21.7624 17.9998 17.0124 18.46855 17.7 21.15605 21.7624 21.2498 21.9187 24.7498 21.9187 24.40605 21.4187 19.65605 14.6687 24.06225 8.699997 24.406 8.199997 20.9998 8.199997 20.90605 8.324997 18.68725 11.4187 C 18.46251 11.7285 18.22333 12.1062 17.9685 12.4812 17.77046 12.1547 17.58677 11.8424 17.31225 11.4187 L 15.28105 8.356197 15.1873 8.199997 11.6561 8.199997 z '><!ENTITY E39 'matrix(1.00 0.00 0.00 1.00 4.00 4.00 ) '><!ENTITY E18 'M 6.1087 10.559 10.5315 10.559 C 10.69669 10.559 10.82968 10.69199 10.82968 10.85718 10.82968 11.02237 10.69669 11.15536 10.5315 11.15536 L 6.1087 11.15536 C 5.94351 11.15536 5.81052 11.02237 5.81052 10.85718 5.81052 10.69199 5.94351 10.559 6.1087 10.559 z M 6.147233 12.8273 10.57003 12.8273 C 10.73522 12.8273 10.86821 12.96029 10.86821 13.12548 10.86821 13.29067 10.73522 13.42366 10.57003 13.42366 L 6.147233 13.42366 C 5.982043 13.42366 5.849053 13.29067 5.849053 13.12548 5.849053 12.96029 5.982043 12.8273 6.147233 12.8273 z M 6.147233 15.0956 10.57003 15.0956 C 10.73522 15.0956 10.86821 15.22859 10.86821 15.39378 10.86821 15.55897 10.73522 15.69196 10.57003 15.69196 L 6.147233 15.69196 C 5.982043 15.69196 5.849053 15.55897 5.849053 15.39378 5.849053 15.22859 5.982043 15.0956 6.147233 15.0956 z '><!ENTITY E1 'M 10.158 33.2 C 3.4054 31.7591 -1.861 26.4692 -3.271 19.71 '><!ENTITY E13 'matrix(1.00 0.00 0.00 1.00 404.00 4.00 ) '>
]>
<svg width="533.4991" height="66.65038" id="SvgGdi_output" xmlns="http://www.w3.org/2000/svg" xmlns:xlink="http://www.w3.org/1999/xlink">
  <style>text { fill: #000; } @media (prefers-color-scheme: dark) { text { fill: #eee; } }</style>
  <rect id="background" height="100.00%" style="fill:none;" width="100.00%" y="0.00" x="0.00" />
  <g style="shape-rendering:auto;" id="root_group">
    <path d="M 10.158 33.2 C 3.4054 31.7591 -1.861 26.4692 -3.271 19.71 " style="stroke:rgb(169,169,169);fill:none;stroke-linecap:butt;stroke-miterlimit:9;opacity:1;stroke-width:2;stroke-linejoin:miter;" transform="matrix(1.00 0.00 0.00 1.00 484.00 4.00 ) " id="35" />
    <ellipse id="36" cy="15.00" cx="15.00" transform="matrix(1.00 0.00 0.00 1.00 484.00 4.00 ) " rx="15.00" ry="15.00" style="stroke:none;opacity:1;fill:rgb(155,91,179);" />
    <path d="M 4.4028 13 4.93347 11.3266 C 6.15637 11.7667 7.04467 12.1477 7.598371 12.4698 7.45224 11.0476 7.37533 10.0696 7.36764 9.5352 L 9.040441 9.5352 C 9.017365 10.3131 8.92891 11.2873 8.775101 12.4581 9.567261 12.0495 10.4748 11.6723 11.4977 11.3266 L 12.02837 13 C 11.05162 13.3302 10.09407 13.5502 9.155771 13.6601 9.624911 14.0766 10.28637 14.819 11.14007 15.8877 L 9.755671 16.8894 C 9.30959 16.2687 8.782761 15.4241 8.175171 14.3554 7.606041 15.4633 7.106171 16.308 6.675471 16.8894 L 5.314171 15.8877 C 6.206311 14.7642 6.844671 14.0216 7.229171 13.6601 6.237041 13.4637 5.294871 13.2437 4.402771 13 z " style="stroke:none;fill-rule:evenodd;opacity:1;fill:rgb(255,255,255);" transform="matrix(1.00 0.00 0.00 1.00 484.00 4.00 ) " id="40" />
    <path d="M 11.656 8.2 11.99975 8.7 16.31225 14.7937 11.65605 21.4187 11.28105 21.9187 14.74985 21.9187 14.8436 21.7624 17.9998 17.0124 18.46855 17.7 21.15605 21.7624 21.2498 21.9187 24.7498 21.9187 24.40605 21.4187 19.65605 14.6687 24.06225 8.699997 24.406 8.199997 20.9998 8.199997 20.90605 8.324997 18.68725 11.4187 C 18.46251 11.7285 18.22333 12.1062 17.9685 12.4812 17.77046 12.1547 17.58677 11.8424 17.31225 11.4187 L 15.28105 8.356197 15.1873 8.199997 11.6561 8.199997 z " style="stroke:none;fill-rule:evenodd;opacity:1;fill:rgb(255,255,255);" transform="matrix(1.00 0.00 0.00 1.00 484.00 4.00 ) " id="41" />
    <ellipse id="42" cy="19.00" cx="484.00" rx="3.00" ry="3.00" style="stroke:rgb(169,169,169);fill:none;stroke-linecap:butt;stroke-miterlimit:9;opacity:1;stroke-width:2;stroke-linejoin:miter;" />
    <ellipse id="43" cy="19.00" cx="484.00" rx="3.00" ry="3.00" style="stroke:none;opacity:1;fill:rgb(0,0,0);" />
    <text id="44" transform="matrix(1.00 0.00 0.00 1.00 0.00 0.00 ) " x="484.00px" y="39.00px" style="stroke:none;clip-path:url(#46_text_clipper);font-family:Microsoft Sans Serif;font-size:8.25pt;opacity:1;">
      <tspan dy="8.25pt" id="48">Multicast</tspan>
    </text>
    <text id="50" transform="matrix(1.00 0.00 0.00 1.00 0.00 0.00 ) " x="484.00px" y="51.45px" style="stroke:none;clip-path:url(#52_text_clipper);font-family:Microsoft Sans Serif;font-size:8.25pt;opacity:1;">
      <tspan dy="8.25pt" id="54">Subject</tspan>
    </text>
    <path style="stroke:rgb(169,169,169);fill:none;stroke-linecap:butt;stroke-miterlimit:9;opacity:1;stroke-width:2;stroke-linejoin:miter;" transform="matrix(1.00 0.00 0.00 1.00 404.00 4.00 ) " id="59" d="M 31.179 5.2 C 34.9985 11.0918 34.9814 18.682 31.13552 24.557 " />
    <ellipse id="60" cy="15.00" cx="15.00" transform="matrix(1.00 0.00 0.00 1.00 404.00 4.00 ) " rx="15.00" ry="15.00" style="stroke:none;opacity:1;fill:rgb(91,178,126);" />
    <path d="M 4.4028 13 4.93347 11.3266 C 6.15637 11.7667 7.04467 12.1477 7.598371 12.4698 7.45224 11.0476 7.37533 10.0696 7.36764 9.5352 L 9.040441 9.5352 C 9.017365 10.3131 8.92891 11.2873 8.775101 12.4581 9.567261 12.0495 10.4748 11.6723 11.4977 11.3266 L 12.02837 13 C 11.05162 13.3302 10.09407 13.5502 9.155771 13.6601 9.624911 14.0766 10.28637 14.819 11.14007 15.8877 L 9.755671 16.8894 C 9.30959 16.2687 8.782761 15.4241 8.175171 14.3554 7.606041 15.4633 7.106171 16.308 6.675471 16.8894 L 5.314171 15.8877 C 6.206311 14.7642 6.844671 14.0216 7.229171 13.6601 6.237041 13.4637 5.294871 13.2437 4.402771 13 z " style="stroke:none;fill-rule:evenodd;opacity:1;fill:rgb(255,255,255);" transform="matrix(1.00 0.00 0.00 1.00 404.00 4.00 ) " id="64" />
    <path d="M 11.656 8.2 11.99975 8.7 16.31225 14.7937 11.65605 21.4187 11.28105 21.9187 14.74985 21.9187 14.8436 21.7624 17.9998 17.0124 18.46855 17.7 21.15605 21.7624 21.2498 21.9187 24.7498 21.9187 24.40605 21.4187 19.65605 14.6687 24.06225 8.699997 24.406 8.199997 20.9998 8.199997 20.90605 8.324997 18.68725 11.4187 C 18.46251 11.7285 18.22333 12.1062 17.9685 12.4812 17.77046 12.1547 17.58677 11.8424 17.31225 11.4187 L 15.28105 8.356197 15.1873 8.199997 11.6561 8.199997 z " style="stroke:none;fill-rule:evenodd;opacity:1;fill:rgb(255,255,255);" transform="matrix(1.00 0.00 0.00 1.00 404.00 4.00 ) " id="65" />
    <text id="66" transform="matrix(1.00 0.00 0.00 1.00 0.00 0.00 ) " x="404.00px" y="39.00px" style="stroke:none;clip-path:url(#68_text_clipper);font-family:Microsoft Sans Serif;font-size:8.25pt;opacity:1;">
      <tspan dy="8.25pt" id="70">Subscribe</tspan>
    </text>
    <text id="72" transform="matrix(1.00 0.00 0.00 1.00 0.00 0.00 ) " x="404.00px" y="51.45px" style="stroke:none;clip-path:url(#74_text_clipper);font-family:Microsoft Sans Serif;font-size:8.25pt;opacity:1;">
      <tspan dy="8.25pt" id="76">Subject</tspan>
    </text>
    <path d="M 10.158 33.2 C 3.4054 31.7591 -1.861 26.4692 -3.271 19.71 " style="stroke:rgb(169,169,169);fill:none;stroke-linecap:butt;stroke-miterlimit:9;opacity:1;stroke-width:2;stroke-linejoin:miter;" transform="matrix(1.00 0.00 0.00 1.00 324.00 4.00 ) " id="78" />
    <ellipse id="79" cy="15.00" cx="15.00" transform="matrix(1.00 0.00 0.00 1.00 324.00 4.00 ) " rx="15.00" ry="15.00" style="stroke:none;opacity:1;fill:rgb(155,91,179);" />
    <path d="M 11.656 8.2 11.99975 8.7 16.31225 14.7937 11.65605 21.4187 11.28105 21.9187 14.74985 21.9187 14.8436 21.7624 17.9998 17.0124 18.46855 17.7 21.15605 21.7624 21.2498 21.9187 24.7498 21.9187 24.40605 21.4187 19.65605 14.6687 24.06225 8.699997 24.406 8.199997 20.9998 8.199997 20.90605 8.324997 18.68725 11.4187 C 18.46251 11.7285 18.22333 12.1062 17.9685 12.4812 17.77046 12.1547 17.58677 11.8424 17.31225 11.4187 L 15.28105 8.356197 15.1873 8.199997 11.6561 8.199997 z " style="stroke:none;fill-rule:evenodd;opacity:1;fill:rgb(255,255,255);" transform="matrix(1.00 0.00 0.00 1.00 324.00 4.00 ) " id="83" />
    <path d="M 6.1087 10.559 10.5315 10.559 C 10.69669 10.559 10.82968 10.69199 10.82968 10.85718 10.82968 11.02237 10.69669 11.15536 10.5315 11.15536 L 6.1087 11.15536 C 5.94351 11.15536 5.81052 11.02237 5.81052 10.85718 5.81052 10.69199 5.94351 10.559 6.1087 10.559 z M 6.147233 12.8273 10.57003 12.8273 C 10.73522 12.8273 10.86821 12.96029 10.86821 13.12548 10.86821 13.29067 10.73522 13.42366 10.57003 13.42366 L 6.147233 13.42366 C 5.982043 13.42366 5.849053 13.29067 5.849053 13.12548 5.849053 12.96029 5.982043 12.8273 6.147233 12.8273 z M 6.147233 15.0956 10.57003 15.0956 C 10.73522 15.0956 10.86821 15.22859 10.86821 15.39378 10.86821 15.55897 10.73522 15.69196 10.57003 15.69196 L 6.147233 15.69196 C 5.982043 15.69196 5.849053 15.55897 5.849053 15.39378 5.849053 15.22859 5.982043 15.0956 6.147233 15.0956 z " style="stroke:none;fill-rule:evenodd;opacity:1;fill:rgb(255,255,255);" transform="matrix(1.00 0.00 0.00 1.00 324.00 4.00 ) " id="84" />
    <path d="M 6.1087 10.559 10.5315 10.559 C 10.69669 10.559 10.82968 10.69199 10.82968 10.85718 10.82968 11.02237 10.69669 11.15536 10.5315 11.15536 L 6.1087 11.15536 C 5.94351 11.15536 5.81052 11.02237 5.81052 10.85718 5.81052 10.69199 5.94351 10.559 6.1087 10.559 z M 6.147233 12.8273 10.57003 12.8273 C 10.73522 12.8273 10.86821 12.96029 10.86821 13.12548 10.86821 13.29067 10.73522 13.42366 10.57003 13.42366 L 6.147233 13.42366 C 5.982043 13.42366 5.849053 13.29067 5.849053 13.12548 5.849053 12.96029 5.982043 12.8273 6.147233 12.8273 z M 6.147233 15.0956 10.57003 15.0956 C 10.73522 15.0956 10.86821 15.22859 10.86821 15.39378 10.86821 15.55897 10.73522 15.69196 10.57003 15.69196 L 6.147233 15.69196 C 5.982043 15.69196 5.849053 15.55897 5.849053 15.39378 5.849053 15.22859 5.982043 15.0956 6.147233 15.0956 z " transform="matrix(1.00 0.00 0.00 1.00 324.00 4.00 ) " id="85" style="stroke:rgb(255,255,255);fill:none;stroke-linecap:butt;stroke-miterlimit:9;opacity:1;stroke-width:0.86707;stroke-linejoin:miter;" />
    <ellipse id="86" cy="19.00" cx="324.00" rx="3.00" ry="3.00" style="stroke:rgb(169,169,169);fill:none;stroke-linecap:butt;stroke-miterlimit:9;opacity:1;stroke-width:2;stroke-linejoin:miter;" />
    <ellipse id="87" cy="19.00" cx="324.00" rx="3.00" ry="3.00" style="stroke:none;opacity:1;fill:rgb(0,0,0);" />
    <text id="88" transform="matrix(1.00 0.00 0.00 1.00 0.00 0.00 ) " x="324.00px" y="39.00px" style="stroke:none;clip-path:url(#90_text_clipper);font-family:Microsoft Sans Serif;font-size:8.25pt;opacity:1;">
      <tspan dy="8.25pt" id="92">Resource</tspan>
    </text>
    <text id="94" transform="matrix(1.00 0.00 0.00 1.00 0.00 0.00 ) " x="324.00px" y="51.45px" style="stroke:none;clip-path:url(#96_text_clipper);font-family:Microsoft Sans Serif;font-size:8.25pt;opacity:1;">
      <tspan dy="8.25pt" id="98">Subject</tspan>
    </text>
    <path d="M 10.158 33.2 C 3.4054 31.7591 -1.861 26.4692 -3.271 19.71 " style="stroke:rgb(169,169,169);fill:none;stroke-linecap:butt;stroke-miterlimit:9;opacity:1;stroke-width:2;stroke-linejoin:miter;" transform="matrix(1.00 0.00 0.00 1.00 244.00 4.00 ) " id="100" />
    <ellipse id="101" cy="15.00" cx="15.00" transform="matrix(1.00 0.00 0.00 1.00 244.00 4.00 ) " rx="15.00" ry="15.00" style="stroke:none;opacity:1;fill:rgb(155,91,179);" />
    <path d="M 11.656 8.2 11.99975 8.7 16.31225 14.7937 11.65605 21.4187 11.28105 21.9187 14.74985 21.9187 14.8436 21.7624 17.9998 17.0124 18.46855 17.7 21.15605 21.7624 21.2498 21.9187 24.7498 21.9187 24.40605 21.4187 19.65605 14.6687 24.06225 8.699997 24.406 8.199997 20.9998 8.199997 20.90605 8.324997 18.68725 11.4187 C 18.46251 11.7285 18.22333 12.1062 17.9685 12.4812 17.77046 12.1547 17.58677 11.8424 17.31225 11.4187 L 15.28105 8.356197 15.1873 8.199997 11.6561 8.199997 z " style="stroke:none;fill-rule:evenodd;opacity:1;fill:rgb(255,255,255);" transform="matrix(1.00 0.00 0.00 1.00 244.00 4.00 ) " id="106" />
    <path transform="matrix(1.00 0.00 0.00 1.00 244.00 4.00 ) " id="107" style="stroke:rgb(255,255,255);fill:none;stroke-linecap:butt;stroke-miterlimit:9;opacity:1;stroke-width:1.293;stroke-linejoin:miter;" d="M 11.351 13.1 C 11.42444 15.0467 9.308 16.6165 7.4668 15.9895 5.5828 15.49973 4.6834 13.0225 5.8159 11.4387 6.34572 10.62381 7.2864 10.1022 8.257999 10.0842 " />
    <path style="stroke:none;fill-rule:evenodd;opacity:1;fill:rgb(255,255,255);" transform="matrix(1.00 0.00 0.00 1.00 244.00 4.00 ) " id="108" d="M 8.0275 12.161 8.0275 8.2818 11.387 10.2214 9.7072 11.19124 z " />
    <ellipse id="109" cy="19.00" cx="244.00" rx="3.00" ry="3.00" style="stroke:rgb(169,169,169);fill:none;stroke-linecap:butt;stroke-miterlimit:9;opacity:1;stroke-width:2;stroke-linejoin:miter;" />
    <ellipse id="110" cy="19.00" cx="244.00" rx="3.00" ry="3.00" style="stroke:none;opacity:1;fill:rgb(0,0,0);" />
    <text id="111" transform="matrix(1.00 0.00 0.00 1.00 0.00 0.00 ) " x="244.00px" y="39.00px" style="stroke:none;clip-path:url(#113_text_clipper);font-family:Microsoft Sans Serif;font-size:8.25pt;opacity:1;">
      <tspan dy="8.25pt" id="115">Replay</tspan>
    </text>
    <text id="117" transform="matrix(1.00 0.00 0.00 1.00 0.00 0.00 ) " x="244.00px" y="51.45px" style="stroke:none;clip-path:url(#119_text_clipper);font-family:Microsoft Sans Serif;font-size:8.25pt;opacity:1;">
      <tspan dy="8.25pt" id="121">Subject</tspan>
    </text>
    <path d="M 10.158 33.2 C 3.4054 31.7591 -1.861 26.4692 -3.271 19.71 " style="stroke:rgb(169,169,169);fill:none;stroke-linecap:butt;stroke-miterlimit:9;opacity:1;stroke-width:2;stroke-linejoin:miter;" transform="matrix(1.00 0.00 0.00 1.00 164.00 4.00 ) " id="123" />
    <ellipse id="124" cy="15.00" cx="15.00" transform="matrix(1.00 0.00 0.00 1.00 164.00 4.00 ) " rx="15.00" ry="15.00" style="stroke:none;opacity:1;fill:rgb(155,91,179);" />
    <path d="M 11.656 8.2 11.99975 8.7 16.31225 14.7937 11.65605 21.4187 11.28105 21.9187 14.74985 21.9187 14.8436 21.7624 17.9998 17.0124 18.46855 17.7 21.15605 21.7624 21.2498 21.9187 24.7498 21.9187 24.40605 21.4187 19.65605 14.6687 24.06225 8.699997 24.406 8.199997 20.9998 8.199997 20.90605 8.324997 18.68725 11.4187 C 18.46251 11.7285 18.22333 12.1062 17.9685 12.4812 17.77046 12.1547 17.58677 11.8424 17.31225 11.4187 L 15.28105 8.356197 15.1873 8.199997 11.6561 8.199997 z " style="stroke:none;fill-rule:evenodd;opacity:1;fill:rgb(255,255,255);" transform="matrix(1.00 0.00 0.00 1.00 164.00 4.00 ) " id="130" />
    <path style="stroke:rgb(255,255,255);fill:none;stroke-linecap:butt;stroke-miterlimit:9;opacity:1;stroke-width:1.2496;stroke-linejoin:miter;" transform="matrix(1.00 0.00 0.00 1.00 164.00 4.00 ) " id="131" d="M 7.8593 10.494 8.8954 9.65137 13.0189 14.72177 11.9886 15.5597 " />
    <path style="stroke:rgb(255,255,255);fill:none;stroke-linecap:butt;stroke-miterlimit:9;opacity:1;stroke-width:1.2496;stroke-linejoin:miter;" transform="matrix(1.00 0.00 0.00 1.00 164.00 4.00 ) " id="132" d="M 5.1002 16.975 7.6877 14.8707 " />
    <path style="stroke:none;fill-rule:evenodd;opacity:1;fill:rgb(255,255,255);" transform="matrix(1.00 0.00 0.00 1.00 164.00 4.00 ) " id="133" d="M 8.8501 16.342 6.484699 13.4335 10.1863 12.8393 9.518199 14.5907 z " />
    <ellipse id="134" cy="19.00" cx="164.00" rx="3.00" ry="3.00" style="stroke:rgb(169,169,169);fill:none;stroke-linecap:butt;stroke-miterlimit:9;opacity:1;stroke-width:2;stroke-linejoin:miter;" />
    <ellipse id="135" cy="19.00" cx="164.00" rx="3.00" ry="3.00" style="stroke:none;opacity:1;fill:rgb(0,0,0);" />
    <text id="136" transform="matrix(1.00 0.00 0.00 1.00 0.00 0.00 ) " x="164.00px" y="39.00px" style="stroke:none;clip-path:url(#138_text_clipper);font-family:Microsoft Sans Serif;font-size:8.25pt;opacity:1;">
      <tspan dy="8.25pt" id="140">Publish</tspan>
    </text>
    <text id="142" transform="matrix(1.00 0.00 0.00 1.00 0.00 0.00 ) " x="164.00px" y="51.45px" style="stroke:none;clip-path:url(#144_text_clipper);font-family:Microsoft Sans Serif;font-size:8.25pt;opacity:1;">
      <tspan dy="8.25pt" id="146">Subject</tspan>
    </text>
    <path d="M 10.158 33.2 C 3.4054 31.7591 -1.861 26.4692 -3.271 19.71 " style="stroke:rgb(169,169,169);fill:none;stroke-linecap:butt;stroke-miterlimit:9;opacity:1;stroke-width:2;stroke-linejoin:miter;" transform="matrix(1.00 0.00 0.00 1.00 84.00 4.00 ) " id="148" />
    <ellipse id="149" cy="15.00" cx="15.00" transform="matrix(1.00 0.00 0.00 1.00 84.00 4.00 ) " rx="15.00" ry="15.00" style="stroke:none;opacity:1;fill:rgb(155,91,179);" />
    <path d="M 11.656 8.2 11.99975 8.7 16.31225 14.7937 11.65605 21.4187 11.28105 21.9187 14.74985 21.9187 14.8436 21.7624 17.9998 17.0124 18.46855 17.7 21.15605 21.7624 21.2498 21.9187 24.7498 21.9187 24.40605 21.4187 19.65605 14.6687 24.06225 8.699997 24.406 8.199997 20.9998 8.199997 20.90605 8.324997 18.68725 11.4187 C 18.46251 11.7285 18.22333 12.1062 17.9685 12.4812 17.77046 12.1547 17.58677 11.8424 17.31225 11.4187 L 15.28105 8.356197 15.1873 8.199997 11.6561 8.199997 z " style="stroke:none;fill-rule:evenodd;opacity:1;fill:rgb(255,255,255);" transform="matrix(1.00 0.00 0.00 1.00 84.00 4.00 ) " id="153" />
    <ellipse id="154" cy="12.78" cx="8.79" transform="matrix(1.00 0.00 0.00 1.00 84.00 4.00 ) " rx="3.00" ry="3.00" style="stroke:none;opacity:1;fill:rgb(255,255,255);" />
    <ellipse id="155" cy="19.00" cx="84.00" rx="3.00" ry="3.00" style="stroke:rgb(169,169,169);fill:none;stroke-linecap:butt;stroke-miterlimit:9;opacity:1;stroke-width:2;stroke-linejoin:miter;" />
    <ellipse id="156" cy="19.00" cx="84.00" rx="3.00" ry="3.00" style="stroke:none;opacity:1;fill:rgb(0,0,0);" />
    <text id="157" transform="matrix(1.00 0.00 0.00 1.00 0.00 0.00 ) " x="84.00px" y="39.00px" style="stroke:none;clip-path:url(#159_text_clipper);font-family:Microsoft Sans Serif;font-size:8.25pt;opacity:1;">
      <tspan dy="8.25pt" id="161">Behavior</tspan>
    </text>
    <text id="163" transform="matrix(1.00 0.00 0.00 1.00 0.00 0.00 ) " x="84.00px" y="51.45px" style="stroke:none;clip-path:url(#165_text_clipper);font-family:Microsoft Sans Serif;font-size:8.25pt;opacity:1;">
      <tspan dy="8.25pt" id="167">Subject</tspan>
    </text>
    <path d="M 10.158 33.2 C 3.4054 31.7591 -1.861 26.4692 -3.271 19.71 " style="stroke:rgb(169,169,169);fill:none;stroke-linecap:butt;stroke-miterlimit:9;opacity:1;stroke-width:2;stroke-linejoin:miter;" transform="matrix(1.00 0.00 0.00 1.00 4.00 4.00 ) " id="169" />
    <ellipse id="170" cy="15.00" cx="15.00" transform="matrix(1.00 0.00 0.00 1.00 4.00 4.00 ) " rx="15.00" ry="15.00" style="stroke:none;opacity:1;fill:rgb(155,91,179);" />
    <path d="M 11.656 8.2 11.99975 8.7 16.31225 14.7937 11.65605 21.4187 11.28105 21.9187 14.74985 21.9187 14.8436 21.7624 17.9998 17.0124 18.46855 17.7 21.15605 21.7624 21.2498 21.9187 24.7498 21.9187 24.40605 21.4187 19.65605 14.6687 24.06225 8.699997 24.406 8.199997 20.9998 8.199997 20.90605 8.324997 18.68725 11.4187 C 18.46251 11.7285 18.22333 12.1062 17.9685 12.4812 17.77046 12.1547 17.58677 11.8424 17.31225 11.4187 L 15.28105 8.356197 15.1873 8.199997 11.6561 8.199997 z " style="stroke:none;fill-rule:evenodd;opacity:1;fill:rgb(255,255,255);" transform="matrix(1.00 0.00 0.00 1.00 4.00 4.00 ) " id="178" />
    <path transform="matrix(1.00 0.00 0.00 1.00 4.00 4.00 ) " id="179" style="stroke:rgb(255,255,255);fill:none;stroke-linecap:butt;stroke-miterlimit:9;opacity:1;stroke-width:1;stroke-linejoin:miter;" d="M 9.4157 11.456 6.5241 13.2088 9.436001 14.9739 " />
    <ellipse id="180" cy="10.98" cx="10.22" transform="matrix(1.00 0.00 0.00 1.00 4.00 4.00 ) " rx="1.27" ry="1.27" style="stroke:none;opacity:1;fill:rgb(255,255,255);" />
    <ellipse id="181" cy="15.44" cx="10.24" transform="matrix(1.00 0.00 0.00 1.00 4.00 4.00 ) " rx="1.27" ry="1.27" style="stroke:none;opacity:1;fill:rgb(255,255,255);" />
    <ellipse id="182" cy="13.24" cx="6.19" transform="matrix(1.00 0.00 0.00 1.00 4.00 4.00 ) " rx="1.27" ry="1.27" style="stroke:none;opacity:1;fill:rgb(255,255,255);" />
    <ellipse id="183" cy="19.00" cx="4.00" rx="3.00" ry="3.00" style="stroke:rgb(169,169,169);fill:none;stroke-linecap:butt;stroke-miterlimit:9;opacity:1;stroke-width:2;stroke-linejoin:miter;" />
    <ellipse id="184" cy="19.00" cx="4.00" rx="3.00" ry="3.00" style="stroke:none;opacity:1;fill:rgb(0,0,0);" />
    <text id="185" transform="matrix(1.00 0.00 0.00 1.00 0.00 0.00 ) " x="4.00px" y="39.00px" style="stroke:none;clip-path:url(#187_text_clipper);font-family:Microsoft Sans Serif;font-size:8.25pt;opacity:1;">
      <tspan dy="8.25pt" id="189">AsyncSubject</tspan>
    </text>
  </g>
  <defs id="clips_hatches_and_gradients">
    <clipPath id="46_text_clipper">
      <rect x="484.00" y="39.00" width="48.50" height="27.65" id="47" />
    </clipPath>
    <clipPath id="52_text_clipper">
      <rect x="484.00" y="51.45" width="48.50" height="27.65" id="53" />
    </clipPath>
    <clipPath id="68_text_clipper">
      <rect x="404.00" y="39.00" width="54.11" height="27.65" id="69" />
    </clipPath>
    <clipPath id="74_text_clipper">
      <rect x="404.00" y="51.45" width="54.11" height="27.65" id="75" />
    </clipPath>
    <clipPath id="90_text_clipper">
      <rect x="324.00" y="39.00" width="52.15" height="27.65" id="91" />
    </clipPath>
    <clipPath id="96_text_clipper">
      <rect x="324.00" y="51.45" width="52.15" height="27.65" id="97" />
    </clipPath>
    <clipPath id="113_text_clipper">
      <rect x="244.00" y="39.00" width="41.52" height="27.65" id="114" />
    </clipPath>
    <clipPath id="119_text_clipper">
      <rect x="244.00" y="51.45" width="41.52" height="27.65" id="120" />
    </clipPath>
    <clipPath id="138_text_clipper">
      <rect x="164.00" y="39.00" width="41.52" height="27.65" id="139" />
    </clipPath>
    <clipPath id="144_text_clipper">
      <rect x="164.00" y="51.45" width="41.52" height="27.65" id="145" />
    </clipPath>
    <clipPath id="159_text_clipper">
      <rect x="84.00" y="39.00" width="48.45" height="27.65" id="160" />
    </clipPath>
    <clipPath id="165_text_clipper">
      <rect x="84.00" y="51.45" width="48.45" height="27.65" id="166" />
    </clipPath>
    <clipPath id="187_text_clipper">
      <rect x="4.00" y="39.00" width="72.38" height="13.83" id="188" />
    </clipPath>
  </defs>
</svg>