<?xml version="1.0" standalone="yes"?><!DOCTYPE svg PUBLIC "-//W3C//DTD SVG 1.1//EN" "http://www.w3.org/Graphics/SVG/1.1/DTD/svg11.dtd"[
<!ENTITY E31 'matrix(1.00 0.00 0.00 1.00 84.00 4.00 ) '><!ENTITY E17 'matrix(1.00 0.00 0.00 1.00 244.00 84.00 ) '><!ENTITY E9 'matrix(1.00 0.00 0.00 1.00 0.00 0.00 ) '><!ENTITY E35 'matrix(1.00 0.00 0.00 1.00 84.00 84.00 ) '><!ENTITY E24 'M 23.75 9.1 19.5587 11.5211 19.5587 18.3937 23.75 20.8147 z '><!ENTITY E4 'stroke:rgb(169,169,169);fill:none;stroke-linecap:butt;stroke-miterlimit:9;opacity:1;stroke-width:2;stroke-linejoin:miter;'><!ENTITY E32 'stroke:none;opacity:1;fill:rgb(91,178,126);'><!ENTITY E6 'stroke:rgb(255,255,255);fill:none;stroke-linecap:butt;stroke-miterlimit:9;opacity:1;stroke-width:2;stroke-linejoin:miter;'><!ENTITY E1 'stroke:rgb(169,169,169);fill:none;stroke-linecap:butt;stroke-miterlimit:9;opacity:1;stroke-width:1;stroke-linejoin:miter;'><!ENTITY E7 'stroke:none;opacity:1;fill:rgb(255,255,255);'><!ENTITY E22 'matrix(1.00 0.00 0.00 1.00 164.00 4.00 ) '><!ENTITY E11 'M 12.246 6.0137 12.246 6.019559 C 12.05806 6.020259 11.89471 6.040434 11.76748 6.066434 10.86869 6.352735 10.89631 6.934374 9.87688 7.685534 8.863379 8.264335 8.35338 7.819914 7.61518 8.419914 6.87845 9.015514 7.39292 10.38251 7.08393 10.64841 6.77722 11.18001 5.82553 11.65471 5.65233 12.32611 5.50916 13.18481 6.04191 13.79701 6.02147 14.53311 6.08287 15.14641 5.41127 15.49489 5.5078 15.99211 5.79702 16.80421 6.35438 17.29221 6.6172 17.51751 6.663351 17.54951 6.700028 17.5985 6.714856 17.6015 6.790713 17.792 6.858586 17.98645 6.955086 18.16595 6.949606 18.13995 6.948576 18.11382 6.943367 18.08782 6.998228 18.30542 7.055077 18.52401 7.132816 18.73821 8.683116 22.09901 12.81412 24.68611 17.34182 24.11711 19.54102 23.84771 22.82442 22.33171 24.16602 18.73821 23.22044 19.58671 21.53152 20.32421 20.77732 20.38081 23.33002 19.10511 24.70712 16.93741 24.32031 13.97461 23.79154 15.23341 23.09341 16.20131 22.22071 16.86521 24.07451 13.97551 23.75691 12.48131 22.38478 10.83981 23.36615 13.53881 22.09719 16.53431 19.33208 18.66401 20.45238 18.78541 21.51657 18.51614 22.50198 17.71284 21.01318 19.37354 19.14968 20.20834 17.01368 20.43554 18.03358 21.30254 19.01818 21.69454 19.95898 21.52734 17.34458 22.24884 15.15478 21.45428 12.49018 18.80074 12.3507 19.51504 13.10514 20.62754 13.88278 21.33784 9.373278 19.38284 8.976177 13.29584 14.46872 11.79294 14.47202 11.79294 14.47518 11.79384 14.47848 11.79294 17.74978 13.70674 21.86528 13.58084 22.05078 12.34372 22.50885 10.86082 19.96508 7.805223 16.16208 7.007823 15.4618 6.871123 14.79228 6.817344 14.15428 6.835943 14.16706 6.835943 14.17858 6.836182 14.19139 6.826178 13.58399 6.177278 12.80989 6.011678 12.24609 6.013678 z M 17.17769 9.046878 C 17.72373 9.046878 18.22259 9.543848 18.22259 10.08988 18.22259 10.63598 17.72371 11.13288 17.17769 11.13288 16.63165 11.13288 16.13469 10.63601 16.13469 10.08988 16.13474 9.543879 16.63162 9.046778 17.17769 9.046878 z '><!ENTITY E10 'matrix(1.00 0.00 0.00 1.00 324.00 4.00 ) '><!ENTITY E15 'matrix(1.00 0.00 0.00 1.00 244.00 4.00 ) '><!ENTITY E27 'matrix(1.00 0.00 0.00 1.00 164.00 84.00 ) '><!ENTITY E39 'matrix(1.00 0.00 0.00 1.00 4.00 84.00 ) '><!ENTITY E2 'matrix(1.00 0.00 0.00 1.00 404.00 4.00 ) '><!ENTITY E3 'stroke:none;opacity:1;fill:rgb(238,192,75);'><!ENTITY E12 'stroke:none;fill-rule:evenodd;opacity:1;fill:rgb(255,255,255);'><!ENTITY E30 'M 31.179 5.2 C 34.9985 11.0918 34.9814 18.682 31.13552 24.557 '><!ENTITY E25 'M 8.6927 9.2 15.7194 9.2 C 17.19 9.2 18.3739 10.4337 18.3739 11.9661 L 18.3739 17.8234 C 18.3739 19.3558 17.19 20.5893 15.7194 20.5893 L 8.692701 20.5893 C 7.222101 20.5893 6.038201 19.3558 6.038201 17.8234 L 6.038201 11.9661 C 6.038201 10.4337 7.222101 9.199999 8.692701 9.199999 z '>
]><svg width="467.9259" height="146.6504" id="SvgGdi_output" xmlns="http://www.w3.org/2000/svg" xmlns:xlink="http://www.w3.org/1999/xlink"><rect id="background" height="100.00%" style="fill:rgb(255,255,255);" width="100.00%" y="0.00" x="0.00" /><g style="shape-rendering:auto;" id="root_group"><line y1="19.00" style="&E1;" id="2" x2="400.00" y2="19.00" x1="358.00" /><line y1="19.00" style="&E1;" id="3" x2="320.00" y2="19.00" x1="278.00" /><line y1="99.00" style="&E1;" id="4" x2="320.00" y2="19.00" x1="278.00" /><line y1="19.00" style="&E1;" id="5" x2="240.00" y2="19.00" x1="198.00" /><line y1="99.00" style="&E1;" id="6" x2="240.00" y2="99.00" x1="198.00" /><line y1="19.00" style="&E1;" id="7" x2="160.00" y2="19.00" x1="118.00" /><line y1="99.00" style="&E1;" id="8" x2="160.00" y2="99.00" x1="118.00" /><line y1="99.00" style="&E1;" id="9" x2="80.00" y2="99.00" x1="38.00" /><ellipse id="42" cy="15.00" cx="15.00" transform="&E2;" rx="15.00" ry="15.00" style="&E3;" /><ellipse id="45" cy="15.00" cx="15.00" transform="&E2;" rx="15.00" ry="15.00" style="&E4;" /><path style="&E6;" transform="&E2;" id="52" d="M 14.876 5.6408 14.876 24.0228 " /><ellipse id="53" cy="10.20" cx="8.47" transform="&E2;" rx="3.40" ry="3.40" style="&E7;" /><ellipse id="54" cy="10.20" cx="21.33" transform="&E2;" rx="3.40" ry="3.40" style="&E7;" /><ellipse id="55" cy="19.20" cx="21.33" transform="&E2;" rx="3.40" ry="3.40" style="&E7;" /><text id="56" transform="&E9;" x="404.00px" y="39.00px" style="stroke:none;clip-path:url(#58_text_clipper);font-family:Microsoft Sans Serif;fill:rgb(0,0,0);font-size:8.25pt;opacity:1;"><tspan dy="8.25pt" id="60">SelectMany</tspan></text><ellipse id="62" cy="15.00" cx="15.00" transform="&E10;" rx="15.00" ry="15.00" style="&E3;" /><path d="&E11;" style="&E12;" transform="&E10;" id="65" /><text id="66" transform="&E9;" x="324.00px" y="39.00px" style="stroke:none;clip-path:url(#68_text_clipper);font-family:Microsoft Sans Serif;fill:rgb(0,0,0);font-size:8.25pt;opacity:1;"><tspan dy="8.25pt" id="70">Triggered</tspan></text><text id="72" transform="&E9;" x="324.00px" y="51.45px" style="stroke:none;clip-path:url(#74_text_clipper);font-family:Microsoft Sans Serif;fill:rgb(0,0,0);font-size:8.25pt;opacity:1;"><tspan dy="8.25pt" id="76">Window</tspan></text><ellipse id="78" cy="15.00" cx="15.00" transform="&E15;" rx="15.00" ry="15.00" style="&E3;" /><path d="&E11;" style="&E12;" transform="&E15;" id="79" /><text id="80" transform="&E9;" x="244.00px" y="39.00px" style="stroke:none;clip-path:url(#82_text_clipper);font-family:Microsoft Sans Serif;fill:rgb(0,0,0);font-size:8.25pt;opacity:1;"><tspan dy="8.25pt" id="84">Delay</tspan></text><ellipse id="88" cy="15.00" cx="15.00" transform="&E17;" rx="15.00" ry="15.00" style="&E3;" /><ellipse id="89" cy="15.00" cx="15.00" transform="&E17;" rx="15.00" ry="15.00" style="&E4;" /><path transform="&E17;" id="93" style="stroke:rgb(255,255,255);fill:none;stroke-linecap:butt;stroke-miterlimit:9;opacity:1;stroke-width:2.5;stroke-linejoin:miter;" d="M 11.061 10.763 C 11.061 9.349799 12.2452 7.7226 13.7798 7.4008 15.4144 6.98898 17.2874 7.88198 17.9084 9.4683 18.47393 10.8026 17.97233 12.4332 16.8453 13.3125 16.16579 13.95364 15.1393 14.28144 14.7641 15.2029 14.48171 16.1142 14.56073 17.1532 14.56319 18.0326 " /><ellipse id="94" cy="21.60" cx="14.68" transform="&E17;" rx="1.81" ry="1.81" style="&E7;" /><text id="95" transform="&E9;" x="244.00px" y="119.00px" style="stroke:none;clip-path:url(#97_text_clipper);font-family:Microsoft Sans Serif;fill:rgb(0,0,0);font-size:8.25pt;opacity:1;"><tspan dy="8.25pt" id="99">Condition</tspan></text><path style="&E4;" transform="&E22;" id="104" d="M 10.158 33.2 C 3.4054 31.7591 -1.861 26.4692 -3.271 19.71 " /><ellipse id="105" cy="15.00" cx="15.00" transform="&E22;" rx="15.00" ry="15.00" style="stroke:none;opacity:1;fill:rgb(155,91,179);" /><path d="&E24;" style="&E12;" transform="&E22;" id="109" /><path d="&E25;" style="&E12;" transform="&E22;" id="110" /><text id="111" transform="&E9;" x="164.00px" y="39.00px" style="stroke:none;clip-path:url(#113_text_clipper);font-family:Microsoft Sans Serif;fill:rgb(0,0,0);font-size:8.25pt;opacity:1;"><tspan dy="8.25pt" id="115">VideoWriter</tspan></text><ellipse id="117" cy="15.00" cx="15.00" transform="&E27;" rx="15.00" ry="15.00" style="&E3;" /><path d="&E11;" style="&E12;" transform="&E27;" id="118" /><text id="119" transform="&E9;" x="164.00px" y="119.00px" style="stroke:none;clip-path:url(#121_text_clipper);font-family:Microsoft Sans Serif;fill:rgb(0,0,0);font-size:8.25pt;opacity:1;"><tspan dy="8.25pt" id="123">DistinctUntil</tspan></text><text id="125" transform="&E9;" x="164.00px" y="131.45px" style="stroke:none;clip-path:url(#127_text_clipper);font-family:Microsoft Sans Serif;fill:rgb(0,0,0);font-size:8.25pt;opacity:1;"><tspan dy="8.25pt" id="129">Changed</tspan></text><path d="&E30;" style="&E4;" transform="&E31;" id="134" /><ellipse id="135" cy="15.00" cx="15.00" transform="&E31;" rx="15.00" ry="15.00" style="&E32;" /><path d="&E24;" style="&E12;" transform="&E31;" id="136" /><path d="&E25;" style="&E12;" transform="&E31;" id="137" /><text id="138" transform="&E9;" x="84.00px" y="39.00px" style="stroke:none;clip-path:url(#140_text_clipper);font-family:Microsoft Sans Serif;fill:rgb(0,0,0);font-size:8.25pt;opacity:1;"><tspan dy="8.25pt" id="142">Camera</tspan></text><text id="144" transform="&E9;" x="84.00px" y="51.45px" style="stroke:none;clip-path:url(#146_text_clipper);font-family:Microsoft Sans Serif;fill:rgb(0,0,0);font-size:8.25pt;opacity:1;"><tspan dy="8.25pt" id="148">Capture</tspan></text><ellipse id="152" cy="15.00" cx="15.00" transform="&E35;" rx="15.00" ry="15.00" style="stroke:none;opacity:1;fill:rgb(68,154,223);" /><path style="&E6;" transform="&E35;" id="157" d="M 16.849 10.062 23.4027 10.062 M 16.6038 19.6084 23.3505 19.6084 M 12.3075 17.1615 7.5719 21.8971 M 7.577335 17.152 12.31704 21.8917 M 6.564136 10.0047 13.30904 10.0047 M 9.936636 6.6288 9.936636 13.3806 " /><ellipse id="158" cy="16.33" cx="19.93" transform="&E35;" rx="1.30" ry="1.30" style="&E7;" /><ellipse id="159" cy="22.83" cx="19.93" transform="&E35;" rx="1.30" ry="1.30" style="&E7;" /><text id="160" transform="&E9;" x="84.00px" y="119.00px" style="stroke:none;clip-path:url(#162_text_clipper);font-family:Microsoft Sans Serif;fill:rgb(0,0,0);font-size:8.25pt;opacity:1;"><tspan dy="8.25pt" id="164">GreaterThan</tspan></text><path d="&E30;" style="&E4;" transform="&E39;" id="166" /><ellipse id="167" cy="15.00" cx="15.00" transform="&E39;" rx="15.00" ry="15.00" style="&E32;" /><path style="&E12;" transform="&E39;" id="170" d="M 11.529 25.444 20.7834 12.908 16.3203 12.908 18.355 4.7687 9.100601 17.3047 13.5637 17.3047 z " /><text id="171" transform="&E9;" x="4.00px" y="119.00px" style="stroke:none;clip-path:url(#173_text_clipper);font-family:Microsoft Sans Serif;fill:rgb(0,0,0);font-size:8.25pt;opacity:1;"><tspan dy="8.25pt" id="175">AnalogInput</tspan></text></g><defs id="clips_hatches_and_gradients"><clipPath id="58_text_clipper"><rect x="404.00" y="39.00" width="62.93" height="13.83" id="59" /></clipPath><clipPath id="68_text_clipper"><rect x="324.00" y="39.00" width="52.22" height="27.65" id="69" /></clipPath><clipPath id="74_text_clipper"><rect x="324.00" y="51.45" width="52.22" height="27.65" id="75" /></clipPath><clipPath id="82_text_clipper"><rect x="244.00" y="39.00" width="32.70" height="13.83" id="83" /></clipPath><clipPath id="97_text_clipper"><rect x="244.00" y="119.00" width="51.66" height="13.83" id="98" /></clipPath><clipPath id="113_text_clipper"><rect x="164.00" y="39.00" width="62.97" height="13.83" id="114" /></clipPath><clipPath id="121_text_clipper"><rect x="164.00" y="119.00" width="63.74" height="27.65" id="122" /></clipPath><clipPath id="127_text_clipper"><rect x="164.00" y="131.45" width="63.74" height="27.65" id="128" /></clipPath><clipPath id="140_text_clipper"><rect x="84.00" y="39.00" width="43.97" height="27.65" id="141" /></clipPath><clipPath id="146_text_clipper"><rect x="84.00" y="51.45" width="43.97" height="27.65" id="147" /></clipPath><clipPath id="162_text_clipper"><rect x="84.00" y="119.00" width="67.89" height="13.83" id="163" /></clipPath><clipPath id="173_text_clipper"><rect x="4.00" y="119.00" width="64.20" height="13.83" id="174" /></clipPath></defs></svg>