<?xml version="1.0" standalone="yes"?>
<!DOCTYPE svg PUBLIC "-//W3C//DTD SVG 1.1//EN" "http://www.w3.org/Graphics/SVG/1.1/DTD/svg11.dtd"[
<!ENTITY E4 'matrix(1.00 0.00 0.00 1.00 84.00 4.00 ) '><!ENTITY E3 'stroke:rgb(169,169,169);fill:none;stroke-linecap:butt;stroke-miterlimit:9;opacity:1;stroke-width:2;stroke-linejoin:miter;'><!ENTITY E8 'M 6.1087 10.559 10.5315 10.559 C 10.69669 10.559 10.82968 10.69199 10.82968 10.85718 10.82968 11.02237 10.69669 11.15536 10.5315 11.15536 L 6.1087 11.15536 C 5.94351 11.15536 5.81052 11.02237 5.81052 10.85718 5.81052 10.69199 5.94351 10.559 6.1087 10.559 z M 6.147233 12.8273 10.57003 12.8273 C 10.73522 12.8273 10.86821 12.96029 10.86821 13.12548 10.86821 13.29067 10.73522 13.42366 10.57003 13.42366 L 6.147233 13.42366 C 5.982043 13.42366 5.849053 13.29067 5.849053 13.12548 5.849053 12.96029 5.982043 12.8273 6.147233 12.8273 z M 6.147233 15.0956 10.57003 15.0956 C 10.73522 15.0956 10.86821 15.22859 10.86821 15.39378 10.86821 15.55897 10.73522 15.69196 10.57003 15.69196 L 6.147233 15.69196 C 5.982043 15.69196 5.849053 15.55897 5.849053 15.39378 5.849053 15.22859 5.982043 15.0956 6.147233 15.0956 z '><!ENTITY E14 'matrix(1.00 0.00 0.00 1.00 4.00 4.00 ) '><!ENTITY E7 'stroke:none;fill-rule:evenodd;opacity:1;fill:rgb(255,255,255);'><!ENTITY E11 'matrix(1.00 0.00 0.00 1.00 0.00 0.00 ) '>
]>
<svg width="137.1515" height="66.65038" id="SvgGdi_output" xmlns="http://www.w3.org/2000/svg" xmlns:xlink="http://www.w3.org/1999/xlink">
  <style>text { fill: #000; } @media (prefers-color-scheme: dark) { text { fill: #eee; } }</style>
  <rect id="background" height="100.00%" style="fill:none;" width="100.00%" y="0.00" x="0.00" />
  <g style="shape-rendering:auto;" id="root_group">
    <line y1="19.00" id="2" x2="80.00" y2="19.00" x1="38.00" style="stroke:rgb(169,169,169);fill:none;stroke-linecap:butt;stroke-miterlimit:9;opacity:1;stroke-width:1;stroke-linejoin:miter;" />
    <path style="stroke:rgb(169,169,169);fill:none;stroke-linecap:butt;stroke-miterlimit:9;opacity:1;stroke-width:2;stroke-linejoin:miter;" transform="matrix(1.00 0.00 0.00 1.00 84.00 4.00 ) " id="36" d="M 10.158 33.2 C 3.4054 31.7591 -1.861 26.4692 -3.271 19.71 " />
    <ellipse id="37" cy="15.00" cx="15.00" transform="matrix(1.00 0.00 0.00 1.00 84.00 4.00 ) " rx="15.00" ry="15.00" style="stroke:none;opacity:1;fill:rgb(155,91,179);" />
    <path style="stroke:none;fill-rule:evenodd;opacity:1;fill:rgb(255,255,255);" transform="matrix(1.00 0.00 0.00 1.00 84.00 4.00 ) " id="41" d="M 11.656 8.2 11.99975 8.7 16.31225 14.7937 11.65605 21.4187 11.28105 21.9187 14.74985 21.9187 14.8436 21.7624 17.9998 17.0124 18.46855 17.7 21.15605 21.7624 21.2498 21.9187 24.7498 21.9187 24.40605 21.4187 19.65605 14.6687 24.06225 8.699997 24.406 8.199997 20.9998 8.199997 20.90605 8.324997 18.68725 11.4187 C 18.46251 11.7285 18.22333 12.1062 17.9685 12.4812 17.77046 12.1547 17.58677 11.8424 17.31225 11.4187 L 15.28105 8.356197 15.1873 8.199997 11.6561 8.199997 z " />
    <path d="M 6.1087 10.559 10.5315 10.559 C 10.69669 10.559 10.82968 10.69199 10.82968 10.85718 10.82968 11.02237 10.69669 11.15536 10.5315 11.15536 L 6.1087 11.15536 C 5.94351 11.15536 5.81052 11.02237 5.81052 10.85718 5.81052 10.69199 5.94351 10.559 6.1087 10.559 z M 6.147233 12.8273 10.57003 12.8273 C 10.73522 12.8273 10.86821 12.96029 10.86821 13.12548 10.86821 13.29067 10.73522 13.42366 10.57003 13.42366 L 6.147233 13.42366 C 5.982043 13.42366 5.849053 13.29067 5.849053 13.12548 5.849053 12.96029 5.982043 12.8273 6.147233 12.8273 z M 6.147233 15.0956 10.57003 15.0956 C 10.73522 15.0956 10.86821 15.22859 10.86821 15.39378 10.86821 15.55897 10.73522 15.69196 10.57003 15.69196 L 6.147233 15.69196 C 5.982043 15.69196 5.849053 15.55897 5.849053 15.39378 5.849053 15.22859 5.982043 15.0956 6.147233 15.0956 z " style="stroke:none;fill-rule:evenodd;opacity:1;fill:rgb(255,255,255);" transform="matrix(1.00 0.00 0.00 1.00 84.00 4.00 ) " id="42" />
    <path d="M 6.1087 10.559 10.5315 10.559 C 10.69669 10.559 10.82968 10.69199 10.82968 10.85718 10.82968 11.02237 10.69669 11.15536 10.5315 11.15536 L 6.1087 11.15536 C 5.94351 11.15536 5.81052 11.02237 5.81052 10.85718 5.81052 10.69199 5.94351 10.559 6.1087 10.559 z M 6.147233 12.8273 10.57003 12.8273 C 10.73522 12.8273 10.86821 12.96029 10.86821 13.12548 10.86821 13.29067 10.73522 13.42366 10.57003 13.42366 L 6.147233 13.42366 C 5.982043 13.42366 5.849053 13.29067 5.849053 13.12548 5.849053 12.96029 5.982043 12.8273 6.147233 12.8273 z M 6.147233 15.0956 10.57003 15.0956 C 10.73522 15.0956 10.86821 15.22859 10.86821 15.39378 10.86821 15.55897 10.73522 15.69196 10.57003 15.69196 L 6.147233 15.69196 C 5.982043 15.69196 5.849053 15.55897 5.849053 15.39378 5.849053 15.22859 5.982043 15.0956 6.147233 15.0956 z " transform="matrix(1.00 0.00 0.00 1.00 84.00 4.00 ) " id="43" style="stroke:rgb(255,255,255);fill:none;stroke-linecap:butt;stroke-miterlimit:9;opacity:1;stroke-width:0.86707;stroke-linejoin:miter;" />
    <text id="44" transform="matrix(1.00 0.00 0.00 1.00 0.00 0.00 ) " x="84.00px" y="39.00px" style="stroke:none;clip-path:url(#46_text_clipper);font-family:Microsoft Sans Serif;font-size:8.25pt;opacity:1;">
      <tspan dy="8.25pt" id="48">Resource</tspan>
    </text>
    <text id="50" transform="matrix(1.00 0.00 0.00 1.00 0.00 0.00 ) " x="84.00px" y="51.45px" style="stroke:none;clip-path:url(#52_text_clipper);font-family:Microsoft Sans Serif;font-size:8.25pt;opacity:1;">
      <tspan dy="8.25pt" id="54">Subject</tspan>
    </text>
    <path style="stroke:rgb(169,169,169);fill:none;stroke-linecap:butt;stroke-miterlimit:9;opacity:1;stroke-width:2;stroke-linejoin:miter;" transform="matrix(1.00 0.00 0.00 1.00 4.00 4.00 ) " id="59" d="M 31.179 5.2 C 34.9985 11.0918 34.9814 18.682 31.13552 24.557 " />
    <ellipse id="60" cy="15.00" cx="15.00" transform="matrix(1.00 0.00 0.00 1.00 4.00 4.00 ) " rx="15.00" ry="15.00" style="stroke:none;opacity:1;fill:rgb(91,178,126);" />
    <path style="stroke:none;fill-rule:evenodd;opacity:1;fill:rgb(255,255,255);" transform="matrix(1.00 0.00 0.00 1.00 4.00 4.00 ) " id="63" d="M 12.246 6.0137 12.246 6.019559 C 12.05806 6.020259 11.89471 6.040434 11.76748 6.066434 10.86869 6.352735 10.89631 6.934374 9.87688 7.685534 8.863379 8.264335 8.35338 7.819914 7.61518 8.419914 6.87845 9.015514 7.39292 10.38251 7.08393 10.64841 6.77722 11.18001 5.82553 11.65471 5.65233 12.32611 5.50916 13.18481 6.04191 13.79701 6.02147 14.53311 6.08287 15.14641 5.41127 15.49489 5.5078 15.99211 5.79702 16.80421 6.35438 17.29221 6.6172 17.51751 6.663351 17.54951 6.700028 17.5985 6.714856 17.6015 6.790713 17.792 6.858586 17.98645 6.955086 18.16595 6.949606 18.13995 6.948576 18.11382 6.943367 18.08782 6.998228 18.30542 7.055077 18.52401 7.132816 18.73821 8.683116 22.09901 12.81412 24.68611 17.34182 24.11711 19.54102 23.84771 22.82442 22.33171 24.16602 18.73821 23.22044 19.58671 21.53152 20.32421 20.77732 20.38081 23.33002 19.10511 24.70712 16.93741 24.32031 13.97461 23.79154 15.23341 23.09341 16.20131 22.22071 16.86521 24.07451 13.97551 23.75691 12.48131 22.38478 10.83981 23.36615 13.53881 22.09719 16.53431 19.33208 18.66401 20.45238 18.78541 21.51657 18.51614 22.50198 17.71284 21.01318 19.37354 19.14968 20.20834 17.01368 20.43554 18.03358 21.30254 19.01818 21.69454 19.95898 21.52734 17.34458 22.24884 15.15478 21.45428 12.49018 18.80074 12.3507 19.51504 13.10514 20.62754 13.88278 21.33784 9.373278 19.38284 8.976177 13.29584 14.46872 11.79294 14.47202 11.79294 14.47518 11.79384 14.47848 11.79294 17.74978 13.70674 21.86528 13.58084 22.05078 12.34372 22.50885 10.86082 19.96508 7.805223 16.16208 7.007823 15.4618 6.871123 14.79228 6.817344 14.15428 6.835943 14.16706 6.835943 14.17858 6.836182 14.19139 6.826178 13.58399 6.177278 12.80989 6.011678 12.24609 6.013678 z M 17.17769 9.046878 C 17.72373 9.046878 18.22259 9.543848 18.22259 10.08988 18.22259 10.63598 17.72371 11.13288 17.17769 11.13288 16.63165 11.13288 16.13469 10.63601 16.13469 10.08988 16.13474 9.543879 16.63162 9.046778 17.17769 9.046878 z " />
    <text id="64" transform="matrix(1.00 0.00 0.00 1.00 0.00 0.00 ) " x="4.00px" y="39.00px" style="stroke:none;clip-path:url(#66_text_clipper);font-family:Microsoft Sans Serif;font-size:8.25pt;opacity:1;">
      <tspan dy="8.25pt" id="68">EventLoop</tspan>
    </text>
    <text id="70" transform="matrix(1.00 0.00 0.00 1.00 0.00 0.00 ) " x="4.00px" y="51.45px" style="stroke:none;clip-path:url(#72_text_clipper);font-family:Microsoft Sans Serif;font-size:8.25pt;opacity:1;">
      <tspan dy="8.25pt" id="74">Scheduler</tspan>
    </text>
  </g>
  <defs id="clips_hatches_and_gradients">
    <clipPath id="46_text_clipper">
      <rect x="84.00" y="39.00" width="52.15" height="27.65" id="47" />
    </clipPath>
    <clipPath id="52_text_clipper">
      <rect x="84.00" y="51.45" width="52.15" height="27.65" id="53" />
    </clipPath>
    <clipPath id="66_text_clipper">
      <rect x="4.00" y="39.00" width="57.84" height="27.65" id="67" />
    </clipPath>
    <clipPath id="72_text_clipper">
      <rect x="4.00" y="51.45" width="57.84" height="27.65" id="73" />
    </clipPath>
  </defs>
</svg>