<?xml version="1.0" standalone="yes"?><!DOCTYPE svg PUBLIC "-//W3C//DTD SVG 1.1//EN" "http://www.w3.org/Graphics/SVG/1.1/DTD/svg11.dtd"[
<!ENTITY E12 'stroke:none;opacity:1;fill:rgb(68,154,223);'><!ENTITY E3 'stroke:rgb(169,169,169);fill:none;stroke-linecap:butt;stroke-miterlimit:9;opacity:1;stroke-width:2;stroke-linejoin:miter;'><!ENTITY E10 'matrix(1.00 0.00 0.00 1.00 0.00 0.00 ) '><!ENTITY E5 'stroke:none;opacity:1;fill:rgb(155,91,179);'><!ENTITY E14 'stroke:none;fill-rule:evenodd;opacity:1;fill:rgb(255,255,255);'><!ENTITY E4 'matrix(1.00 0.00 0.00 1.00 484.00 4.00 ) '><!ENTITY E7 'stroke:rgb(255,255,255);fill:none;stroke-linecap:butt;stroke-miterlimit:9;opacity:1;stroke-width:2;stroke-linejoin:miter;'><!ENTITY E18 'matrix(1.00 0.00 0.00 1.00 324.00 4.00 ) '><!ENTITY E32 'matrix(1.00 0.00 0.00 1.00 4.00 4.00 ) '><!ENTITY E23 'stroke:none;opacity:1;fill:rgb(255,255,255);'><!ENTITY E25 'matrix(1.00 0.00 0.00 1.00 164.00 4.00 ) '><!ENTITY E27 'matrix(1.00 0.00 0.00 1.00 84.00 4.00 ) '><!ENTITY E21 'matrix(1.00 0.00 0.00 1.00 244.00 4.00 ) '><!ENTITY E22 'M 18.422 13 13.4357 18.5006 10.8556 15.9868 6.500101 20.5001 23.9571 20.48582 z '><!ENTITY E2 'M 10.158 33.2 C 3.4054 31.7591 -1.861 26.4692 -3.271 19.71 '><!ENTITY E11 'matrix(1.00 0.00 0.00 1.00 404.00 4.00 ) '><!ENTITY E1 'stroke:rgb(169,169,169);fill:none;stroke-linecap:butt;stroke-miterlimit:9;opacity:1;stroke-width:1;stroke-linejoin:miter;'><!ENTITY E28 'M 23.75 9.1 19.5587 11.5211 19.5587 18.3937 23.75 20.8147 z '><!ENTITY E29 'M 8.6927 9.2 15.7194 9.2 C 17.19 9.2 18.3739 10.4337 18.3739 11.9661 L 18.3739 17.8234 C 18.3739 19.3558 17.19 20.5893 15.7194 20.5893 L 8.692701 20.5893 C 7.222101 20.5893 6.038201 19.3558 6.038201 17.8234 L 6.038201 11.9661 C 6.038201 10.4337 7.222101 9.199999 8.692701 9.199999 z '>
]><svg width="538.4459" height="66.65038" id="SvgGdi_output" xmlns="http://www.w3.org/2000/svg" xmlns:xlink="http://www.w3.org/1999/xlink"><rect id="background" height="100.00%" style="fill:rgb(255,255,255);" width="100.00%" y="0.00" x="0.00" /><g style="shape-rendering:auto;" id="root_group"><line y1="19.00" style="&E1;" id="2" x2="480.00" y2="19.00" x1="438.00" /><line y1="19.00" style="&E1;" id="3" x2="400.00" y2="19.00" x1="358.00" /><line y1="19.00" style="&E1;" id="4" x2="320.00" y2="19.00" x1="278.00" /><line y1="19.00" style="&E1;" id="5" x2="240.00" y2="19.00" x1="198.00" /><line y1="19.00" style="&E1;" id="6" x2="160.00" y2="19.00" x1="118.00" /><line y1="19.00" style="&E1;" id="7" x2="80.00" y2="19.00" x1="38.00" /><path d="&E2;" style="&E3;" transform="&E4;" id="41" /><ellipse id="42" cy="15.00" cx="15.00" transform="&E4;" rx="15.00" ry="15.00" style="&E5;" /><path style="&E7;" transform="&E4;" id="48" d="M 7.3965 19.566 7.3965 10.8433 " /><path style="&E7;" transform="&E4;" id="49" d="M 11.085 22.137 14.2178 8.273999 " /><ellipse id="50" cy="15.15" cx="20.49" transform="&E4;" rx="4.18" ry="4.18" style="&E7;" /><text id="51" transform="&E10;" x="484.00px" y="39.00px" style="stroke:none;clip-path:url(#53_text_clipper);font-family:Microsoft Sans Serif;fill:rgb(0,0,0);font-size:8.25pt;opacity:1;"><tspan dy="8.25pt" id="55">CsvWriter</tspan></text><ellipse id="59" cy="15.00" cx="15.00" transform="&E11;" rx="15.00" ry="15.00" style="&E12;" /><path style="&E14;" transform="&E11;" id="64" d="M 19.156 13.888 19.156 10.3647 19.156 6.841399 25.2585 10.3647 22.2072 12.1264 z " /><path style="&E14;" transform="&E11;" id="65" d="M 19.156 22.97 19.156 19.4467 19.156 15.9234 25.2585 19.4467 22.2072 21.2084 z " /><path style="&E7;" transform="&E11;" id="66" d="M 5.5001 19.484 10.6493 19.484 16.2743 10.2485 19.3728 10.2485 M 14.6769 17.1481 16.3089 19.4828 19.2202 19.4828 M 5.500199 10.2437 10.7586 10.2437 12.1652 12.8707 " /><text id="67" transform="&E10;" x="404.00px" y="39.00px" style="stroke:none;clip-path:url(#69_text_clipper);font-family:Microsoft Sans Serif;fill:rgb(0,0,0);font-size:8.25pt;opacity:1;"><tspan dy="8.25pt" id="71">Val0</tspan></text><ellipse id="73" cy="15.00" cx="15.00" transform="&E18;" rx="15.00" ry="15.00" style="&E12;" /><path style="&E7;" transform="&E18;" id="76" d="M 20.824 23.115 20.824 7.098999 M 17.3572 17.48 17.3572 12.7339 M 13.8904 21.2046 13.8904 9.009602 M 10.4236 18.6248 10.4236 11.5896 M 6.9568 16.3923 6.9568 13.822 " /><text id="77" transform="&E10;" x="324.00px" y="39.00px" style="stroke:none;clip-path:url(#79_text_clipper);font-family:Microsoft Sans Serif;fill:rgb(0,0,0);font-size:8.25pt;opacity:1;"><tspan dy="8.25pt" id="81">Average</tspan></text><ellipse id="83" cy="15.00" cx="15.00" transform="&E21;" rx="15.00" ry="15.00" style="&E12;" /><path d="&E22;" style="&E14;" transform="&E21;" id="87" /><ellipse id="88" cy="10.96" cx="10.92" transform="&E21;" rx="2.75" ry="2.75" style="&E23;" /><text id="89" transform="&E10;" x="244.00px" y="39.00px" style="stroke:none;clip-path:url(#91_text_clipper);font-family:Microsoft Sans Serif;fill:rgb(0,0,0);font-size:8.25pt;opacity:1;"><tspan dy="8.25pt" id="93">Grayscale</tspan></text><ellipse id="95" cy="15.00" cx="15.00" transform="&E25;" rx="15.00" ry="15.00" style="&E12;" /><path d="&E22;" style="&E14;" transform="&E25;" id="96" /><ellipse id="97" cy="10.96" cx="10.92" transform="&E25;" rx="2.75" ry="2.75" style="&E23;" /><text id="98" transform="&E10;" x="164.00px" y="39.00px" style="stroke:none;clip-path:url(#100_text_clipper);font-family:Microsoft Sans Serif;fill:rgb(0,0,0);font-size:8.25pt;opacity:1;"><tspan dy="8.25pt" id="102">Crop</tspan></text><path d="&E2;" style="&E3;" transform="&E27;" id="104" /><ellipse id="105" cy="15.00" cx="15.00" transform="&E27;" rx="15.00" ry="15.00" style="&E5;" /><path d="&E28;" style="&E14;" transform="&E27;" id="109" /><path d="&E29;" style="&E14;" transform="&E27;" id="110" /><text id="111" transform="&E10;" x="84.00px" y="39.00px" style="stroke:none;clip-path:url(#113_text_clipper);font-family:Microsoft Sans Serif;fill:rgb(0,0,0);font-size:8.25pt;opacity:1;"><tspan dy="8.25pt" id="115">VideoWriter</tspan></text><path style="&E3;" transform="&E32;" id="120" d="M 31.179 5.2 C 34.9985 11.0918 34.9814 18.682 31.13552 24.557 " /><ellipse id="121" cy="15.00" cx="15.00" transform="&E32;" rx="15.00" ry="15.00" style="stroke:none;opacity:1;fill:rgb(91,178,126);" /><path d="&E28;" style="&E14;" transform="&E32;" id="122" /><path d="&E29;" style="&E14;" transform="&E32;" id="123" /><text id="124" transform="&E10;" x="4.00px" y="39.00px" style="stroke:none;clip-path:url(#126_text_clipper);font-family:Microsoft Sans Serif;fill:rgb(0,0,0);font-size:8.25pt;opacity:1;"><tspan dy="8.25pt" id="128">Camera</tspan></text><text id="130" transform="&E10;" x="4.00px" y="51.45px" style="stroke:none;clip-path:url(#132_text_clipper);font-family:Microsoft Sans Serif;fill:rgb(0,0,0);font-size:8.25pt;opacity:1;"><tspan dy="8.25pt" id="134">Capture</tspan></text></g><defs id="clips_hatches_and_gradients"><clipPath id="53_text_clipper"><rect x="484.00" y="39.00" width="53.45" height="13.83" id="54" /></clipPath><clipPath id="69_text_clipper"><rect x="404.00" y="39.00" width="26.41" height="13.83" id="70" /></clipPath><clipPath id="79_text_clipper"><rect x="324.00" y="39.00" width="45.86" height="13.83" id="80" /></clipPath><clipPath id="91_text_clipper"><rect x="244.00" y="39.00" width="54.74" height="13.83" id="92" /></clipPath><clipPath id="100_text_clipper"><rect x="164.00" y="39.00" width="28.22" height="13.83" id="101" /></clipPath><clipPath id="113_text_clipper"><rect x="84.00" y="39.00" width="62.97" height="13.83" id="114" /></clipPath><clipPath id="126_text_clipper"><rect x="4.00" y="39.00" width="43.97" height="27.65" id="127" /></clipPath><clipPath id="132_text_clipper"><rect x="4.00" y="51.45" width="43.97" height="27.65" id="133" /></clipPath></defs></svg>