<?xml version="1.0" standalone="yes"?><!DOCTYPE svg PUBLIC "-//W3C//DTD SVG 1.1//EN" "http://www.w3.org/Graphics/SVG/1.1/DTD/svg11.dtd"[
<!ENTITY E10 'matrix(1.00 0.00 0.00 1.00 4.00 4.00 ) '><!ENTITY E3 'matrix(1.00 0.00 0.00 1.00 84.00 4.00 ) '><!ENTITY E15 'opacity:1;stroke:none;fill:rgb(255,255,255);'><!ENTITY E9 'matrix(1.00 0.00 0.00 1.00 0.00 0.00 ) '><!ENTITY E2 'stroke-miterlimit:9;stroke-linecap:butt;opacity:1;stroke-width:2;fill:none;stroke-linejoin:miter;stroke:rgb(169,169,169);'>
]><svg width="151.2026" height="52.19677" id="SvgGdi_output" xmlns="http://www.w3.org/2000/svg"><rect width="100.00%" x="0.00" y="0.00" height="100.00%" id="background" style="fill:rgb(255,255,255);" /><g id="root_group" style="shape-rendering:auto;"><line x1="38.00" x2="80.00" y2="19.00" id="214" y1="19.00" style="stroke-miterlimit:9;stroke-linecap:butt;opacity:1;stroke-width:1;fill:none;stroke-linejoin:miter;stroke:rgb(169,169,169);" /><path style="&E2;" id="215" transform="&E3;" d="M 10.158 33.2 C 3.4054 31.7591 -1.861 26.4692 -3.271 19.71 " /><ellipse ry="15.00" id="216" cx="15.00" rx="15.00" cy="15.00" transform="&E3;" style="opacity:1;stroke:none;fill:rgb(155,91,179);" /><path id="217" transform="&E3;" style="fill-rule:evenodd;opacity:1;stroke:none;fill:rgb(255,255,255);" d="M 11.529 25.444 20.7834 12.908 16.3203 12.908 18.355 4.7687 9.100601 17.3047 13.5637 17.3047 z " /><text x="84.00" y="39.00" id="218" transform="&E9;" style="fill:rgb(0,0,0);clip-path:url(#220_text_clipper);font-size:7.88pt;opacity:1;font-family:Microsoft Sans Serif;stroke:none;"><tspan id="222" dy="7.88pt">DigitalOutput</tspan></text><path style="&E2;" id="224" transform="&E10;" d="M 31.179 5.2 C 34.9985 11.0918 34.9814 18.682 31.13552 24.557 " /><ellipse ry="15.00" id="225" cx="15.00" rx="15.00" cy="15.00" transform="&E10;" style="opacity:1;stroke:none;fill:rgb(91,178,126);" /><path id="226" transform="&E10;" style="stroke-miterlimit:9;stroke-linecap:butt;opacity:1;stroke-width:2;fill:none;stroke-linejoin:miter;stroke:rgb(255,255,255);" d="M 16.849 10.062 23.4027 10.062 M 16.6038 19.6084 23.3505 19.6084 M 12.3075 17.1615 7.5719 21.8971 M 7.577335 17.152 12.31704 21.8917 M 6.564136 10.0047 13.30904 10.0047 M 9.936636 6.6288 9.936636 13.3806 " /><ellipse ry="1.30" style="&E15;" id="227" cx="19.93" rx="1.30" cy="16.33" transform="&E10;" /><ellipse ry="1.30" style="&E15;" id="228" cx="19.93" rx="1.30" cy="22.83" transform="&E10;" /><ellipse ry="3.00" style="&E2;" id="229" cx="4.00" rx="3.00" cy="19.00" /><ellipse ry="3.00" style="&E15;" id="230" cx="4.00" rx="3.00" cy="19.00" /><text x="4.00" y="39.00" id="231" transform="&E9;" style="fill:rgb(0,0,0);clip-path:url(#233_text_clipper);font-size:7.88pt;opacity:1;font-family:Microsoft Sans Serif;stroke:none;"><tspan id="235" dy="7.88pt">Boolean</tspan></text></g><defs id="clips_hatches_and_gradients"><clipPath id="220_text_clipper"><rect id="221" width="66.20" height="13.20" x="84.00" y="39.00" /></clipPath><clipPath id="233_text_clipper"><rect id="234" width="43.25" height="13.20" x="4.00" y="39.00" /></clipPath></defs></svg>