<?xml version="1.0" standalone="yes"?><!DOCTYPE svg PUBLIC "-//W3C//DTD SVG 1.1//EN" "http://www.w3.org/Graphics/SVG/1.1/DTD/svg11.dtd"[
<!ENTITY E4 'fill-rule:evenodd;opacity:1;stroke:none;fill:rgb(255,255,255);'><!ENTITY E23 'matrix(1.00 0.00 0.00 1.00 4.00 4.00 ) '><!ENTITY E17 'stroke-miterlimit:9;stroke-linecap:butt;opacity:1;stroke-width:2;fill:none;stroke-linejoin:miter;stroke:rgb(169,169,169);'><!ENTITY E16 'M 12.246 6.0137 12.246 6.019559 C 12.05806 6.020259 11.89471 6.040434 11.76748 6.066434 10.86869 6.352735 10.89631 6.934374 9.87688 7.685534 8.863379 8.264335 8.35338 7.819914 7.61518 8.419914 6.87845 9.015514 7.39292 10.38251 7.08393 10.64841 6.77722 11.18001 5.82553 11.65471 5.65233 12.32611 5.50916 13.18481 6.04191 13.79701 6.02147 14.53311 6.08287 15.14641 5.41127 15.49489 5.5078 15.99211 5.79702 16.80421 6.35438 17.29221 6.6172 17.51751 6.663351 17.54951 6.700028 17.5985 6.714856 17.6015 6.790713 17.792 6.858586 17.98645 6.955086 18.16595 6.949606 18.13995 6.948576 18.11382 6.943367 18.08782 6.998228 18.30542 7.055077 18.52401 7.132816 18.73821 8.683116 22.09901 12.81412 24.68611 17.34182 24.11711 19.54102 23.84771 22.82442 22.33171 24.16602 18.73821 23.22044 19.58671 21.53152 20.32421 20.77732 20.38081 23.33002 19.10511 24.70712 16.93741 24.32031 13.97461 23.79154 15.23341 23.09341 16.20131 22.22071 16.86521 24.07451 13.97551 23.75691 12.48131 22.38478 10.83981 23.36615 13.53881 22.09719 16.53431 19.33208 18.66401 20.45238 18.78541 21.51657 18.51614 22.50198 17.71284 21.01318 19.37354 19.14968 20.20834 17.01368 20.43554 18.03358 21.30254 19.01818 21.69454 19.95898 21.52734 17.34458 22.24884 15.15478 21.45428 12.49018 18.80074 12.3507 19.51504 13.10514 20.62754 13.88278 21.33784 9.373278 19.38284 8.976177 13.29584 14.46872 11.79294 14.47202 11.79294 14.47518 11.79384 14.47848 11.79294 17.74978 13.70674 21.86528 13.58084 22.05078 12.34372 22.50885 10.86082 19.96508 7.805223 16.16208 7.007823 15.4618 6.871123 14.79228 6.817344 14.15428 6.835943 14.16706 6.835943 14.17858 6.836182 14.19139 6.826178 13.58399 6.177278 12.80989 6.011678 12.24609 6.013678 z M 17.17769 9.046878 C 17.72373 9.046878 18.22259 9.543848 18.22259 10.08988 18.22259 10.63598 17.72371 11.13288 17.17769 11.13288 16.63165 11.13288 16.13469 10.63601 16.13469 10.08988 16.13474 9.543879 16.63162 9.046778 17.17769 9.046878 z '><!ENTITY E6 'opacity:1;stroke:none;fill:rgb(255,255,255);'><!ENTITY E9 'matrix(1.00 0.00 0.00 1.00 324.00 4.00 ) '><!ENTITY E14 'opacity:1;stroke:none;fill:rgb(238,192,75);'><!ENTITY E2 'opacity:1;stroke:none;fill:rgb(68,154,223);'><!ENTITY E19 'matrix(1.00 0.00 0.00 1.00 164.00 4.00 ) '><!ENTITY E5 'M 18.422 13 13.4357 18.5006 10.8556 15.9868 6.500101 20.5001 23.9571 20.48582 z '><!ENTITY E21 'matrix(1.00 0.00 0.00 1.00 84.00 4.00 ) '><!ENTITY E1 'stroke-miterlimit:9;stroke-linecap:butt;opacity:1;stroke-width:1;fill:none;stroke-linejoin:miter;stroke:rgb(169,169,169);'><!ENTITY E8 'matrix(1.00 0.00 0.00 1.00 0.00 0.00 ) '><!ENTITY E15 'matrix(1.00 0.00 0.00 1.00 244.00 4.00 ) '><!ENTITY E3 'matrix(1.00 0.00 0.00 1.00 404.00 4.00 ) '>
]><svg width="456.6523" height="116" id="SvgGdi_output" xmlns="http://www.w3.org/2000/svg"><rect width="100.00%" x="0.00" y="0.00" height="100.00%" id="background" style="fill:rgb(255,255,255);" /><g id="root_group" style="shape-rendering:auto;"><line x1="358.00" x2="400.00" y2="19.00" id="515" style="&E1;" y1="19.00" /><line x1="278.00" x2="320.00" y2="19.00" id="516" style="&E1;" y1="19.00" /><line x1="198.00" x2="240.00" y2="19.00" id="517" style="&E1;" y1="19.00" /><line x1="198.00" x2="240.00" y2="19.00" id="518" style="&E1;" y1="99.00" /><line x1="118.00" x2="160.00" y2="19.00" id="519" style="&E1;" y1="19.00" /><line x1="118.00" x2="160.00" y2="99.00" id="520" style="&E1;" y1="19.00" /><line x1="38.00" x2="80.00" y2="19.00" id="521" style="&E1;" y1="19.00" /><ellipse ry="15.00" style="&E2;" id="522" cx="15.00" rx="15.00" cy="15.00" transform="&E3;" /><path style="&E4;" id="523" transform="&E3;" d="&E5;" /><ellipse ry="2.75" style="&E6;" id="524" cx="10.92" rx="2.75" cy="10.96" transform="&E3;" /><text x="404.00" y="39.00" id="525" transform="&E8;" style="fill:rgb(0,0,0);clip-path:url(#527_text_clipper);font-size:7.88pt;opacity:1;font-family:Microsoft Sans Serif;stroke:none;"><tspan id="529" dy="7.88pt">Threshold</tspan></text><ellipse ry="15.00" style="&E2;" id="531" cx="15.00" rx="15.00" cy="15.00" transform="&E9;" /><path id="532" transform="&E9;" style="stroke-miterlimit:9;stroke-linecap:butt;opacity:1;stroke-width:2;fill:none;stroke-linejoin:miter;stroke:rgb(255,255,255);" d="M 20.824 23.115 20.824 7.098999 M 17.3572 17.48 17.3572 12.7339 M 13.8904 21.2046 13.8904 9.009602 M 10.4236 18.6248 10.4236 11.5896 M 6.9568 16.3923 6.9568 13.822 " /><text x="324.00" y="39.00" id="533" transform="&E8;" style="fill:rgb(0,0,0);clip-path:url(#535_text_clipper);font-size:7.88pt;opacity:1;font-family:Microsoft Sans Serif;stroke:none;"><tspan id="537" dy="7.88pt">Absolute</tspan></text><text x="324.00" y="50.88" id="539" transform="&E8;" style="fill:rgb(0,0,0);clip-path:url(#541_text_clipper);font-size:7.88pt;opacity:1;font-family:Microsoft Sans Serif;stroke:none;"><tspan id="543" dy="7.88pt">Difference</tspan></text><ellipse ry="15.00" style="&E14;" id="545" cx="15.00" rx="15.00" cy="15.00" transform="&E15;" /><path style="&E4;" id="546" transform="&E15;" d="&E16;" /><ellipse ry="3.00" style="&E17;" id="547" cx="244.00" rx="3.00" cy="19.00" /><ellipse ry="3.00" style="&E6;" id="548" cx="244.00" rx="3.00" cy="19.00" /><text x="244.00" y="39.00" id="549" transform="&E8;" style="fill:rgb(0,0,0);clip-path:url(#551_text_clipper);font-size:7.88pt;opacity:1;font-family:Microsoft Sans Serif;stroke:none;"><tspan id="553" dy="7.88pt">Zip</tspan></text><ellipse ry="15.00" style="&E14;" id="555" cx="15.00" rx="15.00" cy="15.00" transform="&E19;" /><path style="&E4;" id="556" transform="&E19;" d="&E16;" /><text x="164.00" y="39.00" id="557" transform="&E8;" style="fill:rgb(0,0,0);clip-path:url(#559_text_clipper);font-size:7.88pt;opacity:1;font-family:Microsoft Sans Serif;stroke:none;"><tspan id="561" dy="7.88pt">Skip</tspan></text><line x1="160.00" x2="198.00" y2="99.00" id="563" style="&E1;" y1="99.00" /><ellipse ry="15.00" style="&E2;" id="564" cx="15.00" rx="15.00" cy="15.00" transform="&E21;" /><path style="&E4;" id="565" transform="&E21;" d="&E5;" /><ellipse ry="2.75" style="&E6;" id="566" cx="10.92" rx="2.75" cy="10.96" transform="&E21;" /><text x="84.00" y="39.00" id="567" transform="&E8;" style="fill:rgb(0,0,0);clip-path:url(#569_text_clipper);font-size:7.88pt;opacity:1;font-family:Microsoft Sans Serif;stroke:none;"><tspan id="571" dy="7.88pt">Grayscale</tspan></text><path style="&E17;" id="573" transform="&E23;" d="M 31.179 5.2 C 34.9985 11.0918 34.9814 18.682 31.13552 24.557 " /><ellipse ry="15.00" id="574" cx="15.00" rx="15.00" cy="15.00" transform="&E23;" style="opacity:1;stroke:none;fill:rgb(91,178,126);" /><path style="&E4;" id="575" transform="&E23;" d="M 23.75 9.1 19.5587 11.5211 19.5587 18.3937 23.75 20.8147 z " /><path style="&E4;" id="576" transform="&E23;" d="M 8.6927 9.2 15.7194 9.2 C 17.19 9.2 18.3739 10.4337 18.3739 11.9661 L 18.3739 17.8234 C 18.3739 19.3558 17.19 20.5893 15.7194 20.5893 L 8.692701 20.5893 C 7.222101 20.5893 6.038201 19.3558 6.038201 17.8234 L 6.038201 11.9661 C 6.038201 10.4337 7.222101 9.199999 8.692701 9.199999 z " /><text x="4.00" y="39.00" id="577" transform="&E8;" style="fill:rgb(0,0,0);clip-path:url(#579_text_clipper);font-size:7.88pt;opacity:1;font-family:Microsoft Sans Serif;stroke:none;"><tspan id="581" dy="7.88pt">Camera</tspan></text><text x="4.00" y="50.88" id="583" transform="&E8;" style="fill:rgb(0,0,0);clip-path:url(#585_text_clipper);font-size:7.88pt;opacity:1;font-family:Microsoft Sans Serif;stroke:none;"><tspan id="587" dy="7.88pt">Capture</tspan></text></g><defs id="clips_hatches_and_gradients"><clipPath id="527_text_clipper"><rect id="528" width="51.65" height="13.20" x="404.00" y="39.00" /></clipPath><clipPath id="535_text_clipper"><rect id="536" width="52.85" height="26.39" x="324.00" y="39.00" /></clipPath><clipPath id="541_text_clipper"><rect id="542" width="52.85" height="26.39" x="324.00" y="50.88" /></clipPath><clipPath id="551_text_clipper"><rect id="552" width="18.59" height="13.20" x="244.00" y="39.00" /></clipPath><clipPath id="559_text_clipper"><rect id="560" width="24.60" height="13.20" x="164.00" y="39.00" /></clipPath><clipPath id="569_text_clipper"><rect id="570" width="52.25" height="13.20" x="84.00" y="39.00" /></clipPath><clipPath id="579_text_clipper"><rect id="580" width="41.97" height="26.39" x="4.00" y="39.00" /></clipPath><clipPath id="585_text_clipper"><rect id="586" width="41.97" height="26.39" x="4.00" y="50.88" /></clipPath></defs></svg>