<?xml version="1.0" standalone="yes"?><!DOCTYPE svg PUBLIC "-//W3C//DTD SVG 1.1//EN" "http://www.w3.org/Graphics/SVG/1.1/DTD/svg11.dtd"[
<!ENTITY E9 'M 21.92 7.5284 C 23.4568 9.4572 24.379 11.9073 24.379 14.5636 24.379 17.2016 23.46877 19.6367 21.9493 21.5597 21.12371 22.6053 19.5553 21.367 20.3809 20.3214 21.6336 18.736 22.3809 16.743 22.3809 14.5636 22.3809 12.3686 21.62445 10.3628 20.3575 8.7726 19.81921 8.1166 20.29216 7.1306 21.1407 7.1398 21.44622 7.1398 21.73332 7.2865 21.92 7.5284 z '><!ENTITY E8 'M 19.242 11.136 C 19.85996 12.1101 20.22442 13.2733 20.22442 14.515 20.22442 15.7378 19.86821 16.8827 19.26739 17.847 18.57312 19.02 16.82469 17.93 17.57209 16.7903 17.98656 16.1252 18.22639 15.3523 18.22639 14.515 18.22639 13.663 17.98027 12.8775 17.55451 12.2064 17.11611 11.5347 17.60803 10.6463 18.40998 10.6614 18.75002 10.6714 19.06352 10.8465 19.24201 11.136 z '><!ENTITY E25 'matrix(1.00 0.00 0.00 1.00 4.00 4.00 ) '><!ENTITY E7 'M 15.262 7.0869 C 15.0337 7.0969 14.80894 7.1829 14.63699 7.3336 L 10.40169 10.9932 6.50359 10.9932 C 5.98053 10.9932 5.50289 11.4652 5.50029 11.9883 L 5.50029 17.0131 C 5.4986 17.5389 5.97781 18.0181 6.50359 18.0164 L 10.34409 18.0164 14.63699 21.7336 C 15.21304 22.23 16.28929 21.7336 16.28999 20.977 L 16.28999 8.089999 C 16.29189 7.555899 15.79594 7.071799 15.26199 7.086699 z '><!ENTITY E2 'stroke-miterlimit:9;stroke-linecap:butt;opacity:1;stroke-width:2;fill:none;stroke-linejoin:miter;stroke:rgb(169,169,169);'><!ENTITY E10 'opacity:1;stroke:none;fill:rgb(255,255,255);'><!ENTITY E26 'M 31.179 5.2 C 34.9985 11.0918 34.9814 18.682 31.13552 24.557 '><!ENTITY E31 'matrix(1.00 0.00 0.00 1.00 4.00 84.00 ) '><!ENTITY E27 'opacity:1;stroke:none;fill:rgb(91,178,126);'><!ENTITY E17 'stroke-miterlimit:9;stroke-linecap:butt;opacity:1;stroke-width:2;fill:none;stroke-linejoin:miter;stroke:rgb(255,255,255);'><!ENTITY E6 'fill-rule:evenodd;opacity:1;stroke:none;fill:rgb(255,255,255);'><!ENTITY E14 'matrix(1.00 0.00 0.00 1.00 164.00 4.00 ) '><!ENTITY E3 'matrix(1.00 0.00 0.00 1.00 244.00 4.00 ) '><!ENTITY E21 'matrix(1.00 0.00 0.00 1.00 84.00 4.00 ) '><!ENTITY E1 'stroke-miterlimit:9;stroke-linecap:butt;opacity:1;stroke-width:1;fill:none;stroke-linejoin:miter;stroke:rgb(169,169,169);'><!ENTITY E12 'matrix(1.00 0.00 0.00 1.00 0.00 0.00 ) '>
]><svg width="320.1697" height="132.1968" id="SvgGdi_output" xmlns="http://www.w3.org/2000/svg"><rect width="100.00%" x="0.00" y="0.00" height="100.00%" id="background" style="fill:rgb(255,255,255);" /><g id="root_group" style="shape-rendering:auto;"><line x1="198.00" x2="240.00" y2="19.00" id="742" style="&E1;" y1="19.00" /><line x1="118.00" x2="160.00" y2="19.00" id="743" style="&E1;" y1="19.00" /><line x1="38.00" x2="80.00" y2="19.00" id="744" style="&E1;" y1="19.00" /><line x1="38.00" x2="80.00" y2="19.00" id="745" style="&E1;" y1="99.00" /><path style="&E2;" id="746" transform="&E3;" d="M 10.158 33.2 C 3.4054 31.7591 -1.861 26.4692 -3.271 19.71 " /><ellipse ry="15.00" id="747" cx="15.00" rx="15.00" cy="15.00" transform="&E3;" style="opacity:1;stroke:none;fill:rgb(155,91,179);" /><path style="&E6;" id="748" transform="&E3;" d="&E7;" /><path style="&E6;" id="749" transform="&E3;" d="&E8;" /><path style="&E6;" id="750" transform="&E3;" d="&E9;" /><ellipse ry="3.00" style="&E2;" id="751" cx="244.00" rx="3.00" cy="19.00" /><ellipse ry="3.00" style="&E10;" id="752" cx="244.00" rx="3.00" cy="19.00" /><text x="244.00" y="39.00" id="753" transform="&E12;" style="fill:rgb(0,0,0);clip-path:url(#755_text_clipper);font-size:7.88pt;opacity:1;font-family:Microsoft Sans Serif;stroke:none;"><tspan id="757" dy="7.88pt">AudioPlayback</tspan></text><ellipse ry="15.00" id="759" cx="15.00" rx="15.00" cy="15.00" transform="&E14;" style="opacity:1;stroke:none;fill:rgb(68,154,223);" /><path style="&E6;" id="760" transform="&E14;" d="M 19.156 13.888 19.156 10.3647 19.156 6.841399 25.2585 10.3647 22.2072 12.1264 z " /><path style="&E6;" id="761" transform="&E14;" d="M 19.156 22.97 19.156 19.4467 19.156 15.9234 25.2585 19.4467 22.2072 21.2084 z " /><path style="&E17;" id="762" transform="&E14;" d="M 5.5001 19.484 10.6493 19.484 16.2743 10.2485 19.3728 10.2485 M 14.6769 17.1481 16.3089 19.4828 19.2202 19.4828 M 5.500199 10.2437 10.7586 10.2437 12.1652 12.8707 " /><text x="164.00" y="39.00" id="763" transform="&E12;" style="fill:rgb(0,0,0);clip-path:url(#765_text_clipper);font-size:7.88pt;opacity:1;font-family:Microsoft Sans Serif;stroke:none;"><tspan id="767" dy="7.88pt">Item2</tspan></text><ellipse ry="15.00" id="769" cx="15.00" rx="15.00" cy="15.00" transform="&E21;" style="opacity:1;stroke:none;fill:rgb(238,192,75);" /><path style="&E6;" id="770" transform="&E21;" d="M 12.246 6.0137 12.246 6.019559 C 12.05806 6.020259 11.89471 6.040434 11.76748 6.066434 10.86869 6.352735 10.89631 6.934374 9.87688 7.685534 8.863379 8.264335 8.35338 7.819914 7.61518 8.419914 6.87845 9.015514 7.39292 10.38251 7.08393 10.64841 6.77722 11.18001 5.82553 11.65471 5.65233 12.32611 5.50916 13.18481 6.04191 13.79701 6.02147 14.53311 6.08287 15.14641 5.41127 15.49489 5.5078 15.99211 5.79702 16.80421 6.35438 17.29221 6.6172 17.51751 6.663351 17.54951 6.700028 17.5985 6.714856 17.6015 6.790713 17.792 6.858586 17.98645 6.955086 18.16595 6.949606 18.13995 6.948576 18.11382 6.943367 18.08782 6.998228 18.30542 7.055077 18.52401 7.132816 18.73821 8.683116 22.09901 12.81412 24.68611 17.34182 24.11711 19.54102 23.84771 22.82442 22.33171 24.16602 18.73821 23.22044 19.58671 21.53152 20.32421 20.77732 20.38081 23.33002 19.10511 24.70712 16.93741 24.32031 13.97461 23.79154 15.23341 23.09341 16.20131 22.22071 16.86521 24.07451 13.97551 23.75691 12.48131 22.38478 10.83981 23.36615 13.53881 22.09719 16.53431 19.33208 18.66401 20.45238 18.78541 21.51657 18.51614 22.50198 17.71284 21.01318 19.37354 19.14968 20.20834 17.01368 20.43554 18.03358 21.30254 19.01818 21.69454 19.95898 21.52734 17.34458 22.24884 15.15478 21.45428 12.49018 18.80074 12.3507 19.51504 13.10514 20.62754 13.88278 21.33784 9.373278 19.38284 8.976177 13.29584 14.46872 11.79294 14.47202 11.79294 14.47518 11.79384 14.47848 11.79294 17.74978 13.70674 21.86528 13.58084 22.05078 12.34372 22.50885 10.86082 19.96508 7.805223 16.16208 7.007823 15.4618 6.871123 14.79228 6.817344 14.15428 6.835943 14.16706 6.835943 14.17858 6.836182 14.19139 6.826178 13.58399 6.177278 12.80989 6.011678 12.24609 6.013678 z M 17.17769 9.046878 C 17.72373 9.046878 18.22259 9.543848 18.22259 10.08988 18.22259 10.63598 17.72371 11.13288 17.17769 11.13288 16.63165 11.13288 16.13469 10.63601 16.13469 10.08988 16.13474 9.543879 16.63162 9.046778 17.17769 9.046878 z " /><text x="84.00" y="39.00" id="771" transform="&E12;" style="fill:rgb(0,0,0);clip-path:url(#773_text_clipper);font-size:7.88pt;opacity:1;font-family:Microsoft Sans Serif;stroke:none;"><tspan id="775" dy="7.88pt">WithLatest</tspan></text><text x="84.00" y="50.88" id="777" transform="&E12;" style="fill:rgb(0,0,0);clip-path:url(#779_text_clipper);font-size:7.88pt;opacity:1;font-family:Microsoft Sans Serif;stroke:none;"><tspan id="781" dy="7.88pt">From</tspan></text><path style="&E2;" id="783" transform="&E25;" d="&E26;" /><ellipse ry="15.00" style="&E27;" id="784" cx="15.00" rx="15.00" cy="15.00" transform="&E25;" /><path style="&E6;" id="785" transform="&E25;" d="M 8.5404 18.526 C 8.154759 18.14036 8.426559 17.3734 8.7512 17.0487 9.0693 16.7306 9.8857 16.65478 10.3397 17.03595 L 12.5301 18.80525 12.82094 9.664146 C 12.82094 9.305857 13.42471 8.739877 14.05254 8.739877 14.79871 8.739877 15.36764 9.316096 15.36764 9.695367 L 15.5586 15.04327 20.0645 16.74627 C 20.25033 16.81 20.49544 16.99536 20.49518 17.22225 L 20.49808 21.04985 19.11318 23.37955 19.11318 24.51755 13.23218 24.51755 13.23218 23.37955 z " /><path style="&E17;" id="786" transform="&E25;" d="M 10.482 12.156 C 9.063601 9.8878 10.57304 6.5688 13.2149 6.1474 15.8164 5.52346 18.4832 8.0098 18.0432 10.6485 L 17.97693 11.02591 " /><text x="4.00" y="39.00" id="787" transform="&E12;" style="fill:rgb(0,0,0);clip-path:url(#789_text_clipper);font-size:7.88pt;opacity:1;font-family:Microsoft Sans Serif;stroke:none;"><tspan id="791" dy="7.88pt">KeyDown</tspan></text><path style="&E2;" id="793" transform="&E31;" d="&E26;" /><ellipse ry="15.00" style="&E27;" id="794" cx="15.00" rx="15.00" cy="15.00" transform="&E31;" /><path style="&E6;" id="795" transform="&E31;" d="&E7;" /><path style="&E6;" id="796" transform="&E31;" d="&E8;" /><path style="&E6;" id="797" transform="&E31;" d="&E9;" /><ellipse ry="3.00" style="&E2;" id="798" cx="4.00" rx="3.00" cy="99.00" /><ellipse ry="3.00" style="&E10;" id="799" cx="4.00" rx="3.00" cy="99.00" /><text x="4.00" y="119.00" id="800" transform="&E12;" style="fill:rgb(0,0,0);clip-path:url(#802_text_clipper);font-size:7.88pt;opacity:1;font-family:Microsoft Sans Serif;stroke:none;"><tspan id="804" dy="7.88pt">AudioReader</tspan></text></g><defs id="clips_hatches_and_gradients"><clipPath id="755_text_clipper"><rect id="756" width="75.17" height="13.20" x="244.00" y="39.00" /></clipPath><clipPath id="765_text_clipper"><rect id="766" width="30.54" height="13.20" x="164.00" y="39.00" /></clipPath><clipPath id="773_text_clipper"><rect id="774" width="54.65" height="26.39" x="84.00" y="39.00" /></clipPath><clipPath id="779_text_clipper"><rect id="780" width="54.65" height="26.39" x="84.00" y="50.88" /></clipPath><clipPath id="789_text_clipper"><rect id="790" width="49.78" height="13.20" x="4.00" y="39.00" /></clipPath><clipPath id="802_text_clipper"><rect id="803" width="66.68" height="13.20" x="4.00" y="119.00" /></clipPath></defs></svg>