<?xml version="1.0" standalone="yes"?><!DOCTYPE svg PUBLIC "-//W3C//DTD SVG 1.1//EN" "http://www.w3.org/Graphics/SVG/1.1/DTD/svg11.dtd"[
<!ENTITY E30 'matrix(1.00 0.00 0.00 1.00 84.00 4.00 ) '><!ENTITY E13 'fill-rule:evenodd;opacity:1;stroke:none;fill:rgb(255,255,255);'><!ENTITY E3 'matrix(1.00 0.00 0.00 1.00 564.00 4.00 ) '><!ENTITY E2 'stroke-miterlimit:9;stroke-linecap:butt;opacity:1;stroke-width:2;fill:none;stroke-linejoin:miter;stroke:rgb(169,169,169);'><!ENTITY E32 'matrix(1.00 0.00 0.00 1.00 4.00 4.00 ) '><!ENTITY E20 'opacity:1;stroke:none;fill:rgb(255,255,255);'><!ENTITY E23 'matrix(1.00 0.00 0.00 1.00 324.00 4.00 ) '><!ENTITY E26 'matrix(1.00 0.00 0.00 1.00 244.00 4.00 ) '><!ENTITY E12 'matrix(1.00 0.00 0.00 1.00 484.00 4.00 ) '><!ENTITY E6 'stroke-miterlimit:9;stroke-linecap:butt;opacity:1;stroke-width:2;fill:none;stroke-linejoin:miter;stroke:rgb(255,255,255);'><!ENTITY E28 'matrix(1.00 0.00 0.00 1.00 164.00 4.00 ) '><!ENTITY E19 'M 18.422 13 13.4357 18.5006 10.8556 15.9868 6.500101 20.5001 23.9571 20.48582 z '><!ENTITY E11 'opacity:1;stroke:none;fill:rgb(68,154,223);'><!ENTITY E1 'stroke-miterlimit:9;stroke-linecap:butt;opacity:1;stroke-width:1;fill:none;stroke-linejoin:miter;stroke:rgb(169,169,169);'><!ENTITY E10 'matrix(1.00 0.00 0.00 1.00 0.00 0.00 ) '><!ENTITY E18 'matrix(1.00 0.00 0.00 1.00 404.00 4.00 ) '>
]><svg width="616.0166" height="65.39355" id="SvgGdi_output" xmlns="http://www.w3.org/2000/svg"><rect width="100.00%" x="0.00" y="0.00" height="100.00%" id="background" style="fill:rgb(255,255,255);" /><g id="root_group" style="shape-rendering:auto;"><line x1="518.00" x2="560.00" y2="19.00" id="321" style="&E1;" y1="19.00" /><line x1="438.00" x2="480.00" y2="19.00" id="322" style="&E1;" y1="19.00" /><line x1="358.00" x2="400.00" y2="19.00" id="323" style="&E1;" y1="19.00" /><line x1="278.00" x2="320.00" y2="19.00" id="324" style="&E1;" y1="19.00" /><line x1="198.00" x2="240.00" y2="19.00" id="325" style="&E1;" y1="19.00" /><line x1="118.00" x2="160.00" y2="19.00" id="326" style="&E1;" y1="19.00" /><line x1="38.00" x2="80.00" y2="19.00" id="327" style="&E1;" y1="19.00" /><path style="&E2;" id="328" transform="&E3;" d="M 10.158 33.2 C 3.4054 31.7591 -1.861 26.4692 -3.271 19.71 " /><ellipse ry="15.00" id="329" cx="15.00" rx="15.00" cy="15.00" transform="&E3;" style="opacity:1;stroke:none;fill:rgb(155,91,179);" /><path style="&E6;" id="330" transform="&E3;" d="M 7.3965 19.566 7.3965 10.8433 " /><path style="&E6;" id="331" transform="&E3;" d="M 11.085 22.137 14.2178 8.273999 " /><ellipse ry="4.18" style="&E6;" id="332" cx="20.49" rx="4.18" cy="15.15" transform="&E3;" /><text x="564.00" y="39.00" id="333" transform="&E10;" style="fill:rgb(0,0,0);clip-path:url(#335_text_clipper);font-size:7.88pt;opacity:1;font-family:Microsoft Sans Serif;stroke:none;"><tspan id="337" dy="7.88pt">CsvWriter</tspan></text><ellipse ry="15.00" style="&E11;" id="339" cx="15.00" rx="15.00" cy="15.00" transform="&E12;" /><path style="&E13;" id="340" transform="&E12;" d="M 19.156 13.888 19.156 10.3647 19.156 6.841399 25.2585 10.3647 22.2072 12.1264 z " /><path style="&E13;" id="341" transform="&E12;" d="M 19.156 22.97 19.156 19.4467 19.156 15.9234 25.2585 19.4467 22.2072 21.2084 z " /><path style="&E6;" id="342" transform="&E12;" d="M 5.5001 19.484 10.6493 19.484 16.2743 10.2485 19.3728 10.2485 M 14.6769 17.1481 16.3089 19.4828 19.2202 19.4828 M 5.500199 10.2437 10.7586 10.2437 12.1652 12.8707 " /><text x="484.00" y="39.00" id="343" transform="&E10;" style="fill:rgb(0,0,0);clip-path:url(#345_text_clipper);font-size:7.88pt;opacity:1;font-family:Microsoft Sans Serif;stroke:none;"><tspan id="347" dy="7.88pt">Centroid</tspan></text><ellipse ry="15.00" style="&E11;" id="349" cx="15.00" rx="15.00" cy="15.00" transform="&E18;" /><path style="&E13;" id="350" transform="&E18;" d="&E19;" /><ellipse ry="2.75" style="&E20;" id="351" cx="10.92" rx="2.75" cy="10.96" transform="&E18;" /><text x="404.00" y="39.00" id="352" transform="&E10;" style="fill:rgb(0,0,0);clip-path:url(#354_text_clipper);font-size:7.88pt;opacity:1;font-family:Microsoft Sans Serif;stroke:none;"><tspan id="356" dy="7.88pt">LargestBinary</tspan></text><text x="404.00" y="50.88" id="358" transform="&E10;" style="fill:rgb(0,0,0);clip-path:url(#360_text_clipper);font-size:7.88pt;opacity:1;font-family:Microsoft Sans Serif;stroke:none;"><tspan id="362" dy="7.88pt">Region</tspan></text><ellipse ry="15.00" style="&E11;" id="364" cx="15.00" rx="15.00" cy="15.00" transform="&E23;" /><path style="&E13;" id="365" transform="&E23;" d="&E19;" /><ellipse ry="2.75" style="&E20;" id="366" cx="10.92" rx="2.75" cy="10.96" transform="&E23;" /><text x="324.00" y="39.00" id="367" transform="&E10;" style="fill:rgb(0,0,0);clip-path:url(#369_text_clipper);font-size:7.88pt;opacity:1;font-family:Microsoft Sans Serif;stroke:none;"><tspan id="371" dy="7.88pt">BinaryRegion</tspan></text><text x="324.00" y="50.88" id="373" transform="&E10;" style="fill:rgb(0,0,0);clip-path:url(#375_text_clipper);font-size:7.88pt;opacity:1;font-family:Microsoft Sans Serif;stroke:none;"><tspan id="377" dy="7.88pt">Analysis</tspan></text><ellipse ry="15.00" style="&E11;" id="379" cx="15.00" rx="15.00" cy="15.00" transform="&E26;" /><path style="&E13;" id="380" transform="&E26;" d="&E19;" /><ellipse ry="2.75" style="&E20;" id="381" cx="10.92" rx="2.75" cy="10.96" transform="&E26;" /><text x="244.00" y="39.00" id="382" transform="&E10;" style="fill:rgb(0,0,0);clip-path:url(#384_text_clipper);font-size:7.88pt;opacity:1;font-family:Microsoft Sans Serif;stroke:none;"><tspan id="386" dy="7.88pt">FindContours</tspan></text><ellipse ry="15.00" style="&E11;" id="388" cx="15.00" rx="15.00" cy="15.00" transform="&E28;" /><path style="&E13;" id="389" transform="&E28;" d="&E19;" /><ellipse ry="2.75" style="&E20;" id="390" cx="10.92" rx="2.75" cy="10.96" transform="&E28;" /><text x="164.00" y="39.00" id="391" transform="&E10;" style="fill:rgb(0,0,0);clip-path:url(#393_text_clipper);font-size:7.88pt;opacity:1;font-family:Microsoft Sans Serif;stroke:none;"><tspan id="395" dy="7.88pt">HsvThreshold</tspan></text><ellipse ry="15.00" style="&E11;" id="397" cx="15.00" rx="15.00" cy="15.00" transform="&E30;" /><path style="&E13;" id="398" transform="&E30;" d="&E19;" /><ellipse ry="2.75" style="&E20;" id="399" cx="10.92" rx="2.75" cy="10.96" transform="&E30;" /><text x="84.00" y="39.00" id="400" transform="&E10;" style="fill:rgb(0,0,0);clip-path:url(#402_text_clipper);font-size:7.88pt;opacity:1;font-family:Microsoft Sans Serif;stroke:none;"><tspan id="404" dy="7.88pt">ConvertColor</tspan></text><path style="&E2;" id="406" transform="&E32;" d="M 31.179 5.2 C 34.9985 11.0918 34.9814 18.682 31.13552 24.557 " /><ellipse ry="15.00" id="407" cx="15.00" rx="15.00" cy="15.00" transform="&E32;" style="opacity:1;stroke:none;fill:rgb(91,178,126);" /><path style="&E13;" id="408" transform="&E32;" d="M 23.75 9.1 19.5587 11.5211 19.5587 18.3937 23.75 20.8147 z " /><path style="&E13;" id="409" transform="&E32;" d="M 8.6927 9.2 15.7194 9.2 C 17.19 9.2 18.3739 10.4337 18.3739 11.9661 L 18.3739 17.8234 C 18.3739 19.3558 17.19 20.5893 15.7194 20.5893 L 8.692701 20.5893 C 7.222101 20.5893 6.038201 19.3558 6.038201 17.8234 L 6.038201 11.9661 C 6.038201 10.4337 7.222101 9.199999 8.692701 9.199999 z " /><text x="4.00" y="39.00" id="410" transform="&E10;" style="fill:rgb(0,0,0);clip-path:url(#412_text_clipper);font-size:7.88pt;opacity:1;font-family:Microsoft Sans Serif;stroke:none;"><tspan id="414" dy="7.88pt">Camera</tspan></text><text x="4.00" y="50.88" id="416" transform="&E10;" style="fill:rgb(0,0,0);clip-path:url(#418_text_clipper);font-size:7.88pt;opacity:1;font-family:Microsoft Sans Serif;stroke:none;"><tspan id="420" dy="7.88pt">Capture</tspan></text></g><defs id="clips_hatches_and_gradients"><clipPath id="335_text_clipper"><rect id="336" width="51.02" height="13.20" x="564.00" y="39.00" /></clipPath><clipPath id="345_text_clipper"><rect id="346" width="44.43" height="13.20" x="484.00" y="39.00" /></clipPath><clipPath id="354_text_clipper"><rect id="355" width="70.28" height="26.39" x="404.00" y="39.00" /></clipPath><clipPath id="360_text_clipper"><rect id="361" width="70.28" height="26.39" x="404.00" y="50.88" /></clipPath><clipPath id="369_text_clipper"><rect id="370" width="68.55" height="26.39" x="324.00" y="39.00" /></clipPath><clipPath id="375_text_clipper"><rect id="376" width="68.55" height="26.39" x="324.00" y="50.88" /></clipPath><clipPath id="384_text_clipper"><rect id="385" width="68.48" height="13.20" x="244.00" y="39.00" /></clipPath><clipPath id="393_text_clipper"><rect id="394" width="70.28" height="13.20" x="164.00" y="39.00" /></clipPath><clipPath id="402_text_clipper"><rect id="403" width="67.26" height="13.20" x="84.00" y="39.00" /></clipPath><clipPath id="412_text_clipper"><rect id="413" width="41.97" height="26.39" x="4.00" y="39.00" /></clipPath><clipPath id="418_text_clipper"><rect id="419" width="41.97" height="26.39" x="4.00" y="50.88" /></clipPath></defs></svg>