<?xml version="1.0" standalone="yes"?><!DOCTYPE svg PUBLIC "-//W3C//DTD SVG 1.1//EN" "http://www.w3.org/Graphics/SVG/1.1/DTD/svg11.dtd"[
<!ENTITY E11 'matrix(1.00 0.00 0.00 1.00 4.00 4.00 ) '><!ENTITY E3 'matrix(1.00 0.00 0.00 1.00 84.00 4.00 ) '><!ENTITY E8 'matrix(1.00 0.00 0.00 1.00 0.00 0.00 ) '><!ENTITY E4 'fill-rule:evenodd;opacity:1;stroke:none;fill:rgb(255,255,255);'>
]><svg width="136.6523" height="65.39355" id="SvgGdi_output" xmlns="http://www.w3.org/2000/svg"><rect width="100.00%" x="0.00" y="0.00" height="100.00%" id="background" style="fill:rgb(255,255,255);" /><g id="root_group" style="shape-rendering:auto;"><line x1="38.00" x2="80.00" y2="19.00" id="241" y1="19.00" style="stroke-miterlimit:9;stroke-linecap:butt;opacity:1;stroke-width:1;fill:none;stroke-linejoin:miter;stroke:rgb(169,169,169);" /><ellipse ry="15.00" id="242" cx="15.00" rx="15.00" cy="15.00" transform="&E3;" style="opacity:1;stroke:none;fill:rgb(68,154,223);" /><path style="&E4;" id="243" transform="&E3;" d="M 18.422 13 13.4357 18.5006 10.8556 15.9868 6.500101 20.5001 23.9571 20.48582 z " /><ellipse ry="2.75" id="244" cx="10.92" rx="2.75" cy="10.96" transform="&E3;" style="opacity:1;stroke:none;fill:rgb(255,255,255);" /><text x="84.00" y="39.00" id="245" transform="&E8;" style="fill:rgb(0,0,0);clip-path:url(#247_text_clipper);font-size:7.88pt;opacity:1;font-family:Microsoft Sans Serif;stroke:none;"><tspan id="249" dy="7.88pt">Range</tspan></text><text x="84.00" y="50.88" id="251" transform="&E8;" style="fill:rgb(0,0,0);clip-path:url(#253_text_clipper);font-size:7.88pt;opacity:1;font-family:Microsoft Sans Serif;stroke:none;"><tspan id="255" dy="7.88pt">Threshold</tspan></text><path id="257" transform="&E11;" d="M 31.179 5.2 C 34.9985 11.0918 34.9814 18.682 31.13552 24.557 " style="stroke-miterlimit:9;stroke-linecap:butt;opacity:1;stroke-width:2;fill:none;stroke-linejoin:miter;stroke:rgb(169,169,169);" /><ellipse ry="15.00" id="258" cx="15.00" rx="15.00" cy="15.00" transform="&E11;" style="opacity:1;stroke:none;fill:rgb(91,178,126);" /><path style="&E4;" id="259" transform="&E11;" d="M 23.75 9.1 19.5587 11.5211 19.5587 18.3937 23.75 20.8147 z " /><path style="&E4;" id="260" transform="&E11;" d="M 8.6927 9.2 15.7194 9.2 C 17.19 9.2 18.3739 10.4337 18.3739 11.9661 L 18.3739 17.8234 C 18.3739 19.3558 17.19 20.5893 15.7194 20.5893 L 8.692701 20.5893 C 7.222101 20.5893 6.038201 19.3558 6.038201 17.8234 L 6.038201 11.9661 C 6.038201 10.4337 7.222101 9.199999 8.692701 9.199999 z " /><text x="4.00" y="39.00" id="261" transform="&E8;" style="fill:rgb(0,0,0);clip-path:url(#263_text_clipper);font-size:7.88pt;opacity:1;font-family:Microsoft Sans Serif;stroke:none;"><tspan id="265" dy="7.88pt">Camera</tspan></text><text x="4.00" y="50.88" id="267" transform="&E8;" style="fill:rgb(0,0,0);clip-path:url(#269_text_clipper);font-size:7.88pt;opacity:1;font-family:Microsoft Sans Serif;stroke:none;"><tspan id="271" dy="7.88pt">Capture</tspan></text></g><defs id="clips_hatches_and_gradients"><clipPath id="247_text_clipper"><rect id="248" width="51.65" height="26.39" x="84.00" y="39.00" /></clipPath><clipPath id="253_text_clipper"><rect id="254" width="51.65" height="26.39" x="84.00" y="50.88" /></clipPath><clipPath id="263_text_clipper"><rect id="264" width="41.97" height="26.39" x="4.00" y="39.00" /></clipPath><clipPath id="269_text_clipper"><rect id="270" width="41.97" height="26.39" x="4.00" y="50.88" /></clipPath></defs></svg>