<?xml version="1.0" standalone="yes"?><!DOCTYPE svg PUBLIC "-//W3C//DTD SVG 1.1//EN" "http://www.w3.org/Graphics/SVG/1.1/DTD/svg11.dtd"[
<!ENTITY E2 'opacity:1;stroke:none;fill:rgb(68,154,223);'><!ENTITY E12 'matrix(1.00 0.00 0.00 1.00 4.00 4.00 ) '><!ENTITY E1 'stroke-miterlimit:9;stroke-linecap:butt;opacity:1;stroke-width:1;fill:none;stroke-linejoin:miter;stroke:rgb(169,169,169);'><!ENTITY E9 'matrix(1.00 0.00 0.00 1.00 84.00 4.00 ) '><!ENTITY E6 'opacity:1;stroke:none;fill:rgb(255,255,255);'><!ENTITY E8 'matrix(1.00 0.00 0.00 1.00 0.00 0.00 ) '><!ENTITY E4 'fill-rule:evenodd;opacity:1;stroke:none;fill:rgb(255,255,255);'><!ENTITY E5 'M 18.422 13 13.4357 18.5006 10.8556 15.9868 6.500101 20.5001 23.9571 20.48582 z '><!ENTITY E3 'matrix(1.00 0.00 0.00 1.00 164.00 4.00 ) '>
]><svg width="235.2785" height="65.39355" id="SvgGdi_output" xmlns="http://www.w3.org/2000/svg"><rect width="100.00%" x="0.00" y="0.00" height="100.00%" id="background" style="fill:rgb(255,255,255);" /><g id="root_group" style="shape-rendering:auto;"><line x1="118.00" x2="160.00" y2="19.00" id="277" style="&E1;" y1="19.00" /><line x1="38.00" x2="80.00" y2="19.00" id="278" style="&E1;" y1="19.00" /><ellipse ry="15.00" style="&E2;" id="279" cx="15.00" rx="15.00" cy="15.00" transform="&E3;" /><path style="&E4;" id="280" transform="&E3;" d="&E5;" /><ellipse ry="2.75" style="&E6;" id="281" cx="10.92" rx="2.75" cy="10.96" transform="&E3;" /><text x="164.00" y="39.00" id="282" transform="&E8;" style="fill:rgb(0,0,0);clip-path:url(#284_text_clipper);font-size:7.88pt;opacity:1;font-family:Microsoft Sans Serif;stroke:none;"><tspan id="286" dy="7.88pt">HsvThreshold</tspan></text><ellipse ry="15.00" style="&E2;" id="288" cx="15.00" rx="15.00" cy="15.00" transform="&E9;" /><path style="&E4;" id="289" transform="&E9;" d="&E5;" /><ellipse ry="2.75" style="&E6;" id="290" cx="10.92" rx="2.75" cy="10.96" transform="&E9;" /><text x="84.00" y="39.00" id="291" transform="&E8;" style="fill:rgb(0,0,0);clip-path:url(#293_text_clipper);font-size:7.88pt;opacity:1;font-family:Microsoft Sans Serif;stroke:none;"><tspan id="295" dy="7.88pt">ConvertColor</tspan></text><path id="297" transform="&E12;" d="M 31.179 5.2 C 34.9985 11.0918 34.9814 18.682 31.13552 24.557 " style="stroke-miterlimit:9;stroke-linecap:butt;opacity:1;stroke-width:2;fill:none;stroke-linejoin:miter;stroke:rgb(169,169,169);" /><ellipse ry="15.00" id="298" cx="15.00" rx="15.00" cy="15.00" transform="&E12;" style="opacity:1;stroke:none;fill:rgb(91,178,126);" /><path style="&E4;" id="299" transform="&E12;" d="M 23.75 9.1 19.5587 11.5211 19.5587 18.3937 23.75 20.8147 z " /><path style="&E4;" id="300" transform="&E12;" d="M 8.6927 9.2 15.7194 9.2 C 17.19 9.2 18.3739 10.4337 18.3739 11.9661 L 18.3739 17.8234 C 18.3739 19.3558 17.19 20.5893 15.7194 20.5893 L 8.692701 20.5893 C 7.222101 20.5893 6.038201 19.3558 6.038201 17.8234 L 6.038201 11.9661 C 6.038201 10.4337 7.222101 9.199999 8.692701 9.199999 z " /><text x="4.00" y="39.00" id="301" transform="&E8;" style="fill:rgb(0,0,0);clip-path:url(#303_text_clipper);font-size:7.88pt;opacity:1;font-family:Microsoft Sans Serif;stroke:none;"><tspan id="305" dy="7.88pt">Camera</tspan></text><text x="4.00" y="50.88" id="307" transform="&E8;" style="fill:rgb(0,0,0);clip-path:url(#309_text_clipper);font-size:7.88pt;opacity:1;font-family:Microsoft Sans Serif;stroke:none;"><tspan id="311" dy="7.88pt">Capture</tspan></text></g><defs id="clips_hatches_and_gradients"><clipPath id="284_text_clipper"><rect id="285" width="70.28" height="13.20" x="164.00" y="39.00" /></clipPath><clipPath id="293_text_clipper"><rect id="294" width="67.26" height="13.20" x="84.00" y="39.00" /></clipPath><clipPath id="303_text_clipper"><rect id="304" width="41.97" height="26.39" x="4.00" y="39.00" /></clipPath><clipPath id="309_text_clipper"><rect id="310" width="41.97" height="26.39" x="4.00" y="50.88" /></clipPath></defs></svg>