<?xml version="1.0" standalone="yes"?><!DOCTYPE svg PUBLIC "-//W3C//DTD SVG 1.1//EN" "http://www.w3.org/Graphics/SVG/1.1/DTD/svg11.dtd"[
<!ENTITY E13 'fill-rule:evenodd;opacity:1;stroke:none;fill:rgb(255,255,255);'><!ENTITY E28 'matrix(1.00 0.00 0.00 1.00 4.00 4.00 ) '><!ENTITY E2 'stroke-miterlimit:9;stroke-linecap:butt;opacity:1;stroke-width:2;fill:none;stroke-linejoin:miter;stroke:rgb(169,169,169);'><!ENTITY E23 'opacity:1;stroke:none;fill:rgb(255,255,255);'><!ENTITY E12 'matrix(1.00 0.00 0.00 1.00 324.00 4.00 ) '><!ENTITY E11 'opacity:1;stroke:none;fill:rgb(68,154,223);'><!ENTITY E6 'stroke-miterlimit:9;stroke-linecap:butt;opacity:1;stroke-width:2;fill:none;stroke-linejoin:miter;stroke:rgb(255,255,255);'><!ENTITY E21 'matrix(1.00 0.00 0.00 1.00 164.00 4.00 ) '><!ENTITY E22 'M 18.422 13 13.4357 18.5006 10.8556 15.9868 6.500101 20.5001 23.9571 20.48582 z '><!ENTITY E26 'matrix(1.00 0.00 0.00 1.00 84.00 4.00 ) '><!ENTITY E1 'stroke-miterlimit:9;stroke-linecap:butt;opacity:1;stroke-width:1;fill:none;stroke-linejoin:miter;stroke:rgb(169,169,169);'><!ENTITY E10 'matrix(1.00 0.00 0.00 1.00 0.00 0.00 ) '><!ENTITY E18 'matrix(1.00 0.00 0.00 1.00 244.00 4.00 ) '><!ENTITY E3 'matrix(1.00 0.00 0.00 1.00 404.00 4.00 ) '>
]><svg width="456.0166" height="65.39355" id="SvgGdi_output" xmlns="http://www.w3.org/2000/svg"><rect width="100.00%" x="0.00" y="0.00" height="100.00%" id="background" style="fill:rgb(255,255,255);" /><g id="root_group" style="shape-rendering:auto;"><line x1="358.00" x2="400.00" y2="19.00" id="593" style="&E1;" y1="19.00" /><line x1="278.00" x2="320.00" y2="19.00" id="594" style="&E1;" y1="19.00" /><line x1="198.00" x2="240.00" y2="19.00" id="595" style="&E1;" y1="19.00" /><line x1="118.00" x2="160.00" y2="19.00" id="596" style="&E1;" y1="19.00" /><line x1="38.00" x2="80.00" y2="19.00" id="597" style="&E1;" y1="19.00" /><path style="&E2;" id="598" transform="&E3;" d="M 10.158 33.2 C 3.4054 31.7591 -1.861 26.4692 -3.271 19.71 " /><ellipse ry="15.00" id="599" cx="15.00" rx="15.00" cy="15.00" transform="&E3;" style="opacity:1;stroke:none;fill:rgb(155,91,179);" /><path style="&E6;" id="600" transform="&E3;" d="M 7.3965 19.566 7.3965 10.8433 " /><path style="&E6;" id="601" transform="&E3;" d="M 11.085 22.137 14.2178 8.273999 " /><ellipse ry="4.18" style="&E6;" id="602" cx="20.49" rx="4.18" cy="15.15" transform="&E3;" /><text x="404.00" y="39.00" id="603" transform="&E10;" style="fill:rgb(0,0,0);clip-path:url(#605_text_clipper);font-size:7.88pt;opacity:1;font-family:Microsoft Sans Serif;stroke:none;"><tspan id="607" dy="7.88pt">CsvWriter</tspan></text><ellipse ry="15.00" style="&E11;" id="609" cx="15.00" rx="15.00" cy="15.00" transform="&E12;" /><path style="&E13;" id="610" transform="&E12;" d="M 19.156 13.888 19.156 10.3647 19.156 6.841399 25.2585 10.3647 22.2072 12.1264 z " /><path style="&E13;" id="611" transform="&E12;" d="M 19.156 22.97 19.156 19.4467 19.156 15.9234 25.2585 19.4467 22.2072 21.2084 z " /><path style="&E6;" id="612" transform="&E12;" d="M 5.5001 19.484 10.6493 19.484 16.2743 10.2485 19.3728 10.2485 M 14.6769 17.1481 16.3089 19.4828 19.2202 19.4828 M 5.500199 10.2437 10.7586 10.2437 12.1652 12.8707 " /><text x="324.00" y="39.00" id="613" transform="&E10;" style="fill:rgb(0,0,0);clip-path:url(#615_text_clipper);font-size:7.88pt;opacity:1;font-family:Microsoft Sans Serif;stroke:none;"><tspan id="617" dy="7.88pt">Val0</tspan></text><ellipse ry="15.00" style="&E11;" id="619" cx="15.00" rx="15.00" cy="15.00" transform="&E18;" /><path style="&E6;" id="620" transform="&E18;" d="M 20.824 23.115 20.824 7.098999 M 17.3572 17.48 17.3572 12.7339 M 13.8904 21.2046 13.8904 9.009602 M 10.4236 18.6248 10.4236 11.5896 M 6.9568 16.3923 6.9568 13.822 " /><text x="244.00" y="39.00" id="621" transform="&E10;" style="fill:rgb(0,0,0);clip-path:url(#623_text_clipper);font-size:7.88pt;opacity:1;font-family:Microsoft Sans Serif;stroke:none;"><tspan id="625" dy="7.88pt">Sum</tspan></text><ellipse ry="15.00" style="&E11;" id="627" cx="15.00" rx="15.00" cy="15.00" transform="&E21;" /><path style="&E13;" id="628" transform="&E21;" d="&E22;" /><ellipse ry="2.75" style="&E23;" id="629" cx="10.92" rx="2.75" cy="10.96" transform="&E21;" /><text x="164.00" y="39.00" id="630" transform="&E10;" style="fill:rgb(0,0,0);clip-path:url(#632_text_clipper);font-size:7.88pt;opacity:1;font-family:Microsoft Sans Serif;stroke:none;"><tspan id="634" dy="7.88pt">Background</tspan></text><text x="164.00" y="50.88" id="636" transform="&E10;" style="fill:rgb(0,0,0);clip-path:url(#638_text_clipper);font-size:7.88pt;opacity:1;font-family:Microsoft Sans Serif;stroke:none;"><tspan id="640" dy="7.88pt">Subtraction</tspan></text><ellipse ry="15.00" style="&E11;" id="642" cx="15.00" rx="15.00" cy="15.00" transform="&E26;" /><path style="&E13;" id="643" transform="&E26;" d="&E22;" /><ellipse ry="2.75" style="&E23;" id="644" cx="10.92" rx="2.75" cy="10.96" transform="&E26;" /><text x="84.00" y="39.00" id="645" transform="&E10;" style="fill:rgb(0,0,0);clip-path:url(#647_text_clipper);font-size:7.88pt;opacity:1;font-family:Microsoft Sans Serif;stroke:none;"><tspan id="649" dy="7.88pt">Grayscale</tspan></text><path style="&E2;" id="651" transform="&E28;" d="M 31.179 5.2 C 34.9985 11.0918 34.9814 18.682 31.13552 24.557 " /><ellipse ry="15.00" id="652" cx="15.00" rx="15.00" cy="15.00" transform="&E28;" style="opacity:1;stroke:none;fill:rgb(91,178,126);" /><path style="&E13;" id="653" transform="&E28;" d="M 23.75 9.1 19.5587 11.5211 19.5587 18.3937 23.75 20.8147 z " /><path style="&E13;" id="654" transform="&E28;" d="M 8.6927 9.2 15.7194 9.2 C 17.19 9.2 18.3739 10.4337 18.3739 11.9661 L 18.3739 17.8234 C 18.3739 19.3558 17.19 20.5893 15.7194 20.5893 L 8.692701 20.5893 C 7.222101 20.5893 6.038201 19.3558 6.038201 17.8234 L 6.038201 11.9661 C 6.038201 10.4337 7.222101 9.199999 8.692701 9.199999 z " /><text x="4.00" y="39.00" id="655" transform="&E10;" style="fill:rgb(0,0,0);clip-path:url(#657_text_clipper);font-size:7.88pt;opacity:1;font-family:Microsoft Sans Serif;stroke:none;"><tspan id="659" dy="7.88pt">Camera</tspan></text><text x="4.00" y="50.88" id="661" transform="&E10;" style="fill:rgb(0,0,0);clip-path:url(#663_text_clipper);font-size:7.88pt;opacity:1;font-family:Microsoft Sans Serif;stroke:none;"><tspan id="665" dy="7.88pt">Capture</tspan></text></g><defs id="clips_hatches_and_gradients"><clipPath id="605_text_clipper"><rect id="606" width="51.02" height="13.20" x="404.00" y="39.00" /></clipPath><clipPath id="615_text_clipper"><rect id="616" width="25.21" height="13.20" x="324.00" y="39.00" /></clipPath><clipPath id="623_text_clipper"><rect id="624" width="25.74" height="13.20" x="244.00" y="39.00" /></clipPath><clipPath id="632_text_clipper"><rect id="633" width="61.21" height="26.39" x="164.00" y="39.00" /></clipPath><clipPath id="638_text_clipper"><rect id="639" width="61.21" height="26.39" x="164.00" y="50.88" /></clipPath><clipPath id="647_text_clipper"><rect id="648" width="52.25" height="13.20" x="84.00" y="39.00" /></clipPath><clipPath id="657_text_clipper"><rect id="658" width="41.97" height="26.39" x="4.00" y="39.00" /></clipPath><clipPath id="663_text_clipper"><rect id="664" width="41.97" height="26.39" x="4.00" y="50.88" /></clipPath></defs></svg>