<?xml version="1.0" standalone="yes"?><!DOCTYPE svg PUBLIC "-//W3C//DTD SVG 1.1//EN" "http://www.w3.org/Graphics/SVG/1.1/DTD/svg11.dtd"[
<!ENTITY E6 'stroke-miterlimit:9;stroke-linecap:butt;opacity:1;stroke-width:2;fill:none;stroke-linejoin:miter;stroke:rgb(255,255,255);'><!ENTITY E11 'matrix(1.00 0.00 0.00 1.00 4.00 4.00 ) '><!ENTITY E3 'matrix(1.00 0.00 0.00 1.00 84.00 4.00 ) '><!ENTITY E10 'matrix(1.00 0.00 0.00 1.00 0.00 0.00 ) '><!ENTITY E2 'stroke-miterlimit:9;stroke-linecap:butt;opacity:1;stroke-width:2;fill:none;stroke-linejoin:miter;stroke:rgb(169,169,169);'>
]><svg width="136.0166" height="52.19677" id="SvgGdi_output" xmlns="http://www.w3.org/2000/svg"><rect width="100.00%" x="0.00" y="0.00" height="100.00%" id="background" style="fill:rgb(255,255,255);" /><g id="root_group" style="shape-rendering:auto;"><line x1="38.00" x2="80.00" y2="19.00" id="185" y1="19.00" style="stroke-miterlimit:9;stroke-linecap:butt;opacity:1;stroke-width:1;fill:none;stroke-linejoin:miter;stroke:rgb(169,169,169);" /><path style="&E2;" id="186" transform="&E3;" d="M 10.158 33.2 C 3.4054 31.7591 -1.861 26.4692 -3.271 19.71 " /><ellipse ry="15.00" id="187" cx="15.00" rx="15.00" cy="15.00" transform="&E3;" style="opacity:1;stroke:none;fill:rgb(155,91,179);" /><path style="&E6;" id="188" transform="&E3;" d="M 7.3965 19.566 7.3965 10.8433 " /><path style="&E6;" id="189" transform="&E3;" d="M 11.085 22.137 14.2178 8.273999 " /><ellipse ry="4.18" style="&E6;" id="190" cx="20.49" rx="4.18" cy="15.15" transform="&E3;" /><text x="84.00" y="39.00" id="191" transform="&E10;" style="fill:rgb(0,0,0);clip-path:url(#193_text_clipper);font-size:7.88pt;opacity:1;font-family:Microsoft Sans Serif;stroke:none;"><tspan id="195" dy="7.88pt">CsvWriter</tspan></text><path style="&E2;" id="197" transform="&E11;" d="M 31.179 5.2 C 34.9985 11.0918 34.9814 18.682 31.13552 24.557 " /><ellipse ry="15.00" id="198" cx="15.00" rx="15.00" cy="15.00" transform="&E11;" style="opacity:1;stroke:none;fill:rgb(91,178,126);" /><path id="199" transform="&E11;" d="M 11.529 25.444 20.7834 12.908 16.3203 12.908 18.355 4.7687 9.100601 17.3047 13.5637 17.3047 z " style="fill-rule:evenodd;opacity:1;stroke:none;fill:rgb(255,255,255);" /><text x="4.00" y="39.00" id="200" transform="&E10;" style="fill:rgb(0,0,0);clip-path:url(#202_text_clipper);font-size:7.88pt;opacity:1;font-family:Microsoft Sans Serif;stroke:none;"><tspan id="204" dy="7.88pt">AnalogInput</tspan></text></g><defs id="clips_hatches_and_gradients"><clipPath id="193_text_clipper"><rect id="194" width="51.02" height="13.20" x="84.00" y="39.00" /></clipPath><clipPath id="202_text_clipper"><rect id="203" width="61.29" height="13.20" x="4.00" y="39.00" /></clipPath></defs></svg>