<?xml version="1.0" standalone="yes"?><!DOCTYPE svg PUBLIC "-//W3C//DTD SVG 1.1//EN" "http://www.w3.org/Graphics/SVG/1.1/DTD/svg11.dtd"[
<!ENTITY E10 'matrix(1.00 0.00 0.00 1.00 84.00 4.00 ) '><!ENTITY E6 'stroke:none;opacity:1;fill:rgb(255,255,255);'><!ENTITY E3 'stroke:rgb(169,169,169);fill:none;stroke-linecap:butt;stroke-miterlimit:9;opacity:1;stroke-width:2;stroke-linejoin:miter;'><!ENTITY E1 'stroke:rgb(169,169,169);fill:none;stroke-linecap:butt;stroke-miterlimit:9;opacity:1;stroke-width:1;stroke-linejoin:miter;'><!ENTITY E8 'matrix(1.00 0.00 0.00 1.00 0.00 0.00 ) '><!ENTITY E4 'matrix(1.00 0.00 0.00 1.00 164.00 4.00 ) '><!ENTITY E19 'matrix(1.00 0.00 0.00 1.00 4.00 84.00 ) '><!ENTITY E16 'matrix(1.00 0.00 0.00 1.00 4.00 4.00 ) '><!ENTITY E13 'stroke:none;fill-rule:evenodd;opacity:1;fill:rgb(255,255,255);'><!ENTITY E11 'stroke:none;opacity:1;fill:rgb(238,192,75);'>
]><svg width="212.5651" height="158.2133" id="SvgGdi_output" xmlns="http://www.w3.org/2000/svg"><rect id="background" height="100.00%" style="fill:rgb(255,255,255);" width="100.00%" y="0.00" x="0.00" /><g style="shape-rendering:auto;" id="root_group"><line y1="19.00" style="&E1;" id="337" x2="160.00" y2="19.00" x1="118.00" /><line y1="19.00" style="&E1;" id="338" x2="80.00" y2="19.00" x1="38.00" /><line y1="99.00" style="&E1;" id="339" x2="80.00" y2="19.00" x1="38.00" /><path style="&E3;" transform="&E4;" id="340" d="M 10.158 33.2 C 3.4054 31.7591 -1.861 26.4692 -3.271 19.71 " /><ellipse id="341" cy="15.00" cx="15.00" transform="&E4;" rx="15.00" ry="15.00" style="stroke:none;opacity:1;fill:rgb(155,91,179);" /><ellipse id="342" cy="9.06" cx="15.01" transform="&E4;" rx="3.50" ry="3.50" style="&E6;" /><ellipse id="343" cy="18.49" cx="9.12" transform="&E4;" rx="3.50" ry="3.50" style="&E6;" /><ellipse id="344" cy="18.46" cx="20.88" transform="&E4;" rx="3.50" ry="3.50" style="&E6;" /><text id="345" transform="&E8;" x="164.00" y="39.00" style="stroke:none;clip-path:url(#347_text_clipper);font-family:Microsoft Sans Serif;fill:rgb(0,0,0);font-size:7.80pt;opacity:1;"><tspan dy="7.80pt" id="349">Workflow</tspan></text><text id="351" transform="&E8;" x="164.00" y="50.77" style="stroke:none;clip-path:url(#353_text_clipper);font-family:Microsoft Sans Serif;fill:rgb(0,0,0);font-size:7.80pt;opacity:1;"><tspan dy="7.80pt" id="355">Output</tspan></text><ellipse id="357" cy="15.00" cx="15.00" transform="&E10;" rx="15.00" ry="15.00" style="&E11;" /><path style="&E13;" transform="&E10;" id="358" d="M 12.246 6.0137 12.246 6.019559 C 12.05806 6.020259 11.89471 6.040434 11.76748 6.066434 10.86869 6.352735 10.89631 6.934374 9.87688 7.685534 8.863379 8.264335 8.35338 7.819914 7.61518 8.419914 6.87845 9.015514 7.39292 10.38251 7.08393 10.64841 6.77722 11.18001 5.82553 11.65471 5.65233 12.32611 5.50916 13.18481 6.04191 13.79701 6.02147 14.53311 6.08287 15.14641 5.41127 15.49489 5.5078 15.99211 5.79702 16.80421 6.35438 17.29221 6.6172 17.51751 6.663351 17.54951 6.700028 17.5985 6.714856 17.6015 6.790713 17.792 6.858586 17.98645 6.955086 18.16595 6.949606 18.13995 6.948576 18.11382 6.943367 18.08782 6.998228 18.30542 7.055077 18.52401 7.132816 18.73821 8.683116 22.09901 12.81412 24.68611 17.34182 24.11711 19.54102 23.84771 22.82442 22.33171 24.16602 18.73821 23.22044 19.58671 21.53152 20.32421 20.77732 20.38081 23.33002 19.10511 24.70712 16.93741 24.32031 13.97461 23.79154 15.23341 23.09341 16.20131 22.22071 16.86521 24.07451 13.97551 23.75691 12.48131 22.38478 10.83981 23.36615 13.53881 22.09719 16.53431 19.33208 18.66401 20.45238 18.78541 21.51657 18.51614 22.50198 17.71284 21.01318 19.37354 19.14968 20.20834 17.01368 20.43554 18.03358 21.30254 19.01818 21.69454 19.95898 21.52734 17.34458 22.24884 15.15478 21.45428 12.49018 18.80074 12.3507 19.51504 13.10514 20.62754 13.88278 21.33784 9.373278 19.38284 8.976177 13.29584 14.46872 11.79294 14.47202 11.79294 14.47518 11.79384 14.47848 11.79294 17.74978 13.70674 21.86528 13.58084 22.05078 12.34372 22.50885 10.86082 19.96508 7.805223 16.16208 7.007823 15.4618 6.871123 14.79228 6.817344 14.15428 6.835943 14.16706 6.835943 14.17858 6.836182 14.19139 6.826178 13.58399 6.177278 12.80989 6.011678 12.24609 6.013678 z M 17.17769 9.046878 C 17.72373 9.046878 18.22259 9.543848 18.22259 10.08988 18.22259 10.63598 17.72371 11.13288 17.17769 11.13288 16.63165 11.13288 16.13469 10.63601 16.13469 10.08988 16.13474 9.543879 16.63162 9.046778 17.17769 9.046878 z " /><ellipse id="359" cy="19.00" cx="84.00" rx="3.00" ry="3.00" style="&E3;" /><ellipse id="360" cy="19.00" cx="84.00" rx="3.00" ry="3.00" style="&E6;" /><text id="361" transform="&E8;" x="84.00" y="39.00" style="stroke:none;clip-path:url(#363_text_clipper);font-family:Microsoft Sans Serif;fill:rgb(0,0,0);font-size:7.80pt;opacity:1;"><tspan dy="7.80pt" id="365">Zip</tspan></text><path style="&E3;" transform="&E16;" id="367" d="M 31.179 5.2 C 34.9985 11.0918 34.9814 18.682 31.13552 24.557 " /><ellipse id="368" cy="15.00" cx="15.00" transform="&E16;" rx="15.00" ry="15.00" style="stroke:none;opacity:1;fill:rgb(91,178,126);" /><ellipse id="369" cy="9.06" cx="15.01" transform="&E16;" rx="3.50" ry="3.50" style="&E6;" /><ellipse id="370" cy="18.49" cx="9.12" transform="&E16;" rx="3.50" ry="3.50" style="&E6;" /><ellipse id="371" cy="18.46" cx="20.88" transform="&E16;" rx="3.50" ry="3.50" style="&E6;" /><text id="372" transform="&E8;" x="4.00" y="39.00" style="stroke:none;clip-path:url(#374_text_clipper);font-family:Microsoft Sans Serif;fill:rgb(0,0,0);font-size:7.80pt;opacity:1;"><tspan dy="7.80pt" id="376">Source1</tspan></text><ellipse id="378" cy="15.00" cx="15.00" transform="&E19;" rx="15.00" ry="15.00" style="&E11;" /><path style="&E3;" transform="&E19;" id="379" d="M 1.5363 7.8 C 1.99103 6.9385 2.52798 6.1205 3.1403 5.3587 3.7527 4.5967 4.4403 3.8909 5.1968 3.254 5.95315 2.617 6.7782 2.049 7.665299 1.5627 M 0.4537992 19.4997 C 0.1435492 18.4956 -0.05714077 17.4835 -0.1564507 16.4769 -0.2551987 15.4701 -0.2516447 14.4684 -0.1525816 13.4844 -0.05334165 12.5007 0.1414284 11.5347 0.4251484 10.5993 M 7.892348 28.3993 C 7.030958 27.9447 6.212848 27.4077 5.450948 26.7954 4.689008 26.1831 3.983248 25.4954 3.346348 24.739 2.709558 23.9826 2.141548 23.1575 1.655148 22.2704 M 19.49415 29.4993 C 18.48995 29.8096 17.47785 30.0103 16.47125 30.1096 15.46445 30.2084 14.46285 30.2049 13.47895 30.1018 12.49507 30.0028 11.52915 29.8079 10.59365 29.5242 M 28.46365 22.0993 C 28.00892 22.9606 27.472 23.7788 26.85965 24.5407 26.24738 25.3026 25.55945 26.0084 24.80315 26.6453 24.0468 27.2822 23.22175 27.8502 22.33465 28.3365 M 29.54565 10.4995 C 29.85594 11.5037 30.05659 12.5157 30.15594 13.5224 30.25481 14.5292 30.25114 15.531 30.15199 16.5147 30.05279 17.4986 29.85802 18.4646 29.5743 19.4 M 22.10769 1.499998 C 22.96908 1.954698 23.7872 2.491698 24.5491 3.103898 25.31104 3.716298 26.0168 4.404098 26.65369 5.160398 27.29052 5.916898 27.85859 6.741898 28.34499 7.629098 M 10.50499 0.3999977 C 11.50919 0.08969772 12.52109 -0.1109023 13.52779 -0.2103023 14.53469 -0.3090023 15.53619 -0.3055023 16.52009 -0.2103023 17.50401 -0.1111023 18.46999 0.08369771 19.40549 0.3673977 " /><path style="&E13;" transform="&E19;" id="380" d="M 17.123 5.8594 17.123 10.1836 C 17.123 10.70128 17.50571 11.08204 18.02339 11.08204 L 22.12889 11.08204 z " /><path style="&E13;" transform="&E19;" id="381" d="M 12.084 18.254 C 13.1854 18.254 14.082 19.14872 14.082 20.2501 14.082 21.3515 13.18533 22.2481 12.084 22.2481 10.9826 22.2481 10.086 21.35143 10.086 20.2501 10.086 19.1487 10.98267 18.254 12.084 18.254 z M 17.7832 18.23837 C 18.8846 18.23837 19.7812 19.13504 19.7812 20.23637 19.7812 21.3377 18.88453 22.23437 17.7832 22.23437 16.68187 22.23437 15.7852 21.3377 15.7852 20.23637 15.7852 19.13504 16.68187 18.23837 17.7832 18.23837 z M 14.9414 13.67978 C 16.0428 13.67978 16.9394 14.57645 16.9394 15.67778 16.9394 16.77917 16.04273 17.67578 14.9414 17.67578 13.84007 17.67578 12.9434 16.77911 12.9434 15.67778 12.9434 14.57638 13.84007 13.67978 14.9414 13.67978 z M 10.8828 5.205175 C 9.175499 5.205175 7.765599 6.615075 7.765599 8.322375 L 7.765599 20.56638 C 7.765599 22.27368 9.175499 23.68158 10.8828 23.68158 L 19.6484 23.68158 C 21.3557 23.68158 22.7656 22.27357 22.7656 20.56638 L 22.7656 13.29878 18.0234 13.29878 C 16.3161 13.29878 14.9062 11.89078 14.9062 10.18358 L 14.9062 5.205076 z " /><text id="382" transform="&E8;" x="4.00" y="119.00" style="stroke:none;clip-path:url(#384_text_clipper);font-family:Microsoft Sans Serif;fill:rgb(0,0,0);font-size:7.80pt;opacity:1;"><tspan dy="7.80pt" id="386">Random</tspan></text><text id="388" transform="&E8;" x="4.00" y="130.77" style="stroke:none;clip-path:url(#390_text_clipper);font-family:Microsoft Sans Serif;fill:rgb(0,0,0);font-size:7.80pt;opacity:1;"><tspan dy="7.80pt" id="392">Orientation</tspan></text><text id="394" transform="&E8;" x="4.00" y="142.54" style="stroke:none;clip-path:url(#396_text_clipper);font-family:Microsoft Sans Serif;fill:rgb(0,0,0);font-size:7.80pt;opacity:1;"><tspan dy="7.80pt" id="398">Grating</tspan></text></g><defs id="clips_hatches_and_gradients"><clipPath id="347_text_clipper"><rect x="164.00" y="39.00" width="47.57" height="26.14" id="348" /></clipPath><clipPath id="353_text_clipper"><rect x="164.00" y="50.77" width="47.57" height="26.14" id="354" /></clipPath><clipPath id="363_text_clipper"><rect x="84.00" y="39.00" width="18.41" height="13.07" id="364" /></clipPath><clipPath id="374_text_clipper"><rect x="4.00" y="39.00" width="43.36" height="13.07" id="375" /></clipPath><clipPath id="384_text_clipper"><rect x="4.00" y="119.00" width="55.98" height="39.21" id="385" /></clipPath><clipPath id="390_text_clipper"><rect x="4.00" y="130.77" width="55.98" height="39.21" id="391" /></clipPath><clipPath id="396_text_clipper"><rect x="4.00" y="142.54" width="55.98" height="39.21" id="397" /></clipPath></defs></svg>