<?xml version="1.0" standalone="yes"?><!DOCTYPE svg PUBLIC "-//W3C//DTD SVG 1.1//EN" "http://www.w3.org/Graphics/SVG/1.1/DTD/svg11.dtd"[
<!ENTITY E3 'stroke:rgb(169,169,169);fill:none;stroke-linecap:butt;stroke-miterlimit:9;opacity:1;stroke-width:2;stroke-linejoin:miter;'><!ENTITY E1 'stroke:rgb(169,169,169);fill:none;stroke-linecap:butt;stroke-miterlimit:9;opacity:1;stroke-width:1;stroke-linejoin:miter;'><!ENTITY E11 'matrix(1.00 0.00 0.00 1.00 84.00 4.00 ) '><!ENTITY E4 'matrix(1.00 0.00 0.00 1.00 164.00 4.00 ) '><!ENTITY E14 'stroke:rgb(255,255,255);fill:none;stroke-linecap:butt;stroke-miterlimit:9;opacity:1;stroke-width:2;stroke-linejoin:miter;'><!ENTITY E18 'matrix(1.00 0.00 0.00 1.00 4.00 4.00 ) '><!ENTITY E9 'matrix(1.00 0.00 0.00 1.00 0.00 0.00 ) '>
]><svg width="213.4455" height="66.65038" id="SvgGdi_output" xmlns="http://www.w3.org/2000/svg"><rect id="background" height="100.00%" style="fill:rgb(255,255,255);" width="100.00%" y="0.00" x="0.00" /><g style="shape-rendering:auto;" id="root_group"><line y1="19.00" style="&E1;" id="48" x2="160.00" y2="19.00" x1="118.00" /><line y1="19.00" style="&E1;" id="49" x2="80.00" y2="19.00" x1="38.00" /><path style="&E3;" transform="&E4;" id="50" d="M 10.158 33.2 C 3.4054 31.7591 -1.861 26.4692 -3.271 19.71 " /><ellipse id="51" cy="15.00" cx="15.00" transform="&E4;" rx="15.00" ry="15.00" style="stroke:none;opacity:1;fill:rgb(155,91,179);" /><path transform="&E4;" id="52" d="M 8.625 8.4 8.96875 8.9 13.28125 15.025 8.62505 21.6187 8.2813 22.1187 11.7501 22.1187 11.84385 21.9937 15.00005 17.2124 15.4688 17.9 18.125 21.9937 18.21875 22.1187 21.71875 22.1187 21.375 21.6187 16.625 14.8687 21.0312 8.9 21.4062 8.4 17.9688 8.4 17.87505 8.5562 15.68755 11.6187 15.6563 11.65 C 15.44045 11.9482 15.18092 12.3233 14.93755 12.6812 14.74069 12.357 14.55318 12.0383 14.2813 11.6187 L 12.2813 8.5562 12.18755 8.4 9.25005 8.4 z " style="stroke:none;fill-rule:evenodd;opacity:1;fill:rgb(255,255,255);" /><text id="53" transform="&E9;" x="164.00" y="39.00" style="stroke:none;clip-path:url(#55_text_clipper);font-family:Microsoft Sans Serif;fill:rgb(0,0,0);font-size:8.25pt;opacity:1;"><tspan dy="8.25pt" id="57">Behavior</tspan></text><text id="59" transform="&E9;" x="164.00" y="51.45" style="stroke:none;clip-path:url(#61_text_clipper);font-family:Microsoft Sans Serif;fill:rgb(0,0,0);font-size:8.25pt;opacity:1;"><tspan dy="8.25pt" id="63">Subject</tspan></text><ellipse id="65" cy="15.00" cx="15.00" transform="&E11;" rx="15.00" ry="15.00" style="stroke:none;opacity:1;fill:rgb(68,154,223);" /><path style="&E14;" transform="&E11;" id="66" d="M 13.573 17.119 24.488 17.119 M 14.399 13.0536 25.364 13.0536 M 20.3075 20.4411 22.9414 9.814099 M 16.2015 20.2941 18.7757 9.755098 M 11.8164 18.6957 C 9.494298 20.2654 5.970598 18.96895 5.206498 16.2785 4.254117 13.6444 6.364398 10.539 9.166198 10.46 10.08344 10.39904 11.0168 10.63191 11.7978 11.1166 " /><text id="67" transform="&E9;" x="84.00" y="39.00" style="stroke:none;clip-path:url(#69_text_clipper);font-family:Microsoft Sans Serif;fill:rgb(0,0,0);font-size:8.25pt;opacity:1;"><tspan dy="8.25pt" id="71">CSharp</tspan></text><text id="73" transform="&E9;" x="84.00" y="51.45" style="stroke:none;clip-path:url(#75_text_clipper);font-family:Microsoft Sans Serif;fill:rgb(0,0,0);font-size:8.25pt;opacity:1;"><tspan dy="8.25pt" id="77">Transform</tspan></text><path style="&E3;" transform="&E18;" id="79" d="M 31.179 5.2 C 34.9985 11.0918 34.9814 18.682 31.13552 24.557 " /><ellipse id="80" cy="15.00" cx="15.00" transform="&E18;" rx="15.00" ry="15.00" style="stroke:none;opacity:1;fill:rgb(91,178,126);" /><path style="&E14;" transform="&E18;" id="81" d="M 15.011 14.916 15.15146 23.9388 M 23.14376 10.5618 15.01096 14.9158 6.97086 10.5618 M 6.924747 10.5618 15.15145 5.893101 23.14375 10.5618 23.14375 19.2433 15.15145 23.9386 6.924747 19.2433 z " /><text id="82" transform="&E9;" x="4.00" y="39.00" style="stroke:none;clip-path:url(#84_text_clipper);font-family:Microsoft Sans Serif;fill:rgb(0,0,0);font-size:8.25pt;opacity:1;"><tspan dy="8.25pt" id="86">UpdateFrame</tspan></text></g><defs id="clips_hatches_and_gradients"><clipPath id="55_text_clipper"><rect x="164.00" y="39.00" width="48.45" height="27.65" id="56" /></clipPath><clipPath id="61_text_clipper"><rect x="164.00" y="51.45" width="48.45" height="27.65" id="62" /></clipPath><clipPath id="69_text_clipper"><rect x="84.00" y="39.00" width="55.28" height="27.65" id="70" /></clipPath><clipPath id="75_text_clipper"><rect x="84.00" y="51.45" width="55.28" height="27.65" id="76" /></clipPath><clipPath id="84_text_clipper"><rect x="4.00" y="39.00" width="72.93" height="13.83" id="85" /></clipPath></defs></svg>