<?xml version="1.0" standalone="yes"?><!DOCTYPE svg PUBLIC "-//W3C//DTD SVG 1.1//EN" "http://www.w3.org/Graphics/SVG/1.1/DTD/svg11.dtd"[
<!ENTITY E10 'matrix(1.00 0.00 0.00 1.00 84.00 4.00 ) '><!ENTITY E6 'stroke:none;opacity:1;fill:rgb(255,255,255);'><!ENTITY E3 'stroke:rgb(169,169,169);fill:none;stroke-linecap:butt;stroke-miterlimit:9;opacity:1;stroke-width:2;stroke-linejoin:miter;'><!ENTITY E1 'stroke:rgb(169,169,169);fill:none;stroke-linecap:butt;stroke-miterlimit:9;opacity:1;stroke-width:1;stroke-linejoin:miter;'><!ENTITY E4 'matrix(1.00 0.00 0.00 1.00 164.00 4.00 ) '><!ENTITY E16 'matrix(1.00 0.00 0.00 1.00 4.00 4.00 ) '><!ENTITY E8 'matrix(1.00 0.00 0.00 1.00 0.00 0.00 ) '>
]><svg width="212.5651" height="65.14218" id="SvgGdi_output" xmlns="http://www.w3.org/2000/svg"><rect id="background" height="100.00%" style="fill:rgb(255,255,255);" width="100.00%" y="0.00" x="0.00" /><g style="shape-rendering:auto;" id="root_group"><line y1="19.00" style="&E1;" id="828" x2="160.00" y2="19.00" x1="118.00" /><line y1="19.00" style="&E1;" id="829" x2="80.00" y2="19.00" x1="38.00" /><path style="&E3;" transform="&E4;" id="830" d="M 10.158 33.2 C 3.4054 31.7591 -1.861 26.4692 -3.271 19.71 " /><ellipse id="831" cy="15.00" cx="15.00" transform="&E4;" rx="15.00" ry="15.00" style="stroke:none;opacity:1;fill:rgb(155,91,179);" /><ellipse id="832" cy="9.06" cx="15.01" transform="&E4;" rx="3.50" ry="3.50" style="&E6;" /><ellipse id="833" cy="18.49" cx="9.12" transform="&E4;" rx="3.50" ry="3.50" style="&E6;" /><ellipse id="834" cy="18.46" cx="20.88" transform="&E4;" rx="3.50" ry="3.50" style="&E6;" /><text id="835" transform="&E8;" x="164.00" y="39.00" style="stroke:none;clip-path:url(#837_text_clipper);font-family:Microsoft Sans Serif;fill:rgb(0,0,0);font-size:7.80pt;opacity:1;"><tspan dy="7.80pt" id="839">Workflow</tspan></text><text id="841" transform="&E8;" x="164.00" y="50.77" style="stroke:none;clip-path:url(#843_text_clipper);font-family:Microsoft Sans Serif;fill:rgb(0,0,0);font-size:7.80pt;opacity:1;"><tspan dy="7.80pt" id="845">Output</tspan></text><ellipse id="847" cy="15.00" cx="15.00" transform="&E10;" rx="15.00" ry="15.00" style="stroke:none;opacity:1;fill:rgb(238,192,75);" /><path transform="&E10;" id="848" style="stroke:rgb(255,255,255);fill:none;stroke-linecap:butt;stroke-miterlimit:9;opacity:1;stroke-width:2;stroke-linejoin:miter;" d="M 15.011 14.916 15.15146 23.9388 M 23.14376 10.5618 15.01096 14.9158 6.97086 10.5618 M 6.924747 10.5618 15.15145 5.893101 23.14375 10.5618 23.14375 19.2433 15.15145 23.9386 6.924747 19.2433 z " /><text id="849" transform="&E8;" x="84.00" y="39.00" style="stroke:none;clip-path:url(#851_text_clipper);font-family:Microsoft Sans Serif;fill:rgb(0,0,0);font-size:7.80pt;opacity:1;"><tspan dy="7.80pt" id="853">Delay</tspan></text><path style="&E3;" transform="&E16;" id="855" d="M 31.179 5.2 C 34.9985 11.0918 34.9814 18.682 31.13552 24.557 " /><ellipse id="856" cy="15.00" cx="15.00" transform="&E16;" rx="15.00" ry="15.00" style="stroke:none;opacity:1;fill:rgb(91,178,126);" /><ellipse id="857" cy="9.06" cx="15.01" transform="&E16;" rx="3.50" ry="3.50" style="&E6;" /><ellipse id="858" cy="18.49" cx="9.12" transform="&E16;" rx="3.50" ry="3.50" style="&E6;" /><ellipse id="859" cy="18.46" cx="20.88" transform="&E16;" rx="3.50" ry="3.50" style="&E6;" /><text id="860" transform="&E8;" x="4.00" y="39.00" style="stroke:none;clip-path:url(#862_text_clipper);font-family:Microsoft Sans Serif;fill:rgb(0,0,0);font-size:7.80pt;opacity:1;"><tspan dy="7.80pt" id="864">Source1</tspan></text></g><defs id="clips_hatches_and_gradients"><clipPath id="837_text_clipper"><rect x="164.00" y="39.00" width="47.57" height="26.14" id="838" /></clipPath><clipPath id="843_text_clipper"><rect x="164.00" y="50.77" width="47.57" height="26.14" id="844" /></clipPath><clipPath id="851_text_clipper"><rect x="84.00" y="39.00" width="30.91" height="13.07" id="852" /></clipPath><clipPath id="862_text_clipper"><rect x="4.00" y="39.00" width="43.36" height="13.07" id="863" /></clipPath></defs></svg>