<?xml version="1.0" standalone="yes"?><!DOCTYPE svg PUBLIC "-//W3C//DTD SVG 1.1//EN" "http://www.w3.org/Graphics/SVG/1.1/DTD/svg11.dtd"[
<!ENTITY E29 'matrix(1.00 0.00 0.00 1.00 84.00 4.00 ) '><!ENTITY E6 'fill-rule:evenodd;opacity:1;stroke:none;fill:rgb(255,255,255);'><!ENTITY E3 'matrix(1.00 0.00 0.00 1.00 564.00 4.00 ) '><!ENTITY E2 'stroke-miterlimit:9;stroke-linecap:butt;opacity:1;stroke-width:2;fill:none;stroke-linejoin:miter;stroke:rgb(169,169,169);'><!ENTITY E31 'matrix(1.00 0.00 0.00 1.00 4.00 4.00 ) '><!ENTITY E14 'opacity:1;stroke:none;fill:rgb(255,255,255);'><!ENTITY E21 'matrix(1.00 0.00 0.00 1.00 324.00 4.00 ) '><!ENTITY E11 'matrix(1.00 0.00 0.00 1.00 484.00 4.00 ) '><!ENTITY E12 'stroke-miterlimit:9;stroke-linecap:butt;opacity:1;stroke-width:2;fill:none;stroke-linejoin:miter;stroke:rgb(255,255,255);'><!ENTITY E27 'matrix(1.00 0.00 0.00 1.00 164.00 4.00 ) '><!ENTITY E25 'M 18.422 13 13.4357 18.5006 10.8556 15.9868 6.500101 20.5001 23.9571 20.48582 z '><!ENTITY E10 'opacity:1;stroke:none;fill:rgb(68,154,223);'><!ENTITY E1 'stroke-miterlimit:9;stroke-linecap:butt;opacity:1;stroke-width:1;fill:none;stroke-linejoin:miter;stroke:rgb(169,169,169);'><!ENTITY E9 'matrix(1.00 0.00 0.00 1.00 0.00 0.00 ) '><!ENTITY E24 'matrix(1.00 0.00 0.00 1.00 244.00 4.00 ) '><!ENTITY E16 'matrix(1.00 0.00 0.00 1.00 404.00 4.00 ) '>
]><svg width="631.2026" height="65.39355" id="SvgGdi_output" xmlns="http://www.w3.org/2000/svg"><rect width="100.00%" x="0.00" y="0.00" height="100.00%" id="background" style="fill:rgb(255,255,255);" /><g id="root_group" style="shape-rendering:auto;"><line x1="518.00" x2="560.00" y2="19.00" id="859" style="&E1;" y1="19.00" /><line x1="438.00" x2="480.00" y2="19.00" id="860" style="&E1;" y1="19.00" /><line x1="358.00" x2="400.00" y2="19.00" id="861" style="&E1;" y1="19.00" /><line x1="278.00" x2="320.00" y2="19.00" id="862" style="&E1;" y1="19.00" /><line x1="198.00" x2="240.00" y2="19.00" id="863" style="&E1;" y1="19.00" /><line x1="118.00" x2="160.00" y2="19.00" id="864" style="&E1;" y1="19.00" /><line x1="38.00" x2="80.00" y2="19.00" id="865" style="&E1;" y1="19.00" /><path style="&E2;" id="866" transform="&E3;" d="M 10.158 33.2 C 3.4054 31.7591 -1.861 26.4692 -3.271 19.71 " /><ellipse ry="15.00" id="867" cx="15.00" rx="15.00" cy="15.00" transform="&E3;" style="opacity:1;stroke:none;fill:rgb(155,91,179);" /><path style="&E6;" id="868" transform="&E3;" d="M 11.529 25.444 20.7834 12.908 16.3203 12.908 18.355 4.7687 9.100601 17.3047 13.5637 17.3047 z " /><text x="564.00" y="39.00" id="869" transform="&E9;" style="fill:rgb(0,0,0);clip-path:url(#871_text_clipper);font-size:7.88pt;opacity:1;font-family:Microsoft Sans Serif;stroke:none;"><tspan id="873" dy="7.88pt">DigitalOutput</tspan></text><ellipse ry="15.00" style="&E10;" id="875" cx="15.00" rx="15.00" cy="15.00" transform="&E11;" /><path style="&E12;" id="876" transform="&E11;" d="M 16.849 10.062 23.4027 10.062 M 16.6038 19.6084 23.3505 19.6084 M 12.3075 17.1615 7.5719 21.8971 M 7.577335 17.152 12.31704 21.8917 M 6.564136 10.0047 13.30904 10.0047 M 9.936636 6.6288 9.936636 13.3806 " /><ellipse ry="1.30" style="&E14;" id="877" cx="19.93" rx="1.30" cy="16.33" transform="&E11;" /><ellipse ry="1.30" style="&E14;" id="878" cx="19.93" rx="1.30" cy="22.83" transform="&E11;" /><text x="484.00" y="39.00" id="879" transform="&E9;" style="fill:rgb(0,0,0);clip-path:url(#881_text_clipper);font-size:7.88pt;opacity:1;font-family:Microsoft Sans Serif;stroke:none;"><tspan id="883" dy="7.88pt">GreaterThan</tspan></text><ellipse ry="15.00" style="&E10;" id="885" cx="15.00" rx="15.00" cy="15.00" transform="&E16;" /><path style="&E6;" id="886" transform="&E16;" d="M 19.156 13.888 19.156 10.3647 19.156 6.841399 25.2585 10.3647 22.2072 12.1264 z " /><path style="&E6;" id="887" transform="&E16;" d="M 19.156 22.97 19.156 19.4467 19.156 15.9234 25.2585 19.4467 22.2072 21.2084 z " /><path style="&E12;" id="888" transform="&E16;" d="M 5.5001 19.484 10.6493 19.484 16.2743 10.2485 19.3728 10.2485 M 14.6769 17.1481 16.3089 19.4828 19.2202 19.4828 M 5.500199 10.2437 10.7586 10.2437 12.1652 12.8707 " /><text x="404.00" y="39.00" id="889" transform="&E9;" style="fill:rgb(0,0,0);clip-path:url(#891_text_clipper);font-size:7.88pt;opacity:1;font-family:Microsoft Sans Serif;stroke:none;"><tspan id="893" dy="7.88pt">Val0</tspan></text><ellipse ry="15.00" style="&E10;" id="895" cx="15.00" rx="15.00" cy="15.00" transform="&E21;" /><path style="&E12;" id="896" transform="&E21;" d="M 20.824 23.115 20.824 7.098999 M 17.3572 17.48 17.3572 12.7339 M 13.8904 21.2046 13.8904 9.009602 M 10.4236 18.6248 10.4236 11.5896 M 6.9568 16.3923 6.9568 13.822 " /><text x="324.00" y="39.00" id="897" transform="&E9;" style="fill:rgb(0,0,0);clip-path:url(#899_text_clipper);font-size:7.88pt;opacity:1;font-family:Microsoft Sans Serif;stroke:none;"><tspan id="901" dy="7.88pt">Sum</tspan></text><ellipse ry="15.00" style="&E10;" id="903" cx="15.00" rx="15.00" cy="15.00" transform="&E24;" /><path style="&E6;" id="904" transform="&E24;" d="&E25;" /><ellipse ry="2.75" style="&E14;" id="905" cx="10.92" rx="2.75" cy="10.96" transform="&E24;" /><text x="244.00" y="39.00" id="906" transform="&E9;" style="fill:rgb(0,0,0);clip-path:url(#908_text_clipper);font-size:7.88pt;opacity:1;font-family:Microsoft Sans Serif;stroke:none;"><tspan id="910" dy="7.88pt">Threshold</tspan></text><ellipse ry="15.00" style="&E10;" id="912" cx="15.00" rx="15.00" cy="15.00" transform="&E27;" /><path style="&E6;" id="913" transform="&E27;" d="&E25;" /><ellipse ry="2.75" style="&E14;" id="914" cx="10.92" rx="2.75" cy="10.96" transform="&E27;" /><text x="164.00" y="39.00" id="915" transform="&E9;" style="fill:rgb(0,0,0);clip-path:url(#917_text_clipper);font-size:7.88pt;opacity:1;font-family:Microsoft Sans Serif;stroke:none;"><tspan id="919" dy="7.88pt">Grayscale</tspan></text><ellipse ry="15.00" style="&E10;" id="921" cx="15.00" rx="15.00" cy="15.00" transform="&E29;" /><path style="&E6;" id="922" transform="&E29;" d="&E25;" /><ellipse ry="2.75" style="&E14;" id="923" cx="10.92" rx="2.75" cy="10.96" transform="&E29;" /><text x="84.00" y="39.00" id="924" transform="&E9;" style="fill:rgb(0,0,0);clip-path:url(#926_text_clipper);font-size:7.88pt;opacity:1;font-family:Microsoft Sans Serif;stroke:none;"><tspan id="928" dy="7.88pt">Crop</tspan></text><path style="&E2;" id="930" transform="&E31;" d="M 31.179 5.2 C 34.9985 11.0918 34.9814 18.682 31.13552 24.557 " /><ellipse ry="15.00" id="931" cx="15.00" rx="15.00" cy="15.00" transform="&E31;" style="opacity:1;stroke:none;fill:rgb(91,178,126);" /><path style="&E6;" id="932" transform="&E31;" d="M 23.75 9.1 19.5587 11.5211 19.5587 18.3937 23.75 20.8147 z " /><path style="&E6;" id="933" transform="&E31;" d="M 8.6927 9.2 15.7194 9.2 C 17.19 9.2 18.3739 10.4337 18.3739 11.9661 L 18.3739 17.8234 C 18.3739 19.3558 17.19 20.5893 15.7194 20.5893 L 8.692701 20.5893 C 7.222101 20.5893 6.038201 19.3558 6.038201 17.8234 L 6.038201 11.9661 C 6.038201 10.4337 7.222101 9.199999 8.692701 9.199999 z " /><text x="4.00" y="39.00" id="934" transform="&E9;" style="fill:rgb(0,0,0);clip-path:url(#936_text_clipper);font-size:7.88pt;opacity:1;font-family:Microsoft Sans Serif;stroke:none;"><tspan id="938" dy="7.88pt">Camera</tspan></text><text x="4.00" y="50.88" id="940" transform="&E9;" style="fill:rgb(0,0,0);clip-path:url(#942_text_clipper);font-size:7.88pt;opacity:1;font-family:Microsoft Sans Serif;stroke:none;"><tspan id="944" dy="7.88pt">Capture</tspan></text></g><defs id="clips_hatches_and_gradients"><clipPath id="871_text_clipper"><rect id="872" width="66.20" height="13.20" x="564.00" y="39.00" /></clipPath><clipPath id="881_text_clipper"><rect id="882" width="64.81" height="13.20" x="484.00" y="39.00" /></clipPath><clipPath id="891_text_clipper"><rect id="892" width="25.21" height="13.20" x="404.00" y="39.00" /></clipPath><clipPath id="899_text_clipper"><rect id="900" width="25.74" height="13.20" x="324.00" y="39.00" /></clipPath><clipPath id="908_text_clipper"><rect id="909" width="51.65" height="13.20" x="244.00" y="39.00" /></clipPath><clipPath id="917_text_clipper"><rect id="918" width="52.25" height="13.20" x="164.00" y="39.00" /></clipPath><clipPath id="926_text_clipper"><rect id="927" width="26.94" height="13.20" x="84.00" y="39.00" /></clipPath><clipPath id="936_text_clipper"><rect id="937" width="41.97" height="26.39" x="4.00" y="39.00" /></clipPath><clipPath id="942_text_clipper"><rect id="943" width="41.97" height="26.39" x="4.00" y="50.88" /></clipPath></defs></svg>