<?xml version="1.0" standalone="yes"?><!DOCTYPE svg PUBLIC "-//W3C//DTD SVG 1.1//EN" "http://www.w3.org/Graphics/SVG/1.1/DTD/svg11.dtd"[
<!ENTITY E11 'stroke:none;opacity:1;fill:rgb(68,154,223);'><!ENTITY E4 'matrix(1.00 0.00 0.00 1.00 564.00 4.00 ) '><!ENTITY E3 'stroke:rgb(169,169,169);fill:none;stroke-linecap:butt;stroke-miterlimit:9;opacity:1;stroke-width:2;stroke-linejoin:miter;'><!ENTITY E9 'matrix(1.00 0.00 0.00 1.00 0.00 0.00 ) '><!ENTITY E7 'stroke:none;fill-rule:evenodd;opacity:1;fill:rgb(255,255,255);'><!ENTITY E10 'matrix(1.00 0.00 0.00 1.00 484.00 4.00 ) '><!ENTITY E32 'matrix(1.00 0.00 0.00 1.00 84.00 4.00 ) '><!ENTITY E30 'matrix(1.00 0.00 0.00 1.00 164.00 4.00 ) '><!ENTITY E19 'stroke:rgb(255,255,255);fill:none;stroke-linecap:butt;stroke-miterlimit:9;opacity:1;stroke-width:2;stroke-linejoin:miter;'><!ENTITY E1 'stroke:rgb(169,169,169);fill:none;stroke-linecap:butt;stroke-miterlimit:9;opacity:1;stroke-width:1;stroke-linejoin:miter;'><!ENTITY E35 'matrix(1.00 0.00 0.00 1.00 4.00 4.00 ) '><!ENTITY E28 'stroke:none;opacity:1;fill:rgb(255,255,255);'><!ENTITY E21 'matrix(1.00 0.00 0.00 1.00 324.00 4.00 ) '><!ENTITY E26 'matrix(1.00 0.00 0.00 1.00 244.00 4.00 ) '><!ENTITY E27 'M 18.422 13 13.4357 18.5006 10.8556 15.9868 6.500101 20.5001 23.9571 20.48582 z '><!ENTITY E17 'matrix(1.00 0.00 0.00 1.00 404.00 4.00 ) '>
]><svg width="628.6018" height="65.14218" id="SvgGdi_output" xmlns="http://www.w3.org/2000/svg"><rect id="background" height="100.00%" style="fill:rgb(255,255,255);" width="100.00%" y="0.00" x="0.00" /><g style="shape-rendering:auto;" id="root_group"><line y1="19.00" style="&E1;" id="594" x2="560.00" y2="19.00" x1="518.00" /><line y1="19.00" style="&E1;" id="595" x2="480.00" y2="19.00" x1="438.00" /><line y1="19.00" style="&E1;" id="596" x2="400.00" y2="19.00" x1="358.00" /><line y1="19.00" style="&E1;" id="597" x2="320.00" y2="19.00" x1="278.00" /><line y1="19.00" style="&E1;" id="598" x2="240.00" y2="19.00" x1="198.00" /><line y1="19.00" style="&E1;" id="599" x2="160.00" y2="19.00" x1="118.00" /><line y1="19.00" style="&E1;" id="600" x2="80.00" y2="19.00" x1="38.00" /><path style="&E3;" transform="&E4;" id="601" d="M 10.158 33.2 C 3.4054 31.7591 -1.861 26.4692 -3.271 19.71 " /><ellipse id="602" cy="15.00" cx="15.00" transform="&E4;" rx="15.00" ry="15.00" style="stroke:none;opacity:1;fill:rgb(155,91,179);" /><path style="&E7;" transform="&E4;" id="603" d="M 11.529 25.444 20.7834 12.908 16.3203 12.908 18.355 4.7687 9.100601 17.3047 13.5637 17.3047 z " /><text id="604" transform="&E9;" x="564.00" y="39.00" style="stroke:none;clip-path:url(#606_text_clipper);font-family:Microsoft Sans Serif;fill:rgb(0,0,0);font-size:7.80pt;opacity:1;"><tspan dy="7.80pt" id="608">ServoOutput</tspan></text><ellipse id="610" cy="15.00" cx="15.00" transform="&E10;" rx="15.00" ry="15.00" style="&E11;" /><path style="&E7;" transform="&E10;" id="611" d="M 10.824 9.4752 3.5613 15.0588 10.824 20.6107 10.81521 18.3247 6.519011 15.0267 10.82391 11.7422 z " /><path style="&E7;" transform="&E10;" id="612" d="M 15.365 7.2336 C 15.34647 7.33547 15.32125 7.4371 15.31422 7.5375 14.41077 12.6441 13.49692 17.7495 12.59942 22.8575 12.59508 22.88635 12.6018 22.91223 12.59942 22.94062 L 14.62872 22.94062 C 14.70348 22.53324 14.73679 22.1026 14.8377 21.71462 15.68204 16.94102 16.5365 12.17012 17.3748 7.394619 17.38163 7.340435 17.37866 7.287239 17.3787 7.233579 z " /><path style="&E7;" transform="&E10;" id="613" d="M 19.044 9.4746 26.3067 15.0582 19.044 20.6101 19.05279 18.3241 23.34899 15.0261 19.04409 11.7416 z " /><text id="614" transform="&E9;" x="484.00" y="39.00" style="stroke:none;clip-path:url(#616_text_clipper);font-family:Microsoft Sans Serif;fill:rgb(0,0,0);font-size:7.80pt;opacity:1;"><tspan dy="7.80pt" id="618">Python</tspan></text><text id="620" transform="&E9;" x="484.00" y="50.77" style="stroke:none;clip-path:url(#622_text_clipper);font-family:Microsoft Sans Serif;fill:rgb(0,0,0);font-size:7.80pt;opacity:1;"><tspan dy="7.80pt" id="624">Transform</tspan></text><ellipse id="626" cy="15.00" cx="15.00" transform="&E17;" rx="15.00" ry="15.00" style="&E11;" /><path style="&E19;" transform="&E17;" id="627" d="M 20.824 23.115 20.824 7.098999 M 17.3572 17.48 17.3572 12.7339 M 13.8904 21.2046 13.8904 9.009602 M 10.4236 18.6248 10.4236 11.5896 M 6.9568 16.3923 6.9568 13.822 " /><text id="628" transform="&E9;" x="404.00" y="39.00" style="stroke:none;clip-path:url(#630_text_clipper);font-family:Microsoft Sans Serif;fill:rgb(0,0,0);font-size:7.80pt;opacity:1;"><tspan dy="7.80pt" id="632">Rescale</tspan></text><ellipse id="634" cy="15.00" cx="15.00" transform="&E21;" rx="15.00" ry="15.00" style="&E11;" /><path style="&E7;" transform="&E21;" id="635" d="M 19.156 13.888 19.156 10.3647 19.156 6.841399 25.2585 10.3647 22.2072 12.1264 z " /><path style="&E7;" transform="&E21;" id="636" d="M 19.156 22.97 19.156 19.4467 19.156 15.9234 25.2585 19.4467 22.2072 21.2084 z " /><path style="&E19;" transform="&E21;" id="637" d="M 5.5001 19.484 10.6493 19.484 16.2743 10.2485 19.3728 10.2485 M 14.6769 17.1481 16.3089 19.4828 19.2202 19.4828 M 5.500199 10.2437 10.7586 10.2437 12.1652 12.8707 " /><text id="638" transform="&E9;" x="324.00" y="39.00" style="stroke:none;clip-path:url(#640_text_clipper);font-family:Microsoft Sans Serif;fill:rgb(0,0,0);font-size:7.80pt;opacity:1;"><tspan dy="7.80pt" id="642">X</tspan></text><ellipse id="644" cy="15.00" cx="15.00" transform="&E26;" rx="15.00" ry="15.00" style="&E11;" /><path d="&E27;" style="&E7;" transform="&E26;" id="645" /><ellipse id="646" cy="10.96" cx="10.92" transform="&E26;" rx="2.75" ry="2.75" style="&E28;" /><text id="647" transform="&E9;" x="244.00" y="39.00" style="stroke:none;clip-path:url(#649_text_clipper);font-family:Microsoft Sans Serif;fill:rgb(0,0,0);font-size:7.80pt;opacity:1;"><tspan dy="7.80pt" id="651">Centroid</tspan></text><ellipse id="653" cy="15.00" cx="15.00" transform="&E30;" rx="15.00" ry="15.00" style="&E11;" /><path d="&E27;" style="&E7;" transform="&E30;" id="654" /><ellipse id="655" cy="10.96" cx="10.92" transform="&E30;" rx="2.75" ry="2.75" style="&E28;" /><text id="656" transform="&E9;" x="164.00" y="39.00" style="stroke:none;clip-path:url(#658_text_clipper);font-family:Microsoft Sans Serif;fill:rgb(0,0,0);font-size:7.80pt;opacity:1;"><tspan dy="7.80pt" id="660">HsvThreshold</tspan></text><ellipse id="662" cy="15.00" cx="15.00" transform="&E32;" rx="15.00" ry="15.00" style="&E11;" /><path d="&E27;" style="&E7;" transform="&E32;" id="663" /><ellipse id="664" cy="10.96" cx="10.92" transform="&E32;" rx="2.75" ry="2.75" style="&E28;" /><text id="665" transform="&E9;" x="84.00" y="39.00" style="stroke:none;clip-path:url(#667_text_clipper);font-family:Microsoft Sans Serif;fill:rgb(0,0,0);font-size:7.80pt;opacity:1;"><tspan dy="7.80pt" id="669">ConvertColor</tspan></text><path style="&E3;" transform="&E35;" id="671" d="M 31.179 5.2 C 34.9985 11.0918 34.9814 18.682 31.13552 24.557 " /><ellipse id="672" cy="15.00" cx="15.00" transform="&E35;" rx="15.00" ry="15.00" style="stroke:none;opacity:1;fill:rgb(91,178,126);" /><path style="&E7;" transform="&E35;" id="673" d="M 23.75 9.1 19.5587 11.5211 19.5587 18.3937 23.75 20.8147 z " /><path style="&E7;" transform="&E35;" id="674" d="M 8.6927 9.2 15.7194 9.2 C 17.19 9.2 18.3739 10.4337 18.3739 11.9661 L 18.3739 17.8234 C 18.3739 19.3558 17.19 20.5893 15.7194 20.5893 L 8.692701 20.5893 C 7.222101 20.5893 6.038201 19.3558 6.038201 17.8234 L 6.038201 11.9661 C 6.038201 10.4337 7.222101 9.199999 8.692701 9.199999 z " /><text id="675" transform="&E9;" x="4.00" y="39.00" style="stroke:none;clip-path:url(#677_text_clipper);font-family:Microsoft Sans Serif;fill:rgb(0,0,0);font-size:7.80pt;opacity:1;"><tspan dy="7.80pt" id="679">Camera</tspan></text><text id="681" transform="&E9;" x="4.00" y="50.77" style="stroke:none;clip-path:url(#683_text_clipper);font-family:Microsoft Sans Serif;fill:rgb(0,0,0);font-size:7.80pt;opacity:1;"><tspan dy="7.80pt" id="685">Capture</tspan></text></g><defs id="clips_hatches_and_gradients"><clipPath id="606_text_clipper"><rect x="564.00" y="39.00" width="63.60" height="13.07" id="607" /></clipPath><clipPath id="616_text_clipper"><rect x="484.00" y="39.00" width="52.27" height="26.14" id="617" /></clipPath><clipPath id="622_text_clipper"><rect x="484.00" y="50.77" width="52.27" height="26.14" id="623" /></clipPath><clipPath id="630_text_clipper"><rect x="404.00" y="39.00" width="42.23" height="13.07" id="631" /></clipPath><clipPath id="640_text_clipper"><rect x="324.00" y="39.00" width="10.61" height="13.07" id="641" /></clipPath><clipPath id="649_text_clipper"><rect x="244.00" y="39.00" width="44.01" height="13.07" id="650" /></clipPath><clipPath id="658_text_clipper"><rect x="164.00" y="39.00" width="69.61" height="13.07" id="659" /></clipPath><clipPath id="667_text_clipper"><rect x="84.00" y="39.00" width="66.62" height="13.07" id="668" /></clipPath><clipPath id="677_text_clipper"><rect x="4.00" y="39.00" width="41.57" height="26.14" id="678" /></clipPath><clipPath id="683_text_clipper"><rect x="4.00" y="50.77" width="41.57" height="26.14" id="684" /></clipPath></defs></svg>