<?xml version="1.0" standalone="yes"?><!DOCTYPE svg PUBLIC "-//W3C//DTD SVG 1.1//EN" "http://www.w3.org/Graphics/SVG/1.1/DTD/svg11.dtd"[
<!ENTITY E3 'stroke:none;opacity:1;fill:rgb(68,154,223);'><!ENTITY E7 'matrix(1.00 0.00 0.00 1.00 0.00 0.00 ) '><!ENTITY E5 'stroke:rgb(255,255,255);fill:none;stroke-linecap:butt;stroke-miterlimit:9;opacity:1;stroke-width:2;stroke-linejoin:miter;'><!ENTITY E20 'matrix(1.00 0.00 0.00 1.00 84.00 4.00 ) '><!ENTITY E24 'matrix(1.00 0.00 0.00 1.00 4.00 4.00 ) '><!ENTITY E16 'stroke:none;opacity:1;fill:rgb(255,255,255);'><!ENTITY E18 'matrix(1.00 0.00 0.00 1.00 164.00 4.00 ) '><!ENTITY E8 'matrix(1.00 0.00 0.00 1.00 324.00 4.00 ) '><!ENTITY E14 'matrix(1.00 0.00 0.00 1.00 244.00 4.00 ) '><!ENTITY E15 'M 18.422 13 13.4357 18.5006 10.8556 15.9868 6.500101 20.5001 23.9571 20.48582 z '><!ENTITY E2 'matrix(1.00 0.00 0.00 1.00 404.00 4.00 ) '><!ENTITY E1 'stroke:rgb(169,169,169);fill:none;stroke-linecap:butt;stroke-miterlimit:9;opacity:1;stroke-width:1;stroke-linejoin:miter;'><!ENTITY E10 'stroke:none;fill-rule:evenodd;opacity:1;fill:rgb(255,255,255);'>
]><svg width="447.228" height="65.14218" id="SvgGdi_output" xmlns="http://www.w3.org/2000/svg"><rect id="background" height="100.00%" style="fill:rgb(255,255,255);" width="100.00%" y="0.00" x="0.00" /><g style="shape-rendering:auto;" id="root_group"><line y1="19.00" style="&E1;" id="524" x2="400.00" y2="19.00" x1="358.00" /><line y1="19.00" style="&E1;" id="525" x2="320.00" y2="19.00" x1="278.00" /><line y1="19.00" style="&E1;" id="526" x2="240.00" y2="19.00" x1="198.00" /><line y1="19.00" style="&E1;" id="527" x2="160.00" y2="19.00" x1="118.00" /><line y1="19.00" style="&E1;" id="528" x2="80.00" y2="19.00" x1="38.00" /><ellipse id="529" cy="15.00" cx="15.00" transform="&E2;" rx="15.00" ry="15.00" style="&E3;" /><path style="&E5;" transform="&E2;" id="530" d="M 20.824 23.115 20.824 7.098999 M 17.3572 17.48 17.3572 12.7339 M 13.8904 21.2046 13.8904 9.009602 M 10.4236 18.6248 10.4236 11.5896 M 6.9568 16.3923 6.9568 13.822 " /><text id="531" transform="&E7;" x="404.00" y="39.00" style="stroke:none;clip-path:url(#533_text_clipper);font-family:Microsoft Sans Serif;fill:rgb(0,0,0);font-size:7.80pt;opacity:1;"><tspan dy="7.80pt" id="535">Rescale</tspan></text><ellipse id="537" cy="15.00" cx="15.00" transform="&E8;" rx="15.00" ry="15.00" style="&E3;" /><path style="&E10;" transform="&E8;" id="538" d="M 19.156 13.888 19.156 10.3647 19.156 6.841399 25.2585 10.3647 22.2072 12.1264 z " /><path style="&E10;" transform="&E8;" id="539" d="M 19.156 22.97 19.156 19.4467 19.156 15.9234 25.2585 19.4467 22.2072 21.2084 z " /><path style="&E5;" transform="&E8;" id="540" d="M 5.5001 19.484 10.6493 19.484 16.2743 10.2485 19.3728 10.2485 M 14.6769 17.1481 16.3089 19.4828 19.2202 19.4828 M 5.500199 10.2437 10.7586 10.2437 12.1652 12.8707 " /><text id="541" transform="&E7;" x="324.00" y="39.00" style="stroke:none;clip-path:url(#543_text_clipper);font-family:Microsoft Sans Serif;fill:rgb(0,0,0);font-size:7.80pt;opacity:1;"><tspan dy="7.80pt" id="545">X</tspan></text><ellipse id="547" cy="15.00" cx="15.00" transform="&E14;" rx="15.00" ry="15.00" style="&E3;" /><path d="&E15;" style="&E10;" transform="&E14;" id="548" /><ellipse id="549" cy="10.96" cx="10.92" transform="&E14;" rx="2.75" ry="2.75" style="&E16;" /><text id="550" transform="&E7;" x="244.00" y="39.00" style="stroke:none;clip-path:url(#552_text_clipper);font-family:Microsoft Sans Serif;fill:rgb(0,0,0);font-size:7.80pt;opacity:1;"><tspan dy="7.80pt" id="554">Centroid</tspan></text><ellipse id="556" cy="15.00" cx="15.00" transform="&E18;" rx="15.00" ry="15.00" style="&E3;" /><path d="&E15;" style="&E10;" transform="&E18;" id="557" /><ellipse id="558" cy="10.96" cx="10.92" transform="&E18;" rx="2.75" ry="2.75" style="&E16;" /><text id="559" transform="&E7;" x="164.00" y="39.00" style="stroke:none;clip-path:url(#561_text_clipper);font-family:Microsoft Sans Serif;fill:rgb(0,0,0);font-size:7.80pt;opacity:1;"><tspan dy="7.80pt" id="563">HsvThreshold</tspan></text><ellipse id="565" cy="15.00" cx="15.00" transform="&E20;" rx="15.00" ry="15.00" style="&E3;" /><path d="&E15;" style="&E10;" transform="&E20;" id="566" /><ellipse id="567" cy="10.96" cx="10.92" transform="&E20;" rx="2.75" ry="2.75" style="&E16;" /><text id="568" transform="&E7;" x="84.00" y="39.00" style="stroke:none;clip-path:url(#570_text_clipper);font-family:Microsoft Sans Serif;fill:rgb(0,0,0);font-size:7.80pt;opacity:1;"><tspan dy="7.80pt" id="572">ConvertColor</tspan></text><path transform="&E24;" id="574" style="stroke:rgb(169,169,169);fill:none;stroke-linecap:butt;stroke-miterlimit:9;opacity:1;stroke-width:2;stroke-linejoin:miter;" d="M 31.179 5.2 C 34.9985 11.0918 34.9814 18.682 31.13552 24.557 " /><ellipse id="575" cy="15.00" cx="15.00" transform="&E24;" rx="15.00" ry="15.00" style="stroke:none;opacity:1;fill:rgb(91,178,126);" /><path style="&E10;" transform="&E24;" id="576" d="M 23.75 9.1 19.5587 11.5211 19.5587 18.3937 23.75 20.8147 z " /><path style="&E10;" transform="&E24;" id="577" d="M 8.6927 9.2 15.7194 9.2 C 17.19 9.2 18.3739 10.4337 18.3739 11.9661 L 18.3739 17.8234 C 18.3739 19.3558 17.19 20.5893 15.7194 20.5893 L 8.692701 20.5893 C 7.222101 20.5893 6.038201 19.3558 6.038201 17.8234 L 6.038201 11.9661 C 6.038201 10.4337 7.222101 9.199999 8.692701 9.199999 z " /><text id="578" transform="&E7;" x="4.00" y="39.00" style="stroke:none;clip-path:url(#580_text_clipper);font-family:Microsoft Sans Serif;fill:rgb(0,0,0);font-size:7.80pt;opacity:1;"><tspan dy="7.80pt" id="582">Camera</tspan></text><text id="584" transform="&E7;" x="4.00" y="50.77" style="stroke:none;clip-path:url(#586_text_clipper);font-family:Microsoft Sans Serif;fill:rgb(0,0,0);font-size:7.80pt;opacity:1;"><tspan dy="7.80pt" id="588">Capture</tspan></text></g><defs id="clips_hatches_and_gradients"><clipPath id="533_text_clipper"><rect x="404.00" y="39.00" width="42.23" height="13.07" id="534" /></clipPath><clipPath id="543_text_clipper"><rect x="324.00" y="39.00" width="10.61" height="13.07" id="544" /></clipPath><clipPath id="552_text_clipper"><rect x="244.00" y="39.00" width="44.01" height="13.07" id="553" /></clipPath><clipPath id="561_text_clipper"><rect x="164.00" y="39.00" width="69.61" height="13.07" id="562" /></clipPath><clipPath id="570_text_clipper"><rect x="84.00" y="39.00" width="66.62" height="13.07" id="571" /></clipPath><clipPath id="580_text_clipper"><rect x="4.00" y="39.00" width="41.57" height="26.14" id="581" /></clipPath><clipPath id="586_text_clipper"><rect x="4.00" y="50.77" width="41.57" height="26.14" id="587" /></clipPath></defs></svg>