<?xml version="1.0" standalone="yes"?><!DOCTYPE svg PUBLIC "-//W3C//DTD SVG 1.1//EN" "http://www.w3.org/Graphics/SVG/1.1/DTD/svg11.dtd"[
<!ENTITY E33 'matrix(1.00 0.00 0.00 1.00 84.00 4.00 ) '><!ENTITY E6 'fill-rule:evenodd;opacity:1;stroke:none;fill:rgb(255,255,255);'><!ENTITY E11 'matrix(1.00 0.00 0.00 1.00 564.00 4.00 ) '><!ENTITY E2 'stroke-miterlimit:9;stroke-linecap:butt;opacity:1;stroke-width:2;fill:none;stroke-linejoin:miter;stroke:rgb(169,169,169);'><!ENTITY E3 'matrix(1.00 0.00 0.00 1.00 644.00 4.00 ) '><!ENTITY E35 'matrix(1.00 0.00 0.00 1.00 4.00 4.00 ) '><!ENTITY E14 'opacity:1;stroke:none;fill:rgb(255,255,255);'><!ENTITY E26 'matrix(1.00 0.00 0.00 1.00 324.00 4.00 ) '><!ENTITY E29 'matrix(1.00 0.00 0.00 1.00 244.00 4.00 ) '><!ENTITY E16 'matrix(1.00 0.00 0.00 1.00 484.00 4.00 ) '><!ENTITY E31 'matrix(1.00 0.00 0.00 1.00 164.00 4.00 ) '><!ENTITY E23 'M 18.422 13 13.4357 18.5006 10.8556 15.9868 6.500101 20.5001 23.9571 20.48582 z '><!ENTITY E10 'opacity:1;stroke:none;fill:rgb(68,154,223);'><!ENTITY E1 'stroke-miterlimit:9;stroke-linecap:butt;opacity:1;stroke-width:1;fill:none;stroke-linejoin:miter;stroke:rgb(169,169,169);'><!ENTITY E9 'matrix(1.00 0.00 0.00 1.00 0.00 0.00 ) '><!ENTITY E22 'matrix(1.00 0.00 0.00 1.00 404.00 4.00 ) '>
]><svg width="711.2026" height="65.39355" id="SvgGdi_output" xmlns="http://www.w3.org/2000/svg"><rect width="100.00%" x="0.00" y="0.00" height="100.00%" id="background" style="fill:rgb(255,255,255);" /><g id="root_group" style="shape-rendering:auto;"><line x1="598.00" x2="640.00" y2="19.00" id="1703" style="&E1;" y1="19.00" /><line x1="518.00" x2="560.00" y2="19.00" id="1704" style="&E1;" y1="19.00" /><line x1="438.00" x2="480.00" y2="19.00" id="1705" style="&E1;" y1="19.00" /><line x1="358.00" x2="400.00" y2="19.00" id="1706" style="&E1;" y1="19.00" /><line x1="278.00" x2="320.00" y2="19.00" id="1707" style="&E1;" y1="19.00" /><line x1="198.00" x2="240.00" y2="19.00" id="1708" style="&E1;" y1="19.00" /><line x1="118.00" x2="160.00" y2="19.00" id="1709" style="&E1;" y1="19.00" /><line x1="38.00" x2="80.00" y2="19.00" id="1710" style="&E1;" y1="19.00" /><path style="&E2;" id="1711" transform="&E3;" d="M 10.158 33.2 C 3.4054 31.7591 -1.861 26.4692 -3.271 19.71 " /><ellipse ry="15.00" id="1712" cx="15.00" rx="15.00" cy="15.00" transform="&E3;" style="opacity:1;stroke:none;fill:rgb(155,91,179);" /><path style="&E6;" id="1713" transform="&E3;" d="M 11.529 25.444 20.7834 12.908 16.3203 12.908 18.355 4.7687 9.100601 17.3047 13.5637 17.3047 z " /><text x="644.00" y="39.00" id="1714" transform="&E9;" style="fill:rgb(0,0,0);clip-path:url(#1716_text_clipper);font-size:7.88pt;opacity:1;font-family:Microsoft Sans Serif;stroke:none;"><tspan id="1718" dy="7.88pt">DigitalOutput</tspan></text><ellipse ry="15.00" style="&E10;" id="1720" cx="15.00" rx="15.00" cy="15.00" transform="&E11;" /><path id="1721" transform="&E11;" d="M 16.849 10.062 23.4027 10.062 M 16.6038 19.6084 23.3505 19.6084 M 12.3075 17.1615 7.5719 21.8971 M 7.577335 17.152 12.31704 21.8917 M 6.564136 10.0047 13.30904 10.0047 M 9.936636 6.6288 9.936636 13.3806 " style="stroke-miterlimit:9;stroke-linecap:butt;opacity:1;stroke-width:2;fill:none;stroke-linejoin:miter;stroke:rgb(255,255,255);" /><ellipse ry="1.30" style="&E14;" id="1722" cx="19.93" rx="1.30" cy="16.33" transform="&E11;" /><ellipse ry="1.30" style="&E14;" id="1723" cx="19.93" rx="1.30" cy="22.83" transform="&E11;" /><text x="564.00" y="39.00" id="1724" transform="&E9;" style="fill:rgb(0,0,0);clip-path:url(#1726_text_clipper);font-size:7.88pt;opacity:1;font-family:Microsoft Sans Serif;stroke:none;"><tspan id="1728" dy="7.88pt">LessThan</tspan></text><ellipse ry="15.00" style="&E10;" id="1730" cx="15.00" rx="15.00" cy="15.00" transform="&E16;" /><path style="&E6;" id="1731" transform="&E16;" d="M 10.824 9.4752 3.5613 15.0588 10.824 20.6107 10.81521 18.3247 6.519011 15.0267 10.82391 11.7422 z " /><path style="&E6;" id="1732" transform="&E16;" d="M 15.365 7.2336 C 15.34647 7.33547 15.32125 7.4371 15.31422 7.5375 14.41077 12.6441 13.49692 17.7495 12.59942 22.8575 12.59508 22.88635 12.6018 22.91223 12.59942 22.94062 L 14.62872 22.94062 C 14.70348 22.53324 14.73679 22.1026 14.8377 21.71462 15.68204 16.94102 16.5365 12.17012 17.3748 7.394619 17.38163 7.340435 17.37866 7.287239 17.3787 7.233579 z " /><path style="&E6;" id="1733" transform="&E16;" d="M 19.044 9.4746 26.3067 15.0582 19.044 20.6101 19.05279 18.3241 23.34899 15.0261 19.04409 11.7416 z " /><text x="484.00" y="39.00" id="1734" transform="&E9;" style="fill:rgb(0,0,0);clip-path:url(#1736_text_clipper);font-size:7.88pt;opacity:1;font-family:Microsoft Sans Serif;stroke:none;"><tspan id="1738" dy="7.88pt">Python</tspan></text><text x="484.00" y="50.88" id="1740" transform="&E9;" style="fill:rgb(0,0,0);clip-path:url(#1742_text_clipper);font-size:7.88pt;opacity:1;font-family:Microsoft Sans Serif;stroke:none;"><tspan id="1744" dy="7.88pt">Transform</tspan></text><ellipse ry="15.00" style="&E10;" id="1746" cx="15.00" rx="15.00" cy="15.00" transform="&E22;" /><path style="&E6;" id="1747" transform="&E22;" d="&E23;" /><ellipse ry="2.75" style="&E14;" id="1748" cx="10.92" rx="2.75" cy="10.96" transform="&E22;" /><text x="404.00" y="39.00" id="1749" transform="&E9;" style="fill:rgb(0,0,0);clip-path:url(#1751_text_clipper);font-size:7.88pt;opacity:1;font-family:Microsoft Sans Serif;stroke:none;"><tspan id="1753" dy="7.88pt">SortBinary</tspan></text><text x="404.00" y="50.88" id="1755" transform="&E9;" style="fill:rgb(0,0,0);clip-path:url(#1757_text_clipper);font-size:7.88pt;opacity:1;font-family:Microsoft Sans Serif;stroke:none;"><tspan id="1759" dy="7.88pt">Regions</tspan></text><ellipse ry="15.00" style="&E10;" id="1761" cx="15.00" rx="15.00" cy="15.00" transform="&E26;" /><path style="&E6;" id="1762" transform="&E26;" d="&E23;" /><ellipse ry="2.75" style="&E14;" id="1763" cx="10.92" rx="2.75" cy="10.96" transform="&E26;" /><text x="324.00" y="39.00" id="1764" transform="&E9;" style="fill:rgb(0,0,0);clip-path:url(#1766_text_clipper);font-size:7.88pt;opacity:1;font-family:Microsoft Sans Serif;stroke:none;"><tspan id="1768" dy="7.88pt">BinaryRegion</tspan></text><text x="324.00" y="50.88" id="1770" transform="&E9;" style="fill:rgb(0,0,0);clip-path:url(#1772_text_clipper);font-size:7.88pt;opacity:1;font-family:Microsoft Sans Serif;stroke:none;"><tspan id="1774" dy="7.88pt">Analysis</tspan></text><ellipse ry="15.00" style="&E10;" id="1776" cx="15.00" rx="15.00" cy="15.00" transform="&E29;" /><path style="&E6;" id="1777" transform="&E29;" d="&E23;" /><ellipse ry="2.75" style="&E14;" id="1778" cx="10.92" rx="2.75" cy="10.96" transform="&E29;" /><text x="244.00" y="39.00" id="1779" transform="&E9;" style="fill:rgb(0,0,0);clip-path:url(#1781_text_clipper);font-size:7.88pt;opacity:1;font-family:Microsoft Sans Serif;stroke:none;"><tspan id="1783" dy="7.88pt">FindContours</tspan></text><ellipse ry="15.00" style="&E10;" id="1785" cx="15.00" rx="15.00" cy="15.00" transform="&E31;" /><path style="&E6;" id="1786" transform="&E31;" d="&E23;" /><ellipse ry="2.75" style="&E14;" id="1787" cx="10.92" rx="2.75" cy="10.96" transform="&E31;" /><text x="164.00" y="39.00" id="1788" transform="&E9;" style="fill:rgb(0,0,0);clip-path:url(#1790_text_clipper);font-size:7.88pt;opacity:1;font-family:Microsoft Sans Serif;stroke:none;"><tspan id="1792" dy="7.88pt">HsvThreshold</tspan></text><ellipse ry="15.00" style="&E10;" id="1794" cx="15.00" rx="15.00" cy="15.00" transform="&E33;" /><path style="&E6;" id="1795" transform="&E33;" d="&E23;" /><ellipse ry="2.75" style="&E14;" id="1796" cx="10.92" rx="2.75" cy="10.96" transform="&E33;" /><text x="84.00" y="39.00" id="1797" transform="&E9;" style="fill:rgb(0,0,0);clip-path:url(#1799_text_clipper);font-size:7.88pt;opacity:1;font-family:Microsoft Sans Serif;stroke:none;"><tspan id="1801" dy="7.88pt">ConvertColor</tspan></text><path style="&E2;" id="1803" transform="&E35;" d="M 31.179 5.2 C 34.9985 11.0918 34.9814 18.682 31.13552 24.557 " /><ellipse ry="15.00" id="1804" cx="15.00" rx="15.00" cy="15.00" transform="&E35;" style="opacity:1;stroke:none;fill:rgb(91,178,126);" /><path style="&E6;" id="1805" transform="&E35;" d="M 23.75 9.1 19.5587 11.5211 19.5587 18.3937 23.75 20.8147 z " /><path style="&E6;" id="1806" transform="&E35;" d="M 8.6927 9.2 15.7194 9.2 C 17.19 9.2 18.3739 10.4337 18.3739 11.9661 L 18.3739 17.8234 C 18.3739 19.3558 17.19 20.5893 15.7194 20.5893 L 8.692701 20.5893 C 7.222101 20.5893 6.038201 19.3558 6.038201 17.8234 L 6.038201 11.9661 C 6.038201 10.4337 7.222101 9.199999 8.692701 9.199999 z " /><text x="4.00" y="39.00" id="1807" transform="&E9;" style="fill:rgb(0,0,0);clip-path:url(#1809_text_clipper);font-size:7.88pt;opacity:1;font-family:Microsoft Sans Serif;stroke:none;"><tspan id="1811" dy="7.88pt">Camera</tspan></text><text x="4.00" y="50.88" id="1813" transform="&E9;" style="fill:rgb(0,0,0);clip-path:url(#1815_text_clipper);font-size:7.88pt;opacity:1;font-family:Microsoft Sans Serif;stroke:none;"><tspan id="1817" dy="7.88pt">Capture</tspan></text></g><defs id="clips_hatches_and_gradients"><clipPath id="1716_text_clipper"><rect id="1717" width="66.20" height="13.20" x="644.00" y="39.00" /></clipPath><clipPath id="1726_text_clipper"><rect id="1727" width="51.00" height="13.20" x="564.00" y="39.00" /></clipPath><clipPath id="1736_text_clipper"><rect id="1737" width="52.77" height="26.39" x="484.00" y="39.00" /></clipPath><clipPath id="1742_text_clipper"><rect id="1743" width="52.77" height="26.39" x="484.00" y="50.88" /></clipPath><clipPath id="1751_text_clipper"><rect id="1752" width="54.05" height="26.39" x="404.00" y="39.00" /></clipPath><clipPath id="1757_text_clipper"><rect id="1758" width="54.05" height="26.39" x="404.00" y="50.88" /></clipPath><clipPath id="1766_text_clipper"><rect id="1767" width="68.55" height="26.39" x="324.00" y="39.00" /></clipPath><clipPath id="1772_text_clipper"><rect id="1773" width="68.55" height="26.39" x="324.00" y="50.88" /></clipPath><clipPath id="1781_text_clipper"><rect id="1782" width="68.48" height="13.20" x="244.00" y="39.00" /></clipPath><clipPath id="1790_text_clipper"><rect id="1791" width="70.28" height="13.20" x="164.00" y="39.00" /></clipPath><clipPath id="1799_text_clipper"><rect id="1800" width="67.26" height="13.20" x="84.00" y="39.00" /></clipPath><clipPath id="1809_text_clipper"><rect id="1810" width="41.97" height="26.39" x="4.00" y="39.00" /></clipPath><clipPath id="1815_text_clipper"><rect id="1816" width="41.97" height="26.39" x="4.00" y="50.88" /></clipPath></defs></svg>