<?xml version="1.0" standalone="yes"?><!DOCTYPE svg PUBLIC "-//W3C//DTD SVG 1.1//EN" "http://www.w3.org/Graphics/SVG/1.1/DTD/svg11.dtd"[
<!ENTITY E13 'stroke:none;opacity:1;fill:rgb(68,154,223);'><!ENTITY E26 'matrix(1.00 0.00 0.00 1.00 404.00 84.00 ) '><!ENTITY E4 'matrix(1.00 0.00 0.00 1.00 564.00 4.00 ) '><!ENTITY E3 'stroke:rgb(169,169,169);fill:none;stroke-linecap:butt;stroke-miterlimit:9;opacity:1;stroke-width:2;stroke-linejoin:miter;'><!ENTITY E35 'matrix(1.00 0.00 0.00 1.00 244.00 4.00 ) '><!ENTITY E9 'matrix(1.00 0.00 0.00 1.00 0.00 0.00 ) '><!ENTITY E5 'stroke:none;opacity:1;fill:rgb(155,91,179);'><!ENTITY E19 'matrix(1.00 0.00 0.00 1.00 484.00 84.00 ) '><!ENTITY E14 'M 10.824 9.4752 3.5613 15.0588 10.824 20.6107 10.81521 18.3247 6.519011 15.0267 10.82391 11.7422 z '><!ENTITY E7 'stroke:none;fill-rule:evenodd;opacity:1;fill:rgb(255,255,255);'><!ENTITY E12 'matrix(1.00 0.00 0.00 1.00 484.00 4.00 ) '><!ENTITY E31 'M 5.5001 19.484 10.6493 19.484 16.2743 10.2485 19.3728 10.2485 M 14.6769 17.1481 16.3089 19.4828 19.2202 19.4828 M 5.500199 10.2437 10.7586 10.2437 12.1652 12.8707 '><!ENTITY E39 'matrix(1.00 0.00 0.00 1.00 164.00 4.00 ) '><!ENTITY E30 'M 19.156 22.97 19.156 19.4467 19.156 15.9234 25.2585 19.4467 22.2072 21.2084 z '><!ENTITY E24 'stroke:rgb(255,255,255);fill:none;stroke-linecap:butt;stroke-miterlimit:9;opacity:1;stroke-width:2;stroke-linejoin:miter;'><!ENTITY E1 'stroke:rgb(169,169,169);fill:none;stroke-linecap:butt;stroke-miterlimit:9;opacity:1;stroke-width:1;stroke-linejoin:miter;'><!ENTITY E37 'stroke:none;opacity:1;fill:rgb(255,255,255);'><!ENTITY E15 'M 15.365 7.2336 C 15.34647 7.33547 15.32125 7.4371 15.31422 7.5375 14.41077 12.6441 13.49692 17.7495 12.59942 22.8575 12.59508 22.88635 12.6018 22.91223 12.59942 22.94062 L 14.62872 22.94062 C 14.70348 22.53324 14.73679 22.1026 14.8377 21.71462 15.68204 16.94102 16.5365 12.17012 17.3748 7.394619 17.38163 7.340435 17.37866 7.287239 17.3787 7.233579 z '><!ENTITY E44 'matrix(1.00 0.00 0.00 1.00 4.00 4.00 ) '><!ENTITY E41 'matrix(1.00 0.00 0.00 1.00 84.00 4.00 ) '><!ENTITY E28 'matrix(1.00 0.00 0.00 1.00 324.00 4.00 ) '><!ENTITY E6 'M 11.529 25.444 20.7834 12.908 16.3203 12.908 18.355 4.7687 9.100601 17.3047 13.5637 17.3047 z '><!ENTITY E29 'M 19.156 13.888 19.156 10.3647 19.156 6.841399 25.2585 10.3647 22.2072 12.1264 z '><!ENTITY E36 'M 18.422 13 13.4357 18.5006 10.8556 15.9868 6.500101 20.5001 23.9571 20.48582 z '><!ENTITY E2 'M 10.158 33.2 C 3.4054 31.7591 -1.861 26.4692 -3.271 19.71 '><!ENTITY E33 'matrix(1.00 0.00 0.00 1.00 324.00 84.00 ) '><!ENTITY E22 'matrix(1.00 0.00 0.00 1.00 404.00 4.00 ) '><!ENTITY E10 'matrix(1.00 0.00 0.00 1.00 564.00 84.00 ) '><!ENTITY E16 'M 19.044 9.4746 26.3067 15.0582 19.044 20.6101 19.05279 18.3241 23.34899 15.0261 19.04409 11.7416 z '><!ENTITY E23 'M 20.824 23.115 20.824 7.098999 M 17.3572 17.48 17.3572 12.7339 M 13.8904 21.2046 13.8904 9.009602 M 10.4236 18.6248 10.4236 11.5896 M 6.9568 16.3923 6.9568 13.822 '>
]><svg width="628.6018" height="145.1422" id="SvgGdi_output" xmlns="http://www.w3.org/2000/svg"><rect id="background" height="100.00%" style="fill:rgb(255,255,255);" width="100.00%" y="0.00" x="0.00" /><g style="shape-rendering:auto;" id="root_group"><line y1="19.00" style="&E1;" id="283" x2="560.00" y2="19.00" x1="518.00" /><line y1="99.00" style="&E1;" id="284" x2="560.00" y2="99.00" x1="518.00" /><line y1="19.00" style="&E1;" id="285" x2="480.00" y2="19.00" x1="438.00" /><line y1="99.00" style="&E1;" id="286" x2="480.00" y2="99.00" x1="438.00" /><line y1="19.00" style="&E1;" id="287" x2="400.00" y2="19.00" x1="358.00" /><line y1="99.00" style="&E1;" id="288" x2="400.00" y2="99.00" x1="358.00" /><line y1="19.00" style="&E1;" id="289" x2="320.00" y2="19.00" x1="278.00" /><line y1="19.00" style="&E1;" id="290" x2="320.00" y2="99.00" x1="278.00" /><line y1="19.00" style="&E1;" id="291" x2="240.00" y2="19.00" x1="198.00" /><line y1="19.00" style="&E1;" id="292" x2="160.00" y2="19.00" x1="118.00" /><line y1="19.00" style="&E1;" id="293" x2="80.00" y2="19.00" x1="38.00" /><path d="&E2;" style="&E3;" transform="&E4;" id="294" /><ellipse id="295" cy="15.00" cx="15.00" transform="&E4;" rx="15.00" ry="15.00" style="&E5;" /><path d="&E6;" style="&E7;" transform="&E4;" id="296" /><text id="297" transform="&E9;" x="564.00" y="39.00" style="stroke:none;clip-path:url(#299_text_clipper);font-family:Microsoft Sans Serif;fill:rgb(0,0,0);font-size:7.80pt;opacity:1;"><tspan dy="7.80pt" id="301">ServoOutput</tspan></text><path d="&E2;" style="&E3;" transform="&E10;" id="303" /><ellipse id="304" cy="15.00" cx="15.00" transform="&E10;" rx="15.00" ry="15.00" style="&E5;" /><path d="&E6;" style="&E7;" transform="&E10;" id="305" /><text id="306" transform="&E9;" x="564.00" y="119.00" style="stroke:none;clip-path:url(#308_text_clipper);font-family:Microsoft Sans Serif;fill:rgb(0,0,0);font-size:7.80pt;opacity:1;"><tspan dy="7.80pt" id="310">ServoOutput</tspan></text><ellipse id="312" cy="15.00" cx="15.00" transform="&E12;" rx="15.00" ry="15.00" style="&E13;" /><path d="&E14;" style="&E7;" transform="&E12;" id="313" /><path d="&E15;" style="&E7;" transform="&E12;" id="314" /><path d="&E16;" style="&E7;" transform="&E12;" id="315" /><text id="316" transform="&E9;" x="484.00" y="39.00" style="stroke:none;clip-path:url(#318_text_clipper);font-family:Microsoft Sans Serif;fill:rgb(0,0,0);font-size:7.80pt;opacity:1;"><tspan dy="7.80pt" id="320">Python</tspan></text><text id="322" transform="&E9;" x="484.00" y="50.77" style="stroke:none;clip-path:url(#324_text_clipper);font-family:Microsoft Sans Serif;fill:rgb(0,0,0);font-size:7.80pt;opacity:1;"><tspan dy="7.80pt" id="326">Transform</tspan></text><ellipse id="328" cy="15.00" cx="15.00" transform="&E19;" rx="15.00" ry="15.00" style="&E13;" /><path d="&E14;" style="&E7;" transform="&E19;" id="329" /><path d="&E15;" style="&E7;" transform="&E19;" id="330" /><path d="&E16;" style="&E7;" transform="&E19;" id="331" /><text id="332" transform="&E9;" x="484.00" y="119.00" style="stroke:none;clip-path:url(#334_text_clipper);font-family:Microsoft Sans Serif;fill:rgb(0,0,0);font-size:7.80pt;opacity:1;"><tspan dy="7.80pt" id="336">Python</tspan></text><text id="338" transform="&E9;" x="484.00" y="130.77" style="stroke:none;clip-path:url(#340_text_clipper);font-family:Microsoft Sans Serif;fill:rgb(0,0,0);font-size:7.80pt;opacity:1;"><tspan dy="7.80pt" id="342">Transform</tspan></text><ellipse id="344" cy="15.00" cx="15.00" transform="&E22;" rx="15.00" ry="15.00" style="&E13;" /><path d="&E23;" style="&E24;" transform="&E22;" id="345" /><text id="346" transform="&E9;" x="404.00" y="39.00" style="stroke:none;clip-path:url(#348_text_clipper);font-family:Microsoft Sans Serif;fill:rgb(0,0,0);font-size:7.80pt;opacity:1;"><tspan dy="7.80pt" id="350">Rescale</tspan></text><ellipse id="352" cy="15.00" cx="15.00" transform="&E26;" rx="15.00" ry="15.00" style="&E13;" /><path d="&E23;" style="&E24;" transform="&E26;" id="353" /><text id="354" transform="&E9;" x="404.00" y="119.00" style="stroke:none;clip-path:url(#356_text_clipper);font-family:Microsoft Sans Serif;fill:rgb(0,0,0);font-size:7.80pt;opacity:1;"><tspan dy="7.80pt" id="358">Rescale</tspan></text><ellipse id="360" cy="15.00" cx="15.00" transform="&E28;" rx="15.00" ry="15.00" style="&E13;" /><path d="&E29;" style="&E7;" transform="&E28;" id="361" /><path d="&E30;" style="&E7;" transform="&E28;" id="362" /><path d="&E31;" style="&E24;" transform="&E28;" id="363" /><text id="364" transform="&E9;" x="324.00" y="39.00" style="stroke:none;clip-path:url(#366_text_clipper);font-family:Microsoft Sans Serif;fill:rgb(0,0,0);font-size:7.80pt;opacity:1;"><tspan dy="7.80pt" id="368">X</tspan></text><ellipse id="370" cy="15.00" cx="15.00" transform="&E33;" rx="15.00" ry="15.00" style="&E13;" /><path d="&E29;" style="&E7;" transform="&E33;" id="371" /><path d="&E30;" style="&E7;" transform="&E33;" id="372" /><path d="&E31;" style="&E24;" transform="&E33;" id="373" /><text id="374" transform="&E9;" x="324.00" y="119.00" style="stroke:none;clip-path:url(#376_text_clipper);font-family:Microsoft Sans Serif;fill:rgb(0,0,0);font-size:7.80pt;opacity:1;"><tspan dy="7.80pt" id="378">Y</tspan></text><ellipse id="380" cy="15.00" cx="15.00" transform="&E35;" rx="15.00" ry="15.00" style="&E13;" /><path d="&E36;" style="&E7;" transform="&E35;" id="381" /><ellipse id="382" cy="10.96" cx="10.92" transform="&E35;" rx="2.75" ry="2.75" style="&E37;" /><text id="383" transform="&E9;" x="244.00" y="39.00" style="stroke:none;clip-path:url(#385_text_clipper);font-family:Microsoft Sans Serif;fill:rgb(0,0,0);font-size:7.80pt;opacity:1;"><tspan dy="7.80pt" id="387">Centroid</tspan></text><ellipse id="389" cy="15.00" cx="15.00" transform="&E39;" rx="15.00" ry="15.00" style="&E13;" /><path d="&E36;" style="&E7;" transform="&E39;" id="390" /><ellipse id="391" cy="10.96" cx="10.92" transform="&E39;" rx="2.75" ry="2.75" style="&E37;" /><text id="392" transform="&E9;" x="164.00" y="39.00" style="stroke:none;clip-path:url(#394_text_clipper);font-family:Microsoft Sans Serif;fill:rgb(0,0,0);font-size:7.80pt;opacity:1;"><tspan dy="7.80pt" id="396">HsvThreshold</tspan></text><ellipse id="398" cy="15.00" cx="15.00" transform="&E41;" rx="15.00" ry="15.00" style="&E13;" /><path d="&E36;" style="&E7;" transform="&E41;" id="399" /><ellipse id="400" cy="10.96" cx="10.92" transform="&E41;" rx="2.75" ry="2.75" style="&E37;" /><text id="401" transform="&E9;" x="84.00" y="39.00" style="stroke:none;clip-path:url(#403_text_clipper);font-family:Microsoft Sans Serif;fill:rgb(0,0,0);font-size:7.80pt;opacity:1;"><tspan dy="7.80pt" id="405">ConvertColor</tspan></text><path style="&E3;" transform="&E44;" id="407" d="M 31.179 5.2 C 34.9985 11.0918 34.9814 18.682 31.13552 24.557 " /><ellipse id="408" cy="15.00" cx="15.00" transform="&E44;" rx="15.00" ry="15.00" style="stroke:none;opacity:1;fill:rgb(91,178,126);" /><path style="&E7;" transform="&E44;" id="409" d="M 23.75 9.1 19.5587 11.5211 19.5587 18.3937 23.75 20.8147 z " /><path style="&E7;" transform="&E44;" id="410" d="M 8.6927 9.2 15.7194 9.2 C 17.19 9.2 18.3739 10.4337 18.3739 11.9661 L 18.3739 17.8234 C 18.3739 19.3558 17.19 20.5893 15.7194 20.5893 L 8.692701 20.5893 C 7.222101 20.5893 6.038201 19.3558 6.038201 17.8234 L 6.038201 11.9661 C 6.038201 10.4337 7.222101 9.199999 8.692701 9.199999 z " /><text id="411" transform="&E9;" x="4.00" y="39.00" style="stroke:none;clip-path:url(#413_text_clipper);font-family:Microsoft Sans Serif;fill:rgb(0,0,0);font-size:7.80pt;opacity:1;"><tspan dy="7.80pt" id="415">Camera</tspan></text><text id="417" transform="&E9;" x="4.00" y="50.77" style="stroke:none;clip-path:url(#419_text_clipper);font-family:Microsoft Sans Serif;fill:rgb(0,0,0);font-size:7.80pt;opacity:1;"><tspan dy="7.80pt" id="421">Capture</tspan></text></g><defs id="clips_hatches_and_gradients"><clipPath id="299_text_clipper"><rect x="564.00" y="39.00" width="63.60" height="13.07" id="300" /></clipPath><clipPath id="308_text_clipper"><rect x="564.00" y="119.00" width="63.60" height="13.07" id="309" /></clipPath><clipPath id="318_text_clipper"><rect x="484.00" y="39.00" width="52.27" height="26.14" id="319" /></clipPath><clipPath id="324_text_clipper"><rect x="484.00" y="50.77" width="52.27" height="26.14" id="325" /></clipPath><clipPath id="334_text_clipper"><rect x="484.00" y="119.00" width="52.27" height="26.14" id="335" /></clipPath><clipPath id="340_text_clipper"><rect x="484.00" y="130.77" width="52.27" height="26.14" id="341" /></clipPath><clipPath id="348_text_clipper"><rect x="404.00" y="39.00" width="42.23" height="13.07" id="349" /></clipPath><clipPath id="356_text_clipper"><rect x="404.00" y="119.00" width="42.23" height="13.07" id="357" /></clipPath><clipPath id="366_text_clipper"><rect x="324.00" y="39.00" width="10.61" height="13.07" id="367" /></clipPath><clipPath id="376_text_clipper"><rect x="324.00" y="119.00" width="10.61" height="13.07" id="377" /></clipPath><clipPath id="385_text_clipper"><rect x="244.00" y="39.00" width="44.01" height="13.07" id="386" /></clipPath><clipPath id="394_text_clipper"><rect x="164.00" y="39.00" width="69.61" height="13.07" id="395" /></clipPath><clipPath id="403_text_clipper"><rect x="84.00" y="39.00" width="66.62" height="13.07" id="404" /></clipPath><clipPath id="413_text_clipper"><rect x="4.00" y="39.00" width="41.57" height="26.14" id="414" /></clipPath><clipPath id="419_text_clipper"><rect x="4.00" y="50.77" width="41.57" height="26.14" id="420" /></clipPath></defs></svg>