<?xml version="1.0" standalone="yes"?><!DOCTYPE svg PUBLIC "-//W3C//DTD SVG 1.1//EN" "http://www.w3.org/Graphics/SVG/1.1/DTD/svg11.dtd"[
<!ENTITY E10 'fill-rule:evenodd;opacity:1;stroke:none;fill:rgb(128,128,128);'><!ENTITY E5 'fill-rule:evenodd;opacity:1;stroke:none;fill:rgb(255,255,255);'><!ENTITY E27 'matrix(1.00 0.00 0.00 1.00 404.00 84.00 ) '><!ENTITY E16 'stroke-miterlimit:9;stroke-linecap:butt;opacity:1;stroke-width:2;fill:none;stroke-linejoin:miter;stroke:rgb(169,169,169);'><!ENTITY E11 'matrix(1.00 0.00 0.00 1.00 644.00 84.00 ) '><!ENTITY E14 'M 16.849 10.062 23.4027 10.062 M 16.6038 19.6084 23.3505 19.6084 M 12.3075 17.1615 7.5719 21.8971 M 7.577335 17.152 12.31704 21.8917 M 6.564136 10.0047 13.30904 10.0047 M 9.936636 6.6288 9.936636 13.3806 '><!ENTITY E37 'matrix(1.00 0.00 0.00 1.00 4.00 4.00 ) '><!ENTITY E12 'M 15 0 C 15.40124 0 15.79355 0 16.1868 0.032679 L 17.4764 1.671279 C 18.19501 1.803959 18.878 1.976879 19.5521 2.217729 L 21.4286 1.483419 C 22.13968 1.823279 22.8289 2.226899 23.4726 2.670219 L 23.8493 4.621219 C 24.39461 5.086599 24.9133 5.605469 25.3788 6.150719 L 27.3298 6.494379 C 27.77262 7.137679 28.17707 7.860779 28.5166 8.57128 L 27.74584 10.44788 C 27.98674 11.12204 28.19601 11.80508 28.32852 12.52348 L 29.96712 13.81308 C 29.99807 14.2062 30.00009 14.59888 30.00009 14.99988 30.00009 15.39224 29.99671 15.76908 29.96712 16.15388 L 28.32852 17.43998 C 28.19832 18.14633 28.01721 18.85248 27.78226 19.51558 L 28.51657 21.42868 C 28.17593 22.14291 27.77461 22.82648 27.32977 23.47268 L 25.37877 23.81302 C 24.91321 24.35829 24.39455 24.87682 23.84927 25.34242 L 23.47257 27.32992 C 22.82847 27.77371 22.14007 28.17669 21.42857 28.51662 L 19.51567 27.74597 C 18.85121 27.98162 18.18377 28.19809 17.47627 28.32876 L 16.18677 29.93436 C 15.79348 29.965 15.40117 29.99982 14.99997 29.99982 14.59873 29.99982 14.17345 29.96607 13.78017 29.93436 L 12.55997 28.32876 C 11.86172 28.19999 11.14067 27.977 10.48427 27.74597 L 8.571372 28.51662 C 7.856242 28.17558 7.174472 27.7755 6.527372 27.32992 L 6.150662 25.30622 C 5.617232 24.84794 5.114162 24.34789 4.657562 23.81302 L 2.670162 23.47268 C 2.225282 22.82649 1.823962 22.14288 1.483362 21.42868 L 2.254122 19.51558 C 2.022912 18.85918 1.800192 18.13838 1.671442 17.43998 L 0.06584227 16.18678 C 0.03489427 15.79366 -9.272993E-05 15.4013 -9.272993E-05 14.99998 -9.272993E-05 14.59894 0.03489527 14.20625 0.06584227 13.81318 L 1.671442 12.52358 C 1.801892 11.81616 2.018542 11.14888 2.254122 10.48438 L 1.483362 8.571277 C 1.822922 7.860797 2.227392 7.137677 2.670162 6.494377 L 4.657562 6.150717 C 5.114192 5.615747 5.617242 5.115817 6.150662 4.657517 L 6.527372 2.670117 C 7.174102 2.224717 7.856672 1.824207 8.571372 1.483317 L 10.48427 2.217627 C 11.14757 1.982687 11.85387 1.801607 12.55997 1.671177 L 13.84607 0.0325768 C 14.23082 0.003004799 14.60761 -0.0001021996 14.99987 -0.0001021996 z '><!ENTITY E7 'opacity:1;stroke:none;fill:rgb(255,255,255);'><!ENTITY E35 'matrix(1.00 0.00 0.00 1.00 84.00 84.00 ) '><!ENTITY E18 'M 31.179 5.2 C 34.9985 11.0918 34.9814 18.682 31.13552 24.557 '><!ENTITY E29 'matrix(1.00 0.00 0.00 1.00 324.00 84.00 ) '><!ENTITY E19 'opacity:1;stroke:none;fill:rgb(91,178,126);'><!ENTITY E4 'matrix(1.00 0.00 0.00 1.00 724.00 4.00 ) '><!ENTITY E13 'stroke-miterlimit:9;stroke-linecap:butt;opacity:1;stroke-width:2;fill:none;stroke-linejoin:miter;stroke:rgb(255,255,255);'><!ENTITY E17 'matrix(1.00 0.00 0.00 1.00 564.00 84.00 ) '><!ENTITY E31 'matrix(1.00 0.00 0.00 1.00 244.00 84.00 ) '><!ENTITY E6 'M 18.422 13 13.4357 18.5006 10.8556 15.9868 6.500101 20.5001 23.9571 20.48582 z '><!ENTITY E33 'matrix(1.00 0.00 0.00 1.00 164.00 84.00 ) '><!ENTITY E3 'opacity:1;stroke:none;fill:rgb(68,154,223);'><!ENTITY E1 'stroke-miterlimit:9;stroke-linecap:butt;opacity:1;stroke-width:1;fill:none;stroke-linejoin:miter;stroke:rgb(169,169,169);'><!ENTITY E22 'matrix(1.00 0.00 0.00 1.00 484.00 84.00 ) '><!ENTITY E9 'matrix(1.00 0.00 0.00 1.00 0.00 0.00 ) '>
]><svg width="782.051" height="145.3936" id="SvgGdi_output" xmlns="http://www.w3.org/2000/svg"><rect width="100.00%" x="0.00" y="0.00" height="100.00%" id="background" style="fill:rgb(255,255,255);" /><g id="root_group" style="shape-rendering:auto;"><line x1="678.00" x2="720.00" y2="19.00" id="1360" style="&E1;" y1="19.00" /><line x1="678.00" x2="720.00" y2="19.00" id="1361" y1="99.00" style="stroke-miterlimit:9;stroke-linecap:butt;stroke-dasharray:4.00 2.00 ;opacity:1;stroke-width:1;fill:none;stroke-linejoin:miter;stroke:rgb(169,169,169);" /><line x1="598.00" x2="640.00" y2="19.00" id="1362" style="&E1;" y1="19.00" /><line x1="598.00" x2="640.00" y2="99.00" id="1363" style="&E1;" y1="99.00" /><line x1="518.00" x2="560.00" y2="19.00" id="1364" style="&E1;" y1="19.00" /><line x1="518.00" x2="560.00" y2="99.00" id="1365" style="&E1;" y1="99.00" /><line x1="438.00" x2="480.00" y2="19.00" id="1366" style="&E1;" y1="19.00" /><line x1="438.00" x2="480.00" y2="99.00" id="1367" style="&E1;" y1="99.00" /><line x1="358.00" x2="400.00" y2="19.00" id="1368" style="&E1;" y1="19.00" /><line x1="358.00" x2="400.00" y2="99.00" id="1369" style="&E1;" y1="99.00" /><line x1="278.00" x2="320.00" y2="19.00" id="1370" style="&E1;" y1="19.00" /><line x1="278.00" x2="320.00" y2="99.00" id="1371" style="&E1;" y1="99.00" /><line x1="198.00" x2="240.00" y2="19.00" id="1372" style="&E1;" y1="19.00" /><line x1="198.00" x2="240.00" y2="99.00" id="1373" style="&E1;" y1="99.00" /><line x1="118.00" x2="160.00" y2="19.00" id="1374" style="&E1;" y1="19.00" /><line x1="118.00" x2="160.00" y2="99.00" id="1375" style="&E1;" y1="99.00" /><line x1="38.00" x2="80.00" y2="19.00" id="1376" style="&E1;" y1="19.00" /><line x1="38.00" x2="80.00" y2="99.00" id="1377" style="&E1;" y1="19.00" /><ellipse ry="15.00" style="&E3;" id="1378" cx="15.00" rx="15.00" cy="15.00" transform="&E4;" /><path style="&E5;" id="1379" transform="&E4;" d="&E6;" /><ellipse ry="2.75" style="&E7;" id="1380" cx="10.92" rx="2.75" cy="10.96" transform="&E4;" /><text x="724.00" y="39.00" id="1381" transform="&E9;" style="fill:rgb(0,0,0);clip-path:url(#1383_text_clipper);font-size:7.88pt;opacity:1;font-family:Microsoft Sans Serif;stroke:none;"><tspan id="1385" dy="7.88pt">WarpAffine</tspan></text><line x1="640.00" x2="678.00" y2="19.00" id="1387" style="&E1;" y1="19.00" /><path style="&E10;" id="1388" transform="&E11;" d="&E12;" /><path style="&E13;" id="1389" transform="&E11;" d="&E14;" /><ellipse ry="1.30" style="&E7;" id="1390" cx="19.93" rx="1.30" cy="16.33" transform="&E11;" /><ellipse ry="1.30" style="&E7;" id="1391" cx="19.93" rx="1.30" cy="22.83" transform="&E11;" /><text x="644.00" y="119.00" id="1392" transform="&E9;" style="fill:rgb(0,0,0);clip-path:url(#1394_text_clipper);font-size:7.88pt;opacity:1;font-family:Microsoft Sans Serif;stroke:none;"><tspan id="1396" dy="7.88pt">Transform</tspan></text><line x1="560.00" x2="598.00" y2="19.00" id="1398" style="&E1;" y1="19.00" /><path style="&E16;" id="1399" transform="&E17;" d="&E18;" /><ellipse ry="15.00" style="&E19;" id="1400" cx="15.00" rx="15.00" cy="15.00" transform="&E17;" /><path style="&E5;" id="1401" transform="&E17;" d="&E6;" /><ellipse ry="2.75" style="&E7;" id="1402" cx="10.92" rx="2.75" cy="10.96" transform="&E17;" /><text x="564.00" y="119.00" id="1403" transform="&E9;" style="fill:rgb(0,0,0);clip-path:url(#1405_text_clipper);font-size:7.88pt;opacity:1;font-family:Microsoft Sans Serif;stroke:none;"><tspan id="1407" dy="7.88pt">Affine</tspan></text><text x="564.00" y="130.88" id="1409" transform="&E9;" style="fill:rgb(0,0,0);clip-path:url(#1411_text_clipper);font-size:7.88pt;opacity:1;font-family:Microsoft Sans Serif;stroke:none;"><tspan id="1413" dy="7.88pt">Transform</tspan></text><line x1="480.00" x2="518.00" y2="19.00" id="1415" style="&E1;" y1="19.00" /><path style="&E10;" id="1416" transform="&E22;" d="&E12;" /><path style="&E5;" id="1417" transform="&E22;" d="M 19.156 13.888 19.156 10.3647 19.156 6.841399 25.2585 10.3647 22.2072 12.1264 z " /><path style="&E5;" id="1418" transform="&E22;" d="M 19.156 22.97 19.156 19.4467 19.156 15.9234 25.2585 19.4467 22.2072 21.2084 z " /><path style="&E13;" id="1419" transform="&E22;" d="M 5.5001 19.484 10.6493 19.484 16.2743 10.2485 19.3728 10.2485 M 14.6769 17.1481 16.3089 19.4828 19.2202 19.4828 M 5.500199 10.2437 10.7586 10.2437 12.1652 12.8707 " /><text x="484.00" y="119.00" id="1420" transform="&E9;" style="fill:rgb(0,0,0);clip-path:url(#1422_text_clipper);font-size:7.88pt;opacity:1;font-family:Microsoft Sans Serif;stroke:none;"><tspan id="1424" dy="7.88pt">Translation</tspan></text><line x1="400.00" x2="438.00" y2="19.00" id="1426" style="&E1;" y1="19.00" /><ellipse ry="15.00" style="&E3;" id="1427" cx="15.00" rx="15.00" cy="15.00" transform="&E27;" /><path style="&E13;" id="1428" transform="&E27;" d="&E14;" /><ellipse ry="1.30" style="&E7;" id="1429" cx="19.93" rx="1.30" cy="16.33" transform="&E27;" /><ellipse ry="1.30" style="&E7;" id="1430" cx="19.93" rx="1.30" cy="22.83" transform="&E27;" /><text x="404.00" y="119.00" id="1431" transform="&E9;" style="fill:rgb(0,0,0);clip-path:url(#1433_text_clipper);font-size:7.88pt;opacity:1;font-family:Microsoft Sans Serif;stroke:none;"><tspan id="1435" dy="7.88pt">Add</tspan></text><line x1="320.00" x2="358.00" y2="19.00" id="1437" style="&E1;" y1="19.00" /><ellipse ry="15.00" style="&E3;" id="1438" cx="15.00" rx="15.00" cy="15.00" transform="&E29;" /><path style="&E13;" id="1439" transform="&E29;" d="&E14;" /><ellipse ry="1.30" style="&E7;" id="1440" cx="19.93" rx="1.30" cy="16.33" transform="&E29;" /><ellipse ry="1.30" style="&E7;" id="1441" cx="19.93" rx="1.30" cy="22.83" transform="&E29;" /><text x="324.00" y="119.00" id="1442" transform="&E9;" style="fill:rgb(0,0,0);clip-path:url(#1444_text_clipper);font-size:7.88pt;opacity:1;font-family:Microsoft Sans Serif;stroke:none;"><tspan id="1446" dy="7.88pt">Negate</tspan></text><line x1="240.00" x2="278.00" y2="19.00" id="1448" style="&E1;" y1="19.00" /><ellipse ry="15.00" style="&E3;" id="1449" cx="15.00" rx="15.00" cy="15.00" transform="&E31;" /><path style="&E5;" id="1450" transform="&E31;" d="&E6;" /><ellipse ry="2.75" style="&E7;" id="1451" cx="10.92" rx="2.75" cy="10.96" transform="&E31;" /><text x="244.00" y="119.00" id="1452" transform="&E9;" style="fill:rgb(0,0,0);clip-path:url(#1454_text_clipper);font-size:7.88pt;opacity:1;font-family:Microsoft Sans Serif;stroke:none;"><tspan id="1456" dy="7.88pt">Centroid</tspan></text><line x1="160.00" x2="198.00" y2="19.00" id="1458" style="&E1;" y1="19.00" /><ellipse ry="15.00" style="&E3;" id="1459" cx="15.00" rx="15.00" cy="15.00" transform="&E33;" /><path style="&E5;" id="1460" transform="&E33;" d="&E6;" /><ellipse ry="2.75" style="&E7;" id="1461" cx="10.92" rx="2.75" cy="10.96" transform="&E33;" /><text x="164.00" y="119.00" id="1462" transform="&E9;" style="fill:rgb(0,0,0);clip-path:url(#1464_text_clipper);font-size:7.88pt;opacity:1;font-family:Microsoft Sans Serif;stroke:none;"><tspan id="1466" dy="7.88pt">HsvThreshold</tspan></text><line x1="80.00" x2="118.00" y2="19.00" id="1468" style="&E1;" y1="19.00" /><ellipse ry="15.00" style="&E3;" id="1469" cx="15.00" rx="15.00" cy="15.00" transform="&E35;" /><path style="&E5;" id="1470" transform="&E35;" d="&E6;" /><ellipse ry="2.75" style="&E7;" id="1471" cx="10.92" rx="2.75" cy="10.96" transform="&E35;" /><text x="84.00" y="119.00" id="1472" transform="&E9;" style="fill:rgb(0,0,0);clip-path:url(#1474_text_clipper);font-size:7.88pt;opacity:1;font-family:Microsoft Sans Serif;stroke:none;"><tspan id="1476" dy="7.88pt">ConvertColor</tspan></text><path style="&E16;" id="1478" transform="&E37;" d="&E18;" /><ellipse ry="15.00" style="&E19;" id="1479" cx="15.00" rx="15.00" cy="15.00" transform="&E37;" /><path style="&E5;" id="1480" transform="&E37;" d="M 23.75 9.1 19.5587 11.5211 19.5587 18.3937 23.75 20.8147 z " /><path style="&E5;" id="1481" transform="&E37;" d="M 8.6927 9.2 15.7194 9.2 C 17.19 9.2 18.3739 10.4337 18.3739 11.9661 L 18.3739 17.8234 C 18.3739 19.3558 17.19 20.5893 15.7194 20.5893 L 8.692701 20.5893 C 7.222101 20.5893 6.038201 19.3558 6.038201 17.8234 L 6.038201 11.9661 C 6.038201 10.4337 7.222101 9.199999 8.692701 9.199999 z " /><text x="4.00" y="39.00" id="1482" transform="&E9;" style="fill:rgb(0,0,0);clip-path:url(#1484_text_clipper);font-size:7.88pt;opacity:1;font-family:Microsoft Sans Serif;stroke:none;"><tspan id="1486" dy="7.88pt">Camera</tspan></text><text x="4.00" y="50.88" id="1488" transform="&E9;" style="fill:rgb(0,0,0);clip-path:url(#1490_text_clipper);font-size:7.88pt;opacity:1;font-family:Microsoft Sans Serif;stroke:none;"><tspan id="1492" dy="7.88pt">Capture</tspan></text></g><defs id="clips_hatches_and_gradients"><clipPath id="1383_text_clipper"><rect id="1384" width="57.05" height="13.20" x="724.00" y="39.00" /></clipPath><clipPath id="1394_text_clipper"><rect id="1395" width="52.77" height="13.20" x="644.00" y="119.00" /></clipPath><clipPath id="1405_text_clipper"><rect id="1406" width="52.77" height="26.39" x="564.00" y="119.00" /></clipPath><clipPath id="1411_text_clipper"><rect id="1412" width="52.77" height="26.39" x="564.00" y="130.88" /></clipPath><clipPath id="1422_text_clipper"><rect id="1423" width="57.12" height="13.20" x="484.00" y="119.00" /></clipPath><clipPath id="1433_text_clipper"><rect id="1434" width="22.74" height="13.20" x="404.00" y="119.00" /></clipPath><clipPath id="1444_text_clipper"><rect id="1445" width="38.37" height="13.20" x="324.00" y="119.00" /></clipPath><clipPath id="1454_text_clipper"><rect id="1455" width="44.43" height="13.20" x="244.00" y="119.00" /></clipPath><clipPath id="1464_text_clipper"><rect id="1465" width="70.28" height="13.20" x="164.00" y="119.00" /></clipPath><clipPath id="1474_text_clipper"><rect id="1475" width="67.26" height="13.20" x="84.00" y="119.00" /></clipPath><clipPath id="1484_text_clipper"><rect id="1485" width="41.97" height="26.39" x="4.00" y="39.00" /></clipPath><clipPath id="1490_text_clipper"><rect id="1491" width="41.97" height="26.39" x="4.00" y="50.88" /></clipPath></defs></svg>