<?xml version="1.0" standalone="yes"?><!DOCTYPE svg PUBLIC "-//W3C//DTD SVG 1.1//EN" "http://www.w3.org/Graphics/SVG/1.1/DTD/svg11.dtd"[
<!ENTITY E18 'matrix(1.00 0.00 0.00 1.00 84.00 4.00 ) '><!ENTITY E13 'matrix(1.00 0.00 0.00 1.00 0.00 0.00 ) '><!ENTITY E5 'stroke:none;opacity:1;fill:rgb(155,91,179);'><!ENTITY E7 'stroke:none;fill-rule:evenodd;opacity:1;fill:rgb(255,255,255);'><!ENTITY E3 'stroke:rgb(169,169,169);fill:none;stroke-linecap:butt;stroke-miterlimit:9;opacity:1;stroke-width:2;stroke-linejoin:miter;'><!ENTITY E25 'stroke:none;opacity:1;fill:rgb(91,178,126);'><!ENTITY E1 'stroke:rgb(169,169,169);fill:none;stroke-linecap:butt;stroke-miterlimit:9;opacity:1;stroke-width:1;stroke-linejoin:miter;'><!ENTITY E28 'matrix(1.00 0.00 0.00 1.00 4.00 4.00 ) '><!ENTITY E4 'matrix(1.00 0.00 0.00 1.00 164.00 4.00 ) '><!ENTITY E24 'matrix(1.00 0.00 0.00 1.00 84.00 84.00 ) '><!ENTITY E6 'M 11.656 8.2 11.99975 8.7 16.31225 14.7937 11.65605 21.4187 11.28105 21.9187 14.74985 21.9187 14.8436 21.7624 17.9998 17.0124 18.46855 17.7 21.15605 21.7624 21.2498 21.9187 24.7498 21.9187 24.40605 21.4187 19.65605 14.6687 24.06225 8.699997 24.406 8.199997 20.9998 8.199997 20.90605 8.324997 18.68725 11.4187 C 18.46251 11.7285 18.22333 12.1062 17.9685 12.4812 17.77046 12.1547 17.58677 11.8424 17.31225 11.4187 L 15.28105 8.356197 15.1873 8.199997 11.6561 8.199997 z '><!ENTITY E14 'matrix(1.00 0.00 0.00 1.00 164.00 84.00 ) '><!ENTITY E2 'M 10.158 33.2 C 3.4054 31.7591 -1.861 26.4692 -3.271 19.71 '><!ENTITY E9 'stroke:rgb(255,255,255);fill:none;stroke-linecap:butt;stroke-miterlimit:9;opacity:1;stroke-width:1.2496;stroke-linejoin:miter;'><!ENTITY E15 'M 23.75 9.1 19.5587 11.5211 19.5587 18.3937 23.75 20.8147 z '><!ENTITY E23 'M 31.179 5.2 C 34.9985 11.0918 34.9814 18.682 31.13552 24.557 '><!ENTITY E16 'M 8.6927 9.2 15.7194 9.2 C 17.19 9.2 18.3739 10.4337 18.3739 11.9661 L 18.3739 17.8234 C 18.3739 19.3558 17.19 20.5893 15.7194 20.5893 L 8.692701 20.5893 C 7.222101 20.5893 6.038201 19.3558 6.038201 17.8234 L 6.038201 11.9661 C 6.038201 10.4337 7.222101 9.199999 8.692701 9.199999 z '>
]><svg width="227.9743" height="132.8252" id="SvgGdi_output" xmlns="http://www.w3.org/2000/svg" xmlns:xlink="http://www.w3.org/1999/xlink"><rect id="background" height="100.00%" style="fill:rgb(255,255,255);" width="100.00%" y="0.00" x="0.00" /><g style="shape-rendering:auto;" id="root_group"><line y1="19.00" style="&E1;" id="54" x2="160.00" y2="19.00" x1="118.00" /><line y1="99.00" style="&E1;" id="55" x2="160.00" y2="99.00" x1="118.00" /><line y1="19.00" style="&E1;" id="56" x2="80.00" y2="19.00" x1="38.00" /><path d="&E2;" style="&E3;" transform="&E4;" id="57" /><ellipse id="58" cy="15.00" cx="15.00" transform="&E4;" rx="15.00" ry="15.00" style="&E5;" /><path d="&E6;" style="&E7;" transform="&E4;" id="59" /><path style="&E9;" transform="&E4;" id="60" d="M 7.8593 10.494 8.8954 9.65137 13.0189 14.72177 11.9886 15.5597 " /><path style="&E9;" transform="&E4;" id="61" d="M 5.1002 16.975 7.6877 14.8707 " /><path style="&E7;" transform="&E4;" id="62" d="M 8.8501 16.342 6.484699 13.4335 10.1863 12.8393 9.518199 14.5907 z " /><text id="63" transform="&E13;" x="164.00px" y="39.00px" style="stroke:none;clip-path:url(#65_text_clipper);font-family:Microsoft Sans Serif;fill:rgb(0,0,0);font-size:8.25pt;opacity:1;"><tspan dy="8.25pt" id="67">Images</tspan></text><path d="&E2;" style="&E3;" transform="&E14;" id="69" /><ellipse id="70" cy="15.00" cx="15.00" transform="&E14;" rx="15.00" ry="15.00" style="&E5;" /><path d="&E15;" style="&E7;" transform="&E14;" id="71" /><path d="&E16;" style="&E7;" transform="&E14;" id="72" /><text id="73" transform="&E13;" x="164.00px" y="119.00px" style="stroke:none;clip-path:url(#75_text_clipper);font-family:Microsoft Sans Serif;fill:rgb(0,0,0);font-size:8.25pt;opacity:1;"><tspan dy="8.25pt" id="77">VideoWriter</tspan></text><ellipse id="79" cy="15.00" cx="15.00" transform="&E18;" rx="15.00" ry="15.00" style="stroke:none;opacity:1;fill:rgb(68,154,223);" /><path style="&E7;" transform="&E18;" id="80" d="M 18.422 13 13.4357 18.5006 10.8556 15.9868 6.500101 20.5001 23.9571 20.48582 z " /><ellipse id="81" cy="10.96" cx="10.92" transform="&E18;" rx="2.75" ry="2.75" style="stroke:none;opacity:1;fill:rgb(255,255,255);" /><text id="82" transform="&E13;" x="84.00px" y="39.00px" style="stroke:none;clip-path:url(#84_text_clipper);font-family:Microsoft Sans Serif;fill:rgb(0,0,0);font-size:8.25pt;opacity:1;"><tspan dy="8.25pt" id="86">Grayscale</tspan></text><path d="&E23;" style="&E3;" transform="&E24;" id="88" /><ellipse id="89" cy="15.00" cx="15.00" transform="&E24;" rx="15.00" ry="15.00" style="&E25;" /><path style="&E7;" transform="&E24;" id="90" d="M 4.4028 13 4.93347 11.3266 C 6.15637 11.7667 7.04467 12.1477 7.598371 12.4698 7.45224 11.0476 7.37533 10.0696 7.36764 9.5352 L 9.040441 9.5352 C 9.017365 10.3131 8.92891 11.2873 8.775101 12.4581 9.567261 12.0495 10.4748 11.6723 11.4977 11.3266 L 12.02837 13 C 11.05162 13.3302 10.09407 13.5502 9.155771 13.6601 9.624911 14.0766 10.28637 14.819 11.14007 15.8877 L 9.755671 16.8894 C 9.30959 16.2687 8.782761 15.4241 8.175171 14.3554 7.606041 15.4633 7.106171 16.308 6.675471 16.8894 L 5.314171 15.8877 C 6.206311 14.7642 6.844671 14.0216 7.229171 13.6601 6.237041 13.4637 5.294871 13.2437 4.402771 13 z " /><path d="&E6;" style="&E7;" transform="&E24;" id="91" /><text id="92" transform="&E13;" x="84.00px" y="119.00px" style="stroke:none;clip-path:url(#94_text_clipper);font-family:Microsoft Sans Serif;fill:rgb(0,0,0);font-size:8.25pt;opacity:1;"><tspan dy="8.25pt" id="96">Images</tspan></text><path d="&E23;" style="&E3;" transform="&E28;" id="98" /><ellipse id="99" cy="15.00" cx="15.00" transform="&E28;" rx="15.00" ry="15.00" style="&E25;" /><path d="&E15;" style="&E7;" transform="&E28;" id="100" /><path d="&E16;" style="&E7;" transform="&E28;" id="101" /><text id="102" transform="&E13;" x="4.00px" y="39.00px" style="stroke:none;clip-path:url(#104_text_clipper);font-family:Microsoft Sans Serif;fill:rgb(0,0,0);font-size:8.25pt;opacity:1;"><tspan dy="8.25pt" id="106">Camera</tspan></text><text id="108" transform="&E13;" x="4.00px" y="51.45px" style="stroke:none;clip-path:url(#110_text_clipper);font-family:Microsoft Sans Serif;fill:rgb(0,0,0);font-size:8.25pt;opacity:1;"><tspan dy="8.25pt" id="112">Capture</tspan></text></g><defs id="clips_hatches_and_gradients"><clipPath id="65_text_clipper"><rect x="164.00" y="39.00" width="40.82" height="13.83" id="66" /></clipPath><clipPath id="75_text_clipper"><rect x="164.00" y="119.00" width="62.97" height="13.83" id="76" /></clipPath><clipPath id="84_text_clipper"><rect x="84.00" y="39.00" width="54.74" height="13.83" id="85" /></clipPath><clipPath id="94_text_clipper"><rect x="84.00" y="119.00" width="40.82" height="13.83" id="95" /></clipPath><clipPath id="104_text_clipper"><rect x="4.00" y="39.00" width="43.97" height="27.65" id="105" /></clipPath><clipPath id="110_text_clipper"><rect x="4.00" y="51.45" width="43.97" height="27.65" id="111" /></clipPath></defs></svg>