<?xml version="1.0" standalone="yes"?><!DOCTYPE svg PUBLIC "-//W3C//DTD SVG 1.1//EN" "http://www.w3.org/Graphics/SVG/1.1/DTD/svg11.dtd"[
<!ENTITY E16 'stroke:none;opacity:1;fill:rgb(68,154,223);'><!ENTITY E13 'matrix(1.00 0.00 0.00 1.00 0.00 0.00 ) '><!ENTITY E31 'matrix(1.00 0.00 0.00 1.00 84.00 84.00 ) '><!ENTITY E8 'stroke:none;fill-rule:evenodd;opacity:1;fill:rgb(255,255,255);'><!ENTITY E4 'stroke:rgb(169,169,169);fill:none;stroke-linecap:butt;stroke-miterlimit:9;opacity:1;stroke-width:2;stroke-linejoin:miter;'><!ENTITY E22 'stroke:none;opacity:1;fill:rgb(91,178,126);'><!ENTITY E18 'stroke:rgb(255,255,255);fill:none;stroke-linecap:butt;stroke-miterlimit:9;opacity:1;stroke-width:2;stroke-linejoin:miter;'><!ENTITY E1 'stroke:rgb(169,169,169);fill:none;stroke-linecap:butt;stroke-miterlimit:9;opacity:1;stroke-width:1;stroke-linejoin:miter;'><!ENTITY E7 'M 15.262 7.0869 C 15.0337 7.0969 14.80894 7.1829 14.63699 7.3336 L 10.40169 10.9932 6.50359 10.9932 C 5.98053 10.9932 5.50289 11.4652 5.50029 11.9883 L 5.50029 17.0131 C 5.4986 17.5389 5.97781 18.0181 6.50359 18.0164 L 10.34409 18.0164 14.63699 21.7336 C 15.21304 22.23 16.28929 21.7336 16.28999 20.977 L 16.28999 8.089999 C 16.29189 7.555899 15.79594 7.071799 15.26199 7.086699 z '><!ENTITY E10 'M 21.92 7.5284 C 23.4568 9.4572 24.379 11.9073 24.379 14.5636 24.379 17.2016 23.46877 19.6367 21.9493 21.5597 21.12371 22.6053 19.5553 21.367 20.3809 20.3214 21.6336 18.736 22.3809 16.743 22.3809 14.5636 22.3809 12.3686 21.62445 10.3628 20.3575 8.7726 19.81921 8.1166 20.29216 7.1306 21.1407 7.1398 21.44622 7.1398 21.73332 7.2865 21.92 7.5284 z '><!ENTITY E11 'stroke:none;opacity:1;fill:rgb(255,255,255);'><!ENTITY E26 'matrix(1.00 0.00 0.00 1.00 244.00 84.00 ) '><!ENTITY E9 'M 19.242 11.136 C 19.85996 12.1101 20.22442 13.2733 20.22442 14.515 20.22442 15.7378 19.86821 16.8827 19.26739 17.847 18.57312 19.02 16.82469 17.93 17.57209 16.7903 17.98656 16.1252 18.22639 15.3523 18.22639 14.515 18.22639 13.663 17.98027 12.8775 17.55451 12.2064 17.11611 11.5347 17.60803 10.6463 18.40998 10.6614 18.75002 10.6714 19.06352 10.8465 19.24201 11.136 z '><!ENTITY E15 'matrix(1.00 0.00 0.00 1.00 324.00 4.00 ) '><!ENTITY E21 'matrix(1.00 0.00 0.00 1.00 244.00 4.00 ) '><!ENTITY E29 'matrix(1.00 0.00 0.00 1.00 164.00 84.00 ) '><!ENTITY E36 'matrix(1.00 0.00 0.00 1.00 4.00 84.00 ) '><!ENTITY E5 'matrix(1.00 0.00 0.00 1.00 404.00 4.00 ) '><!ENTITY E17 'M 20.824 23.115 20.824 7.098999 M 17.3572 17.48 17.3572 12.7339 M 13.8904 21.2046 13.8904 9.009602 M 10.4236 18.6248 10.4236 11.5896 M 6.9568 16.3923 6.9568 13.822 '><!ENTITY E20 'M 31.179 5.2 C 34.9985 11.0918 34.9814 18.682 31.13552 24.557 '>
]><svg width="454.7077" height="132.8252" id="SvgGdi_output" xmlns="http://www.w3.org/2000/svg" xmlns:xlink="http://www.w3.org/1999/xlink"><rect id="background" height="100.00%" style="fill:rgb(255,255,255);" width="100.00%" y="0.00" x="0.00" /><g style="shape-rendering:auto;" id="root_group"><line y1="19.00" style="&E1;" id="67" x2="400.00" y2="19.00" x1="358.00" /><line y1="19.00" style="&E1;" id="68" x2="320.00" y2="19.00" x1="278.00" /><line y1="99.00" id="69" x2="320.00" y2="19.00" x1="278.00" style="stroke-dasharray:4.00 2.00 ;stroke:rgb(169,169,169);fill:none;stroke-linecap:butt;stroke-miterlimit:9;opacity:1;stroke-width:1;stroke-linejoin:miter;" /><line y1="99.00" style="&E1;" id="70" x2="240.00" y2="99.00" x1="198.00" /><line y1="99.00" style="&E1;" id="71" x2="160.00" y2="99.00" x1="118.00" /><line y1="99.00" style="&E1;" id="72" x2="80.00" y2="99.00" x1="38.00" /><path style="&E4;" transform="&E5;" id="73" d="M 10.158 33.2 C 3.4054 31.7591 -1.861 26.4692 -3.271 19.71 " /><ellipse id="74" cy="15.00" cx="15.00" transform="&E5;" rx="15.00" ry="15.00" style="stroke:none;opacity:1;fill:rgb(155,91,179);" /><path d="&E7;" style="&E8;" transform="&E5;" id="75" /><path d="&E9;" style="&E8;" transform="&E5;" id="76" /><path d="&E10;" style="&E8;" transform="&E5;" id="77" /><ellipse id="78" cy="19.00" cx="404.00" rx="3.00" ry="3.00" style="&E4;" /><ellipse id="79" cy="19.00" cx="404.00" rx="3.00" ry="3.00" style="&E11;" /><text id="80" transform="&E13;" x="404.00px" y="39.00px" style="stroke:none;clip-path:url(#82_text_clipper);font-family:Microsoft Sans Serif;fill:rgb(0,0,0);font-size:8.25pt;opacity:1;"><tspan dy="8.25pt" id="84">Audio</tspan></text><text id="86" transform="&E13;" x="404.00px" y="51.45px" style="stroke:none;clip-path:url(#88_text_clipper);font-family:Microsoft Sans Serif;fill:rgb(0,0,0);font-size:8.25pt;opacity:1;"><tspan dy="8.25pt" id="90">Playback</tspan></text><ellipse id="92" cy="15.00" cx="15.00" transform="&E15;" rx="15.00" ry="15.00" style="&E16;" /><path d="&E17;" style="&E18;" transform="&E15;" id="93" /><text id="94" transform="&E13;" x="324.00px" y="39.00px" style="stroke:none;clip-path:url(#96_text_clipper);font-family:Microsoft Sans Serif;fill:rgb(0,0,0);font-size:8.25pt;opacity:1;"><tspan dy="8.25pt" id="98">ConvertScale</tspan></text><path d="&E20;" style="&E4;" transform="&E21;" id="100" /><ellipse id="101" cy="15.00" cx="15.00" transform="&E21;" rx="15.00" ry="15.00" style="&E22;" /><path d="&E7;" style="&E8;" transform="&E21;" id="102" /><path d="&E9;" style="&E8;" transform="&E21;" id="103" /><path d="&E10;" style="&E8;" transform="&E21;" id="104" /><ellipse id="105" cy="19.00" cx="244.00" rx="3.00" ry="3.00" style="&E4;" /><ellipse id="106" cy="19.00" cx="244.00" rx="3.00" ry="3.00" style="&E11;" /><text id="107" transform="&E13;" x="244.00px" y="39.00px" style="stroke:none;clip-path:url(#109_text_clipper);font-family:Microsoft Sans Serif;fill:rgb(0,0,0);font-size:8.25pt;opacity:1;"><tspan dy="8.25pt" id="111">AudioReader</tspan></text><path transform="&E26;" id="113" d="M 15 0 C 15.40124 0 15.79355 0 16.1868 0.032679 L 17.4764 1.671279 C 18.19501 1.803959 18.878 1.976879 19.5521 2.217729 L 21.4286 1.483419 C 22.13968 1.823279 22.8289 2.226899 23.4726 2.670219 L 23.8493 4.621219 C 24.39461 5.086599 24.9133 5.605469 25.3788 6.150719 L 27.3298 6.494379 C 27.77262 7.137679 28.17707 7.860779 28.5166 8.57128 L 27.74584 10.44788 C 27.98674 11.12204 28.19601 11.80508 28.32852 12.52348 L 29.96712 13.81308 C 29.99807 14.2062 30.00009 14.59888 30.00009 14.99988 30.00009 15.39224 29.99671 15.76908 29.96712 16.15388 L 28.32852 17.43998 C 28.19832 18.14633 28.01721 18.85248 27.78226 19.51558 L 28.51657 21.42868 C 28.17593 22.14291 27.77461 22.82648 27.32977 23.47268 L 25.37877 23.81302 C 24.91321 24.35829 24.39455 24.87682 23.84927 25.34242 L 23.47257 27.32992 C 22.82847 27.77371 22.14007 28.17669 21.42857 28.51662 L 19.51567 27.74597 C 18.85121 27.98162 18.18377 28.19809 17.47627 28.32876 L 16.18677 29.93436 C 15.79348 29.965 15.40117 29.99982 14.99997 29.99982 14.59873 29.99982 14.17345 29.96607 13.78017 29.93436 L 12.55997 28.32876 C 11.86172 28.19999 11.14067 27.977 10.48427 27.74597 L 8.571372 28.51662 C 7.856242 28.17558 7.174472 27.7755 6.527372 27.32992 L 6.150662 25.30622 C 5.617232 24.84794 5.114162 24.34789 4.657562 23.81302 L 2.670162 23.47268 C 2.225282 22.82649 1.823962 22.14288 1.483362 21.42868 L 2.254122 19.51558 C 2.022912 18.85918 1.800192 18.13838 1.671442 17.43998 L 0.06584227 16.18678 C 0.03489427 15.79366 -9.272993E-05 15.4013 -9.272993E-05 14.99998 -9.272993E-05 14.59894 0.03489527 14.20625 0.06584227 13.81318 L 1.671442 12.52358 C 1.801892 11.81616 2.018542 11.14888 2.254122 10.48438 L 1.483362 8.571277 C 1.822922 7.860797 2.227392 7.137677 2.670162 6.494377 L 4.657562 6.150717 C 5.114192 5.615747 5.617242 5.115817 6.150662 4.657517 L 6.527372 2.670117 C 7.174102 2.224717 7.856672 1.824207 8.571372 1.483317 L 10.48427 2.217627 C 11.14757 1.982687 11.85387 1.801607 12.55997 1.671177 L 13.84607 0.0325768 C 14.23082 0.003004799 14.60761 -0.0001021996 14.99987 -0.0001021996 z " style="stroke:none;fill-rule:evenodd;opacity:1;fill:rgb(128,128,128);" /><path style="&E18;" transform="&E26;" id="114" d="M 16.849 10.062 23.4027 10.062 M 16.6038 19.6084 23.3505 19.6084 M 12.3075 17.1615 7.5719 21.8971 M 7.577335 17.152 12.31704 21.8917 M 6.564136 10.0047 13.30904 10.0047 M 9.936636 6.6288 9.936636 13.3806 " /><ellipse id="115" cy="16.33" cx="19.93" transform="&E26;" rx="1.30" ry="1.30" style="&E11;" /><ellipse id="116" cy="22.83" cx="19.93" transform="&E26;" rx="1.30" ry="1.30" style="&E11;" /><text id="117" transform="&E13;" x="244.00px" y="119.00px" style="stroke:none;clip-path:url(#119_text_clipper);font-family:Microsoft Sans Serif;fill:rgb(0,0,0);font-size:8.25pt;opacity:1;"><tspan dy="8.25pt" id="121">Scale</tspan></text><ellipse id="123" cy="15.00" cx="15.00" transform="&E29;" rx="15.00" ry="15.00" style="&E16;" /><path d="&E17;" style="&E18;" transform="&E29;" id="124" /><text id="125" transform="&E13;" x="164.00px" y="119.00px" style="stroke:none;clip-path:url(#127_text_clipper);font-family:Microsoft Sans Serif;fill:rgb(0,0,0);font-size:8.25pt;opacity:1;"><tspan dy="8.25pt" id="129">Rescale</tspan></text><ellipse id="131" cy="15.00" cx="15.00" transform="&E31;" rx="15.00" ry="15.00" style="&E16;" /><path style="&E8;" transform="&E31;" id="132" d="M 19.156 13.888 19.156 10.3647 19.156 6.841399 25.2585 10.3647 22.2072 12.1264 z " /><path style="&E8;" transform="&E31;" id="133" d="M 19.156 22.97 19.156 19.4467 19.156 15.9234 25.2585 19.4467 22.2072 21.2084 z " /><path style="&E18;" transform="&E31;" id="134" d="M 5.5001 19.484 10.6493 19.484 16.2743 10.2485 19.3728 10.2485 M 14.6769 17.1481 16.3089 19.4828 19.2202 19.4828 M 5.500199 10.2437 10.7586 10.2437 12.1652 12.8707 " /><text id="135" transform="&E13;" x="84.00px" y="119.00px" style="stroke:none;clip-path:url(#137_text_clipper);font-family:Microsoft Sans Serif;fill:rgb(0,0,0);font-size:8.25pt;opacity:1;"><tspan dy="8.25pt" id="139">X</tspan></text><path d="&E20;" style="&E4;" transform="&E36;" id="141" /><ellipse id="142" cy="15.00" cx="15.00" transform="&E36;" rx="15.00" ry="15.00" style="&E22;" /><path style="&E8;" transform="&E36;" id="143" d="M 8.5404 18.526 C 8.154759 18.14036 8.426559 17.3734 8.7512 17.0487 9.0693 16.7306 9.8857 16.65478 10.3397 17.03595 L 12.5301 18.80525 12.82094 9.664146 C 12.82094 9.305857 13.42471 8.739877 14.05254 8.739877 14.79871 8.739877 15.36764 9.316096 15.36764 9.695367 L 15.5586 15.04327 20.0645 16.74627 C 20.25033 16.81 20.49544 16.99536 20.49518 17.22225 L 20.49808 21.04985 19.11318 23.37955 19.11318 24.51755 13.23218 24.51755 13.23218 23.37955 z " /><path style="&E18;" transform="&E36;" id="144" d="M 10.482 12.156 C 9.063601 9.8878 10.57304 6.5688 13.2149 6.1474 15.8164 5.52346 18.4832 8.0098 18.0432 10.6485 L 17.97693 11.02591 " /><text id="145" transform="&E13;" x="4.00px" y="119.00px" style="stroke:none;clip-path:url(#147_text_clipper);font-family:Microsoft Sans Serif;fill:rgb(0,0,0);font-size:8.25pt;opacity:1;"><tspan dy="8.25pt" id="149">MouseMove</tspan></text></g><defs id="clips_hatches_and_gradients"><clipPath id="82_text_clipper"><rect x="404.00" y="39.00" width="49.71" height="27.65" id="83" /></clipPath><clipPath id="88_text_clipper"><rect x="404.00" y="51.45" width="49.71" height="27.65" id="89" /></clipPath><clipPath id="96_text_clipper"><rect x="324.00" y="39.00" width="71.74" height="13.83" id="97" /></clipPath><clipPath id="109_text_clipper"><rect x="244.00" y="39.00" width="69.86" height="13.83" id="110" /></clipPath><clipPath id="119_text_clipper"><rect x="244.00" y="119.00" width="32.07" height="13.83" id="120" /></clipPath><clipPath id="127_text_clipper"><rect x="164.00" y="119.00" width="44.66" height="13.83" id="128" /></clipPath><clipPath id="137_text_clipper"><rect x="84.00" y="119.00" width="11.22" height="13.83" id="138" /></clipPath><clipPath id="147_text_clipper"><rect x="4.00" y="119.00" width="65.38" height="13.83" id="148" /></clipPath></defs></svg>