<?xml version="1.0" encoding="UTF-8" standalone="no"?>
<svg
   width="533.4991"
   height="66.65038"
   id="SvgGdi_output"
   version="1.1"
   sodipodi:docname="language-subject-types.svg"
   inkscape:version="1.1.2 (b8e25be833, 2022-02-05)"
   xmlns:inkscape="http://www.inkscape.org/namespaces/inkscape"
   xmlns:sodipodi="http://sodipodi.sourceforge.net/DTD/sodipodi-0.dtd"
   xmlns="http://www.w3.org/2000/svg"
   xmlns:svg="http://www.w3.org/2000/svg">
  <sodipodi:namedview
     id="namedview105"
     pagecolor="#ffffff"
     bordercolor="#666666"
     borderopacity="1.0"
     inkscape:pageshadow="2"
     inkscape:pageopacity="0.0"
     inkscape:pagecheckerboard="0"
     showgrid="false"
     inkscape:zoom="21.758238"
     inkscape:cx="446.03796"
     inkscape:cy="13.512124"
     inkscape:window-width="2560"
     inkscape:window-height="1334"
     inkscape:window-x="-11"
     inkscape:window-y="-11"
     inkscape:window-maximized="1"
     inkscape:current-layer="SvgGdi_output" />
  <rect
     id="background"
     height="100%"
     style="fill:#ffffff"
     width="100%"
     y="0.045959603"
     x="1.0570709" />
  <path
     d="M 494.158,37.2 C 487.4054,35.7591 482.139,30.4692 480.729,23.71"
     style="fill:none;stroke:#a9a9a9;stroke-width:2;stroke-linecap:butt;stroke-linejoin:miter;stroke-miterlimit:9;shape-rendering:auto"
     id="74" />
  <circle
     id="75"
     cy="19"
     cx="499"
     style="fill:#9b5bb3;stroke:none;shape-rendering:auto"
     r="15" />
  <path
     d="m 488.4028,17 0.53067,-1.6734 c 1.2229,0.4401 2.1112,0.8211 2.6649,1.1432 -0.14613,-1.4222 -0.22304,-2.4002 -0.23073,-2.9346 h 1.6728 c -0.0231,0.7779 -0.11153,1.7521 -0.26534,2.9229 0.79216,-0.4086 1.6997,-0.7858 2.7226,-1.1315 L 496.02837,17 c -0.97675,0.3302 -1.9343,0.5502 -2.8726,0.6601 0.46914,0.4165 1.1306,1.1589 1.9843,2.2276 l -1.3844,1.0017 c -0.44608,-0.6207 -0.97291,-1.4653 -1.5805,-2.534 -0.56913,1.1079 -1.069,1.9526 -1.4997,2.534 l -1.3613,-1.0017 c 0.89214,-1.1235 1.5305,-1.8661 1.915,-2.2276 -0.99213,-0.1964 -1.9343,-0.4164 -2.8264,-0.6601 z"
     style="fill:#ffffff;fill-rule:evenodd;stroke:none;shape-rendering:auto"
     id="76" />
  <path
     d="m 495.656,12.2 0.34375,0.5 4.3125,6.0937 -4.6562,6.625 -0.375,0.5 h 3.4688 l 0.0937,-0.1563 3.1562,-4.75 0.46875,0.6876 2.6875,4.0624 0.0937,0.1563 h 3.5 l -0.34375,-0.5 -4.75,-6.75 4.4062,-5.968703 0.34375,-0.5 h -3.4062 l -0.0937,0.125 -2.2188,3.093703 c -0.22474,0.3098 -0.46392,0.6875 -0.71875,1.0625 -0.19804,-0.3265 -0.38173,-0.6388 -0.65625,-1.0625 l -2.0312,-3.062503 -0.0937,-0.1562 h -3.5312 z"
     style="fill:#ffffff;fill-rule:evenodd;stroke:none;shape-rendering:auto"
     id="77" />
  <text
     id="80"
     x="484"
     y="39"
     style="font-size:11px;font-family:'Microsoft Sans Serif';fill:#000000;stroke:none;shape-rendering:auto"
     clip-path="url(#82_text_clipper)"><tspan
       dy="8.25pt"
       id="84">Multicast</tspan></text>
  <text
     id="86"
     x="484"
     y="51.450001"
     style="font-size:11px;font-family:'Microsoft Sans Serif';fill:#000000;stroke:none;shape-rendering:auto"
     clip-path="url(#88_text_clipper)"><tspan
       dy="8.25pt"
       id="90">Subject</tspan></text>
  <path
     style="fill:none;stroke:#a9a9a9;stroke-width:2;stroke-linecap:butt;stroke-linejoin:miter;stroke-miterlimit:9;shape-rendering:auto"
     id="92"
     d="m 435.179,9.2 c 3.8195,5.8918 3.8024,13.482 -0.0435,19.357" />
  <circle
     id="93"
     cy="19"
     cx="419"
     style="fill:#5bb27e;stroke:none;shape-rendering:auto"
     r="15" />
  <path
     d="m 408.4028,17 0.53067,-1.6734 c 1.2229,0.4401 2.1112,0.8211 2.6649,1.1432 -0.14613,-1.4222 -0.22304,-2.4002 -0.23073,-2.9346 h 1.6728 c -0.0231,0.7779 -0.11153,1.7521 -0.26534,2.9229 0.79216,-0.4086 1.6997,-0.7858 2.7226,-1.1315 L 416.02837,17 c -0.97675,0.3302 -1.9343,0.5502 -2.8726,0.6601 0.46914,0.4165 1.1306,1.1589 1.9843,2.2276 l -1.3844,1.0017 c -0.44608,-0.6207 -0.97291,-1.4653 -1.5805,-2.534 -0.56913,1.1079 -1.069,1.9526 -1.4997,2.534 l -1.3613,-1.0017 c 0.89214,-1.1235 1.5305,-1.8661 1.915,-2.2276 -0.99213,-0.1964 -1.9343,-0.4164 -2.8264,-0.6601 z"
     style="fill:#ffffff;fill-rule:evenodd;stroke:none;shape-rendering:auto"
     id="94" />
  <path
     d="m 415.656,12.2 0.34375,0.5 4.3125,6.0937 -4.6562,6.625 -0.375,0.5 h 3.4688 l 0.0937,-0.1563 3.1562,-4.75 0.46875,0.6876 2.6875,4.0624 0.0937,0.1563 h 3.5 l -0.34375,-0.5 -4.75,-6.75 4.4062,-5.968703 0.34375,-0.5 h -3.4062 l -0.0937,0.125 -2.2188,3.093703 c -0.22474,0.3098 -0.46392,0.6875 -0.71875,1.0625 -0.19804,-0.3265 -0.38173,-0.6388 -0.65625,-1.0625 l -2.0312,-3.062503 -0.0937,-0.1562 h -3.5312 z"
     style="fill:#ffffff;fill-rule:evenodd;stroke:none;shape-rendering:auto"
     id="95" />
  <text
     id="96"
     x="404"
     y="39"
     style="font-size:11px;font-family:'Microsoft Sans Serif';fill:#000000;stroke:none;shape-rendering:auto"
     clip-path="url(#98_text_clipper)"><tspan
       dy="8.25pt"
       id="100">Subscribe</tspan></text>
  <text
     id="102"
     x="404"
     y="51.450001"
     style="font-size:11px;font-family:'Microsoft Sans Serif';fill:#000000;stroke:none;shape-rendering:auto"
     clip-path="url(#104_text_clipper)"><tspan
       dy="8.25pt"
       id="106">Subject</tspan></text>
  <path
     d="M 334.158,37.2 C 327.4054,35.7591 322.139,30.4692 320.729,23.71"
     style="fill:none;stroke:#a9a9a9;stroke-width:2;stroke-linecap:butt;stroke-linejoin:miter;stroke-miterlimit:9;shape-rendering:auto"
     id="108" />
  <circle
     id="109"
     cy="19"
     cx="339"
     style="fill:#9b5bb3;stroke:none;shape-rendering:auto"
     r="15" />
  <path
     d="m 335.656,12.2 0.34375,0.5 4.3125,6.0937 -4.6562,6.625 -0.375,0.5 h 3.4688 l 0.0937,-0.1563 3.1562,-4.75 0.46875,0.6876 2.6875,4.0624 0.0937,0.1563 h 3.5 l -0.34375,-0.5 -4.75,-6.75 4.4062,-5.968703 0.34375,-0.5 h -3.4062 l -0.0937,0.125 -2.2188,3.093703 c -0.22474,0.3098 -0.46392,0.6875 -0.71875,1.0625 -0.19804,-0.3265 -0.38173,-0.6388 -0.65625,-1.0625 l -2.0312,-3.062503 -0.0937,-0.1562 h -3.5312 z"
     style="fill:#ffffff;fill-rule:evenodd;stroke:none;shape-rendering:auto"
     id="110" />
  <path
     d="m 330.1087,14.559 h 4.4228 c 0.16519,0 0.29818,0.13299 0.29818,0.29818 0,0.16519 -0.13299,0.29818 -0.29818,0.29818 h -4.4228 c -0.16519,0 -0.29818,-0.13299 -0.29818,-0.29818 0,-0.16519 0.13299,-0.29818 0.29818,-0.29818 z m 0.0385,2.2683 h 4.4228 c 0.16519,0 0.29818,0.13299 0.29818,0.29818 0,0.16519 -0.13299,0.29818 -0.29818,0.29818 h -4.4228 c -0.16519,0 -0.29818,-0.13299 -0.29818,-0.29818 0,-0.16519 0.13299,-0.29818 0.29818,-0.29818 z m 0,2.2683 h 4.4228 c 0.16519,0 0.29818,0.13299 0.29818,0.29818 0,0.16519 -0.13299,0.29818 -0.29818,0.29818 h -4.4228 c -0.16519,0 -0.29818,-0.13299 -0.29818,-0.29818 0,-0.16519 0.13299,-0.29818 0.29818,-0.29818 z"
     style="fill:#ffffff;fill-rule:evenodd;stroke:none;shape-rendering:auto"
     id="111" />
  <path
     d="m 330.1087,14.559 h 4.4228 c 0.16519,0 0.29818,0.13299 0.29818,0.29818 0,0.16519 -0.13299,0.29818 -0.29818,0.29818 h -4.4228 c -0.16519,0 -0.29818,-0.13299 -0.29818,-0.29818 0,-0.16519 0.13299,-0.29818 0.29818,-0.29818 z m 0.0385,2.2683 h 4.4228 c 0.16519,0 0.29818,0.13299 0.29818,0.29818 0,0.16519 -0.13299,0.29818 -0.29818,0.29818 h -4.4228 c -0.16519,0 -0.29818,-0.13299 -0.29818,-0.29818 0,-0.16519 0.13299,-0.29818 0.29818,-0.29818 z m 0,2.2683 h 4.4228 c 0.16519,0 0.29818,0.13299 0.29818,0.29818 0,0.16519 -0.13299,0.29818 -0.29818,0.29818 h -4.4228 c -0.16519,0 -0.29818,-0.13299 -0.29818,-0.29818 0,-0.16519 0.13299,-0.29818 0.29818,-0.29818 z"
     id="112"
     style="fill:none;stroke:#ffffff;stroke-width:0.86707;stroke-linecap:butt;stroke-linejoin:miter;stroke-miterlimit:9;shape-rendering:auto" />
  <text
     id="115"
     x="324"
     y="39"
     style="font-size:11px;font-family:'Microsoft Sans Serif';fill:#000000;stroke:none;shape-rendering:auto"
     clip-path="url(#117_text_clipper)"><tspan
       dy="8.25pt"
       id="119">Resource</tspan></text>
  <text
     id="121"
     x="324"
     y="51.450001"
     style="font-size:11px;font-family:'Microsoft Sans Serif';fill:#000000;stroke:none;shape-rendering:auto"
     clip-path="url(#123_text_clipper)"><tspan
       dy="8.25pt"
       id="125">Subject</tspan></text>
  <path
     d="M 254.158,37.2 C 247.4054,35.7591 242.139,30.4692 240.729,23.71"
     style="fill:none;stroke:#a9a9a9;stroke-width:2;stroke-linecap:butt;stroke-linejoin:miter;stroke-miterlimit:9;shape-rendering:auto"
     id="127" />
  <circle
     id="128"
     cy="19"
     cx="259"
     style="fill:#9b5bb3;stroke:none;shape-rendering:auto"
     r="15" />
  <path
     d="m 255.656,12.2 0.34375,0.5 4.3125,6.0937 -4.6562,6.625 -0.375,0.5 h 3.4688 l 0.0937,-0.1563 3.1562,-4.75 0.46875,0.6876 2.6875,4.0624 0.0937,0.1563 h 3.5 l -0.34375,-0.5 -4.75,-6.75 4.4062,-5.968703 0.34375,-0.5 h -3.4062 l -0.0937,0.125 -2.2188,3.093703 c -0.22474,0.3098 -0.46392,0.6875 -0.71875,1.0625 -0.19804,-0.3265 -0.38173,-0.6388 -0.65625,-1.0625 l -2.0312,-3.062503 -0.0937,-0.1562 h -3.5312 z"
     style="fill:#ffffff;fill-rule:evenodd;stroke:none;shape-rendering:auto"
     id="129" />
  <path
     id="130"
     d="m 255.351,17.1 c 0.0734,1.9467 -2.043,3.5165 -3.8842,2.8895 -1.884,-0.48977 -2.7834,-2.967 -1.6509,-4.5508 0.52982,-0.81489 1.4705,-1.3365 2.4421,-1.3545"
     style="fill:none;stroke:#ffffff;stroke-width:1.293;stroke-linecap:butt;stroke-linejoin:miter;stroke-miterlimit:9;shape-rendering:auto" />
  <path
     style="fill:#ffffff;fill-rule:evenodd;stroke:none;shape-rendering:auto"
     id="131"
     d="m 252.0275,16.161 v -3.8792 l 3.3595,1.9396 -1.6798,0.96984 z" />
  <text
     id="134"
     x="244"
     y="39"
     style="font-size:11px;font-family:'Microsoft Sans Serif';fill:#000000;stroke:none;shape-rendering:auto"
     clip-path="url(#136_text_clipper)"><tspan
       dy="8.25pt"
       id="138">Replay</tspan></text>
  <text
     id="140"
     x="244"
     y="51.450001"
     style="font-size:11px;font-family:'Microsoft Sans Serif';fill:#000000;stroke:none;shape-rendering:auto"
     clip-path="url(#142_text_clipper)"><tspan
       dy="8.25pt"
       id="144">Subject</tspan></text>
  <path
     d="M 174.158,37.2 C 167.4054,35.7591 162.139,30.4692 160.729,23.71"
     style="fill:none;stroke:#a9a9a9;stroke-width:2;stroke-linecap:butt;stroke-linejoin:miter;stroke-miterlimit:9;shape-rendering:auto"
     id="146" />
  <circle
     id="147"
     cy="19"
     cx="179"
     style="fill:#9b5bb3;stroke:none;shape-rendering:auto"
     r="15" />
  <path
     d="m 175.656,12.2 0.34375,0.5 4.3125,6.0937 -4.6562,6.625 -0.375,0.5 h 3.4688 l 0.0937,-0.1563 3.1562,-4.75 0.46875,0.6876 2.6875,4.0624 0.0937,0.1563 h 3.5 l -0.34375,-0.5 -4.75,-6.75 4.4062,-5.968703 0.34375,-0.5 h -3.4062 l -0.0937,0.125 -2.2188,3.093703 c -0.22474,0.3098 -0.46392,0.6875 -0.71875,1.0625 -0.19804,-0.3265 -0.38173,-0.6388 -0.65625,-1.0625 l -2.0312,-3.062503 -0.0937,-0.1562 h -3.5312 z"
     style="fill:#ffffff;fill-rule:evenodd;stroke:none;shape-rendering:auto"
     id="148" />
  <path
     style="fill:none;stroke:#ffffff;stroke-width:1.2496;stroke-linecap:butt;stroke-linejoin:miter;stroke-miterlimit:9;shape-rendering:auto"
     id="149"
     d="m 171.8593,14.494 1.0361,-0.84263 4.1235,5.0704 -1.0303,0.83793" />
  <path
     style="fill:none;stroke:#ffffff;stroke-width:1.2496;stroke-linecap:butt;stroke-linejoin:miter;stroke-miterlimit:9;shape-rendering:auto"
     id="150"
     d="m 169.1002,20.975 2.5875,-2.1043" />
  <path
     style="fill:#ffffff;fill-rule:evenodd;stroke:none;shape-rendering:auto"
     id="151"
     d="m 172.8501,20.342 -2.3654,-2.9085 3.7016,-0.5942 -0.6681,1.7514 z" />
  <text
     id="154"
     x="164"
     y="39"
     style="font-size:11px;font-family:'Microsoft Sans Serif';fill:#000000;stroke:none;shape-rendering:auto"
     clip-path="url(#156_text_clipper)"><tspan
       dy="8.25pt"
       id="158">Publish</tspan></text>
  <text
     id="160"
     x="164"
     y="51.450001"
     style="font-size:11px;font-family:'Microsoft Sans Serif';fill:#000000;stroke:none;shape-rendering:auto"
     clip-path="url(#162_text_clipper)"><tspan
       dy="8.25pt"
       id="164">Subject</tspan></text>
  <path
     d="M 94.158,37.2 C 87.4054,35.7591 82.139,30.4692 80.729,23.71"
     style="fill:none;stroke:#a9a9a9;stroke-width:2;stroke-linecap:butt;stroke-linejoin:miter;stroke-miterlimit:9;shape-rendering:auto"
     id="166" />
  <circle
     id="167"
     cy="19"
     cx="99"
     style="fill:#9b5bb3;stroke:none;shape-rendering:auto"
     r="15" />
  <path
     d="m 95.656,12.2 0.34375,0.5 4.3125,6.0937 -4.6562,6.625 -0.375,0.5 h 3.4688 l 0.09375,-0.1563 3.1562,-4.75 0.46875,0.6876 2.6875,4.0624 0.0937,0.1563 h 3.5 l -0.34375,-0.5 -4.75,-6.75 4.4062,-5.968703 0.34375,-0.5 h -3.4062 l -0.0937,0.125 -2.2188,3.093703 c -0.22474,0.3098 -0.46392,0.6875 -0.71875,1.0625 -0.19804,-0.3265 -0.38173,-0.6388 -0.65625,-1.0625 l -2.0312,-3.062503 -0.09375,-0.1562 h -3.5312 z"
     style="fill:#ffffff;fill-rule:evenodd;stroke:none;shape-rendering:auto"
     id="168" />
  <circle
     id="169"
     cy="16.779999"
     cx="92.790001"
     style="fill:#ffffff;stroke:none;shape-rendering:auto"
     r="3" />
  <text
     id="172"
     x="84"
     y="39"
     style="font-size:11px;font-family:'Microsoft Sans Serif';fill:#000000;stroke:none;shape-rendering:auto"
     clip-path="url(#174_text_clipper)"><tspan
       dy="8.25pt"
       id="176">Behavior</tspan></text>
  <text
     id="178"
     x="84"
     y="51.450001"
     style="font-size:11px;font-family:'Microsoft Sans Serif';fill:#000000;stroke:none;shape-rendering:auto"
     clip-path="url(#180_text_clipper)"><tspan
       dy="8.25pt"
       id="182">Subject</tspan></text>
  <path
     d="M 14.158,37.2 C 7.4054,35.7591 2.139,30.4692 0.729,23.71"
     style="fill:none;stroke:#a9a9a9;stroke-width:2;stroke-linecap:butt;stroke-linejoin:miter;stroke-miterlimit:9;shape-rendering:auto"
     id="184" />
  <circle
     id="185"
     cy="19"
     cx="19"
     style="fill:#9b5bb3;stroke:none;shape-rendering:auto"
     r="15" />
  <path
     d="m 15.656,12.2 0.34375,0.5 4.3125,6.0937 -4.6562,6.625 -0.375,0.5 h 3.4688 l 0.09375,-0.1563 3.1562,-4.75 0.46875,0.6876 2.6875,4.0624 0.09375,0.1563 h 3.5 l -0.34375,-0.5 -4.75,-6.75 4.4062,-5.968703 0.34375,-0.5 h -3.4062 l -0.09375,0.125 -2.2188,3.093703 c -0.22474,0.3098 -0.46392,0.6875 -0.71875,1.0625 -0.19804,-0.3265 -0.38173,-0.6388 -0.65625,-1.0625 l -2.0312,-3.062503 -0.09375,-0.1562 h -3.5312 z"
     style="fill:#ffffff;fill-rule:evenodd;stroke:none;shape-rendering:auto"
     id="186" />
  <path
     id="187"
     d="m 13.4157,15.456 -2.8916,1.7528 2.911901,1.7651"
     style="fill:none;stroke:#ffffff;stroke-width:1;stroke-linecap:butt;stroke-linejoin:miter;stroke-miterlimit:9;shape-rendering:auto" />
  <circle
     id="188"
     cy="14.98"
     cx="14.22"
     style="fill:#ffffff;stroke:none;shape-rendering:auto"
     r="1.27" />
  <circle
     id="189"
     cy="19.439999"
     cx="14.24"
     style="fill:#ffffff;stroke:none;shape-rendering:auto"
     r="1.27" />
  <circle
     id="190"
     cy="17.24"
     cx="10.190001"
     style="fill:#ffffff;stroke:none;shape-rendering:auto"
     r="1.27" />
  <text
     id="193"
     x="4"
     y="39"
     style="font-size:11px;font-family:'Microsoft Sans Serif';fill:#000000;stroke:none;shape-rendering:auto"
     clip-path="url(#195_text_clipper)"><tspan
       dy="8.25pt"
       id="197">AsyncSubject</tspan></text>
  <defs
     id="clips_hatches_and_gradients">
    <clipPath
       id="82_text_clipper">
      <rect
         x="484.00"
         y="39.00"
         width="48.50"
         height="27.65"
         id="83" />
    </clipPath>
    <clipPath
       id="88_text_clipper">
      <rect
         x="484.00"
         y="51.45"
         width="48.50"
         height="27.65"
         id="89" />
    </clipPath>
    <clipPath
       id="98_text_clipper">
      <rect
         x="404.00"
         y="39.00"
         width="54.11"
         height="27.65"
         id="99" />
    </clipPath>
    <clipPath
       id="104_text_clipper">
      <rect
         x="404.00"
         y="51.45"
         width="54.11"
         height="27.65"
         id="105" />
    </clipPath>
    <clipPath
       id="117_text_clipper">
      <rect
         x="324.00"
         y="39.00"
         width="52.15"
         height="27.65"
         id="118" />
    </clipPath>
    <clipPath
       id="123_text_clipper">
      <rect
         x="324.00"
         y="51.45"
         width="52.15"
         height="27.65"
         id="124" />
    </clipPath>
    <clipPath
       id="136_text_clipper">
      <rect
         x="244.00"
         y="39.00"
         width="41.52"
         height="27.65"
         id="137" />
    </clipPath>
    <clipPath
       id="142_text_clipper">
      <rect
         x="244.00"
         y="51.45"
         width="41.52"
         height="27.65"
         id="143" />
    </clipPath>
    <clipPath
       id="156_text_clipper">
      <rect
         x="164.00"
         y="39.00"
         width="41.52"
         height="27.65"
         id="157" />
    </clipPath>
    <clipPath
       id="162_text_clipper">
      <rect
         x="164.00"
         y="51.45"
         width="41.52"
         height="27.65"
         id="163" />
    </clipPath>
    <clipPath
       id="174_text_clipper">
      <rect
         x="84.00"
         y="39.00"
         width="48.45"
         height="27.65"
         id="175" />
    </clipPath>
    <clipPath
       id="180_text_clipper">
      <rect
         x="84.00"
         y="51.45"
         width="48.45"
         height="27.65"
         id="181" />
    </clipPath>
    <clipPath
       id="195_text_clipper">
      <rect
         x="4.00"
         y="39.00"
         width="72.38"
         height="13.83"
         id="196" />
    </clipPath>
  </defs>
</svg>
