<?xml version="1.0" standalone="yes"?><!DOCTYPE svg PUBLIC "-//W3C//DTD SVG 1.1//EN" "http://www.w3.org/Graphics/SVG/1.1/DTD/svg11.dtd"[
<!ENTITY E18 'stroke:none;opacity:1;fill:rgb(68,154,223);'><!ENTITY E24 'matrix(1.00 0.00 0.00 1.00 84.00 164.00 ) '><!ENTITY E15 'matrix(1.00 0.00 0.00 1.00 164.00 164.00 ) '><!ENTITY E10 'matrix(1.00 0.00 0.00 1.00 0.00 0.00 ) '><!ENTITY E13 'stroke:none;opacity:1;fill:rgb(155,91,179);'><!ENTITY E20 'stroke:none;fill-rule:evenodd;opacity:1;fill:rgb(255,255,255);'><!ENTITY E3 'stroke:rgb(169,169,169);fill:none;stroke-linecap:butt;stroke-miterlimit:9;opacity:1;stroke-width:2;stroke-linejoin:miter;'><!ENTITY E5 'stroke:none;opacity:1;fill:rgb(91,178,126);'><!ENTITY E8 'stroke:rgb(255,255,255);fill:none;stroke-linecap:butt;stroke-miterlimit:9;opacity:1;stroke-width:2;stroke-linejoin:miter;'><!ENTITY E1 'stroke:rgb(169,169,169);fill:none;stroke-linecap:butt;stroke-miterlimit:9;opacity:1;stroke-width:1;stroke-linejoin:miter;'><!ENTITY E32 'matrix(1.00 0.00 0.00 1.00 4.00 164.00 ) '><!ENTITY E6 'stroke:none;opacity:1;fill:rgb(255,255,255);'><!ENTITY E4 'matrix(1.00 0.00 0.00 1.00 164.00 4.00 ) '><!ENTITY E17 'matrix(1.00 0.00 0.00 1.00 84.00 84.00 ) '><!ENTITY E12 'matrix(1.00 0.00 0.00 1.00 164.00 84.00 ) '><!ENTITY E28 'matrix(1.00 0.00 0.00 1.00 4.00 84.00 ) '><!ENTITY E11 'M 10.158 33.2 C 3.4054 31.7591 -1.861 26.4692 -3.271 19.71 '><!ENTITY E7 'M 10.082 15.655 C 13.5023 13.0496 16.1727 13.2369 19.3649 15.64395 M 6.568899 12.14155 C 11.9518 7.82015 17.1159 7.63745 22.9119 12.09735 '><!ENTITY E2 'M 31.179 5.2 C 34.9985 11.0918 34.9814 18.682 31.13552 24.557 '>
]><svg width="241.0959" height="226.6504" id="SvgGdi_output" xmlns="http://www.w3.org/2000/svg"><rect id="background" height="100.00%" style="fill:rgb(255,255,255);" width="100.00%" y="0.00" x="0.00" /><g style="shape-rendering:auto;" id="root_group"><line y1="99.00" style="&E1;" id="165" x2="160.00" y2="99.00" x1="118.00" /><line y1="179.00" style="&E1;" id="166" x2="160.00" y2="179.00" x1="118.00" /><line y1="99.00" style="&E1;" id="167" x2="80.00" y2="99.00" x1="38.00" /><line y1="179.00" style="&E1;" id="168" x2="80.00" y2="179.00" x1="38.00" /><path d="&E2;" style="&E3;" transform="&E4;" id="169" /><ellipse id="170" cy="15.00" cx="15.00" transform="&E4;" rx="15.00" ry="15.00" style="&E5;" /><ellipse id="171" cy="20.29" cx="14.72" transform="&E4;" rx="2.40" ry="2.40" style="&E6;" /><path d="&E7;" style="&E8;" transform="&E4;" id="172" /><text id="173" transform="&E10;" x="164.00" y="39.00" style="stroke:none;clip-path:url(#175_text_clipper);font-family:Microsoft Sans Serif;fill:rgb(0,0,0);font-size:8.25pt;opacity:1;"><tspan dy="8.25pt" id="177">Emitter</tspan></text><path d="&E11;" style="&E3;" transform="&E12;" id="179" /><ellipse id="180" cy="15.00" cx="15.00" transform="&E12;" rx="15.00" ry="15.00" style="&E13;" /><ellipse id="181" cy="20.29" cx="14.72" transform="&E12;" rx="2.40" ry="2.40" style="&E6;" /><path d="&E7;" style="&E8;" transform="&E12;" id="182" /><text id="183" transform="&E10;" x="164.00" y="119.00" style="stroke:none;clip-path:url(#185_text_clipper);font-family:Microsoft Sans Serif;fill:rgb(0,0,0);font-size:8.25pt;opacity:1;"><tspan dy="8.25pt" id="187">SendMessage</tspan></text><path d="&E11;" style="&E3;" transform="&E15;" id="189" /><ellipse id="190" cy="15.00" cx="15.00" transform="&E15;" rx="15.00" ry="15.00" style="&E13;" /><ellipse id="191" cy="20.29" cx="14.72" transform="&E15;" rx="2.40" ry="2.40" style="&E6;" /><path d="&E7;" style="&E8;" transform="&E15;" id="192" /><text id="193" transform="&E10;" x="164.00" y="199.00" style="stroke:none;clip-path:url(#195_text_clipper);font-family:Microsoft Sans Serif;fill:rgb(0,0,0);font-size:8.25pt;opacity:1;"><tspan dy="8.25pt" id="197">SendMessage</tspan></text><ellipse id="199" cy="15.00" cx="15.00" transform="&E17;" rx="15.00" ry="15.00" style="&E18;" /><path style="&E20;" transform="&E17;" id="200" d="M 19.156 13.888 19.156 10.3647 19.156 6.841399 25.2585 10.3647 22.2072 12.1264 z " /><path style="&E20;" transform="&E17;" id="201" d="M 19.156 22.97 19.156 19.4467 19.156 15.9234 25.2585 19.4467 22.2072 21.2084 z " /><path style="&E8;" transform="&E17;" id="202" d="M 5.5001 19.484 10.6493 19.484 16.2743 10.2485 19.3728 10.2485 M 14.6769 17.1481 16.3089 19.4828 19.2202 19.4828 M 5.500199 10.2437 10.7586 10.2437 12.1652 12.8707 " /><text id="203" transform="&E10;" x="84.00" y="119.00" style="stroke:none;clip-path:url(#205_text_clipper);font-family:Microsoft Sans Serif;fill:rgb(0,0,0);font-size:8.25pt;opacity:1;"><tspan dy="8.25pt" id="207">X</tspan></text><ellipse id="209" cy="15.00" cx="15.00" transform="&E24;" rx="15.00" ry="15.00" style="&E18;" /><path style="&E8;" transform="&E24;" id="210" d="M 20.824 23.115 20.824 7.098999 M 17.3572 17.48 17.3572 12.7339 M 13.8904 21.2046 13.8904 9.009602 M 10.4236 18.6248 10.4236 11.5896 M 6.9568 16.3923 6.9568 13.822 " /><text id="211" transform="&E10;" x="84.00" y="199.00" style="stroke:none;clip-path:url(#213_text_clipper);font-family:Microsoft Sans Serif;fill:rgb(0,0,0);font-size:8.25pt;opacity:1;"><tspan dy="8.25pt" id="215">ConvertTo</tspan></text><text id="217" transform="&E10;" x="84.00" y="211.45" style="stroke:none;clip-path:url(#219_text_clipper);font-family:Microsoft Sans Serif;fill:rgb(0,0,0);font-size:8.25pt;opacity:1;"><tspan dy="8.25pt" id="221">Array</tspan></text><path d="&E2;" style="&E3;" transform="&E28;" id="223" /><ellipse id="224" cy="15.00" cx="15.00" transform="&E28;" rx="15.00" ry="15.00" style="&E5;" /><path style="&E20;" transform="&E28;" id="225" d="M 8.5404 18.526 C 8.154759 18.14036 8.426559 17.3734 8.7512 17.0487 9.0693 16.7306 9.8857 16.65478 10.3397 17.03595 L 12.5301 18.80525 12.82094 9.664146 C 12.82094 9.305857 13.42471 8.739877 14.05254 8.739877 14.79871 8.739877 15.36764 9.316096 15.36764 9.695367 L 15.5586 15.04327 20.0645 16.74627 C 20.25033 16.81 20.49544 16.99536 20.49518 17.22225 L 20.49808 21.04985 19.11318 23.37955 19.11318 24.51755 13.23218 24.51755 13.23218 23.37955 z " /><path style="&E8;" transform="&E28;" id="226" d="M 10.482 12.156 C 9.063601 9.8878 10.57304 6.5688 13.2149 6.1474 15.8164 5.52346 18.4832 8.0098 18.0432 10.6485 L 17.97693 11.02591 " /><text id="227" transform="&E10;" x="4.00" y="119.00" style="stroke:none;clip-path:url(#229_text_clipper);font-family:Microsoft Sans Serif;fill:rgb(0,0,0);font-size:8.25pt;opacity:1;"><tspan dy="8.25pt" id="231">MouseMove</tspan></text><path d="&E2;" style="&E3;" transform="&E32;" id="233" /><ellipse id="234" cy="15.00" cx="15.00" transform="&E32;" rx="15.00" ry="15.00" style="&E5;" /><path style="&E20;" transform="&E32;" id="235" d="M 23.75 9.1 19.5587 11.5211 19.5587 18.3937 23.75 20.8147 z " /><path style="&E20;" transform="&E32;" id="236" d="M 8.6927 9.2 15.7194 9.2 C 17.19 9.2 18.3739 10.4337 18.3739 11.9661 L 18.3739 17.8234 C 18.3739 19.3558 17.19 20.5893 15.7194 20.5893 L 8.692701 20.5893 C 7.222101 20.5893 6.038201 19.3558 6.038201 17.8234 L 6.038201 11.9661 C 6.038201 10.4337 7.222101 9.199999 8.692701 9.199999 z " /><text id="237" transform="&E10;" x="4.00" y="199.00" style="stroke:none;clip-path:url(#239_text_clipper);font-family:Microsoft Sans Serif;fill:rgb(0,0,0);font-size:8.25pt;opacity:1;"><tspan dy="8.25pt" id="241">Camera</tspan></text><text id="243" transform="&E10;" x="4.00" y="211.45" style="stroke:none;clip-path:url(#245_text_clipper);font-family:Microsoft Sans Serif;fill:rgb(0,0,0);font-size:8.25pt;opacity:1;"><tspan dy="8.25pt" id="247">Capture</tspan></text></g><defs id="clips_hatches_and_gradients"><clipPath id="175_text_clipper"><rect x="164.00" y="39.00" width="39.61" height="13.83" id="176" /></clipPath><clipPath id="185_text_clipper"><rect x="164.00" y="119.00" width="76.10" height="13.83" id="186" /></clipPath><clipPath id="195_text_clipper"><rect x="164.00" y="199.00" width="76.10" height="13.83" id="196" /></clipPath><clipPath id="205_text_clipper"><rect x="84.00" y="119.00" width="11.22" height="13.83" id="206" /></clipPath><clipPath id="213_text_clipper"><rect x="84.00" y="199.00" width="56.56" height="27.65" id="214" /></clipPath><clipPath id="219_text_clipper"><rect x="84.00" y="211.45" width="56.56" height="27.65" id="220" /></clipPath><clipPath id="229_text_clipper"><rect x="4.00" y="119.00" width="65.38" height="13.83" id="230" /></clipPath><clipPath id="239_text_clipper"><rect x="4.00" y="199.00" width="43.97" height="27.65" id="240" /></clipPath><clipPath id="245_text_clipper"><rect x="4.00" y="211.45" width="43.97" height="27.65" id="246" /></clipPath></defs></svg>