<?xml version="1.0" standalone="yes"?><!DOCTYPE svg PUBLIC "-//W3C//DTD SVG 1.1//EN" "http://www.w3.org/Graphics/SVG/1.1/DTD/svg11.dtd"[
<!ENTITY E2 'M 31.179 5.2 C 34.9985 11.0918 34.9814 18.682 31.13552 24.557 '><!ENTITY E3 'stroke:rgb(169,169,169);fill:none;stroke-linecap:butt;stroke-miterlimit:9;opacity:1;stroke-width:2;stroke-linejoin:miter;'><!ENTITY E7 'M 10.082 15.655 C 13.5023 13.0496 16.1727 13.2369 19.3649 15.64395 M 6.568899 12.14155 C 11.9518 7.82015 17.1159 7.63745 22.9119 12.09735 '><!ENTITY E1 'stroke:rgb(169,169,169);fill:none;stroke-linecap:butt;stroke-miterlimit:9;opacity:1;stroke-width:1;stroke-linejoin:miter;'><!ENTITY E4 'matrix(1.00 0.00 0.00 1.00 164.00 4.00 ) '><!ENTITY E23 'matrix(1.00 0.00 0.00 1.00 4.00 84.00 ) '><!ENTITY E8 'stroke:rgb(255,255,255);fill:none;stroke-linecap:butt;stroke-miterlimit:9;opacity:1;stroke-width:2;stroke-linejoin:miter;'><!ENTITY E19 'stroke:none;fill-rule:evenodd;opacity:1;fill:rgb(255,255,255);'><!ENTITY E5 'stroke:none;opacity:1;fill:rgb(91,178,126);'><!ENTITY E13 'matrix(1.00 0.00 0.00 1.00 164.00 84.00 ) '><!ENTITY E6 'stroke:none;opacity:1;fill:rgb(255,255,255);'><!ENTITY E10 'matrix(1.00 0.00 0.00 1.00 0.00 0.00 ) '><!ENTITY E16 'matrix(1.00 0.00 0.00 1.00 84.00 84.00 ) '>
]><svg width="241.0959" height="132.8252" id="SvgGdi_output" xmlns="http://www.w3.org/2000/svg"><rect id="background" height="100.00%" style="fill:rgb(255,255,255);" width="100.00%" y="0.00" x="0.00" /><g style="shape-rendering:auto;" id="root_group"><line y1="99.00" style="&E1;" id="52" x2="160.00" y2="99.00" x1="118.00" /><line y1="99.00" style="&E1;" id="53" x2="80.00" y2="99.00" x1="38.00" /><path d="&E2;" style="&E3;" transform="&E4;" id="54" /><ellipse id="55" cy="15.00" cx="15.00" transform="&E4;" rx="15.00" ry="15.00" style="&E5;" /><ellipse id="56" cy="20.29" cx="14.72" transform="&E4;" rx="2.40" ry="2.40" style="&E6;" /><path d="&E7;" style="&E8;" transform="&E4;" id="57" /><text id="58" transform="&E10;" x="164.00" y="39.00" style="stroke:none;clip-path:url(#60_text_clipper);font-family:Microsoft Sans Serif;fill:rgb(0,0,0);font-size:8.25pt;opacity:1;"><tspan dy="8.25pt" id="62">CreateUdp</tspan></text><text id="64" transform="&E10;" x="164.00" y="51.45" style="stroke:none;clip-path:url(#66_text_clipper);font-family:Microsoft Sans Serif;fill:rgb(0,0,0);font-size:8.25pt;opacity:1;"><tspan dy="8.25pt" id="68">Client</tspan></text><path style="&E3;" transform="&E13;" id="70" d="M 10.158 33.2 C 3.4054 31.7591 -1.861 26.4692 -3.271 19.71 " /><ellipse id="71" cy="15.00" cx="15.00" transform="&E13;" rx="15.00" ry="15.00" style="stroke:none;opacity:1;fill:rgb(155,91,179);" /><ellipse id="72" cy="20.29" cx="14.72" transform="&E13;" rx="2.40" ry="2.40" style="&E6;" /><path d="&E7;" style="&E8;" transform="&E13;" id="73" /><text id="74" transform="&E10;" x="164.00" y="119.00" style="stroke:none;clip-path:url(#76_text_clipper);font-family:Microsoft Sans Serif;fill:rgb(0,0,0);font-size:8.25pt;opacity:1;"><tspan dy="8.25pt" id="78">SendMessage</tspan></text><ellipse id="80" cy="15.00" cx="15.00" transform="&E16;" rx="15.00" ry="15.00" style="stroke:none;opacity:1;fill:rgb(68,154,223);" /><path style="&E19;" transform="&E16;" id="81" d="M 19.156 13.888 19.156 10.3647 19.156 6.841399 25.2585 10.3647 22.2072 12.1264 z " /><path style="&E19;" transform="&E16;" id="82" d="M 19.156 22.97 19.156 19.4467 19.156 15.9234 25.2585 19.4467 22.2072 21.2084 z " /><path style="&E8;" transform="&E16;" id="83" d="M 5.5001 19.484 10.6493 19.484 16.2743 10.2485 19.3728 10.2485 M 14.6769 17.1481 16.3089 19.4828 19.2202 19.4828 M 5.500199 10.2437 10.7586 10.2437 12.1652 12.8707 " /><text id="84" transform="&E10;" x="84.00" y="119.00" style="stroke:none;clip-path:url(#86_text_clipper);font-family:Microsoft Sans Serif;fill:rgb(0,0,0);font-size:8.25pt;opacity:1;"><tspan dy="8.25pt" id="88">X</tspan></text><path d="&E2;" style="&E3;" transform="&E23;" id="90" /><ellipse id="91" cy="15.00" cx="15.00" transform="&E23;" rx="15.00" ry="15.00" style="&E5;" /><path style="&E19;" transform="&E23;" id="92" d="M 8.5404 18.526 C 8.154759 18.14036 8.426559 17.3734 8.7512 17.0487 9.0693 16.7306 9.8857 16.65478 10.3397 17.03595 L 12.5301 18.80525 12.82094 9.664146 C 12.82094 9.305857 13.42471 8.739877 14.05254 8.739877 14.79871 8.739877 15.36764 9.316096 15.36764 9.695367 L 15.5586 15.04327 20.0645 16.74627 C 20.25033 16.81 20.49544 16.99536 20.49518 17.22225 L 20.49808 21.04985 19.11318 23.37955 19.11318 24.51755 13.23218 24.51755 13.23218 23.37955 z " /><path style="&E8;" transform="&E23;" id="93" d="M 10.482 12.156 C 9.063601 9.8878 10.57304 6.5688 13.2149 6.1474 15.8164 5.52346 18.4832 8.0098 18.0432 10.6485 L 17.97693 11.02591 " /><text id="94" transform="&E10;" x="4.00" y="119.00" style="stroke:none;clip-path:url(#96_text_clipper);font-family:Microsoft Sans Serif;fill:rgb(0,0,0);font-size:8.25pt;opacity:1;"><tspan dy="8.25pt" id="98">MouseMove</tspan></text></g><defs id="clips_hatches_and_gradients"><clipPath id="60_text_clipper"><rect x="164.00" y="39.00" width="58.45" height="27.65" id="61" /></clipPath><clipPath id="66_text_clipper"><rect x="164.00" y="51.45" width="58.45" height="27.65" id="67" /></clipPath><clipPath id="76_text_clipper"><rect x="164.00" y="119.00" width="76.10" height="13.83" id="77" /></clipPath><clipPath id="86_text_clipper"><rect x="84.00" y="119.00" width="11.22" height="13.83" id="87" /></clipPath><clipPath id="96_text_clipper"><rect x="4.00" y="119.00" width="65.38" height="13.83" id="97" /></clipPath></defs></svg>