<?xml version="1.0" standalone="yes"?><!DOCTYPE svg PUBLIC "-//W3C//DTD SVG 1.1//EN" "http://www.w3.org/Graphics/SVG/1.1/DTD/svg11.dtd"[
<!ENTITY E9 'matrix(1.00 0.00 0.00 1.00 0.00 0.00 ) '><!ENTITY E7 'stroke:none;fill-rule:evenodd;opacity:1;fill:rgb(255,255,255);'><!ENTITY E3 'stroke:rgb(169,169,169);fill:none;stroke-linecap:butt;stroke-miterlimit:9;opacity:1;stroke-width:2;stroke-linejoin:miter;'><!ENTITY E18 'stroke:none;opacity:1;fill:rgb(91,178,126);'><!ENTITY E13 'stroke:rgb(255,255,255);fill:none;stroke-linecap:butt;stroke-miterlimit:9;opacity:1;stroke-width:2;stroke-linejoin:miter;'><!ENTITY E17 'matrix(1.00 0.00 0.00 1.00 84.00 4.00 ) '><!ENTITY E12 'M 16.849 10.062 23.4027 10.062 M 16.6038 19.6084 23.3505 19.6084 M 12.3075 17.1615 7.5719 21.8971 M 7.577335 17.152 12.31704 21.8917 M 6.564136 10.0047 13.30904 10.0047 M 9.936636 6.6288 9.936636 13.3806 '><!ENTITY E26 'matrix(1.00 0.00 0.00 1.00 4.00 4.00 ) '><!ENTITY E14 'stroke:none;opacity:1;fill:rgb(255,255,255);'><!ENTITY E4 'matrix(1.00 0.00 0.00 1.00 164.00 4.00 ) '><!ENTITY E22 'matrix(1.00 0.00 0.00 1.00 84.00 84.00 ) '><!ENTITY E10 'matrix(1.00 0.00 0.00 1.00 164.00 84.00 ) '><!ENTITY E1 'stroke:rgb(169,169,169);fill:none;stroke-linecap:butt;stroke-miterlimit:9;opacity:1;stroke-width:1;stroke-linejoin:miter;'><!ENTITY E16 'M 31.179 5.2 C 34.9985 11.0918 34.9814 18.682 31.13552 24.557 '>
]><svg width="207.1452" height="132.8252" id="SvgGdi_output" xmlns="http://www.w3.org/2000/svg"><rect id="background" height="100.00%" style="fill:rgb(255,255,255);" width="100.00%" y="0.00" x="0.00" /><g style="shape-rendering:auto;" id="root_group"><line y1="19.00" style="&E1;" id="51" x2="160.00" y2="19.00" x1="118.00" /><line y1="99.00" style="&E1;" id="52" x2="160.00" y2="99.00" x1="118.00" /><line y1="19.00" style="&E1;" id="53" x2="80.00" y2="19.00" x1="38.00" /><path style="&E3;" transform="&E4;" id="54" d="M 10.158 33.2 C 3.4054 31.7591 -1.861 26.4692 -3.271 19.71 " /><ellipse id="55" cy="15.00" cx="15.00" transform="&E4;" rx="15.00" ry="15.00" style="stroke:none;opacity:1;fill:rgb(155,91,179);" /><path style="&E7;" transform="&E4;" id="56" d="M 8.625 8.4 8.96875 8.9 13.28125 15.025 8.62505 21.6187 8.2813 22.1187 11.7501 22.1187 11.84385 21.9937 15.00005 17.2124 15.4688 17.9 18.125 21.9937 18.21875 22.1187 21.71875 22.1187 21.375 21.6187 16.625 14.8687 21.0312 8.9 21.4062 8.4 17.9688 8.4 17.87505 8.5562 15.68755 11.6187 15.6563 11.65 C 15.44045 11.9482 15.18092 12.3233 14.93755 12.6812 14.74069 12.357 14.55318 12.0383 14.2813 11.6187 L 12.2813 8.5562 12.18755 8.4 9.25005 8.4 z " /><text id="57" transform="&E9;" x="164.00" y="39.00" style="stroke:none;clip-path:url(#59_text_clipper);font-family:Microsoft Sans Serif;fill:rgb(0,0,0);font-size:8.25pt;opacity:1;"><tspan dy="8.25pt" id="61">Trials</tspan></text><ellipse id="63" cy="15.00" cx="15.00" transform="&E10;" rx="15.00" ry="15.00" style="stroke:none;opacity:1;fill:rgb(68,154,223);" /><path d="&E12;" style="&E13;" transform="&E10;" id="64" /><ellipse id="65" cy="16.33" cx="19.93" transform="&E10;" rx="1.30" ry="1.30" style="&E14;" /><ellipse id="66" cy="22.83" cx="19.93" transform="&E10;" rx="1.30" ry="1.30" style="&E14;" /><text id="67" transform="&E9;" x="164.00" y="119.00" style="stroke:none;clip-path:url(#69_text_clipper);font-family:Microsoft Sans Serif;fill:rgb(0,0,0);font-size:8.25pt;opacity:1;"><tspan dy="8.25pt" id="71">Sample</tspan></text><path d="&E16;" style="&E3;" transform="&E17;" id="73" /><ellipse id="74" cy="15.00" cx="15.00" transform="&E17;" rx="15.00" ry="15.00" style="&E18;" /><path d="&E12;" style="&E13;" transform="&E17;" id="75" /><ellipse id="76" cy="16.33" cx="19.93" transform="&E17;" rx="1.30" ry="1.30" style="&E14;" /><ellipse id="77" cy="22.83" cx="19.93" transform="&E17;" rx="1.30" ry="1.30" style="&E14;" /><text id="78" transform="&E9;" x="84.00" y="39.00" style="stroke:none;clip-path:url(#80_text_clipper);font-family:Microsoft Sans Serif;fill:rgb(0,0,0);font-size:8.25pt;opacity:1;"><tspan dy="8.25pt" id="82">Create</tspan></text><text id="84" transform="&E9;" x="84.00" y="51.45" style="stroke:none;clip-path:url(#86_text_clipper);font-family:Microsoft Sans Serif;fill:rgb(0,0,0);font-size:8.25pt;opacity:1;"><tspan dy="8.25pt" id="88">Discrete</tspan></text><text id="90" transform="&E9;" x="84.00" y="63.90" style="stroke:none;clip-path:url(#92_text_clipper);font-family:Microsoft Sans Serif;fill:rgb(0,0,0);font-size:8.25pt;opacity:1;"><tspan dy="8.25pt" id="94">Uniform</tspan></text><path d="&E16;" style="&E3;" transform="&E22;" id="96" /><ellipse id="97" cy="15.00" cx="15.00" transform="&E22;" rx="15.00" ry="15.00" style="&E18;" /><path style="&E7;" transform="&E22;" id="98" d="M 4.4028 13 4.93347 11.3266 C 6.15637 11.7667 7.04467 12.1477 7.598371 12.4698 7.45224 11.0476 7.37533 10.0696 7.36764 9.5352 L 9.040441 9.5352 C 9.017365 10.3131 8.92891 11.2873 8.775101 12.4581 9.567261 12.0495 10.4748 11.6723 11.4977 11.3266 L 12.02837 13 C 11.05162 13.3302 10.09407 13.5502 9.155771 13.6601 9.624911 14.0766 10.28637 14.819 11.14007 15.8877 L 9.755671 16.8894 C 9.30959 16.2687 8.782761 15.4241 8.175171 14.3554 7.606041 15.4633 7.106171 16.308 6.675471 16.8894 L 5.314171 15.8877 C 6.206311 14.7642 6.844671 14.0216 7.229171 13.6601 6.237041 13.4637 5.294871 13.2437 4.402771 13 z " /><path style="&E7;" transform="&E22;" id="99" d="M 11.656 8.2 11.99975 8.7 16.31225 14.7937 11.65605 21.4187 11.28105 21.9187 14.74985 21.9187 14.8436 21.7624 17.9998 17.0124 18.46855 17.7 21.15605 21.7624 21.2498 21.9187 24.7498 21.9187 24.40605 21.4187 19.65605 14.6687 24.06225 8.699997 24.406 8.199997 20.9998 8.199997 20.90605 8.324997 18.68725 11.4187 C 18.46251 11.7285 18.22333 12.1062 17.9685 12.4812 17.77046 12.1547 17.58677 11.8424 17.31225 11.4187 L 15.28105 8.356197 15.1873 8.199997 11.6561 8.199997 z " /><text id="100" transform="&E9;" x="84.00" y="119.00" style="stroke:none;clip-path:url(#102_text_clipper);font-family:Microsoft Sans Serif;fill:rgb(0,0,0);font-size:8.25pt;opacity:1;"><tspan dy="8.25pt" id="104">Trials</tspan></text><path d="&E16;" style="&E3;" transform="&E26;" id="106" /><ellipse id="107" cy="15.00" cx="15.00" transform="&E26;" rx="15.00" ry="15.00" style="&E18;" /><path d="&E12;" style="&E13;" transform="&E26;" id="108" /><ellipse id="109" cy="16.33" cx="19.93" transform="&E26;" rx="1.30" ry="1.30" style="&E14;" /><ellipse id="110" cy="22.83" cx="19.93" transform="&E26;" rx="1.30" ry="1.30" style="&E14;" /><ellipse id="111" cy="19.00" cx="4.00" rx="3.00" ry="3.00" style="&E3;" /><ellipse id="112" cy="19.00" cx="4.00" rx="3.00" ry="3.00" style="&E14;" /><text id="113" transform="&E9;" x="4.00" y="39.00" style="stroke:none;clip-path:url(#115_text_clipper);font-family:Microsoft Sans Serif;fill:rgb(0,0,0);font-size:8.25pt;opacity:1;"><tspan dy="8.25pt" id="117">Create</tspan></text><text id="119" transform="&E9;" x="4.00" y="51.45" style="stroke:none;clip-path:url(#121_text_clipper);font-family:Microsoft Sans Serif;fill:rgb(0,0,0);font-size:8.25pt;opacity:1;"><tspan dy="8.25pt" id="123">Random</tspan></text></g><defs id="clips_hatches_and_gradients"><clipPath id="59_text_clipper"><rect x="164.00" y="39.00" width="31.49" height="13.83" id="60" /></clipPath><clipPath id="69_text_clipper"><rect x="164.00" y="119.00" width="42.15" height="13.83" id="70" /></clipPath><clipPath id="80_text_clipper"><rect x="84.00" y="39.00" width="45.28" height="41.48" id="81" /></clipPath><clipPath id="86_text_clipper"><rect x="84.00" y="51.45" width="45.28" height="41.48" id="87" /></clipPath><clipPath id="92_text_clipper"><rect x="84.00" y="63.90" width="45.28" height="41.48" id="93" /></clipPath><clipPath id="102_text_clipper"><rect x="84.00" y="119.00" width="31.49" height="13.83" id="103" /></clipPath><clipPath id="115_text_clipper"><rect x="4.00" y="39.00" width="46.49" height="27.65" id="116" /></clipPath><clipPath id="121_text_clipper"><rect x="4.00" y="51.45" width="46.49" height="27.65" id="122" /></clipPath></defs></svg>