<?xml version="1.0" standalone="yes"?><!DOCTYPE svg PUBLIC "-//W3C//DTD SVG 1.1//EN" "http://www.w3.org/Graphics/SVG/1.1/DTD/svg11.dtd"[
<!ENTITY E7 'stroke:none;opacity:1;fill:rgb(255,255,255);'><!ENTITY E10 'matrix(1.00 0.00 0.00 1.00 84.00 4.00 ) '><!ENTITY E4 'stroke:rgb(169,169,169);fill:none;stroke-linecap:butt;stroke-miterlimit:9;opacity:1;stroke-width:2;stroke-linejoin:miter;'><!ENTITY E1 'stroke:rgb(169,169,169);fill:none;stroke-linecap:butt;stroke-miterlimit:9;opacity:1;stroke-width:1;stroke-linejoin:miter;'><!ENTITY E2 'matrix(1.00 0.00 0.00 1.00 164.00 4.00 ) '><!ENTITY E15 'matrix(1.00 0.00 0.00 1.00 4.00 4.00 ) '><!ENTITY E3 'stroke:none;opacity:1;fill:rgb(238,192,75);'><!ENTITY E9 'matrix(1.00 0.00 0.00 1.00 0.00 0.00 ) '>
]><svg width="227.9259" height="52.82519" id="SvgGdi_output" xmlns="http://www.w3.org/2000/svg"><rect id="background" height="100.00%" style="fill:rgb(255,255,255);" width="100.00%" y="0.00" x="0.00" /><g style="shape-rendering:auto;" id="root_group"><line y1="19.00" style="&E1;" id="494" x2="160.00" y2="19.00" x1="118.00" /><line y1="19.00" style="&E1;" id="495" x2="80.00" y2="19.00" x1="38.00" /><ellipse id="496" cy="15.00" cx="15.00" transform="&E2;" rx="15.00" ry="15.00" style="&E3;" /><ellipse id="497" cy="15.00" cx="15.00" transform="&E2;" rx="15.00" ry="15.00" style="&E4;" /><path transform="&E2;" id="498" d="M 14.876 5.6408 14.876 24.0228 " style="stroke:rgb(255,255,255);fill:none;stroke-linecap:butt;stroke-miterlimit:9;opacity:1;stroke-width:2;stroke-linejoin:miter;" /><ellipse id="499" cy="10.20" cx="8.47" transform="&E2;" rx="3.40" ry="3.40" style="&E7;" /><ellipse id="500" cy="10.20" cx="21.33" transform="&E2;" rx="3.40" ry="3.40" style="&E7;" /><ellipse id="501" cy="19.20" cx="21.33" transform="&E2;" rx="3.40" ry="3.40" style="&E7;" /><text id="502" transform="&E9;" x="164.00" y="39.00" style="stroke:none;clip-path:url(#504_text_clipper);font-family:Microsoft Sans Serif;fill:rgb(0,0,0);font-size:8.25pt;opacity:1;"><tspan dy="8.25pt" id="506">SelectMany</tspan></text><ellipse id="508" cy="15.00" cx="15.00" transform="&E10;" rx="15.00" ry="15.00" style="&E3;" /><ellipse id="509" cy="15.00" cx="15.00" transform="&E10;" rx="15.00" ry="15.00" style="&E4;" /><path transform="&E10;" id="510" d="M 11.061 10.763 C 11.061 9.349799 12.2452 7.7226 13.7798 7.4008 15.4144 6.98898 17.2874 7.88198 17.9084 9.4683 18.47393 10.8026 17.97233 12.4332 16.8453 13.3125 16.16579 13.95364 15.1393 14.28144 14.7641 15.2029 14.48171 16.1142 14.56073 17.1532 14.56319 18.0326 " style="stroke:rgb(255,255,255);fill:none;stroke-linecap:butt;stroke-miterlimit:9;opacity:1;stroke-width:2.5;stroke-linejoin:miter;" /><ellipse id="511" cy="21.60" cx="14.68" transform="&E10;" rx="1.81" ry="1.81" style="&E7;" /><text id="512" transform="&E9;" x="84.00" y="39.00" style="stroke:none;clip-path:url(#514_text_clipper);font-family:Microsoft Sans Serif;fill:rgb(0,0,0);font-size:8.25pt;opacity:1;"><tspan dy="8.25pt" id="516">Condition</tspan></text><path style="&E4;" transform="&E15;" id="518" d="M 31.179 5.2 C 34.9985 11.0918 34.9814 18.682 31.13552 24.557 " /><ellipse id="519" cy="15.00" cx="15.00" transform="&E15;" rx="15.00" ry="15.00" style="stroke:none;opacity:1;fill:rgb(91,178,126);" /><path transform="&E15;" id="520" d="M 11.529 25.444 20.7834 12.908 16.3203 12.908 18.355 4.7687 9.100601 17.3047 13.5637 17.3047 z " style="stroke:none;fill-rule:evenodd;opacity:1;fill:rgb(255,255,255);" /><text id="521" transform="&E9;" x="4.00" y="39.00" style="stroke:none;clip-path:url(#523_text_clipper);font-family:Microsoft Sans Serif;fill:rgb(0,0,0);font-size:8.25pt;opacity:1;"><tspan dy="8.25pt" id="525">DigitalInput</tspan></text></g><defs id="clips_hatches_and_gradients"><clipPath id="504_text_clipper"><rect x="164.00" y="39.00" width="62.93" height="13.83" id="505" /></clipPath><clipPath id="514_text_clipper"><rect x="84.00" y="39.00" width="51.66" height="13.83" id="515" /></clipPath><clipPath id="523_text_clipper"><rect x="4.00" y="39.00" width="60.54" height="13.83" id="524" /></clipPath></defs></svg>