<?xml version="1.0" standalone="yes"?><!DOCTYPE svg PUBLIC "-//W3C//DTD SVG 1.1//EN" "http://www.w3.org/Graphics/SVG/1.1/DTD/svg11.dtd"[
<!ENTITY E10 'matrix(1.00 0.00 0.00 1.00 84.00 4.00 ) '><!ENTITY E6 'stroke:none;opacity:1;fill:rgb(255,255,255);'><!ENTITY E3 'stroke:rgb(169,169,169);fill:none;stroke-linecap:butt;stroke-miterlimit:9;opacity:1;stroke-width:2;stroke-linejoin:miter;'><!ENTITY E1 'stroke:rgb(169,169,169);fill:none;stroke-linecap:butt;stroke-miterlimit:9;opacity:1;stroke-width:1;stroke-linejoin:miter;'><!ENTITY E2 'M 10.158 33.2 C 3.4054 31.7591 -1.861 26.4692 -3.271 19.71 '><!ENTITY E4 'matrix(1.00 0.00 0.00 1.00 164.00 4.00 ) '><!ENTITY E16 'matrix(1.00 0.00 0.00 1.00 4.00 4.00 ) '><!ENTITY E12 'stroke:none;fill-rule:evenodd;opacity:1;fill:rgb(255,255,255);'><!ENTITY E5 'stroke:none;opacity:1;fill:rgb(155,91,179);'><!ENTITY E8 'matrix(1.00 0.00 0.00 1.00 0.00 0.00 ) '>
]><svg width="215.3092" height="66.65038" id="SvgGdi_output" xmlns="http://www.w3.org/2000/svg"><rect id="background" height="100.00%" style="fill:rgb(255,255,255);" width="100.00%" y="0.00" x="0.00" /><g style="shape-rendering:auto;" id="root_group"><line y1="19.00" style="&E1;" id="448" x2="160.00" y2="19.00" x1="118.00" /><line y1="19.00" style="&E1;" id="449" x2="80.00" y2="19.00" x1="38.00" /><path d="&E2;" style="&E3;" transform="&E4;" id="450" /><ellipse id="451" cy="15.00" cx="15.00" transform="&E4;" rx="15.00" ry="15.00" style="&E5;" /><ellipse id="452" cy="9.06" cx="15.01" transform="&E4;" rx="3.50" ry="3.50" style="&E6;" /><ellipse id="453" cy="18.49" cx="9.12" transform="&E4;" rx="3.50" ry="3.50" style="&E6;" /><ellipse id="454" cy="18.46" cx="20.88" transform="&E4;" rx="3.50" ry="3.50" style="&E6;" /><text id="455" transform="&E8;" x="164.00" y="39.00" style="stroke:none;clip-path:url(#457_text_clipper);font-family:Microsoft Sans Serif;fill:rgb(0,0,0);font-size:8.25pt;opacity:1;"><tspan dy="8.25pt" id="459">Workflow</tspan></text><text id="461" transform="&E8;" x="164.00" y="51.45" style="stroke:none;clip-path:url(#463_text_clipper);font-family:Microsoft Sans Serif;fill:rgb(0,0,0);font-size:8.25pt;opacity:1;"><tspan dy="8.25pt" id="465">Output</tspan></text><path d="&E2;" style="&E3;" transform="&E10;" id="467" /><ellipse id="468" cy="15.00" cx="15.00" transform="&E10;" rx="15.00" ry="15.00" style="&E5;" /><path style="&E12;" transform="&E10;" id="469" d="M 23.75 9.1 19.5587 11.5211 19.5587 18.3937 23.75 20.8147 z " /><path style="&E12;" transform="&E10;" id="470" d="M 8.6927 9.2 15.7194 9.2 C 17.19 9.2 18.3739 10.4337 18.3739 11.9661 L 18.3739 17.8234 C 18.3739 19.3558 17.19 20.5893 15.7194 20.5893 L 8.692701 20.5893 C 7.222101 20.5893 6.038201 19.3558 6.038201 17.8234 L 6.038201 11.9661 C 6.038201 10.4337 7.222101 9.199999 8.692701 9.199999 z " /><text id="471" transform="&E8;" x="84.00" y="39.00" style="stroke:none;clip-path:url(#473_text_clipper);font-family:Microsoft Sans Serif;fill:rgb(0,0,0);font-size:8.25pt;opacity:1;"><tspan dy="8.25pt" id="475">VideoWriter</tspan></text><path style="&E3;" transform="&E16;" id="477" d="M 31.179 5.2 C 34.9985 11.0918 34.9814 18.682 31.13552 24.557 " /><ellipse id="478" cy="15.00" cx="15.00" transform="&E16;" rx="15.00" ry="15.00" style="stroke:none;opacity:1;fill:rgb(91,178,126);" /><ellipse id="479" cy="9.06" cx="15.01" transform="&E16;" rx="3.50" ry="3.50" style="&E6;" /><ellipse id="480" cy="18.49" cx="9.12" transform="&E16;" rx="3.50" ry="3.50" style="&E6;" /><ellipse id="481" cy="18.46" cx="20.88" transform="&E16;" rx="3.50" ry="3.50" style="&E6;" /><text id="482" transform="&E8;" x="4.00" y="39.00" style="stroke:none;clip-path:url(#484_text_clipper);font-family:Microsoft Sans Serif;fill:rgb(0,0,0);font-size:8.25pt;opacity:1;"><tspan dy="8.25pt" id="486">Source1</tspan></text></g><defs id="clips_hatches_and_gradients"><clipPath id="457_text_clipper"><rect x="164.00" y="39.00" width="50.31" height="27.65" id="458" /></clipPath><clipPath id="463_text_clipper"><rect x="164.00" y="51.45" width="50.31" height="27.65" id="464" /></clipPath><clipPath id="473_text_clipper"><rect x="84.00" y="39.00" width="62.97" height="13.83" id="474" /></clipPath><clipPath id="484_text_clipper"><rect x="4.00" y="39.00" width="45.86" height="13.83" id="485" /></clipPath></defs></svg>