<?xml version="1.0" standalone="yes"?><!DOCTYPE svg PUBLIC "-//W3C//DTD SVG 1.1//EN" "http://www.w3.org/Graphics/SVG/1.1/DTD/svg11.dtd"[
<!ENTITY E14 'stroke:none;opacity:1;fill:rgb(68,154,223);'><!ENTITY E50 'matrix(1.25 0.00 0.00 1.25 5.00 105.00 ) '><!ENTITY E20 'matrix(1.25 0.00 0.00 1.25 405.00 105.00 ) '><!ENTITY E37 'matrix(1.25 0.00 0.00 1.25 205.00 205.00 ) '><!ENTITY E33 'matrix(1.25 0.00 0.00 1.25 205.00 5.00 ) '><!ENTITY E8 'matrix(1.00 0.00 0.00 1.00 0.00 0.00 ) '><!ENTITY E16 'stroke:none;fill-rule:evenodd;opacity:1;fill:rgb(255,255,255);'><!ENTITY E25 'stroke:rgb(169,169,169);fill:none;stroke-linecap:butt;stroke-miterlimit:9;opacity:1;stroke-width:2;stroke-linejoin:miter;'><!ENTITY E11 'matrix(1.25 0.00 0.00 1.25 505.00 205.00 ) '><!ENTITY E18 'M 5.5001 19.484 10.6493 19.484 16.2743 10.2485 19.3728 10.2485 M 14.6769 17.1481 16.3089 19.4828 19.2202 19.4828 M 5.500199 10.2437 10.7586 10.2437 12.1652 12.8707 '><!ENTITY E15 'M 19.156 13.888 19.156 10.3647 19.156 6.841399 25.2585 10.3647 22.2072 12.1264 z '><!ENTITY E17 'M 19.156 22.97 19.156 19.4467 19.156 15.9234 25.2585 19.4467 22.2072 21.2084 z '><!ENTITY E6 'stroke:rgb(255,255,255);fill:none;stroke-linecap:butt;stroke-miterlimit:9;opacity:1;stroke-width:2;stroke-linejoin:miter;'><!ENTITY E42 'matrix(1.25 0.00 0.00 1.25 105.00 105.00 ) '><!ENTITY E2 'matrix(1.25 0.00 0.00 1.25 505.00 5.00 ) '><!ENTITY E40 'M 16.849 10.062 23.4027 10.062 M 16.6038 19.6084 23.3505 19.6084 M 12.3075 17.1615 7.5719 21.8971 M 7.577335 17.152 12.31704 21.8917 M 6.564136 10.0047 13.30904 10.0047 M 9.936636 6.6288 9.936636 13.3806 '><!ENTITY E48 'M 10.482 12.156 C 9.063601 9.8878 10.57304 6.5688 13.2149 6.1474 15.8164 5.52346 18.4832 8.0098 18.0432 10.6485 L 17.97693 11.02591 '><!ENTITY E4 'stroke:none;opacity:1;fill:rgb(255,255,255);'><!ENTITY E9 'matrix(1.25 0.00 0.00 1.25 505.00 105.00 ) '><!ENTITY E31 'matrix(1.25 0.00 0.00 1.25 305.00 205.00 ) '><!ENTITY E27 'stroke:none;opacity:1;fill:rgb(91,178,126);'><!ENTITY E29 'matrix(1.25 0.00 0.00 1.25 305.00 105.00 ) '><!ENTITY E39 'matrix(1.25 0.00 0.00 1.25 105.00 5.00 ) '><!ENTITY E13 'matrix(1.25 0.00 0.00 1.25 405.00 5.00 ) '><!ENTITY E26 'matrix(1.25 0.00 0.00 1.25 305.00 5.00 ) '><!ENTITY E5 'M 10.082 15.655 C 13.5023 13.0496 16.1727 13.2369 19.3649 15.64395 M 6.568899 12.14155 C 11.9518 7.82015 17.1159 7.63745 22.9119 12.09735 '><!ENTITY E52 'matrix(1.25 0.00 0.00 1.25 5.00 205.00 ) '><!ENTITY E3 'stroke:none;opacity:1;fill:rgb(238,192,75);'><!ENTITY E1 'stroke:rgb(169,169,169);fill:none;stroke-linecap:butt;stroke-miterlimit:9;opacity:1;stroke-width:1.25;stroke-linejoin:miter;'><!ENTITY E47 'M 8.5404 18.526 C 8.154759 18.14036 8.426559 17.3734 8.7512 17.0487 9.0693 16.7306 9.8857 16.65478 10.3397 17.03595 L 12.5301 18.80525 12.82094 9.664146 C 12.82094 9.305857 13.42471 8.739877 14.05254 8.739877 14.79871 8.739877 15.36764 9.316096 15.36764 9.695367 L 15.5586 15.04327 20.0645 16.74627 C 20.25033 16.81 20.49544 16.99536 20.49518 17.22225 L 20.49808 21.04985 19.11318 23.37955 19.11318 24.51755 13.23218 24.51755 13.23218 23.37955 z '><!ENTITY E22 'matrix(1.25 0.00 0.00 1.25 405.00 205.00 ) '><!ENTITY E44 'matrix(1.25 0.00 0.00 1.25 105.00 205.00 ) '><!ENTITY E46 'matrix(1.25 0.00 0.00 1.25 5.00 5.00 ) '><!ENTITY E24 'M 31.179 5.2 C 34.9985 11.0918 34.9814 18.682 31.13552 24.557 '><!ENTITY E35 'matrix(1.25 0.00 0.00 1.25 205.00 105.00 ) '>
]><svg width="546.25" height="265.0889" id="SvgGdi_output" xmlns="http://www.w3.org/2000/svg"><rect id="background" height="100.00%" style="fill:rgb(255,255,255);" width="100.00%" y="0.00" x="0.00" /><g style="shape-rendering:auto;" id="root_group"><line y1="23.75" style="&E1;" id="2359" x2="500.00" y2="23.75" x1="447.50" /><line y1="123.75" style="&E1;" id="2360" x2="500.00" y2="123.75" x1="447.50" /><line y1="223.75" style="&E1;" id="2361" x2="500.00" y2="223.75" x1="447.50" /><line y1="23.75" style="&E1;" id="2362" x2="400.00" y2="23.75" x1="347.50" /><line y1="123.75" style="&E1;" id="2363" x2="400.00" y2="123.75" x1="347.50" /><line y1="223.75" style="&E1;" id="2364" x2="400.00" y2="223.75" x1="347.50" /><line y1="23.75" style="&E1;" id="2365" x2="300.00" y2="23.75" x1="247.50" /><line y1="123.75" style="&E1;" id="2366" x2="300.00" y2="123.75" x1="247.50" /><line y1="223.75" style="&E1;" id="2367" x2="300.00" y2="223.75" x1="247.50" /><line y1="23.75" style="&E1;" id="2368" x2="200.00" y2="23.75" x1="147.50" /><line y1="123.75" style="&E1;" id="2369" x2="200.00" y2="123.75" x1="147.50" /><line y1="223.75" style="&E1;" id="2370" x2="200.00" y2="223.75" x1="147.50" /><line y1="23.75" style="&E1;" id="2371" x2="100.00" y2="23.75" x1="47.50" /><line y1="123.75" style="&E1;" id="2372" x2="100.00" y2="123.75" x1="47.50" /><line y1="223.75" style="&E1;" id="2373" x2="100.00" y2="223.75" x1="47.50" /><ellipse id="2374" cy="15.00" cx="15.00" transform="&E2;" rx="15.00" ry="15.00" style="&E3;" /><ellipse id="2375" cy="20.29" cx="14.72" transform="&E2;" rx="2.40" ry="2.40" style="&E4;" /><path d="&E5;" style="&E6;" transform="&E2;" id="2376" /><text id="2377" transform="&E8;" x="505.00" y="48.75" style="stroke:none;clip-path:url(#2379_text_clipper);font-family:Microsoft Sans Serif;fill:rgb(0,0,0);font-size:9.75pt;opacity:1;"><tspan dy="9.75pt" id="2381">Parse</tspan></text><ellipse id="2383" cy="15.00" cx="15.00" transform="&E9;" rx="15.00" ry="15.00" style="&E3;" /><ellipse id="2384" cy="20.29" cx="14.72" transform="&E9;" rx="2.40" ry="2.40" style="&E4;" /><path d="&E5;" style="&E6;" transform="&E9;" id="2385" /><text id="2386" transform="&E8;" x="505.00" y="148.75" style="stroke:none;clip-path:url(#2388_text_clipper);font-family:Microsoft Sans Serif;fill:rgb(0,0,0);font-size:9.75pt;opacity:1;"><tspan dy="9.75pt" id="2390">Parse</tspan></text><ellipse id="2392" cy="15.00" cx="15.00" transform="&E11;" rx="15.00" ry="15.00" style="&E3;" /><ellipse id="2393" cy="20.29" cx="14.72" transform="&E11;" rx="2.40" ry="2.40" style="&E4;" /><path d="&E5;" style="&E6;" transform="&E11;" id="2394" /><text id="2395" transform="&E8;" x="505.00" y="248.75" style="stroke:none;clip-path:url(#2397_text_clipper);font-family:Microsoft Sans Serif;fill:rgb(0,0,0);font-size:9.75pt;opacity:1;"><tspan dy="9.75pt" id="2399">Parse</tspan></text><ellipse id="2401" cy="15.00" cx="15.00" transform="&E13;" rx="15.00" ry="15.00" style="&E14;" /><path d="&E15;" style="&E16;" transform="&E13;" id="2402" /><path d="&E17;" style="&E16;" transform="&E13;" id="2403" /><path d="&E18;" style="&E6;" transform="&E13;" id="2404" /><text id="2405" transform="&E8;" x="405.00" y="48.75" style="stroke:none;clip-path:url(#2407_text_clipper);font-family:Microsoft Sans Serif;fill:rgb(0,0,0);font-size:9.75pt;opacity:1;"><tspan dy="9.75pt" id="2409">Message</tspan></text><ellipse id="2411" cy="15.00" cx="15.00" transform="&E20;" rx="15.00" ry="15.00" style="&E14;" /><path d="&E15;" style="&E16;" transform="&E20;" id="2412" /><path d="&E17;" style="&E16;" transform="&E20;" id="2413" /><path d="&E18;" style="&E6;" transform="&E20;" id="2414" /><text id="2415" transform="&E8;" x="405.00" y="148.75" style="stroke:none;clip-path:url(#2417_text_clipper);font-family:Microsoft Sans Serif;fill:rgb(0,0,0);font-size:9.75pt;opacity:1;"><tspan dy="9.75pt" id="2419">Message</tspan></text><ellipse id="2421" cy="15.00" cx="15.00" transform="&E22;" rx="15.00" ry="15.00" style="&E14;" /><path d="&E15;" style="&E16;" transform="&E22;" id="2422" /><path d="&E17;" style="&E16;" transform="&E22;" id="2423" /><path d="&E18;" style="&E6;" transform="&E22;" id="2424" /><text id="2425" transform="&E8;" x="405.00" y="248.75" style="stroke:none;clip-path:url(#2427_text_clipper);font-family:Microsoft Sans Serif;fill:rgb(0,0,0);font-size:9.75pt;opacity:1;"><tspan dy="9.75pt" id="2429">Message</tspan></text><path d="&E24;" style="&E25;" transform="&E26;" id="2431" /><ellipse id="2432" cy="15.00" cx="15.00" transform="&E26;" rx="15.00" ry="15.00" style="&E27;" /><text id="2433" transform="&E8;" x="305.00" y="48.75" style="stroke:none;clip-path:url(#2435_text_clipper);font-family:Microsoft Sans Serif;fill:rgb(0,0,0);font-size:9.75pt;opacity:1;"><tspan dy="9.75pt" id="2437">Dealer</tspan></text><path d="&E24;" style="&E25;" transform="&E29;" id="2439" /><ellipse id="2440" cy="15.00" cx="15.00" transform="&E29;" rx="15.00" ry="15.00" style="&E27;" /><text id="2441" transform="&E8;" x="305.00" y="148.75" style="stroke:none;clip-path:url(#2443_text_clipper);font-family:Microsoft Sans Serif;fill:rgb(0,0,0);font-size:9.75pt;opacity:1;"><tspan dy="9.75pt" id="2445">Dealer</tspan></text><path d="&E24;" style="&E25;" transform="&E31;" id="2447" /><ellipse id="2448" cy="15.00" cx="15.00" transform="&E31;" rx="15.00" ry="15.00" style="&E27;" /><text id="2449" transform="&E8;" x="305.00" y="248.75" style="stroke:none;clip-path:url(#2451_text_clipper);font-family:Microsoft Sans Serif;fill:rgb(0,0,0);font-size:9.75pt;opacity:1;"><tspan dy="9.75pt" id="2453">Dealer</tspan></text><ellipse id="2455" cy="15.00" cx="15.00" transform="&E33;" rx="15.00" ry="15.00" style="&E14;" /><ellipse id="2456" cy="20.29" cx="14.72" transform="&E33;" rx="2.40" ry="2.40" style="&E4;" /><path d="&E5;" style="&E6;" transform="&E33;" id="2457" /><text id="2458" transform="&E8;" x="205.00" y="48.75" style="stroke:none;clip-path:url(#2460_text_clipper);font-family:Microsoft Sans Serif;fill:rgb(0,0,0);font-size:9.75pt;opacity:1;"><tspan dy="9.75pt" id="2462">Format</tspan></text><ellipse id="2464" cy="15.00" cx="15.00" transform="&E35;" rx="15.00" ry="15.00" style="&E14;" /><ellipse id="2465" cy="20.29" cx="14.72" transform="&E35;" rx="2.40" ry="2.40" style="&E4;" /><path d="&E5;" style="&E6;" transform="&E35;" id="2466" /><text id="2467" transform="&E8;" x="205.00" y="148.75" style="stroke:none;clip-path:url(#2469_text_clipper);font-family:Microsoft Sans Serif;fill:rgb(0,0,0);font-size:9.75pt;opacity:1;"><tspan dy="9.75pt" id="2471">Format</tspan></text><ellipse id="2473" cy="15.00" cx="15.00" transform="&E37;" rx="15.00" ry="15.00" style="&E14;" /><ellipse id="2474" cy="20.29" cx="14.72" transform="&E37;" rx="2.40" ry="2.40" style="&E4;" /><path d="&E5;" style="&E6;" transform="&E37;" id="2475" /><text id="2476" transform="&E8;" x="205.00" y="248.75" style="stroke:none;clip-path:url(#2478_text_clipper);font-family:Microsoft Sans Serif;fill:rgb(0,0,0);font-size:9.75pt;opacity:1;"><tspan dy="9.75pt" id="2480">Format</tspan></text><path d="&E24;" style="&E25;" transform="&E39;" id="2482" /><ellipse id="2483" cy="15.00" cx="15.00" transform="&E39;" rx="15.00" ry="15.00" style="&E27;" /><path d="&E40;" style="&E6;" transform="&E39;" id="2484" /><ellipse id="2485" cy="16.33" cx="19.93" transform="&E39;" rx="1.30" ry="1.30" style="&E4;" /><ellipse id="2486" cy="22.83" cx="19.93" transform="&E39;" rx="1.30" ry="1.30" style="&E4;" /><text id="2487" transform="&E8;" x="105.00" y="48.75" style="stroke:none;clip-path:url(#2489_text_clipper);font-family:Microsoft Sans Serif;fill:rgb(0,0,0);font-size:9.75pt;opacity:1;"><tspan dy="9.75pt" id="2491">String</tspan></text><path d="&E24;" style="&E25;" transform="&E42;" id="2493" /><ellipse id="2494" cy="15.00" cx="15.00" transform="&E42;" rx="15.00" ry="15.00" style="&E27;" /><path d="&E40;" style="&E6;" transform="&E42;" id="2495" /><ellipse id="2496" cy="16.33" cx="19.93" transform="&E42;" rx="1.30" ry="1.30" style="&E4;" /><ellipse id="2497" cy="22.83" cx="19.93" transform="&E42;" rx="1.30" ry="1.30" style="&E4;" /><text id="2498" transform="&E8;" x="105.00" y="148.75" style="stroke:none;clip-path:url(#2500_text_clipper);font-family:Microsoft Sans Serif;fill:rgb(0,0,0);font-size:9.75pt;opacity:1;"><tspan dy="9.75pt" id="2502">String</tspan></text><path d="&E24;" style="&E25;" transform="&E44;" id="2504" /><ellipse id="2505" cy="15.00" cx="15.00" transform="&E44;" rx="15.00" ry="15.00" style="&E27;" /><path d="&E40;" style="&E6;" transform="&E44;" id="2506" /><ellipse id="2507" cy="16.33" cx="19.93" transform="&E44;" rx="1.30" ry="1.30" style="&E4;" /><ellipse id="2508" cy="22.83" cx="19.93" transform="&E44;" rx="1.30" ry="1.30" style="&E4;" /><text id="2509" transform="&E8;" x="105.00" y="248.75" style="stroke:none;clip-path:url(#2511_text_clipper);font-family:Microsoft Sans Serif;fill:rgb(0,0,0);font-size:9.75pt;opacity:1;"><tspan dy="9.75pt" id="2513">String</tspan></text><path d="&E24;" style="&E25;" transform="&E46;" id="2515" /><ellipse id="2516" cy="15.00" cx="15.00" transform="&E46;" rx="15.00" ry="15.00" style="&E27;" /><path d="&E47;" style="&E16;" transform="&E46;" id="2517" /><path d="&E48;" style="&E6;" transform="&E46;" id="2518" /><text id="2519" transform="&E8;" x="5.00" y="48.75" style="stroke:none;clip-path:url(#2521_text_clipper);font-family:Microsoft Sans Serif;fill:rgb(0,0,0);font-size:9.75pt;opacity:1;"><tspan dy="9.75pt" id="2523">KeyDown</tspan></text><path d="&E24;" style="&E25;" transform="&E50;" id="2525" /><ellipse id="2526" cy="15.00" cx="15.00" transform="&E50;" rx="15.00" ry="15.00" style="&E27;" /><path d="&E47;" style="&E16;" transform="&E50;" id="2527" /><path d="&E48;" style="&E6;" transform="&E50;" id="2528" /><text id="2529" transform="&E8;" x="5.00" y="148.75" style="stroke:none;clip-path:url(#2531_text_clipper);font-family:Microsoft Sans Serif;fill:rgb(0,0,0);font-size:9.75pt;opacity:1;"><tspan dy="9.75pt" id="2533">KeyDown</tspan></text><path d="&E24;" style="&E25;" transform="&E52;" id="2535" /><ellipse id="2536" cy="15.00" cx="15.00" transform="&E52;" rx="15.00" ry="15.00" style="&E27;" /><path d="&E47;" style="&E16;" transform="&E52;" id="2537" /><path d="&E48;" style="&E6;" transform="&E52;" id="2538" /><text id="2539" transform="&E8;" x="5.00" y="248.75" style="stroke:none;clip-path:url(#2541_text_clipper);font-family:Microsoft Sans Serif;fill:rgb(0,0,0);font-size:9.75pt;opacity:1;"><tspan dy="9.75pt" id="2543">KeyDown</tspan></text></g><defs id="clips_hatches_and_gradients"><clipPath id="2379_text_clipper"><rect x="505.00" y="48.75" width="39.31" height="16.34" id="2380" /></clipPath><clipPath id="2388_text_clipper"><rect x="505.00" y="148.75" width="39.31" height="16.34" id="2389" /></clipPath><clipPath id="2397_text_clipper"><rect x="505.00" y="248.75" width="39.31" height="16.34" id="2398" /></clipPath><clipPath id="2407_text_clipper"><rect x="405.00" y="48.75" width="58.66" height="16.34" id="2408" /></clipPath><clipPath id="2417_text_clipper"><rect x="405.00" y="148.75" width="58.66" height="16.34" id="2418" /></clipPath><clipPath id="2427_text_clipper"><rect x="405.00" y="248.75" width="58.66" height="16.34" id="2428" /></clipPath><clipPath id="2435_text_clipper"><rect x="305.00" y="48.75" width="43.85" height="16.34" id="2436" /></clipPath><clipPath id="2443_text_clipper"><rect x="305.00" y="148.75" width="43.85" height="16.34" id="2444" /></clipPath><clipPath id="2451_text_clipper"><rect x="305.00" y="248.75" width="43.85" height="16.34" id="2452" /></clipPath><clipPath id="2460_text_clipper"><rect x="205.00" y="48.75" width="46.74" height="16.34" id="2461" /></clipPath><clipPath id="2469_text_clipper"><rect x="205.00" y="148.75" width="46.74" height="16.34" id="2470" /></clipPath><clipPath id="2478_text_clipper"><rect x="205.00" y="248.75" width="46.74" height="16.34" id="2479" /></clipPath><clipPath id="2489_text_clipper"><rect x="105.00" y="48.75" width="39.39" height="16.34" id="2490" /></clipPath><clipPath id="2500_text_clipper"><rect x="105.00" y="148.75" width="39.39" height="16.34" id="2501" /></clipPath><clipPath id="2511_text_clipper"><rect x="105.00" y="248.75" width="39.39" height="16.34" id="2512" /></clipPath><clipPath id="2521_text_clipper"><rect x="5.00" y="48.75" width="61.63" height="16.34" id="2522" /></clipPath><clipPath id="2531_text_clipper"><rect x="5.00" y="148.75" width="61.63" height="16.34" id="2532" /></clipPath><clipPath id="2541_text_clipper"><rect x="5.00" y="248.75" width="61.63" height="16.34" id="2542" /></clipPath></defs></svg>