<?xml version="1.0" standalone="yes"?><!DOCTYPE svg PUBLIC "-//W3C//DTD SVG 1.1//EN" "http://www.w3.org/Graphics/SVG/1.1/DTD/svg11.dtd"[
<!ENTITY E10 'stroke:none;opacity:1;fill:rgb(255,255,255);'><!ENTITY E8 'matrix(1.25 0.00 0.00 1.25 205.00 5.00 ) '><!ENTITY E3 'stroke:rgb(169,169,169);fill:none;stroke-linecap:butt;stroke-miterlimit:9;opacity:1;stroke-width:2;stroke-linejoin:miter;'><!ENTITY E14 'matrix(1.25 0.00 0.00 1.25 105.00 5.00 ) '><!ENTITY E2 'M 31.179 5.2 C 34.9985 11.0918 34.9814 18.682 31.13552 24.557 '><!ENTITY E12 'stroke:rgb(255,255,255);fill:none;stroke-linecap:butt;stroke-miterlimit:9;opacity:1;stroke-width:2;stroke-linejoin:miter;'><!ENTITY E5 'stroke:none;opacity:1;fill:rgb(91,178,126);'><!ENTITY E17 'matrix(1.25 0.00 0.00 1.25 5.00 5.00 ) '><!ENTITY E4 'matrix(1.25 0.00 0.00 1.25 305.00 5.00 ) '><!ENTITY E1 'stroke:rgb(169,169,169);fill:none;stroke-linecap:butt;stroke-miterlimit:9;opacity:1;stroke-width:1.25;stroke-linejoin:miter;'><!ENTITY E7 'matrix(1.00 0.00 0.00 1.00 0.00 0.00 ) '>
]><svg width="350.0975" height="65.08887" id="SvgGdi_output" xmlns="http://www.w3.org/2000/svg"><rect id="background" height="100.00%" style="fill:rgb(255,255,255);" width="100.00%" y="0.00" x="0.00" /><g style="shape-rendering:auto;" id="root_group"><line y1="23.75" style="&E1;" id="106" x2="300.00" y2="23.75" x1="247.50" /><line y1="23.75" style="&E1;" id="107" x2="200.00" y2="23.75" x1="147.50" /><line y1="23.75" style="&E1;" id="108" x2="100.00" y2="23.75" x1="47.50" /><path d="&E2;" style="&E3;" transform="&E4;" id="109" /><ellipse id="110" cy="15.00" cx="15.00" transform="&E4;" rx="15.00" ry="15.00" style="&E5;" /><text id="111" transform="&E7;" x="305.00" y="48.75" style="stroke:none;clip-path:url(#113_text_clipper);font-family:Microsoft Sans Serif;fill:rgb(0,0,0);font-size:9.75pt;opacity:1;"><tspan dy="9.75pt" id="115">Dealer</tspan></text><ellipse id="117" cy="15.00" cx="15.00" transform="&E8;" rx="15.00" ry="15.00" style="stroke:none;opacity:1;fill:rgb(68,154,223);" /><ellipse id="118" cy="20.29" cx="14.72" transform="&E8;" rx="2.40" ry="2.40" style="&E10;" /><path style="&E12;" transform="&E8;" id="119" d="M 10.082 15.655 C 13.5023 13.0496 16.1727 13.2369 19.3649 15.64395 M 6.568899 12.14155 C 11.9518 7.82015 17.1159 7.63745 22.9119 12.09735 " /><text id="120" transform="&E7;" x="205.00" y="48.75" style="stroke:none;clip-path:url(#122_text_clipper);font-family:Microsoft Sans Serif;fill:rgb(0,0,0);font-size:9.75pt;opacity:1;"><tspan dy="9.75pt" id="124">Format</tspan></text><path d="&E2;" style="&E3;" transform="&E14;" id="126" /><ellipse id="127" cy="15.00" cx="15.00" transform="&E14;" rx="15.00" ry="15.00" style="&E5;" /><path style="&E12;" transform="&E14;" id="128" d="M 16.849 10.062 23.4027 10.062 M 16.6038 19.6084 23.3505 19.6084 M 12.3075 17.1615 7.5719 21.8971 M 7.577335 17.152 12.31704 21.8917 M 6.564136 10.0047 13.30904 10.0047 M 9.936636 6.6288 9.936636 13.3806 " /><ellipse id="129" cy="16.33" cx="19.93" transform="&E14;" rx="1.30" ry="1.30" style="&E10;" /><ellipse id="130" cy="22.83" cx="19.93" transform="&E14;" rx="1.30" ry="1.30" style="&E10;" /><text id="131" transform="&E7;" x="105.00" y="48.75" style="stroke:none;clip-path:url(#133_text_clipper);font-family:Microsoft Sans Serif;fill:rgb(0,0,0);font-size:9.75pt;opacity:1;"><tspan dy="9.75pt" id="135">String</tspan></text><path d="&E2;" style="&E3;" transform="&E17;" id="137" /><ellipse id="138" cy="15.00" cx="15.00" transform="&E17;" rx="15.00" ry="15.00" style="&E5;" /><path transform="&E17;" id="139" d="M 8.5404 18.526 C 8.154759 18.14036 8.426559 17.3734 8.7512 17.0487 9.0693 16.7306 9.8857 16.65478 10.3397 17.03595 L 12.5301 18.80525 12.82094 9.664146 C 12.82094 9.305857 13.42471 8.739877 14.05254 8.739877 14.79871 8.739877 15.36764 9.316096 15.36764 9.695367 L 15.5586 15.04327 20.0645 16.74627 C 20.25033 16.81 20.49544 16.99536 20.49518 17.22225 L 20.49808 21.04985 19.11318 23.37955 19.11318 24.51755 13.23218 24.51755 13.23218 23.37955 z " style="stroke:none;fill-rule:evenodd;opacity:1;fill:rgb(255,255,255);" /><path style="&E12;" transform="&E17;" id="140" d="M 10.482 12.156 C 9.063601 9.8878 10.57304 6.5688 13.2149 6.1474 15.8164 5.52346 18.4832 8.0098 18.0432 10.6485 L 17.97693 11.02591 " /><text id="141" transform="&E7;" x="5.00" y="48.75" style="stroke:none;clip-path:url(#143_text_clipper);font-family:Microsoft Sans Serif;fill:rgb(0,0,0);font-size:9.75pt;opacity:1;"><tspan dy="9.75pt" id="145">KeyDown</tspan></text></g><defs id="clips_hatches_and_gradients"><clipPath id="113_text_clipper"><rect x="305.00" y="48.75" width="43.85" height="16.34" id="114" /></clipPath><clipPath id="122_text_clipper"><rect x="205.00" y="48.75" width="46.74" height="16.34" id="123" /></clipPath><clipPath id="133_text_clipper"><rect x="105.00" y="48.75" width="39.39" height="16.34" id="134" /></clipPath><clipPath id="143_text_clipper"><rect x="5.00" y="48.75" width="61.63" height="16.34" id="144" /></clipPath></defs></svg>