<?xml version="1.0" standalone="yes"?><!DOCTYPE svg PUBLIC "-//W3C//DTD SVG 1.1//EN" "http://www.w3.org/Graphics/SVG/1.1/DTD/svg11.dtd"[
<!ENTITY E2 'matrix(1.25 0.00 0.00 1.25 205.00 5.00 ) '><!ENTITY E6 'stroke:none;opacity:1;fill:rgb(255,255,255);'><!ENTITY E3 'stroke:none;opacity:1;fill:rgb(68,154,223);'><!ENTITY E9 'matrix(1.25 0.00 0.00 1.25 205.00 105.00 ) '><!ENTITY E16 'M 19.156 22.97 19.156 19.4467 19.156 15.9234 25.2585 19.4467 22.2072 21.2084 z '><!ENTITY E13 'matrix(1.25 0.00 0.00 1.25 105.00 5.00 ) '><!ENTITY E5 'stroke:rgb(255,255,255);fill:none;stroke-linecap:butt;stroke-miterlimit:9;opacity:1;stroke-width:2;stroke-linejoin:miter;'><!ENTITY E17 'M 5.5001 19.484 10.6493 19.484 16.2743 10.2485 19.3728 10.2485 M 14.6769 17.1481 16.3089 19.4828 19.2202 19.4828 M 5.500199 10.2437 10.7586 10.2437 12.1652 12.8707 '><!ENTITY E19 'matrix(1.25 0.00 0.00 1.25 105.00 105.00 ) '><!ENTITY E23 'matrix(1.25 0.00 0.00 1.25 5.00 5.00 ) '><!ENTITY E14 'M 19.156 13.888 19.156 10.3647 19.156 6.841399 25.2585 10.3647 22.2072 12.1264 z '><!ENTITY E15 'stroke:none;fill-rule:evenodd;opacity:1;fill:rgb(255,255,255);'><!ENTITY E1 'stroke:rgb(169,169,169);fill:none;stroke-linecap:butt;stroke-miterlimit:9;opacity:1;stroke-width:1.25;stroke-linejoin:miter;'><!ENTITY E8 'matrix(1.00 0.00 0.00 1.00 0.00 0.00 ) '>
]><svg width="246.25" height="165.0889" id="SvgGdi_output" xmlns="http://www.w3.org/2000/svg"><rect id="background" height="100.00%" style="fill:rgb(255,255,255);" width="100.00%" y="0.00" x="0.00" /><g style="shape-rendering:auto;" id="root_group"><line y1="23.75" style="&E1;" id="634" x2="200.00" y2="23.75" x1="147.50" /><line y1="123.75" style="&E1;" id="635" x2="200.00" y2="123.75" x1="147.50" /><line y1="23.75" style="&E1;" id="636" x2="100.00" y2="23.75" x1="47.50" /><line y1="23.75" style="&E1;" id="637" x2="100.00" y2="123.75" x1="47.50" /><ellipse id="638" cy="15.00" cx="15.00" transform="&E2;" rx="15.00" ry="15.00" style="&E3;" /><path style="&E5;" transform="&E2;" id="639" d="M 16.849 10.062 23.4027 10.062 M 16.6038 19.6084 23.3505 19.6084 M 12.3075 17.1615 7.5719 21.8971 M 7.577335 17.152 12.31704 21.8917 M 6.564136 10.0047 13.30904 10.0047 M 9.936636 6.6288 9.936636 13.3806 " /><ellipse id="640" cy="16.33" cx="19.93" transform="&E2;" rx="1.30" ry="1.30" style="&E6;" /><ellipse id="641" cy="22.83" cx="19.93" transform="&E2;" rx="1.30" ry="1.30" style="&E6;" /><text id="642" transform="&E8;" x="205.00" y="48.75" style="stroke:none;clip-path:url(#644_text_clipper);font-family:Microsoft Sans Serif;fill:rgb(0,0,0);font-size:9.75pt;opacity:1;"><tspan dy="9.75pt" id="646">Index</tspan></text><ellipse id="648" cy="15.00" cx="15.00" transform="&E9;" rx="15.00" ry="15.00" style="stroke:none;opacity:1;fill:rgb(238,192,75);" /><ellipse id="649" cy="20.29" cx="14.72" transform="&E9;" rx="2.40" ry="2.40" style="&E6;" /><path style="&E5;" transform="&E9;" id="650" d="M 10.082 15.655 C 13.5023 13.0496 16.1727 13.2369 19.3649 15.64395 M 6.568899 12.14155 C 11.9518 7.82015 17.1159 7.63745 22.9119 12.09735 " /><text id="651" transform="&E8;" x="205.00" y="148.75" style="stroke:none;clip-path:url(#653_text_clipper);font-family:Microsoft Sans Serif;fill:rgb(0,0,0);font-size:9.75pt;opacity:1;"><tspan dy="9.75pt" id="655">Parse</tspan></text><ellipse id="657" cy="15.00" cx="15.00" transform="&E13;" rx="15.00" ry="15.00" style="&E3;" /><path d="&E14;" style="&E15;" transform="&E13;" id="658" /><path d="&E16;" style="&E15;" transform="&E13;" id="659" /><path d="&E17;" style="&E5;" transform="&E13;" id="660" /><text id="661" transform="&E8;" x="105.00" y="48.75" style="stroke:none;clip-path:url(#663_text_clipper);font-family:Microsoft Sans Serif;fill:rgb(0,0,0);font-size:9.75pt;opacity:1;"><tspan dy="9.75pt" id="665">Address</tspan></text><ellipse id="667" cy="15.00" cx="15.00" transform="&E19;" rx="15.00" ry="15.00" style="&E3;" /><path d="&E14;" style="&E15;" transform="&E19;" id="668" /><path d="&E16;" style="&E15;" transform="&E19;" id="669" /><path d="&E17;" style="&E5;" transform="&E19;" id="670" /><text id="671" transform="&E8;" x="105.00" y="148.75" style="stroke:none;clip-path:url(#673_text_clipper);font-family:Microsoft Sans Serif;fill:rgb(0,0,0);font-size:9.75pt;opacity:1;"><tspan dy="9.75pt" id="675">Message</tspan></text><path transform="&E23;" id="677" style="stroke:rgb(169,169,169);fill:none;stroke-linecap:butt;stroke-miterlimit:9;opacity:1;stroke-width:2;stroke-linejoin:miter;" d="M 31.179 5.2 C 34.9985 11.0918 34.9814 18.682 31.13552 24.557 " /><ellipse id="678" cy="15.00" cx="15.00" transform="&E23;" rx="15.00" ry="15.00" style="stroke:none;opacity:1;fill:rgb(91,178,126);" /><ellipse id="679" cy="23.75" cx="5.00" rx="3.75" ry="3.75" style="stroke:rgb(169,169,169);fill:none;stroke-linecap:butt;stroke-miterlimit:9;opacity:1;stroke-width:2.5;stroke-linejoin:miter;" /><ellipse id="680" cy="23.75" cx="5.00" rx="3.75" ry="3.75" style="&E6;" /><text id="681" transform="&E8;" x="5.00" y="48.75" style="stroke:none;clip-path:url(#683_text_clipper);font-family:Microsoft Sans Serif;fill:rgb(0,0,0);font-size:9.75pt;opacity:1;"><tspan dy="9.75pt" id="685">Router</tspan></text></g><defs id="clips_hatches_and_gradients"><clipPath id="644_text_clipper"><rect x="205.00" y="48.75" width="37.09" height="16.34" id="645" /></clipPath><clipPath id="653_text_clipper"><rect x="205.00" y="148.75" width="39.31" height="16.34" id="654" /></clipPath><clipPath id="663_text_clipper"><rect x="105.00" y="48.75" width="53.45" height="16.34" id="664" /></clipPath><clipPath id="673_text_clipper"><rect x="105.00" y="148.75" width="58.66" height="16.34" id="674" /></clipPath><clipPath id="683_text_clipper"><rect x="5.00" y="48.75" width="44.51" height="16.34" id="684" /></clipPath></defs></svg>