<?xml version="1.0" standalone="yes"?><!DOCTYPE svg PUBLIC "-//W3C//DTD SVG 1.1//EN" "http://www.w3.org/Graphics/SVG/1.1/DTD/svg11.dtd"[
<!ENTITY E20 'stroke:none;opacity:1;fill:rgb(68,154,223);'><!ENTITY E28 'matrix(1.25 0.00 0.00 1.25 205.00 5.00 ) '><!ENTITY E9 'matrix(1.00 0.00 0.00 1.00 0.00 0.00 ) '><!ENTITY E19 'matrix(1.25 0.00 0.00 1.25 405.00 305.00 ) '><!ENTITY E7 'stroke:none;fill-rule:evenodd;opacity:1;fill:rgb(255,255,255);'><!ENTITY E3 'stroke:rgb(169,169,169);fill:none;stroke-linecap:butt;stroke-miterlimit:9;opacity:1;stroke-width:2;stroke-linejoin:miter;'><!ENTITY E11 'matrix(1.25 0.00 0.00 1.25 505.00 205.00 ) '><!ENTITY E34 'M 5.5001 19.484 10.6493 19.484 16.2743 10.2485 19.3728 10.2485 M 14.6769 17.1481 16.3089 19.4828 19.2202 19.4828 M 5.500199 10.2437 10.7586 10.2437 12.1652 12.8707 '><!ENTITY E32 'M 19.156 13.888 19.156 10.3647 19.156 6.841399 25.2585 10.3647 22.2072 12.1264 z '><!ENTITY E33 'M 19.156 22.97 19.156 19.4467 19.156 15.9234 25.2585 19.4467 22.2072 21.2084 z '><!ENTITY E22 'stroke:rgb(255,255,255);fill:none;stroke-linecap:butt;stroke-miterlimit:9;opacity:1;stroke-width:2;stroke-linejoin:miter;'><!ENTITY E4 'matrix(1.25 0.00 0.00 1.25 505.00 5.00 ) '><!ENTITY E31 'matrix(1.25 0.00 0.00 1.25 205.00 305.00 ) '><!ENTITY E15 'stroke:none;opacity:1;fill:rgb(255,255,255);'><!ENTITY E13 'M 12.246 6.0137 12.246 6.019559 C 12.05806 6.020259 11.89471 6.040434 11.76748 6.066434 10.86869 6.352735 10.89631 6.934374 9.87688 7.685534 8.863379 8.264335 8.35338 7.819914 7.61518 8.419914 6.87845 9.015514 7.39292 10.38251 7.08393 10.64841 6.77722 11.18001 5.82553 11.65471 5.65233 12.32611 5.50916 13.18481 6.04191 13.79701 6.02147 14.53311 6.08287 15.14641 5.41127 15.49489 5.5078 15.99211 5.79702 16.80421 6.35438 17.29221 6.6172 17.51751 6.663351 17.54951 6.700028 17.5985 6.714856 17.6015 6.790713 17.792 6.858586 17.98645 6.955086 18.16595 6.949606 18.13995 6.948576 18.11382 6.943367 18.08782 6.998228 18.30542 7.055077 18.52401 7.132816 18.73821 8.683116 22.09901 12.81412 24.68611 17.34182 24.11711 19.54102 23.84771 22.82442 22.33171 24.16602 18.73821 23.22044 19.58671 21.53152 20.32421 20.77732 20.38081 23.33002 19.10511 24.70712 16.93741 24.32031 13.97461 23.79154 15.23341 23.09341 16.20131 22.22071 16.86521 24.07451 13.97551 23.75691 12.48131 22.38478 10.83981 23.36615 13.53881 22.09719 16.53431 19.33208 18.66401 20.45238 18.78541 21.51657 18.51614 22.50198 17.71284 21.01318 19.37354 19.14968 20.20834 17.01368 20.43554 18.03358 21.30254 19.01818 21.69454 19.95898 21.52734 17.34458 22.24884 15.15478 21.45428 12.49018 18.80074 12.3507 19.51504 13.10514 20.62754 13.88278 21.33784 9.373278 19.38284 8.976177 13.29584 14.46872 11.79294 14.47202 11.79294 14.47518 11.79384 14.47848 11.79294 17.74978 13.70674 21.86528 13.58084 22.05078 12.34372 22.50885 10.86082 19.96508 7.805223 16.16208 7.007823 15.4618 6.871123 14.79228 6.817344 14.15428 6.835943 14.16706 6.835943 14.17858 6.836182 14.19139 6.826178 13.58399 6.177278 12.80989 6.011678 12.24609 6.013678 z M 17.17769 9.046878 C 17.72373 9.046878 18.22259 9.543848 18.22259 10.08988 18.22259 10.63598 17.72371 11.13288 17.17769 11.13288 16.63165 11.13288 16.13469 10.63601 16.13469 10.08988 16.13474 9.543879 16.63162 9.046778 17.17769 9.046878 z '><!ENTITY E36 'matrix(1.25 0.00 0.00 1.25 105.00 5.00 ) '><!ENTITY E17 'matrix(1.25 0.00 0.00 1.25 405.00 5.00 ) '><!ENTITY E24 'matrix(1.25 0.00 0.00 1.25 305.00 5.00 ) '><!ENTITY E21 'M 10.082 15.655 C 13.5023 13.0496 16.1727 13.2369 19.3649 15.64395 M 6.568899 12.14155 C 11.9518 7.82015 17.1159 7.63745 22.9119 12.09735 '><!ENTITY E14 'stroke:rgb(169,169,169);fill:none;stroke-linecap:butt;stroke-miterlimit:9;opacity:1;stroke-width:2.5;stroke-linejoin:miter;'><!ENTITY E26 'matrix(1.25 0.00 0.00 1.25 305.00 305.00 ) '><!ENTITY E12 'stroke:none;opacity:1;fill:rgb(238,192,75);'><!ENTITY E1 'stroke:rgb(169,169,169);fill:none;stroke-linecap:butt;stroke-miterlimit:9;opacity:1;stroke-width:1.25;stroke-linejoin:miter;'><!ENTITY E39 'matrix(1.25 0.00 0.00 1.25 5.00 5.00 ) '>
]><svg width="573.8441" height="365.0889" id="SvgGdi_output" xmlns="http://www.w3.org/2000/svg"><rect id="background" height="100.00%" style="fill:rgb(255,255,255);" width="100.00%" y="0.00" x="0.00" /><g style="shape-rendering:auto;" id="root_group"><line y1="23.75" style="&E1;" id="950" x2="500.00" y2="23.75" x1="447.50" /><line y1="223.75" style="&E1;" id="951" x2="500.00" y2="223.75" x1="447.50" /><line y1="323.75" style="&E1;" id="952" x2="500.00" y2="223.75" x1="447.50" /><line y1="23.75" style="&E1;" id="953" x2="400.00" y2="23.75" x1="347.50" /><line y1="223.75" style="&E1;" id="954" x2="400.00" y2="223.75" x1="347.50" /><line y1="323.75" style="&E1;" id="955" x2="400.00" y2="323.75" x1="347.50" /><line y1="23.75" style="&E1;" id="956" x2="300.00" y2="23.75" x1="247.50" /><line y1="123.75" style="&E1;" id="957" x2="300.00" y2="23.75" x1="247.50" /><line y1="223.75" style="&E1;" id="958" x2="300.00" y2="223.75" x1="247.50" /><line y1="323.75" style="&E1;" id="959" x2="300.00" y2="323.75" x1="247.50" /><line y1="23.75" style="&E1;" id="960" x2="200.00" y2="23.75" x1="147.50" /><line y1="23.75" style="&E1;" id="961" x2="200.00" y2="123.75" x1="147.50" /><line y1="23.75" style="&E1;" id="962" x2="200.00" y2="223.75" x1="147.50" /><line y1="323.75" style="&E1;" id="963" x2="200.00" y2="323.75" x1="147.50" /><line y1="23.75" style="&E1;" id="964" x2="100.00" y2="23.75" x1="47.50" /><line y1="23.75" style="&E1;" id="965" x2="100.00" y2="323.75" x1="47.50" /><path style="&E3;" transform="&E4;" id="966" d="M 10.158 33.2 C 3.4054 31.7591 -1.861 26.4692 -3.271 19.71 " /><ellipse id="967" cy="15.00" cx="15.00" transform="&E4;" rx="15.00" ry="15.00" style="stroke:none;opacity:1;fill:rgb(155,91,179);" /><path style="&E7;" transform="&E4;" id="968" d="M 8.625 8.4 8.96875 8.9 13.28125 15.025 8.62505 21.6187 8.2813 22.1187 11.7501 22.1187 11.84385 21.9937 15.00005 17.2124 15.4688 17.9 18.125 21.9937 18.21875 22.1187 21.71875 22.1187 21.375 21.6187 16.625 14.8687 21.0312 8.9 21.4062 8.4 17.9688 8.4 17.87505 8.5562 15.68755 11.6187 15.6563 11.65 C 15.44045 11.9482 15.18092 12.3233 14.93755 12.6812 14.74069 12.357 14.55318 12.0383 14.2813 11.6187 L 12.2813 8.5562 12.18755 8.4 9.25005 8.4 z " /><text id="969" transform="&E9;" x="505.00" y="48.75" style="stroke:none;clip-path:url(#971_text_clipper);font-family:Microsoft Sans Serif;fill:rgb(0,0,0);font-size:9.75pt;opacity:1;"><tspan dy="9.75pt" id="973">Client</tspan></text><text id="975" transform="&E9;" x="505.00" y="63.46" style="stroke:none;clip-path:url(#977_text_clipper);font-family:Microsoft Sans Serif;fill:rgb(0,0,0);font-size:9.75pt;opacity:1;"><tspan dy="9.75pt" id="979">Addresses</tspan></text><ellipse id="981" cy="15.00" cx="15.00" transform="&E11;" rx="15.00" ry="15.00" style="&E12;" /><path d="&E13;" style="&E7;" transform="&E11;" id="982" /><ellipse id="983" cy="223.75" cx="505.00" rx="3.75" ry="3.75" style="&E14;" /><ellipse id="984" cy="223.75" cx="505.00" rx="3.75" ry="3.75" style="&E15;" /><text id="985" transform="&E9;" x="505.00" y="248.75" style="stroke:none;clip-path:url(#987_text_clipper);font-family:Microsoft Sans Serif;fill:rgb(0,0,0);font-size:9.75pt;opacity:1;"><tspan dy="9.75pt" id="989">Zip</tspan></text><ellipse id="991" cy="15.00" cx="15.00" transform="&E17;" rx="15.00" ry="15.00" style="&E12;" /><path d="&E13;" style="&E7;" transform="&E17;" id="992" /><text id="993" transform="&E9;" x="405.00" y="48.75" style="stroke:none;clip-path:url(#995_text_clipper);font-family:Microsoft Sans Serif;fill:rgb(0,0,0);font-size:9.75pt;opacity:1;"><tspan dy="9.75pt" id="997">DistinctBy</tspan></text><line y1="223.75" style="&E1;" id="999" x2="447.50" y2="223.75" x1="400.00" /><ellipse id="1000" cy="15.00" cx="15.00" transform="&E19;" rx="15.00" ry="15.00" style="&E20;" /><ellipse id="1001" cy="20.29" cx="14.72" transform="&E19;" rx="2.40" ry="2.40" style="&E15;" /><path d="&E21;" style="&E22;" transform="&E19;" id="1002" /><text id="1003" transform="&E9;" x="405.00" y="348.75" style="stroke:none;clip-path:url(#1005_text_clipper);font-family:Microsoft Sans Serif;fill:rgb(0,0,0);font-size:9.75pt;opacity:1;"><tspan dy="9.75pt" id="1007">Format</tspan></text><ellipse id="1009" cy="15.00" cx="15.00" transform="&E24;" rx="15.00" ry="15.00" style="&E12;" /><path d="&E13;" style="&E7;" transform="&E24;" id="1010" /><ellipse id="1011" cy="23.75" cx="305.00" rx="3.75" ry="3.75" style="&E14;" /><ellipse id="1012" cy="23.75" cx="305.00" rx="3.75" ry="3.75" style="&E15;" /><text id="1013" transform="&E9;" x="305.00" y="48.75" style="stroke:none;clip-path:url(#1015_text_clipper);font-family:Microsoft Sans Serif;fill:rgb(0,0,0);font-size:9.75pt;opacity:1;"><tspan dy="9.75pt" id="1017">Zip</tspan></text><line y1="223.75" style="&E1;" id="1019" x2="347.50" y2="223.75" x1="300.00" /><ellipse id="1020" cy="15.00" cx="15.00" transform="&E26;" rx="15.00" ry="15.00" style="&E12;" /><ellipse id="1021" cy="20.29" cx="14.72" transform="&E26;" rx="2.40" ry="2.40" style="&E15;" /><path d="&E21;" style="&E22;" transform="&E26;" id="1022" /><text id="1023" transform="&E9;" x="305.00" y="348.75" style="stroke:none;clip-path:url(#1025_text_clipper);font-family:Microsoft Sans Serif;fill:rgb(0,0,0);font-size:9.75pt;opacity:1;"><tspan dy="9.75pt" id="1027">Parse</tspan></text><ellipse id="1029" cy="15.00" cx="15.00" transform="&E28;" rx="15.00" ry="15.00" style="&E20;" /><path style="&E22;" transform="&E28;" id="1030" d="M 16.849 10.062 23.4027 10.062 M 16.6038 19.6084 23.3505 19.6084 M 12.3075 17.1615 7.5719 21.8971 M 7.577335 17.152 12.31704 21.8917 M 6.564136 10.0047 13.30904 10.0047 M 9.936636 6.6288 9.936636 13.3806 " /><ellipse id="1031" cy="16.33" cx="19.93" transform="&E28;" rx="1.30" ry="1.30" style="&E15;" /><ellipse id="1032" cy="22.83" cx="19.93" transform="&E28;" rx="1.30" ry="1.30" style="&E15;" /><text id="1033" transform="&E9;" x="205.00" y="48.75" style="stroke:none;clip-path:url(#1035_text_clipper);font-family:Microsoft Sans Serif;fill:rgb(0,0,0);font-size:9.75pt;opacity:1;"><tspan dy="9.75pt" id="1037">Index</tspan></text><line y1="123.75" style="&E1;" id="1039" x2="247.50" y2="123.75" x1="200.00" /><line y1="223.75" style="&E1;" id="1040" x2="247.50" y2="223.75" x1="200.00" /><ellipse id="1041" cy="15.00" cx="15.00" transform="&E31;" rx="15.00" ry="15.00" style="&E20;" /><path d="&E32;" style="&E7;" transform="&E31;" id="1042" /><path d="&E33;" style="&E7;" transform="&E31;" id="1043" /><path d="&E34;" style="&E22;" transform="&E31;" id="1044" /><text id="1045" transform="&E9;" x="205.00" y="348.75" style="stroke:none;clip-path:url(#1047_text_clipper);font-family:Microsoft Sans Serif;fill:rgb(0,0,0);font-size:9.75pt;opacity:1;"><tspan dy="9.75pt" id="1049">Message</tspan></text><ellipse id="1051" cy="15.00" cx="15.00" transform="&E36;" rx="15.00" ry="15.00" style="&E20;" /><path d="&E32;" style="&E7;" transform="&E36;" id="1052" /><path d="&E33;" style="&E7;" transform="&E36;" id="1053" /><path d="&E34;" style="&E22;" transform="&E36;" id="1054" /><text id="1055" transform="&E9;" x="105.00" y="48.75" style="stroke:none;clip-path:url(#1057_text_clipper);font-family:Microsoft Sans Serif;fill:rgb(0,0,0);font-size:9.75pt;opacity:1;"><tspan dy="9.75pt" id="1059">Address</tspan></text><line y1="323.75" style="&E1;" id="1061" x2="147.50" y2="323.75" x1="100.00" /><path style="&E3;" transform="&E39;" id="1062" d="M 31.179 5.2 C 34.9985 11.0918 34.9814 18.682 31.13552 24.557 " /><ellipse id="1063" cy="15.00" cx="15.00" transform="&E39;" rx="15.00" ry="15.00" style="stroke:none;opacity:1;fill:rgb(91,178,126);" /><ellipse id="1064" cy="23.75" cx="5.00" rx="3.75" ry="3.75" style="&E14;" /><ellipse id="1065" cy="23.75" cx="5.00" rx="3.75" ry="3.75" style="&E15;" /><text id="1066" transform="&E9;" x="5.00" y="48.75" style="stroke:none;clip-path:url(#1068_text_clipper);font-family:Microsoft Sans Serif;fill:rgb(0,0,0);font-size:9.75pt;opacity:1;"><tspan dy="9.75pt" id="1070">Router</tspan></text></g><defs id="clips_hatches_and_gradients"><clipPath id="971_text_clipper"><rect x="505.00" y="48.75" width="67.59" height="32.68" id="972" /></clipPath><clipPath id="977_text_clipper"><rect x="505.00" y="63.46" width="67.59" height="32.68" id="978" /></clipPath><clipPath id="987_text_clipper"><rect x="505.00" y="248.75" width="23.01" height="16.34" id="988" /></clipPath><clipPath id="995_text_clipper"><rect x="405.00" y="48.75" width="64.01" height="16.34" id="996" /></clipPath><clipPath id="1005_text_clipper"><rect x="405.00" y="348.75" width="46.74" height="16.34" id="1006" /></clipPath><clipPath id="1015_text_clipper"><rect x="305.00" y="48.75" width="23.01" height="16.34" id="1016" /></clipPath><clipPath id="1025_text_clipper"><rect x="305.00" y="348.75" width="39.31" height="16.34" id="1026" /></clipPath><clipPath id="1035_text_clipper"><rect x="205.00" y="48.75" width="37.09" height="16.34" id="1036" /></clipPath><clipPath id="1047_text_clipper"><rect x="205.00" y="348.75" width="58.66" height="16.34" id="1048" /></clipPath><clipPath id="1057_text_clipper"><rect x="105.00" y="48.75" width="53.45" height="16.34" id="1058" /></clipPath><clipPath id="1068_text_clipper"><rect x="5.00" y="48.75" width="44.51" height="16.34" id="1069" /></clipPath></defs></svg>