<?xml version="1.0" standalone="yes"?><!DOCTYPE svg PUBLIC "-//W3C//DTD SVG 1.1//EN" "http://www.w3.org/Graphics/SVG/1.1/DTD/svg11.dtd"[
<!ENTITY E17 'stroke:none;opacity:1;fill:rgb(68,154,223);'><!ENTITY E32 'matrix(1.25 0.00 0.00 1.25 5.00 105.00 ) '><!ENTITY E3 'stroke:rgb(169,169,169);fill:none;stroke-linecap:butt;stroke-miterlimit:9;opacity:1;stroke-width:2;stroke-linejoin:miter;'><!ENTITY E21 'matrix(1.25 0.00 0.00 1.25 205.00 205.00 ) '><!ENTITY E25 'matrix(1.25 0.00 0.00 1.25 105.00 105.00 ) '><!ENTITY E39 'matrix(1.25 0.00 0.00 1.25 5.00 305.00 ) '><!ENTITY E9 'matrix(1.00 0.00 0.00 1.00 0.00 0.00 ) '><!ENTITY E30 'matrix(1.25 0.00 0.00 1.25 105.00 305.00 ) '><!ENTITY E5 'stroke:none;opacity:1;fill:rgb(91,178,126);'><!ENTITY E16 'matrix(1.25 0.00 0.00 1.25 205.00 105.00 ) '><!ENTITY E19 'stroke:rgb(255,255,255);fill:none;stroke-linecap:butt;stroke-miterlimit:9;opacity:1;stroke-width:2;stroke-linejoin:miter;'><!ENTITY E26 'M 16.849 10.062 23.4027 10.062 M 16.6038 19.6084 23.3505 19.6084 M 12.3075 17.1615 7.5719 21.8971 M 7.577335 17.152 12.31704 21.8917 M 6.564136 10.0047 13.30904 10.0047 M 9.936636 6.6288 9.936636 13.3806 '><!ENTITY E23 'matrix(1.25 0.00 0.00 1.25 205.00 305.00 ) '><!ENTITY E7 'stroke:none;opacity:1;fill:rgb(255,255,255);'><!ENTITY E12 'matrix(1.25 0.00 0.00 1.25 305.00 205.00 ) '><!ENTITY E33 'M 8.5404 18.526 C 8.154759 18.14036 8.426559 17.3734 8.7512 17.0487 9.0693 16.7306 9.8857 16.65478 10.3397 17.03595 L 12.5301 18.80525 12.82094 9.664146 C 12.82094 9.305857 13.42471 8.739877 14.05254 8.739877 14.79871 8.739877 15.36764 9.316096 15.36764 9.695367 L 15.5586 15.04327 20.0645 16.74627 C 20.25033 16.81 20.49544 16.99536 20.49518 17.22225 L 20.49808 21.04985 19.11318 23.37955 19.11318 24.51755 13.23218 24.51755 13.23218 23.37955 z '><!ENTITY E10 'matrix(1.25 0.00 0.00 1.25 305.00 105.00 ) '><!ENTITY E4 'matrix(1.25 0.00 0.00 1.25 305.00 5.00 ) '><!ENTITY E18 'M 10.082 15.655 C 13.5023 13.0496 16.1727 13.2369 19.3649 15.64395 M 6.568899 12.14155 C 11.9518 7.82015 17.1159 7.63745 22.9119 12.09735 '><!ENTITY E14 'matrix(1.25 0.00 0.00 1.25 305.00 305.00 ) '><!ENTITY E1 'stroke:rgb(169,169,169);fill:none;stroke-linecap:butt;stroke-miterlimit:9;opacity:1;stroke-width:1.25;stroke-linejoin:miter;'><!ENTITY E35 'M 10.482 12.156 C 9.063601 9.8878 10.57304 6.5688 13.2149 6.1474 15.8164 5.52346 18.4832 8.0098 18.0432 10.6485 L 17.97693 11.02591 '><!ENTITY E34 'stroke:none;fill-rule:evenodd;opacity:1;fill:rgb(255,255,255);'><!ENTITY E28 'matrix(1.25 0.00 0.00 1.25 105.00 205.00 ) '><!ENTITY E37 'matrix(1.25 0.00 0.00 1.25 5.00 205.00 ) '><!ENTITY E2 'M 31.179 5.2 C 34.9985 11.0918 34.9814 18.682 31.13552 24.557 '>
]><svg width="350.764" height="365.0889" id="SvgGdi_output" xmlns="http://www.w3.org/2000/svg"><rect id="background" height="100.00%" style="fill:rgb(255,255,255);" width="100.00%" y="0.00" x="0.00" /><g style="shape-rendering:auto;" id="root_group"><line y1="123.75" style="&E1;" id="278" x2="300.00" y2="123.75" x1="247.50" /><line y1="223.75" style="&E1;" id="279" x2="300.00" y2="223.75" x1="247.50" /><line y1="323.75" style="&E1;" id="280" x2="300.00" y2="323.75" x1="247.50" /><line y1="123.75" style="&E1;" id="281" x2="200.00" y2="123.75" x1="147.50" /><line y1="223.75" style="&E1;" id="282" x2="200.00" y2="223.75" x1="147.50" /><line y1="323.75" style="&E1;" id="283" x2="200.00" y2="323.75" x1="147.50" /><line y1="123.75" style="&E1;" id="284" x2="100.00" y2="123.75" x1="47.50" /><line y1="223.75" style="&E1;" id="285" x2="100.00" y2="223.75" x1="47.50" /><line y1="323.75" style="&E1;" id="286" x2="100.00" y2="323.75" x1="47.50" /><path d="&E2;" style="&E3;" transform="&E4;" id="287" /><ellipse id="288" cy="15.00" cx="15.00" transform="&E4;" rx="15.00" ry="15.00" style="&E5;" /><ellipse id="289" cy="23.75" cx="305.00" rx="3.75" ry="3.75" style="stroke:rgb(169,169,169);fill:none;stroke-linecap:butt;stroke-miterlimit:9;opacity:1;stroke-width:2.5;stroke-linejoin:miter;" /><ellipse id="290" cy="23.75" cx="305.00" rx="3.75" ry="3.75" style="&E7;" /><text id="291" transform="&E9;" x="305.00" y="48.75" style="stroke:none;clip-path:url(#293_text_clipper);font-family:Microsoft Sans Serif;fill:rgb(0,0,0);font-size:9.75pt;opacity:1;"><tspan dy="9.75pt" id="295">Router</tspan></text><path d="&E2;" style="&E3;" transform="&E10;" id="297" /><ellipse id="298" cy="15.00" cx="15.00" transform="&E10;" rx="15.00" ry="15.00" style="&E5;" /><text id="299" transform="&E9;" x="305.00" y="148.75" style="stroke:none;clip-path:url(#301_text_clipper);font-family:Microsoft Sans Serif;fill:rgb(0,0,0);font-size:9.75pt;opacity:1;"><tspan dy="9.75pt" id="303">Dealer</tspan></text><path d="&E2;" style="&E3;" transform="&E12;" id="305" /><ellipse id="306" cy="15.00" cx="15.00" transform="&E12;" rx="15.00" ry="15.00" style="&E5;" /><text id="307" transform="&E9;" x="305.00" y="248.75" style="stroke:none;clip-path:url(#309_text_clipper);font-family:Microsoft Sans Serif;fill:rgb(0,0,0);font-size:9.75pt;opacity:1;"><tspan dy="9.75pt" id="311">Dealer</tspan></text><path d="&E2;" style="&E3;" transform="&E14;" id="313" /><ellipse id="314" cy="15.00" cx="15.00" transform="&E14;" rx="15.00" ry="15.00" style="&E5;" /><text id="315" transform="&E9;" x="305.00" y="348.75" style="stroke:none;clip-path:url(#317_text_clipper);font-family:Microsoft Sans Serif;fill:rgb(0,0,0);font-size:9.75pt;opacity:1;"><tspan dy="9.75pt" id="319">Dealer</tspan></text><ellipse id="321" cy="15.00" cx="15.00" transform="&E16;" rx="15.00" ry="15.00" style="&E17;" /><ellipse id="322" cy="20.29" cx="14.72" transform="&E16;" rx="2.40" ry="2.40" style="&E7;" /><path d="&E18;" style="&E19;" transform="&E16;" id="323" /><text id="324" transform="&E9;" x="205.00" y="148.75" style="stroke:none;clip-path:url(#326_text_clipper);font-family:Microsoft Sans Serif;fill:rgb(0,0,0);font-size:9.75pt;opacity:1;"><tspan dy="9.75pt" id="328">Format</tspan></text><ellipse id="330" cy="15.00" cx="15.00" transform="&E21;" rx="15.00" ry="15.00" style="&E17;" /><ellipse id="331" cy="20.29" cx="14.72" transform="&E21;" rx="2.40" ry="2.40" style="&E7;" /><path d="&E18;" style="&E19;" transform="&E21;" id="332" /><text id="333" transform="&E9;" x="205.00" y="248.75" style="stroke:none;clip-path:url(#335_text_clipper);font-family:Microsoft Sans Serif;fill:rgb(0,0,0);font-size:9.75pt;opacity:1;"><tspan dy="9.75pt" id="337">Format</tspan></text><ellipse id="339" cy="15.00" cx="15.00" transform="&E23;" rx="15.00" ry="15.00" style="&E17;" /><ellipse id="340" cy="20.29" cx="14.72" transform="&E23;" rx="2.40" ry="2.40" style="&E7;" /><path d="&E18;" style="&E19;" transform="&E23;" id="341" /><text id="342" transform="&E9;" x="205.00" y="348.75" style="stroke:none;clip-path:url(#344_text_clipper);font-family:Microsoft Sans Serif;fill:rgb(0,0,0);font-size:9.75pt;opacity:1;"><tspan dy="9.75pt" id="346">Format</tspan></text><path d="&E2;" style="&E3;" transform="&E25;" id="348" /><ellipse id="349" cy="15.00" cx="15.00" transform="&E25;" rx="15.00" ry="15.00" style="&E5;" /><path d="&E26;" style="&E19;" transform="&E25;" id="350" /><ellipse id="351" cy="16.33" cx="19.93" transform="&E25;" rx="1.30" ry="1.30" style="&E7;" /><ellipse id="352" cy="22.83" cx="19.93" transform="&E25;" rx="1.30" ry="1.30" style="&E7;" /><text id="353" transform="&E9;" x="105.00" y="148.75" style="stroke:none;clip-path:url(#355_text_clipper);font-family:Microsoft Sans Serif;fill:rgb(0,0,0);font-size:9.75pt;opacity:1;"><tspan dy="9.75pt" id="357">String</tspan></text><path d="&E2;" style="&E3;" transform="&E28;" id="359" /><ellipse id="360" cy="15.00" cx="15.00" transform="&E28;" rx="15.00" ry="15.00" style="&E5;" /><path d="&E26;" style="&E19;" transform="&E28;" id="361" /><ellipse id="362" cy="16.33" cx="19.93" transform="&E28;" rx="1.30" ry="1.30" style="&E7;" /><ellipse id="363" cy="22.83" cx="19.93" transform="&E28;" rx="1.30" ry="1.30" style="&E7;" /><text id="364" transform="&E9;" x="105.00" y="248.75" style="stroke:none;clip-path:url(#366_text_clipper);font-family:Microsoft Sans Serif;fill:rgb(0,0,0);font-size:9.75pt;opacity:1;"><tspan dy="9.75pt" id="368">String</tspan></text><path d="&E2;" style="&E3;" transform="&E30;" id="370" /><ellipse id="371" cy="15.00" cx="15.00" transform="&E30;" rx="15.00" ry="15.00" style="&E5;" /><path d="&E26;" style="&E19;" transform="&E30;" id="372" /><ellipse id="373" cy="16.33" cx="19.93" transform="&E30;" rx="1.30" ry="1.30" style="&E7;" /><ellipse id="374" cy="22.83" cx="19.93" transform="&E30;" rx="1.30" ry="1.30" style="&E7;" /><text id="375" transform="&E9;" x="105.00" y="348.75" style="stroke:none;clip-path:url(#377_text_clipper);font-family:Microsoft Sans Serif;fill:rgb(0,0,0);font-size:9.75pt;opacity:1;"><tspan dy="9.75pt" id="379">String</tspan></text><path d="&E2;" style="&E3;" transform="&E32;" id="381" /><ellipse id="382" cy="15.00" cx="15.00" transform="&E32;" rx="15.00" ry="15.00" style="&E5;" /><path d="&E33;" style="&E34;" transform="&E32;" id="383" /><path d="&E35;" style="&E19;" transform="&E32;" id="384" /><text id="385" transform="&E9;" x="5.00" y="148.75" style="stroke:none;clip-path:url(#387_text_clipper);font-family:Microsoft Sans Serif;fill:rgb(0,0,0);font-size:9.75pt;opacity:1;"><tspan dy="9.75pt" id="389">KeyDown</tspan></text><path d="&E2;" style="&E3;" transform="&E37;" id="391" /><ellipse id="392" cy="15.00" cx="15.00" transform="&E37;" rx="15.00" ry="15.00" style="&E5;" /><path d="&E33;" style="&E34;" transform="&E37;" id="393" /><path d="&E35;" style="&E19;" transform="&E37;" id="394" /><text id="395" transform="&E9;" x="5.00" y="248.75" style="stroke:none;clip-path:url(#397_text_clipper);font-family:Microsoft Sans Serif;fill:rgb(0,0,0);font-size:9.75pt;opacity:1;"><tspan dy="9.75pt" id="399">KeyDown</tspan></text><path d="&E2;" style="&E3;" transform="&E39;" id="401" /><ellipse id="402" cy="15.00" cx="15.00" transform="&E39;" rx="15.00" ry="15.00" style="&E5;" /><path d="&E33;" style="&E34;" transform="&E39;" id="403" /><path d="&E35;" style="&E19;" transform="&E39;" id="404" /><text id="405" transform="&E9;" x="5.00" y="348.75" style="stroke:none;clip-path:url(#407_text_clipper);font-family:Microsoft Sans Serif;fill:rgb(0,0,0);font-size:9.75pt;opacity:1;"><tspan dy="9.75pt" id="409">KeyDown</tspan></text></g><defs id="clips_hatches_and_gradients"><clipPath id="293_text_clipper"><rect x="305.00" y="48.75" width="44.51" height="16.34" id="294" /></clipPath><clipPath id="301_text_clipper"><rect x="305.00" y="148.75" width="43.85" height="16.34" id="302" /></clipPath><clipPath id="309_text_clipper"><rect x="305.00" y="248.75" width="43.85" height="16.34" id="310" /></clipPath><clipPath id="317_text_clipper"><rect x="305.00" y="348.75" width="43.85" height="16.34" id="318" /></clipPath><clipPath id="326_text_clipper"><rect x="205.00" y="148.75" width="46.74" height="16.34" id="327" /></clipPath><clipPath id="335_text_clipper"><rect x="205.00" y="248.75" width="46.74" height="16.34" id="336" /></clipPath><clipPath id="344_text_clipper"><rect x="205.00" y="348.75" width="46.74" height="16.34" id="345" /></clipPath><clipPath id="355_text_clipper"><rect x="105.00" y="148.75" width="39.39" height="16.34" id="356" /></clipPath><clipPath id="366_text_clipper"><rect x="105.00" y="248.75" width="39.39" height="16.34" id="367" /></clipPath><clipPath id="377_text_clipper"><rect x="105.00" y="348.75" width="39.39" height="16.34" id="378" /></clipPath><clipPath id="387_text_clipper"><rect x="5.00" y="148.75" width="61.63" height="16.34" id="388" /></clipPath><clipPath id="397_text_clipper"><rect x="5.00" y="248.75" width="61.63" height="16.34" id="398" /></clipPath><clipPath id="407_text_clipper"><rect x="5.00" y="348.75" width="61.63" height="16.34" id="408" /></clipPath></defs></svg>