<?xml version="1.0" standalone="yes"?><!DOCTYPE svg PUBLIC "-//W3C//DTD SVG 1.1//EN" "http://www.w3.org/Graphics/SVG/1.1/DTD/svg11.dtd"[
<!ENTITY E31 'stroke:none;opacity:1;fill:rgb(68,154,223);'><!ENTITY E40 'matrix(1.25 0.00 0.00 1.25 205.00 5.00 ) '><!ENTITY E9 'matrix(1.00 0.00 0.00 1.00 0.00 0.00 ) '><!ENTITY E5 'stroke:none;opacity:1;fill:rgb(155,91,179);'><!ENTITY E30 'matrix(1.25 0.00 0.00 1.25 405.00 305.00 ) '><!ENTITY E7 'stroke:none;fill-rule:evenodd;opacity:1;fill:rgb(255,255,255);'><!ENTITY E3 'stroke:rgb(169,169,169);fill:none;stroke-linecap:butt;stroke-miterlimit:9;opacity:1;stroke-width:2;stroke-linejoin:miter;'><!ENTITY E51 'matrix(1.25 0.00 0.00 1.25 5.00 5.00 ) '><!ENTITY E24 'matrix(1.25 0.00 0.00 1.25 505.00 205.00 ) '><!ENTITY E43 'M 5.5001 19.484 10.6493 19.484 16.2743 10.2485 19.3728 10.2485 M 14.6769 17.1481 16.3089 19.4828 19.2202 19.4828 M 5.500199 10.2437 10.7586 10.2437 12.1652 12.8707 '><!ENTITY E41 'M 19.156 13.888 19.156 10.3647 19.156 6.841399 25.2585 10.3647 22.2072 12.1264 z '><!ENTITY E33 'stroke:rgb(255,255,255);fill:none;stroke-linecap:butt;stroke-miterlimit:9;opacity:1;stroke-width:2;stroke-linejoin:miter;'><!ENTITY E18 'matrix(1.25 0.00 0.00 1.25 505.00 5.00 ) '><!ENTITY E45 'matrix(1.25 0.00 0.00 1.25 205.00 305.00 ) '><!ENTITY E26 'stroke:none;opacity:1;fill:rgb(255,255,255);'><!ENTITY E6 'M 8.625 8.4 8.96875 8.9 13.28125 15.025 8.62505 21.6187 8.2813 22.1187 11.7501 22.1187 11.84385 21.9937 15.00005 17.2124 15.4688 17.9 18.125 21.9937 18.21875 22.1187 21.71875 22.1187 21.375 21.6187 16.625 14.8687 21.0312 8.9 21.4062 8.4 17.9688 8.4 17.87505 8.5562 15.68755 11.6187 15.6563 11.65 C 15.44045 11.9482 15.18092 12.3233 14.93755 12.6812 14.74069 12.357 14.55318 12.0383 14.2813 11.6187 L 12.2813 8.5562 12.18755 8.4 9.25005 8.4 z '><!ENTITY E22 'matrix(1.25 0.00 0.00 1.25 505.00 105.00 ) '><!ENTITY E20 'M 12.246 6.0137 12.246 6.019559 C 12.05806 6.020259 11.89471 6.040434 11.76748 6.066434 10.86869 6.352735 10.89631 6.934374 9.87688 7.685534 8.863379 8.264335 8.35338 7.819914 7.61518 8.419914 6.87845 9.015514 7.39292 10.38251 7.08393 10.64841 6.77722 11.18001 5.82553 11.65471 5.65233 12.32611 5.50916 13.18481 6.04191 13.79701 6.02147 14.53311 6.08287 15.14641 5.41127 15.49489 5.5078 15.99211 5.79702 16.80421 6.35438 17.29221 6.6172 17.51751 6.663351 17.54951 6.700028 17.5985 6.714856 17.6015 6.790713 17.792 6.858586 17.98645 6.955086 18.16595 6.949606 18.13995 6.948576 18.11382 6.943367 18.08782 6.998228 18.30542 7.055077 18.52401 7.132816 18.73821 8.683116 22.09901 12.81412 24.68611 17.34182 24.11711 19.54102 23.84771 22.82442 22.33171 24.16602 18.73821 23.22044 19.58671 21.53152 20.32421 20.77732 20.38081 23.33002 19.10511 24.70712 16.93741 24.32031 13.97461 23.79154 15.23341 23.09341 16.20131 22.22071 16.86521 24.07451 13.97551 23.75691 12.48131 22.38478 10.83981 23.36615 13.53881 22.09719 16.53431 19.33208 18.66401 20.45238 18.78541 21.51657 18.51614 22.50198 17.71284 21.01318 19.37354 19.14968 20.20834 17.01368 20.43554 18.03358 21.30254 19.01818 21.69454 19.95898 21.52734 17.34458 22.24884 15.15478 21.45428 12.49018 18.80074 12.3507 19.51504 13.10514 20.62754 13.88278 21.33784 9.373278 19.38284 8.976177 13.29584 14.46872 11.79294 14.47202 11.79294 14.47518 11.79384 14.47848 11.79294 17.74978 13.70674 21.86528 13.58084 22.05078 12.34372 22.50885 10.86082 19.96508 7.805223 16.16208 7.007823 15.4618 6.871123 14.79228 6.817344 14.15428 6.835943 14.16706 6.835943 14.17858 6.836182 14.19139 6.826178 13.58399 6.177278 12.80989 6.011678 12.24609 6.013678 z M 17.17769 9.046878 C 17.72373 9.046878 18.22259 9.543848 18.22259 10.08988 18.22259 10.63598 17.72371 11.13288 17.17769 11.13288 16.63165 11.13288 16.13469 10.63601 16.13469 10.08988 16.13474 9.543879 16.63162 9.046778 17.17769 9.046878 z '><!ENTITY E47 'M 31.179 5.2 C 34.9985 11.0918 34.9814 18.682 31.13552 24.557 '><!ENTITY E49 'stroke:none;opacity:1;fill:rgb(91,178,126);'><!ENTITY E42 'M 19.156 22.97 19.156 19.4467 19.156 15.9234 25.2585 19.4467 22.2072 21.2084 z '><!ENTITY E13 'matrix(1.25 0.00 0.00 1.25 605.00 205.00 ) '><!ENTITY E48 'matrix(1.25 0.00 0.00 1.25 105.00 5.00 ) '><!ENTITY E28 'matrix(1.25 0.00 0.00 1.25 405.00 5.00 ) '><!ENTITY E35 'matrix(1.25 0.00 0.00 1.25 305.00 5.00 ) '><!ENTITY E4 'matrix(1.25 0.00 0.00 1.25 605.00 5.00 ) '><!ENTITY E32 'M 10.082 15.655 C 13.5023 13.0496 16.1727 13.2369 19.3649 15.64395 M 6.568899 12.14155 C 11.9518 7.82015 17.1159 7.63745 22.9119 12.09735 '><!ENTITY E25 'stroke:rgb(169,169,169);fill:none;stroke-linecap:butt;stroke-miterlimit:9;opacity:1;stroke-width:2.5;stroke-linejoin:miter;'><!ENTITY E2 'M 10.158 33.2 C 3.4054 31.7591 -1.861 26.4692 -3.271 19.71 '><!ENTITY E38 'matrix(1.25 0.00 0.00 1.25 305.00 305.00 ) '><!ENTITY E19 'stroke:none;opacity:1;fill:rgb(238,192,75);'><!ENTITY E1 'stroke:rgb(169,169,169);fill:none;stroke-linecap:butt;stroke-miterlimit:9;opacity:1;stroke-width:1.25;stroke-linejoin:miter;'><!ENTITY E11 'matrix(1.25 0.00 0.00 1.25 605.00 105.00 ) '>
]><svg width="692.4427" height="365.0889" id="SvgGdi_output" xmlns="http://www.w3.org/2000/svg"><rect id="background" height="100.00%" style="fill:rgb(255,255,255);" width="100.00%" y="0.00" x="0.00" /><g style="shape-rendering:auto;" id="root_group"><line y1="23.75" style="&E1;" id="1778" x2="600.00" y2="23.75" x1="547.50" /><line y1="123.75" style="&E1;" id="1779" x2="600.00" y2="123.75" x1="547.50" /><line y1="223.75" style="&E1;" id="1780" x2="600.00" y2="223.75" x1="547.50" /><line y1="23.75" style="&E1;" id="1781" x2="500.00" y2="23.75" x1="447.50" /><line y1="23.75" style="&E1;" id="1782" x2="500.00" y2="123.75" x1="447.50" /><line y1="223.75" style="&E1;" id="1783" x2="500.00" y2="223.75" x1="447.50" /><line y1="323.75" style="&E1;" id="1784" x2="500.00" y2="223.75" x1="447.50" /><line y1="23.75" style="&E1;" id="1785" x2="400.00" y2="23.75" x1="347.50" /><line y1="123.75" style="&E1;" id="1786" x2="400.00" y2="23.75" x1="347.50" /><line y1="223.75" style="&E1;" id="1787" x2="400.00" y2="223.75" x1="347.50" /><line y1="323.75" style="&E1;" id="1788" x2="400.00" y2="323.75" x1="347.50" /><line y1="23.75" style="&E1;" id="1789" x2="300.00" y2="23.75" x1="247.50" /><line y1="23.75" style="&E1;" id="1790" x2="300.00" y2="123.75" x1="247.50" /><line y1="23.75" style="&E1;" id="1791" x2="300.00" y2="223.75" x1="247.50" /><line y1="323.75" style="&E1;" id="1792" x2="300.00" y2="323.75" x1="247.50" /><line y1="23.75" style="&E1;" id="1793" x2="200.00" y2="23.75" x1="147.50" /><line y1="23.75" style="&E1;" id="1794" x2="200.00" y2="323.75" x1="147.50" /><line y1="23.75" style="&E1;" id="1795" x2="100.00" y2="23.75" x1="47.50" /><path d="&E2;" style="&E3;" transform="&E4;" id="1796" /><ellipse id="1797" cy="15.00" cx="15.00" transform="&E4;" rx="15.00" ry="15.00" style="&E5;" /><path d="&E6;" style="&E7;" transform="&E4;" id="1798" /><text id="1799" transform="&E9;" x="605.00" y="48.75" style="stroke:none;clip-path:url(#1801_text_clipper);font-family:Microsoft Sans Serif;fill:rgb(0,0,0);font-size:9.75pt;opacity:1;"><tspan dy="9.75pt" id="1803">Client</tspan></text><text id="1805" transform="&E9;" x="605.00" y="63.46" style="stroke:none;clip-path:url(#1807_text_clipper);font-family:Microsoft Sans Serif;fill:rgb(0,0,0);font-size:9.75pt;opacity:1;"><tspan dy="9.75pt" id="1809">Addresses</tspan></text><path d="&E2;" style="&E3;" transform="&E11;" id="1811" /><ellipse id="1812" cy="15.00" cx="15.00" transform="&E11;" rx="15.00" ry="15.00" style="&E5;" /><path d="&E6;" style="&E7;" transform="&E11;" id="1813" /><text id="1814" transform="&E9;" x="605.00" y="148.75" style="stroke:none;clip-path:url(#1816_text_clipper);font-family:Microsoft Sans Serif;fill:rgb(0,0,0);font-size:9.75pt;opacity:1;"><tspan dy="9.75pt" id="1818">NextMessage</tspan></text><path d="&E2;" style="&E3;" transform="&E13;" id="1820" /><ellipse id="1821" cy="15.00" cx="15.00" transform="&E13;" rx="15.00" ry="15.00" style="&E5;" /><path style="&E7;" transform="&E13;" id="1822" d="M 4.4028 13 4.93347 11.3266 C 6.15637 11.7667 7.04467 12.1477 7.598371 12.4698 7.45224 11.0476 7.37533 10.0696 7.36764 9.5352 L 9.040441 9.5352 C 9.017365 10.3131 8.92891 11.2873 8.775101 12.4581 9.567261 12.0495 10.4748 11.6723 11.4977 11.3266 L 12.02837 13 C 11.05162 13.3302 10.09407 13.5502 9.155771 13.6601 9.624911 14.0766 10.28637 14.819 11.14007 15.8877 L 9.755671 16.8894 C 9.30959 16.2687 8.782761 15.4241 8.175171 14.3554 7.606041 15.4633 7.106171 16.308 6.675471 16.8894 L 5.314171 15.8877 C 6.206311 14.7642 6.844671 14.0216 7.229171 13.6601 6.237041 13.4637 5.294871 13.2437 4.402771 13 z " /><path style="&E7;" transform="&E13;" id="1823" d="M 11.656 8.2 11.99975 8.7 16.31225 14.7937 11.65605 21.4187 11.28105 21.9187 14.74985 21.9187 14.8436 21.7624 17.9998 17.0124 18.46855 17.7 21.15605 21.7624 21.2498 21.9187 24.7498 21.9187 24.40605 21.4187 19.65605 14.6687 24.06225 8.699997 24.406 8.199997 20.9998 8.199997 20.90605 8.324997 18.68725 11.4187 C 18.46251 11.7285 18.22333 12.1062 17.9685 12.4812 17.77046 12.1547 17.58677 11.8424 17.31225 11.4187 L 15.28105 8.356197 15.1873 8.199997 11.6561 8.199997 z " /><text id="1824" transform="&E9;" x="605.00" y="248.75" style="stroke:none;clip-path:url(#1826_text_clipper);font-family:Microsoft Sans Serif;fill:rgb(0,0,0);font-size:9.75pt;opacity:1;"><tspan dy="9.75pt" id="1828">Server</tspan></text><text id="1830" transform="&E9;" x="605.00" y="263.46" style="stroke:none;clip-path:url(#1832_text_clipper);font-family:Microsoft Sans Serif;fill:rgb(0,0,0);font-size:9.75pt;opacity:1;"><tspan dy="9.75pt" id="1834">Messages</tspan></text><ellipse id="1836" cy="15.00" cx="15.00" transform="&E18;" rx="15.00" ry="15.00" style="&E19;" /><path d="&E20;" style="&E7;" transform="&E18;" id="1837" /><text id="1838" transform="&E9;" x="505.00" y="48.75" style="stroke:none;clip-path:url(#1840_text_clipper);font-family:Microsoft Sans Serif;fill:rgb(0,0,0);font-size:9.75pt;opacity:1;"><tspan dy="9.75pt" id="1842">DistinctBy</tspan></text><ellipse id="1844" cy="15.00" cx="15.00" transform="&E22;" rx="15.00" ry="15.00" style="&E19;" /><path d="&E20;" style="&E7;" transform="&E22;" id="1845" /><text id="1846" transform="&E9;" x="505.00" y="148.75" style="stroke:none;clip-path:url(#1848_text_clipper);font-family:Microsoft Sans Serif;fill:rgb(0,0,0);font-size:9.75pt;opacity:1;"><tspan dy="9.75pt" id="1850">Skip</tspan></text><ellipse id="1852" cy="15.00" cx="15.00" transform="&E24;" rx="15.00" ry="15.00" style="&E19;" /><path d="&E20;" style="&E7;" transform="&E24;" id="1853" /><ellipse id="1854" cy="223.75" cx="505.00" rx="3.75" ry="3.75" style="&E25;" /><ellipse id="1855" cy="223.75" cx="505.00" rx="3.75" ry="3.75" style="&E26;" /><text id="1856" transform="&E9;" x="505.00" y="248.75" style="stroke:none;clip-path:url(#1858_text_clipper);font-family:Microsoft Sans Serif;fill:rgb(0,0,0);font-size:9.75pt;opacity:1;"><tspan dy="9.75pt" id="1860">Zip</tspan></text><ellipse id="1862" cy="15.00" cx="15.00" transform="&E28;" rx="15.00" ry="15.00" style="&E19;" /><path d="&E20;" style="&E7;" transform="&E28;" id="1863" /><ellipse id="1864" cy="23.75" cx="405.00" rx="3.75" ry="3.75" style="&E25;" /><ellipse id="1865" cy="23.75" cx="405.00" rx="3.75" ry="3.75" style="&E26;" /><text id="1866" transform="&E9;" x="405.00" y="48.75" style="stroke:none;clip-path:url(#1868_text_clipper);font-family:Microsoft Sans Serif;fill:rgb(0,0,0);font-size:9.75pt;opacity:1;"><tspan dy="9.75pt" id="1870">Zip</tspan></text><line y1="223.75" style="&E1;" id="1872" x2="447.50" y2="223.75" x1="400.00" /><ellipse id="1873" cy="15.00" cx="15.00" transform="&E30;" rx="15.00" ry="15.00" style="&E31;" /><ellipse id="1874" cy="20.29" cx="14.72" transform="&E30;" rx="2.40" ry="2.40" style="&E26;" /><path d="&E32;" style="&E33;" transform="&E30;" id="1875" /><text id="1876" transform="&E9;" x="405.00" y="348.75" style="stroke:none;clip-path:url(#1878_text_clipper);font-family:Microsoft Sans Serif;fill:rgb(0,0,0);font-size:9.75pt;opacity:1;"><tspan dy="9.75pt" id="1880">Format</tspan></text><ellipse id="1882" cy="15.00" cx="15.00" transform="&E35;" rx="15.00" ry="15.00" style="&E31;" /><path style="&E33;" transform="&E35;" id="1883" d="M 16.849 10.062 23.4027 10.062 M 16.6038 19.6084 23.3505 19.6084 M 12.3075 17.1615 7.5719 21.8971 M 7.577335 17.152 12.31704 21.8917 M 6.564136 10.0047 13.30904 10.0047 M 9.936636 6.6288 9.936636 13.3806 " /><ellipse id="1884" cy="16.33" cx="19.93" transform="&E35;" rx="1.30" ry="1.30" style="&E26;" /><ellipse id="1885" cy="22.83" cx="19.93" transform="&E35;" rx="1.30" ry="1.30" style="&E26;" /><text id="1886" transform="&E9;" x="305.00" y="48.75" style="stroke:none;clip-path:url(#1888_text_clipper);font-family:Microsoft Sans Serif;fill:rgb(0,0,0);font-size:9.75pt;opacity:1;"><tspan dy="9.75pt" id="1890">Index</tspan></text><line y1="123.75" style="&E1;" id="1892" x2="347.50" y2="123.75" x1="300.00" /><line y1="223.75" style="&E1;" id="1893" x2="347.50" y2="223.75" x1="300.00" /><ellipse id="1894" cy="15.00" cx="15.00" transform="&E38;" rx="15.00" ry="15.00" style="&E19;" /><ellipse id="1895" cy="20.29" cx="14.72" transform="&E38;" rx="2.40" ry="2.40" style="&E26;" /><path d="&E32;" style="&E33;" transform="&E38;" id="1896" /><text id="1897" transform="&E9;" x="305.00" y="348.75" style="stroke:none;clip-path:url(#1899_text_clipper);font-family:Microsoft Sans Serif;fill:rgb(0,0,0);font-size:9.75pt;opacity:1;"><tspan dy="9.75pt" id="1901">Parse</tspan></text><ellipse id="1903" cy="15.00" cx="15.00" transform="&E40;" rx="15.00" ry="15.00" style="&E31;" /><path d="&E41;" style="&E7;" transform="&E40;" id="1904" /><path d="&E42;" style="&E7;" transform="&E40;" id="1905" /><path d="&E43;" style="&E33;" transform="&E40;" id="1906" /><text id="1907" transform="&E9;" x="205.00" y="48.75" style="stroke:none;clip-path:url(#1909_text_clipper);font-family:Microsoft Sans Serif;fill:rgb(0,0,0);font-size:9.75pt;opacity:1;"><tspan dy="9.75pt" id="1911">Address</tspan></text><ellipse id="1913" cy="15.00" cx="15.00" transform="&E45;" rx="15.00" ry="15.00" style="&E31;" /><path d="&E41;" style="&E7;" transform="&E45;" id="1914" /><path d="&E42;" style="&E7;" transform="&E45;" id="1915" /><path d="&E43;" style="&E33;" transform="&E45;" id="1916" /><text id="1917" transform="&E9;" x="205.00" y="348.75" style="stroke:none;clip-path:url(#1919_text_clipper);font-family:Microsoft Sans Serif;fill:rgb(0,0,0);font-size:9.75pt;opacity:1;"><tspan dy="9.75pt" id="1921">Message</tspan></text><path d="&E47;" style="&E3;" transform="&E48;" id="1923" /><ellipse id="1924" cy="15.00" cx="15.00" transform="&E48;" rx="15.00" ry="15.00" style="&E49;" /><text id="1925" transform="&E9;" x="105.00" y="48.75" style="stroke:none;clip-path:url(#1927_text_clipper);font-family:Microsoft Sans Serif;fill:rgb(0,0,0);font-size:9.75pt;opacity:1;"><tspan dy="9.75pt" id="1929">Router</tspan></text><path d="&E47;" style="&E3;" transform="&E51;" id="1931" /><ellipse id="1932" cy="15.00" cx="15.00" transform="&E51;" rx="15.00" ry="15.00" style="&E49;" /><path d="&E6;" style="&E7;" transform="&E51;" id="1933" /><text id="1934" transform="&E9;" x="5.00" y="48.75" style="stroke:none;clip-path:url(#1936_text_clipper);font-family:Microsoft Sans Serif;fill:rgb(0,0,0);font-size:9.75pt;opacity:1;"><tspan dy="9.75pt" id="1938">Server</tspan></text><text id="1940" transform="&E9;" x="5.00" y="63.46" style="stroke:none;clip-path:url(#1942_text_clipper);font-family:Microsoft Sans Serif;fill:rgb(0,0,0);font-size:9.75pt;opacity:1;"><tspan dy="9.75pt" id="1944">Messages</tspan></text></g><defs id="clips_hatches_and_gradients"><clipPath id="1801_text_clipper"><rect x="605.00" y="48.75" width="67.59" height="32.68" id="1802" /></clipPath><clipPath id="1807_text_clipper"><rect x="605.00" y="63.46" width="67.59" height="32.68" id="1808" /></clipPath><clipPath id="1816_text_clipper"><rect x="605.00" y="148.75" width="86.19" height="16.34" id="1817" /></clipPath><clipPath id="1826_text_clipper"><rect x="605.00" y="248.75" width="65.36" height="32.68" id="1827" /></clipPath><clipPath id="1832_text_clipper"><rect x="605.00" y="263.46" width="65.36" height="32.68" id="1833" /></clipPath><clipPath id="1840_text_clipper"><rect x="505.00" y="48.75" width="64.01" height="16.34" id="1841" /></clipPath><clipPath id="1848_text_clipper"><rect x="505.00" y="148.75" width="30.46" height="16.34" id="1849" /></clipPath><clipPath id="1858_text_clipper"><rect x="505.00" y="248.75" width="23.01" height="16.34" id="1859" /></clipPath><clipPath id="1868_text_clipper"><rect x="405.00" y="48.75" width="23.01" height="16.34" id="1869" /></clipPath><clipPath id="1878_text_clipper"><rect x="405.00" y="348.75" width="46.74" height="16.34" id="1879" /></clipPath><clipPath id="1888_text_clipper"><rect x="305.00" y="48.75" width="37.09" height="16.34" id="1889" /></clipPath><clipPath id="1899_text_clipper"><rect x="305.00" y="348.75" width="39.31" height="16.34" id="1900" /></clipPath><clipPath id="1909_text_clipper"><rect x="205.00" y="48.75" width="53.45" height="16.34" id="1910" /></clipPath><clipPath id="1919_text_clipper"><rect x="205.00" y="348.75" width="58.66" height="16.34" id="1920" /></clipPath><clipPath id="1927_text_clipper"><rect x="105.00" y="48.75" width="44.51" height="16.34" id="1928" /></clipPath><clipPath id="1936_text_clipper"><rect x="5.00" y="48.75" width="65.36" height="32.68" id="1937" /></clipPath><clipPath id="1942_text_clipper"><rect x="5.00" y="63.46" width="65.36" height="32.68" id="1943" /></clipPath></defs></svg>